%TF.GenerationSoftware,KiCad,Pcbnew,(7.0.0)*%
%TF.CreationDate,2023-05-12T10:51:10+02:00*%
%TF.ProjectId,Cell_holder_board,43656c6c-5f68-46f6-9c64-65725f626f61,rev?*%
%TF.SameCoordinates,Original*%
%TF.FileFunction,Drillmap*%
%TF.FilePolarity,Positive*%
%FSLAX45Y45*%
G04 Gerber Fmt 4.5, Leading zero omitted, Abs format (unit mm)*
G04 Created by KiCad (PCBNEW (7.0.0)) date 2023-05-12 10:51:10*
%MOMM*%
%LPD*%
G01*
G04 APERTURE LIST*
%ADD10C,0.100000*%
%ADD11C,0.200000*%
%ADD12C,0.400000*%
G04 APERTURE END LIST*
D10*
X5100000Y-5900000D02*
X15200000Y-5900000D01*
X15200000Y-5900000D02*
X15200000Y-16000000D01*
X15200000Y-16000000D02*
X5100000Y-16000000D01*
X5100000Y-16000000D02*
X5100000Y-5900000D01*
D11*
D12*
X5300000Y-6100000D02*
X5700000Y-6500000D01*
X5700000Y-6100000D02*
X5300000Y-6500000D01*
X5300000Y-15400000D02*
X5700000Y-15800000D01*
X5700000Y-15400000D02*
X5300000Y-15800000D01*
X14600000Y-6100000D02*
X15000000Y-6500000D01*
X15000000Y-6100000D02*
X14600000Y-6500000D01*
X14600000Y-15400000D02*
X15000000Y-15800000D01*
X15000000Y-15400000D02*
X14600000Y-15800000D01*
D11*
X5342619Y-16298476D02*
X5342619Y-16098476D01*
X5342619Y-16098476D02*
X5390238Y-16098476D01*
X5390238Y-16098476D02*
X5418810Y-16108000D01*
X5418810Y-16108000D02*
X5437857Y-16127048D01*
X5437857Y-16127048D02*
X5447381Y-16146095D01*
X5447381Y-16146095D02*
X5456905Y-16184190D01*
X5456905Y-16184190D02*
X5456905Y-16212762D01*
X5456905Y-16212762D02*
X5447381Y-16250857D01*
X5447381Y-16250857D02*
X5437857Y-16269905D01*
X5437857Y-16269905D02*
X5418810Y-16288952D01*
X5418810Y-16288952D02*
X5390238Y-16298476D01*
X5390238Y-16298476D02*
X5342619Y-16298476D01*
X5542619Y-16298476D02*
X5542619Y-16165143D01*
X5542619Y-16203238D02*
X5552143Y-16184190D01*
X5552143Y-16184190D02*
X5561667Y-16174667D01*
X5561667Y-16174667D02*
X5580714Y-16165143D01*
X5580714Y-16165143D02*
X5599762Y-16165143D01*
X5666428Y-16298476D02*
X5666428Y-16165143D01*
X5666428Y-16098476D02*
X5656905Y-16108000D01*
X5656905Y-16108000D02*
X5666428Y-16117524D01*
X5666428Y-16117524D02*
X5675952Y-16108000D01*
X5675952Y-16108000D02*
X5666428Y-16098476D01*
X5666428Y-16098476D02*
X5666428Y-16117524D01*
X5790238Y-16298476D02*
X5771190Y-16288952D01*
X5771190Y-16288952D02*
X5761667Y-16269905D01*
X5761667Y-16269905D02*
X5761667Y-16098476D01*
X5895000Y-16298476D02*
X5875952Y-16288952D01*
X5875952Y-16288952D02*
X5866428Y-16269905D01*
X5866428Y-16269905D02*
X5866428Y-16098476D01*
X6091190Y-16298476D02*
X6091190Y-16098476D01*
X6091190Y-16098476D02*
X6157857Y-16241333D01*
X6157857Y-16241333D02*
X6224524Y-16098476D01*
X6224524Y-16098476D02*
X6224524Y-16298476D01*
X6405476Y-16298476D02*
X6405476Y-16193714D01*
X6405476Y-16193714D02*
X6395952Y-16174667D01*
X6395952Y-16174667D02*
X6376905Y-16165143D01*
X6376905Y-16165143D02*
X6338809Y-16165143D01*
X6338809Y-16165143D02*
X6319762Y-16174667D01*
X6405476Y-16288952D02*
X6386428Y-16298476D01*
X6386428Y-16298476D02*
X6338809Y-16298476D01*
X6338809Y-16298476D02*
X6319762Y-16288952D01*
X6319762Y-16288952D02*
X6310238Y-16269905D01*
X6310238Y-16269905D02*
X6310238Y-16250857D01*
X6310238Y-16250857D02*
X6319762Y-16231809D01*
X6319762Y-16231809D02*
X6338809Y-16222286D01*
X6338809Y-16222286D02*
X6386428Y-16222286D01*
X6386428Y-16222286D02*
X6405476Y-16212762D01*
X6500714Y-16165143D02*
X6500714Y-16365143D01*
X6500714Y-16174667D02*
X6519762Y-16165143D01*
X6519762Y-16165143D02*
X6557857Y-16165143D01*
X6557857Y-16165143D02*
X6576905Y-16174667D01*
X6576905Y-16174667D02*
X6586428Y-16184190D01*
X6586428Y-16184190D02*
X6595952Y-16203238D01*
X6595952Y-16203238D02*
X6595952Y-16260381D01*
X6595952Y-16260381D02*
X6586428Y-16279428D01*
X6586428Y-16279428D02*
X6576905Y-16288952D01*
X6576905Y-16288952D02*
X6557857Y-16298476D01*
X6557857Y-16298476D02*
X6519762Y-16298476D01*
X6519762Y-16298476D02*
X6500714Y-16288952D01*
X6681667Y-16279428D02*
X6691190Y-16288952D01*
X6691190Y-16288952D02*
X6681667Y-16298476D01*
X6681667Y-16298476D02*
X6672143Y-16288952D01*
X6672143Y-16288952D02*
X6681667Y-16279428D01*
X6681667Y-16279428D02*
X6681667Y-16298476D01*
X6681667Y-16174667D02*
X6691190Y-16184190D01*
X6691190Y-16184190D02*
X6681667Y-16193714D01*
X6681667Y-16193714D02*
X6672143Y-16184190D01*
X6672143Y-16184190D02*
X6681667Y-16174667D01*
X6681667Y-16174667D02*
X6681667Y-16193714D01*
X4895000Y-16545000D02*
X5095000Y-16745000D01*
X5095000Y-16545000D02*
X4895000Y-16745000D01*
X5428333Y-16585143D02*
X5428333Y-16718476D01*
X5380714Y-16508952D02*
X5333095Y-16651809D01*
X5333095Y-16651809D02*
X5456905Y-16651809D01*
X5533095Y-16699428D02*
X5542619Y-16708952D01*
X5542619Y-16708952D02*
X5533095Y-16718476D01*
X5533095Y-16718476D02*
X5523571Y-16708952D01*
X5523571Y-16708952D02*
X5533095Y-16699428D01*
X5533095Y-16699428D02*
X5533095Y-16718476D01*
X5666428Y-16518476D02*
X5685476Y-16518476D01*
X5685476Y-16518476D02*
X5704524Y-16528000D01*
X5704524Y-16528000D02*
X5714048Y-16537524D01*
X5714048Y-16537524D02*
X5723571Y-16556571D01*
X5723571Y-16556571D02*
X5733095Y-16594667D01*
X5733095Y-16594667D02*
X5733095Y-16642286D01*
X5733095Y-16642286D02*
X5723571Y-16680381D01*
X5723571Y-16680381D02*
X5714048Y-16699428D01*
X5714048Y-16699428D02*
X5704524Y-16708952D01*
X5704524Y-16708952D02*
X5685476Y-16718476D01*
X5685476Y-16718476D02*
X5666428Y-16718476D01*
X5666428Y-16718476D02*
X5647381Y-16708952D01*
X5647381Y-16708952D02*
X5637857Y-16699428D01*
X5637857Y-16699428D02*
X5628333Y-16680381D01*
X5628333Y-16680381D02*
X5618809Y-16642286D01*
X5618809Y-16642286D02*
X5618809Y-16594667D01*
X5618809Y-16594667D02*
X5628333Y-16556571D01*
X5628333Y-16556571D02*
X5637857Y-16537524D01*
X5637857Y-16537524D02*
X5647381Y-16528000D01*
X5647381Y-16528000D02*
X5666428Y-16518476D01*
X5856905Y-16518476D02*
X5875952Y-16518476D01*
X5875952Y-16518476D02*
X5895000Y-16528000D01*
X5895000Y-16528000D02*
X5904524Y-16537524D01*
X5904524Y-16537524D02*
X5914048Y-16556571D01*
X5914048Y-16556571D02*
X5923571Y-16594667D01*
X5923571Y-16594667D02*
X5923571Y-16642286D01*
X5923571Y-16642286D02*
X5914048Y-16680381D01*
X5914048Y-16680381D02*
X5904524Y-16699428D01*
X5904524Y-16699428D02*
X5895000Y-16708952D01*
X5895000Y-16708952D02*
X5875952Y-16718476D01*
X5875952Y-16718476D02*
X5856905Y-16718476D01*
X5856905Y-16718476D02*
X5837857Y-16708952D01*
X5837857Y-16708952D02*
X5828333Y-16699428D01*
X5828333Y-16699428D02*
X5818809Y-16680381D01*
X5818809Y-16680381D02*
X5809286Y-16642286D01*
X5809286Y-16642286D02*
X5809286Y-16594667D01*
X5809286Y-16594667D02*
X5818809Y-16556571D01*
X5818809Y-16556571D02*
X5828333Y-16537524D01*
X5828333Y-16537524D02*
X5837857Y-16528000D01*
X5837857Y-16528000D02*
X5856905Y-16518476D01*
X6047381Y-16518476D02*
X6066429Y-16518476D01*
X6066429Y-16518476D02*
X6085476Y-16528000D01*
X6085476Y-16528000D02*
X6095000Y-16537524D01*
X6095000Y-16537524D02*
X6104524Y-16556571D01*
X6104524Y-16556571D02*
X6114048Y-16594667D01*
X6114048Y-16594667D02*
X6114048Y-16642286D01*
X6114048Y-16642286D02*
X6104524Y-16680381D01*
X6104524Y-16680381D02*
X6095000Y-16699428D01*
X6095000Y-16699428D02*
X6085476Y-16708952D01*
X6085476Y-16708952D02*
X6066429Y-16718476D01*
X6066429Y-16718476D02*
X6047381Y-16718476D01*
X6047381Y-16718476D02*
X6028333Y-16708952D01*
X6028333Y-16708952D02*
X6018809Y-16699428D01*
X6018809Y-16699428D02*
X6009286Y-16680381D01*
X6009286Y-16680381D02*
X5999762Y-16642286D01*
X5999762Y-16642286D02*
X5999762Y-16594667D01*
X5999762Y-16594667D02*
X6009286Y-16556571D01*
X6009286Y-16556571D02*
X6018809Y-16537524D01*
X6018809Y-16537524D02*
X6028333Y-16528000D01*
X6028333Y-16528000D02*
X6047381Y-16518476D01*
X6199762Y-16718476D02*
X6199762Y-16585143D01*
X6199762Y-16604190D02*
X6209286Y-16594667D01*
X6209286Y-16594667D02*
X6228333Y-16585143D01*
X6228333Y-16585143D02*
X6256905Y-16585143D01*
X6256905Y-16585143D02*
X6275952Y-16594667D01*
X6275952Y-16594667D02*
X6285476Y-16613714D01*
X6285476Y-16613714D02*
X6285476Y-16718476D01*
X6285476Y-16613714D02*
X6295000Y-16594667D01*
X6295000Y-16594667D02*
X6314048Y-16585143D01*
X6314048Y-16585143D02*
X6342619Y-16585143D01*
X6342619Y-16585143D02*
X6361667Y-16594667D01*
X6361667Y-16594667D02*
X6371190Y-16613714D01*
X6371190Y-16613714D02*
X6371190Y-16718476D01*
X6466429Y-16718476D02*
X6466429Y-16585143D01*
X6466429Y-16604190D02*
X6475952Y-16594667D01*
X6475952Y-16594667D02*
X6495000Y-16585143D01*
X6495000Y-16585143D02*
X6523571Y-16585143D01*
X6523571Y-16585143D02*
X6542619Y-16594667D01*
X6542619Y-16594667D02*
X6552143Y-16613714D01*
X6552143Y-16613714D02*
X6552143Y-16718476D01*
X6552143Y-16613714D02*
X6561667Y-16594667D01*
X6561667Y-16594667D02*
X6580714Y-16585143D01*
X6580714Y-16585143D02*
X6609286Y-16585143D01*
X6609286Y-16585143D02*
X6628333Y-16594667D01*
X6628333Y-16594667D02*
X6637857Y-16613714D01*
X6637857Y-16613714D02*
X6637857Y-16718476D01*
X6995952Y-16508952D02*
X6824524Y-16766095D01*
X7220714Y-16518476D02*
X7239762Y-16518476D01*
X7239762Y-16518476D02*
X7258810Y-16528000D01*
X7258810Y-16528000D02*
X7268333Y-16537524D01*
X7268333Y-16537524D02*
X7277857Y-16556571D01*
X7277857Y-16556571D02*
X7287381Y-16594667D01*
X7287381Y-16594667D02*
X7287381Y-16642286D01*
X7287381Y-16642286D02*
X7277857Y-16680381D01*
X7277857Y-16680381D02*
X7268333Y-16699428D01*
X7268333Y-16699428D02*
X7258810Y-16708952D01*
X7258810Y-16708952D02*
X7239762Y-16718476D01*
X7239762Y-16718476D02*
X7220714Y-16718476D01*
X7220714Y-16718476D02*
X7201667Y-16708952D01*
X7201667Y-16708952D02*
X7192143Y-16699428D01*
X7192143Y-16699428D02*
X7182619Y-16680381D01*
X7182619Y-16680381D02*
X7173095Y-16642286D01*
X7173095Y-16642286D02*
X7173095Y-16594667D01*
X7173095Y-16594667D02*
X7182619Y-16556571D01*
X7182619Y-16556571D02*
X7192143Y-16537524D01*
X7192143Y-16537524D02*
X7201667Y-16528000D01*
X7201667Y-16528000D02*
X7220714Y-16518476D01*
X7373095Y-16699428D02*
X7382619Y-16708952D01*
X7382619Y-16708952D02*
X7373095Y-16718476D01*
X7373095Y-16718476D02*
X7363571Y-16708952D01*
X7363571Y-16708952D02*
X7373095Y-16699428D01*
X7373095Y-16699428D02*
X7373095Y-16718476D01*
X7573095Y-16718476D02*
X7458810Y-16718476D01*
X7515952Y-16718476D02*
X7515952Y-16518476D01*
X7515952Y-16518476D02*
X7496905Y-16547048D01*
X7496905Y-16547048D02*
X7477857Y-16566095D01*
X7477857Y-16566095D02*
X7458810Y-16575619D01*
X7754048Y-16518476D02*
X7658810Y-16518476D01*
X7658810Y-16518476D02*
X7649286Y-16613714D01*
X7649286Y-16613714D02*
X7658810Y-16604190D01*
X7658810Y-16604190D02*
X7677857Y-16594667D01*
X7677857Y-16594667D02*
X7725476Y-16594667D01*
X7725476Y-16594667D02*
X7744524Y-16604190D01*
X7744524Y-16604190D02*
X7754048Y-16613714D01*
X7754048Y-16613714D02*
X7763571Y-16632762D01*
X7763571Y-16632762D02*
X7763571Y-16680381D01*
X7763571Y-16680381D02*
X7754048Y-16699428D01*
X7754048Y-16699428D02*
X7744524Y-16708952D01*
X7744524Y-16708952D02*
X7725476Y-16718476D01*
X7725476Y-16718476D02*
X7677857Y-16718476D01*
X7677857Y-16718476D02*
X7658810Y-16708952D01*
X7658810Y-16708952D02*
X7649286Y-16699428D01*
X7830238Y-16518476D02*
X7963571Y-16518476D01*
X7963571Y-16518476D02*
X7877857Y-16718476D01*
X8135000Y-16518476D02*
X8039762Y-16518476D01*
X8039762Y-16518476D02*
X8030238Y-16613714D01*
X8030238Y-16613714D02*
X8039762Y-16604190D01*
X8039762Y-16604190D02*
X8058810Y-16594667D01*
X8058810Y-16594667D02*
X8106429Y-16594667D01*
X8106429Y-16594667D02*
X8125476Y-16604190D01*
X8125476Y-16604190D02*
X8135000Y-16613714D01*
X8135000Y-16613714D02*
X8144524Y-16632762D01*
X8144524Y-16632762D02*
X8144524Y-16680381D01*
X8144524Y-16680381D02*
X8135000Y-16699428D01*
X8135000Y-16699428D02*
X8125476Y-16708952D01*
X8125476Y-16708952D02*
X8106429Y-16718476D01*
X8106429Y-16718476D02*
X8058810Y-16718476D01*
X8058810Y-16718476D02*
X8039762Y-16708952D01*
X8039762Y-16708952D02*
X8030238Y-16699428D01*
X8220714Y-16518476D02*
X8220714Y-16556571D01*
X8296905Y-16518476D02*
X8296905Y-16556571D01*
X8559762Y-16794667D02*
X8550238Y-16785143D01*
X8550238Y-16785143D02*
X8531191Y-16756571D01*
X8531191Y-16756571D02*
X8521667Y-16737524D01*
X8521667Y-16737524D02*
X8512143Y-16708952D01*
X8512143Y-16708952D02*
X8502619Y-16661333D01*
X8502619Y-16661333D02*
X8502619Y-16623238D01*
X8502619Y-16623238D02*
X8512143Y-16575619D01*
X8512143Y-16575619D02*
X8521667Y-16547048D01*
X8521667Y-16547048D02*
X8531191Y-16528000D01*
X8531191Y-16528000D02*
X8550238Y-16499428D01*
X8550238Y-16499428D02*
X8559762Y-16489905D01*
X8721667Y-16585143D02*
X8721667Y-16718476D01*
X8674048Y-16508952D02*
X8626429Y-16651809D01*
X8626429Y-16651809D02*
X8750238Y-16651809D01*
X8946429Y-16718476D02*
X8946429Y-16518476D01*
X9032143Y-16718476D02*
X9032143Y-16613714D01*
X9032143Y-16613714D02*
X9022619Y-16594667D01*
X9022619Y-16594667D02*
X9003572Y-16585143D01*
X9003572Y-16585143D02*
X8975000Y-16585143D01*
X8975000Y-16585143D02*
X8955953Y-16594667D01*
X8955953Y-16594667D02*
X8946429Y-16604190D01*
X9155953Y-16718476D02*
X9136905Y-16708952D01*
X9136905Y-16708952D02*
X9127381Y-16699428D01*
X9127381Y-16699428D02*
X9117857Y-16680381D01*
X9117857Y-16680381D02*
X9117857Y-16623238D01*
X9117857Y-16623238D02*
X9127381Y-16604190D01*
X9127381Y-16604190D02*
X9136905Y-16594667D01*
X9136905Y-16594667D02*
X9155953Y-16585143D01*
X9155953Y-16585143D02*
X9184524Y-16585143D01*
X9184524Y-16585143D02*
X9203572Y-16594667D01*
X9203572Y-16594667D02*
X9213095Y-16604190D01*
X9213095Y-16604190D02*
X9222619Y-16623238D01*
X9222619Y-16623238D02*
X9222619Y-16680381D01*
X9222619Y-16680381D02*
X9213095Y-16699428D01*
X9213095Y-16699428D02*
X9203572Y-16708952D01*
X9203572Y-16708952D02*
X9184524Y-16718476D01*
X9184524Y-16718476D02*
X9155953Y-16718476D01*
X9336905Y-16718476D02*
X9317857Y-16708952D01*
X9317857Y-16708952D02*
X9308334Y-16689905D01*
X9308334Y-16689905D02*
X9308334Y-16518476D01*
X9489286Y-16708952D02*
X9470238Y-16718476D01*
X9470238Y-16718476D02*
X9432143Y-16718476D01*
X9432143Y-16718476D02*
X9413095Y-16708952D01*
X9413095Y-16708952D02*
X9403572Y-16689905D01*
X9403572Y-16689905D02*
X9403572Y-16613714D01*
X9403572Y-16613714D02*
X9413095Y-16594667D01*
X9413095Y-16594667D02*
X9432143Y-16585143D01*
X9432143Y-16585143D02*
X9470238Y-16585143D01*
X9470238Y-16585143D02*
X9489286Y-16594667D01*
X9489286Y-16594667D02*
X9498810Y-16613714D01*
X9498810Y-16613714D02*
X9498810Y-16632762D01*
X9498810Y-16632762D02*
X9403572Y-16651809D01*
X9575000Y-16708952D02*
X9594048Y-16718476D01*
X9594048Y-16718476D02*
X9632143Y-16718476D01*
X9632143Y-16718476D02*
X9651191Y-16708952D01*
X9651191Y-16708952D02*
X9660715Y-16689905D01*
X9660715Y-16689905D02*
X9660715Y-16680381D01*
X9660715Y-16680381D02*
X9651191Y-16661333D01*
X9651191Y-16661333D02*
X9632143Y-16651809D01*
X9632143Y-16651809D02*
X9603572Y-16651809D01*
X9603572Y-16651809D02*
X9584524Y-16642286D01*
X9584524Y-16642286D02*
X9575000Y-16623238D01*
X9575000Y-16623238D02*
X9575000Y-16613714D01*
X9575000Y-16613714D02*
X9584524Y-16594667D01*
X9584524Y-16594667D02*
X9603572Y-16585143D01*
X9603572Y-16585143D02*
X9632143Y-16585143D01*
X9632143Y-16585143D02*
X9651191Y-16594667D01*
X9727381Y-16794667D02*
X9736905Y-16785143D01*
X9736905Y-16785143D02*
X9755953Y-16756571D01*
X9755953Y-16756571D02*
X9765476Y-16737524D01*
X9765476Y-16737524D02*
X9775000Y-16708952D01*
X9775000Y-16708952D02*
X9784524Y-16661333D01*
X9784524Y-16661333D02*
X9784524Y-16623238D01*
X9784524Y-16623238D02*
X9775000Y-16575619D01*
X9775000Y-16575619D02*
X9765476Y-16547048D01*
X9765476Y-16547048D02*
X9755953Y-16528000D01*
X9755953Y-16528000D02*
X9736905Y-16499428D01*
X9736905Y-16499428D02*
X9727381Y-16489905D01*
X10056905Y-16794667D02*
X10047381Y-16785143D01*
X10047381Y-16785143D02*
X10028334Y-16756571D01*
X10028334Y-16756571D02*
X10018810Y-16737524D01*
X10018810Y-16737524D02*
X10009286Y-16708952D01*
X10009286Y-16708952D02*
X9999762Y-16661333D01*
X9999762Y-16661333D02*
X9999762Y-16623238D01*
X9999762Y-16623238D02*
X10009286Y-16575619D01*
X10009286Y-16575619D02*
X10018810Y-16547048D01*
X10018810Y-16547048D02*
X10028334Y-16528000D01*
X10028334Y-16528000D02*
X10047381Y-16499428D01*
X10047381Y-16499428D02*
X10056905Y-16489905D01*
X10133095Y-16585143D02*
X10133095Y-16718476D01*
X10133095Y-16604190D02*
X10142619Y-16594667D01*
X10142619Y-16594667D02*
X10161667Y-16585143D01*
X10161667Y-16585143D02*
X10190238Y-16585143D01*
X10190238Y-16585143D02*
X10209286Y-16594667D01*
X10209286Y-16594667D02*
X10218810Y-16613714D01*
X10218810Y-16613714D02*
X10218810Y-16718476D01*
X10342619Y-16718476D02*
X10323572Y-16708952D01*
X10323572Y-16708952D02*
X10314048Y-16699428D01*
X10314048Y-16699428D02*
X10304524Y-16680381D01*
X10304524Y-16680381D02*
X10304524Y-16623238D01*
X10304524Y-16623238D02*
X10314048Y-16604190D01*
X10314048Y-16604190D02*
X10323572Y-16594667D01*
X10323572Y-16594667D02*
X10342619Y-16585143D01*
X10342619Y-16585143D02*
X10371191Y-16585143D01*
X10371191Y-16585143D02*
X10390238Y-16594667D01*
X10390238Y-16594667D02*
X10399762Y-16604190D01*
X10399762Y-16604190D02*
X10409286Y-16623238D01*
X10409286Y-16623238D02*
X10409286Y-16680381D01*
X10409286Y-16680381D02*
X10399762Y-16699428D01*
X10399762Y-16699428D02*
X10390238Y-16708952D01*
X10390238Y-16708952D02*
X10371191Y-16718476D01*
X10371191Y-16718476D02*
X10342619Y-16718476D01*
X10466429Y-16585143D02*
X10542619Y-16585143D01*
X10495000Y-16518476D02*
X10495000Y-16689905D01*
X10495000Y-16689905D02*
X10504524Y-16708952D01*
X10504524Y-16708952D02*
X10523572Y-16718476D01*
X10523572Y-16718476D02*
X10542619Y-16718476D01*
X10729286Y-16585143D02*
X10729286Y-16785143D01*
X10729286Y-16594667D02*
X10748334Y-16585143D01*
X10748334Y-16585143D02*
X10786429Y-16585143D01*
X10786429Y-16585143D02*
X10805476Y-16594667D01*
X10805476Y-16594667D02*
X10815000Y-16604190D01*
X10815000Y-16604190D02*
X10824524Y-16623238D01*
X10824524Y-16623238D02*
X10824524Y-16680381D01*
X10824524Y-16680381D02*
X10815000Y-16699428D01*
X10815000Y-16699428D02*
X10805476Y-16708952D01*
X10805476Y-16708952D02*
X10786429Y-16718476D01*
X10786429Y-16718476D02*
X10748334Y-16718476D01*
X10748334Y-16718476D02*
X10729286Y-16708952D01*
X10938810Y-16718476D02*
X10919762Y-16708952D01*
X10919762Y-16708952D02*
X10910238Y-16689905D01*
X10910238Y-16689905D02*
X10910238Y-16518476D01*
X11100715Y-16718476D02*
X11100715Y-16613714D01*
X11100715Y-16613714D02*
X11091191Y-16594667D01*
X11091191Y-16594667D02*
X11072143Y-16585143D01*
X11072143Y-16585143D02*
X11034048Y-16585143D01*
X11034048Y-16585143D02*
X11015000Y-16594667D01*
X11100715Y-16708952D02*
X11081667Y-16718476D01*
X11081667Y-16718476D02*
X11034048Y-16718476D01*
X11034048Y-16718476D02*
X11015000Y-16708952D01*
X11015000Y-16708952D02*
X11005476Y-16689905D01*
X11005476Y-16689905D02*
X11005476Y-16670857D01*
X11005476Y-16670857D02*
X11015000Y-16651809D01*
X11015000Y-16651809D02*
X11034048Y-16642286D01*
X11034048Y-16642286D02*
X11081667Y-16642286D01*
X11081667Y-16642286D02*
X11100715Y-16632762D01*
X11167381Y-16585143D02*
X11243572Y-16585143D01*
X11195953Y-16518476D02*
X11195953Y-16689905D01*
X11195953Y-16689905D02*
X11205476Y-16708952D01*
X11205476Y-16708952D02*
X11224524Y-16718476D01*
X11224524Y-16718476D02*
X11243572Y-16718476D01*
X11386429Y-16708952D02*
X11367381Y-16718476D01*
X11367381Y-16718476D02*
X11329286Y-16718476D01*
X11329286Y-16718476D02*
X11310238Y-16708952D01*
X11310238Y-16708952D02*
X11300714Y-16689905D01*
X11300714Y-16689905D02*
X11300714Y-16613714D01*
X11300714Y-16613714D02*
X11310238Y-16594667D01*
X11310238Y-16594667D02*
X11329286Y-16585143D01*
X11329286Y-16585143D02*
X11367381Y-16585143D01*
X11367381Y-16585143D02*
X11386429Y-16594667D01*
X11386429Y-16594667D02*
X11395953Y-16613714D01*
X11395953Y-16613714D02*
X11395953Y-16632762D01*
X11395953Y-16632762D02*
X11300714Y-16651809D01*
X11567381Y-16718476D02*
X11567381Y-16518476D01*
X11567381Y-16708952D02*
X11548334Y-16718476D01*
X11548334Y-16718476D02*
X11510238Y-16718476D01*
X11510238Y-16718476D02*
X11491191Y-16708952D01*
X11491191Y-16708952D02*
X11481667Y-16699428D01*
X11481667Y-16699428D02*
X11472143Y-16680381D01*
X11472143Y-16680381D02*
X11472143Y-16623238D01*
X11472143Y-16623238D02*
X11481667Y-16604190D01*
X11481667Y-16604190D02*
X11491191Y-16594667D01*
X11491191Y-16594667D02*
X11510238Y-16585143D01*
X11510238Y-16585143D02*
X11548334Y-16585143D01*
X11548334Y-16585143D02*
X11567381Y-16594667D01*
X11643572Y-16794667D02*
X11653095Y-16785143D01*
X11653095Y-16785143D02*
X11672143Y-16756571D01*
X11672143Y-16756571D02*
X11681667Y-16737524D01*
X11681667Y-16737524D02*
X11691191Y-16708952D01*
X11691191Y-16708952D02*
X11700714Y-16661333D01*
X11700714Y-16661333D02*
X11700714Y-16623238D01*
X11700714Y-16623238D02*
X11691191Y-16575619D01*
X11691191Y-16575619D02*
X11681667Y-16547048D01*
X11681667Y-16547048D02*
X11672143Y-16528000D01*
X11672143Y-16528000D02*
X11653095Y-16499428D01*
X11653095Y-16499428D02*
X11643572Y-16489905D01*
M02*
