M48
; DRILL file {KiCad (7.0.0)} date Fri May 12 10:51:08 2023
; FORMAT={-:-/ absolute / metric / decimal}
; #@! TF.CreationDate,2023-05-12T10:51:08+02:00
; #@! TF.GenerationSoftware,Kicad,Pcbnew,(7.0.0)
; #@! TF.FileFunction,Plated,1,2,PTH
FMAT,2
METRIC
; #@! TA.AperFunction,Plated,PTH,ViaDrill
T1C0.300
; #@! TA.AperFunction,Plated,PTH,ViaDrill
T2C0.400
; #@! TA.AperFunction,Plated,PTH,ViaDrill
T3C0.600
; #@! TA.AperFunction,Plated,PTH,ComponentDrill
T4C0.800
; #@! TA.AperFunction,Plated,PTH,ComponentDrill
T5C1.000
; #@! TA.AperFunction,Plated,PTH,ComponentDrill
T6C1.100
; #@! TA.AperFunction,Plated,PTH,ComponentDrill
T7C1.170
; #@! TA.AperFunction,Plated,PTH,ComponentDrill
T8C1.320
; #@! TA.AperFunction,Plated,PTH,ComponentDrill
T9C1.520
; #@! TA.AperFunction,Plated,PTH,ComponentDrill
T10C2.390
; #@! TA.AperFunction,Plated,PTH,ComponentDrill
T11C3.550
%
G90
G05
T1
X83.9Y-120.0
X105.2Y-127.2
X131.0Y-112.0
X135.1Y-112.1
X137.7Y-117.5
X137.7Y-125.0
X138.3Y-139.499
X139.0Y-127.2
X139.0Y-129.7
X139.7Y-110.1
X139.8Y-138.9
X143.45Y-107.5
X144.0Y-110.2
X148.2Y-138.0
X148.2Y-140.9
T2
X108.5Y-145.9
T3
X76.8Y-151.3
X88.2Y-155.1
X105.2Y-111.0
X111.9Y-155.0
X128.017Y-150.383
X129.7Y-94.9
X129.7Y-155.51
X136.6Y-96.2
T4
X54.26Y-149.35
X56.8Y-149.35
X61.41Y-147.98
X61.41Y-158.14
X64.41Y-147.98
X64.41Y-158.14
X71.735Y-150.48
X71.735Y-158.1
X74.275Y-150.48
X74.275Y-158.1
X79.01Y-147.98
X79.01Y-158.14
X82.01Y-147.98
X82.01Y-158.14
X89.335Y-150.48
X89.335Y-158.1
X91.875Y-150.48
X91.875Y-158.1
X96.2Y-147.55
X96.2Y-150.09
X99.4Y-147.55
X99.4Y-150.09
X102.81Y-147.83
X102.81Y-157.99
X105.81Y-147.83
X105.81Y-157.99
X113.135Y-150.33
X113.135Y-157.95
X115.675Y-150.33
X115.675Y-157.95
X120.2Y-147.8
X120.2Y-157.96
X123.2Y-147.8
X123.2Y-157.96
X130.525Y-150.3
X130.525Y-157.92
X133.065Y-150.3
X133.065Y-157.92
X137.7Y-147.5
X137.7Y-150.04
X140.125Y-98.63
X140.125Y-106.25
X142.665Y-98.63
X142.665Y-106.25
T5
X144.36Y-123.38
X144.36Y-125.92
X144.36Y-128.46
X144.36Y-131.0
X144.36Y-133.54
X144.36Y-136.08
X144.36Y-138.62
X144.36Y-141.16
X144.36Y-143.7
X144.36Y-146.24
X146.9Y-123.38
X146.9Y-125.92
X146.9Y-128.46
X146.9Y-131.0
X146.9Y-133.54
X146.9Y-136.08
X146.9Y-138.62
X146.9Y-141.16
X146.9Y-143.7
X146.9Y-146.24
T6
X148.055Y-92.01
X148.055Y-94.55
X148.055Y-97.09
X148.135Y-107.87
X148.135Y-110.41
X148.135Y-112.95
T7
X108.575Y-60.9
X108.575Y-65.9
X126.375Y-60.9
X126.375Y-65.9
T8
X62.7Y-70.69
X62.7Y-142.91
X83.933Y-70.23
X83.933Y-142.45
X105.167Y-70.69
X105.167Y-142.91
X126.4Y-70.22
X126.4Y-142.44
T9
X134.56Y-63.2
X139.64Y-63.2
X147.4Y-79.01
X147.4Y-84.09
T10
X70.7Y-70.69
X75.933Y-142.45
X113.167Y-70.69
X118.4Y-142.44
T11
X54.7Y-78.97
X70.7Y-134.17
X75.933Y-78.97
X91.933Y-134.17
X97.167Y-78.97
X113.167Y-134.17
X118.4Y-78.96
X134.4Y-134.16
T0
M30
