G04 #@! TF.GenerationSoftware,KiCad,Pcbnew,(7.0.0)*
G04 #@! TF.CreationDate,2023-05-12T10:50:57+02:00*
G04 #@! TF.ProjectId,Cell_holder_board,43656c6c-5f68-46f6-9c64-65725f626f61,rev?*
G04 #@! TF.SameCoordinates,Original*
G04 #@! TF.FileFunction,Legend,Top*
G04 #@! TF.FilePolarity,Positive*
%FSLAX46Y46*%
G04 Gerber Fmt 4.6, Leading zero omitted, Abs format (unit mm)*
G04 Created by KiCad (PCBNEW (7.0.0)) date 2023-05-12 10:50:57*
%MOMM*%
%LPD*%
G01*
G04 APERTURE LIST*
G04 Aperture macros list*
%AMRoundRect*
0 Rectangle with rounded corners*
0 $1 Rounding radius*
0 $2 $3 $4 $5 $6 $7 $8 $9 X,Y pos of 4 corners*
0 Add a 4 corners polygon primitive as box body*
4,1,4,$2,$3,$4,$5,$6,$7,$8,$9,$2,$3,0*
0 Add four circle primitives for the rounded corners*
1,1,$1+$1,$2,$3*
1,1,$1+$1,$4,$5*
1,1,$1+$1,$6,$7*
1,1,$1+$1,$8,$9*
0 Add four rect primitives between the rounded corners*
20,1,$1+$1,$2,$3,$4,$5,0*
20,1,$1+$1,$4,$5,$6,$7,0*
20,1,$1+$1,$6,$7,$8,$9,0*
20,1,$1+$1,$8,$9,$2,$3,0*%
G04 Aperture macros list end*
%ADD10C,0.300000*%
%ADD11C,0.150000*%
%ADD12C,0.254000*%
%ADD13C,0.250000*%
%ADD14C,0.120000*%
%ADD15C,0.100000*%
%ADD16C,0.010000*%
%ADD17R,1.600000X1.600000*%
%ADD18O,1.600000X1.600000*%
%ADD19RoundRect,0.250000X-0.262500X-0.450000X0.262500X-0.450000X0.262500X0.450000X-0.262500X0.450000X0*%
%ADD20RoundRect,0.150000X0.150000X-0.587500X0.150000X0.587500X-0.150000X0.587500X-0.150000X-0.587500X0*%
%ADD21C,1.600000*%
%ADD22C,7.000000*%
%ADD23RoundRect,0.250000X-1.000000X-0.650000X1.000000X-0.650000X1.000000X0.650000X-1.000000X0.650000X0*%
%ADD24R,2.000000X1.905000*%
%ADD25O,2.000000X1.905000*%
%ADD26R,3.000000X3.000000*%
%ADD27C,3.000000*%
%ADD28C,1.500000*%
%ADD29RoundRect,0.250000X0.250000X0.475000X-0.250000X0.475000X-0.250000X-0.475000X0.250000X-0.475000X0*%
%ADD30C,1.980000*%
%ADD31C,5.325000*%
%ADD32C,3.585000*%
%ADD33R,2.000000X3.000000*%
%ADD34RoundRect,0.250000X-0.600000X-0.600000X0.600000X-0.600000X0.600000X0.600000X-0.600000X0.600000X0*%
%ADD35C,1.700000*%
%ADD36RoundRect,0.150000X0.825000X0.150000X-0.825000X0.150000X-0.825000X-0.150000X0.825000X-0.150000X0*%
%ADD37RoundRect,0.250000X-0.450000X0.262500X-0.450000X-0.262500X0.450000X-0.262500X0.450000X0.262500X0*%
G04 APERTURE END LIST*
D10*
X61719047Y-62534285D02*
X61623809Y-62629523D01*
X61623809Y-62629523D02*
X61338095Y-62724761D01*
X61338095Y-62724761D02*
X61147619Y-62724761D01*
X61147619Y-62724761D02*
X60861904Y-62629523D01*
X60861904Y-62629523D02*
X60671428Y-62439047D01*
X60671428Y-62439047D02*
X60576190Y-62248571D01*
X60576190Y-62248571D02*
X60480952Y-61867619D01*
X60480952Y-61867619D02*
X60480952Y-61581904D01*
X60480952Y-61581904D02*
X60576190Y-61200952D01*
X60576190Y-61200952D02*
X60671428Y-61010476D01*
X60671428Y-61010476D02*
X60861904Y-60820000D01*
X60861904Y-60820000D02*
X61147619Y-60724761D01*
X61147619Y-60724761D02*
X61338095Y-60724761D01*
X61338095Y-60724761D02*
X61623809Y-60820000D01*
X61623809Y-60820000D02*
X61719047Y-60915238D01*
X63338095Y-62629523D02*
X63147619Y-62724761D01*
X63147619Y-62724761D02*
X62766666Y-62724761D01*
X62766666Y-62724761D02*
X62576190Y-62629523D01*
X62576190Y-62629523D02*
X62480952Y-62439047D01*
X62480952Y-62439047D02*
X62480952Y-61677142D01*
X62480952Y-61677142D02*
X62576190Y-61486666D01*
X62576190Y-61486666D02*
X62766666Y-61391428D01*
X62766666Y-61391428D02*
X63147619Y-61391428D01*
X63147619Y-61391428D02*
X63338095Y-61486666D01*
X63338095Y-61486666D02*
X63433333Y-61677142D01*
X63433333Y-61677142D02*
X63433333Y-61867619D01*
X63433333Y-61867619D02*
X62480952Y-62058095D01*
X64576190Y-62724761D02*
X64385714Y-62629523D01*
X64385714Y-62629523D02*
X64290476Y-62439047D01*
X64290476Y-62439047D02*
X64290476Y-60724761D01*
X65623809Y-62724761D02*
X65433333Y-62629523D01*
X65433333Y-62629523D02*
X65338095Y-62439047D01*
X65338095Y-62439047D02*
X65338095Y-60724761D01*
X67585714Y-62724761D02*
X67585714Y-60724761D01*
X68442857Y-62724761D02*
X68442857Y-61677142D01*
X68442857Y-61677142D02*
X68347619Y-61486666D01*
X68347619Y-61486666D02*
X68157143Y-61391428D01*
X68157143Y-61391428D02*
X67871428Y-61391428D01*
X67871428Y-61391428D02*
X67680952Y-61486666D01*
X67680952Y-61486666D02*
X67585714Y-61581904D01*
X69680952Y-62724761D02*
X69490476Y-62629523D01*
X69490476Y-62629523D02*
X69395238Y-62534285D01*
X69395238Y-62534285D02*
X69300000Y-62343809D01*
X69300000Y-62343809D02*
X69300000Y-61772380D01*
X69300000Y-61772380D02*
X69395238Y-61581904D01*
X69395238Y-61581904D02*
X69490476Y-61486666D01*
X69490476Y-61486666D02*
X69680952Y-61391428D01*
X69680952Y-61391428D02*
X69966667Y-61391428D01*
X69966667Y-61391428D02*
X70157143Y-61486666D01*
X70157143Y-61486666D02*
X70252381Y-61581904D01*
X70252381Y-61581904D02*
X70347619Y-61772380D01*
X70347619Y-61772380D02*
X70347619Y-62343809D01*
X70347619Y-62343809D02*
X70252381Y-62534285D01*
X70252381Y-62534285D02*
X70157143Y-62629523D01*
X70157143Y-62629523D02*
X69966667Y-62724761D01*
X69966667Y-62724761D02*
X69680952Y-62724761D01*
X71490476Y-62724761D02*
X71300000Y-62629523D01*
X71300000Y-62629523D02*
X71204762Y-62439047D01*
X71204762Y-62439047D02*
X71204762Y-60724761D01*
X73109524Y-62724761D02*
X73109524Y-60724761D01*
X73109524Y-62629523D02*
X72919048Y-62724761D01*
X72919048Y-62724761D02*
X72538095Y-62724761D01*
X72538095Y-62724761D02*
X72347619Y-62629523D01*
X72347619Y-62629523D02*
X72252381Y-62534285D01*
X72252381Y-62534285D02*
X72157143Y-62343809D01*
X72157143Y-62343809D02*
X72157143Y-61772380D01*
X72157143Y-61772380D02*
X72252381Y-61581904D01*
X72252381Y-61581904D02*
X72347619Y-61486666D01*
X72347619Y-61486666D02*
X72538095Y-61391428D01*
X72538095Y-61391428D02*
X72919048Y-61391428D01*
X72919048Y-61391428D02*
X73109524Y-61486666D01*
X74823810Y-62629523D02*
X74633334Y-62724761D01*
X74633334Y-62724761D02*
X74252381Y-62724761D01*
X74252381Y-62724761D02*
X74061905Y-62629523D01*
X74061905Y-62629523D02*
X73966667Y-62439047D01*
X73966667Y-62439047D02*
X73966667Y-61677142D01*
X73966667Y-61677142D02*
X74061905Y-61486666D01*
X74061905Y-61486666D02*
X74252381Y-61391428D01*
X74252381Y-61391428D02*
X74633334Y-61391428D01*
X74633334Y-61391428D02*
X74823810Y-61486666D01*
X74823810Y-61486666D02*
X74919048Y-61677142D01*
X74919048Y-61677142D02*
X74919048Y-61867619D01*
X74919048Y-61867619D02*
X73966667Y-62058095D01*
X75776191Y-62724761D02*
X75776191Y-61391428D01*
X75776191Y-61772380D02*
X75871429Y-61581904D01*
X75871429Y-61581904D02*
X75966667Y-61486666D01*
X75966667Y-61486666D02*
X76157143Y-61391428D01*
X76157143Y-61391428D02*
X76347620Y-61391428D01*
X78214286Y-62724761D02*
X78214286Y-60724761D01*
X78214286Y-61486666D02*
X78404762Y-61391428D01*
X78404762Y-61391428D02*
X78785715Y-61391428D01*
X78785715Y-61391428D02*
X78976191Y-61486666D01*
X78976191Y-61486666D02*
X79071429Y-61581904D01*
X79071429Y-61581904D02*
X79166667Y-61772380D01*
X79166667Y-61772380D02*
X79166667Y-62343809D01*
X79166667Y-62343809D02*
X79071429Y-62534285D01*
X79071429Y-62534285D02*
X78976191Y-62629523D01*
X78976191Y-62629523D02*
X78785715Y-62724761D01*
X78785715Y-62724761D02*
X78404762Y-62724761D01*
X78404762Y-62724761D02*
X78214286Y-62629523D01*
X80309524Y-62724761D02*
X80119048Y-62629523D01*
X80119048Y-62629523D02*
X80023810Y-62534285D01*
X80023810Y-62534285D02*
X79928572Y-62343809D01*
X79928572Y-62343809D02*
X79928572Y-61772380D01*
X79928572Y-61772380D02*
X80023810Y-61581904D01*
X80023810Y-61581904D02*
X80119048Y-61486666D01*
X80119048Y-61486666D02*
X80309524Y-61391428D01*
X80309524Y-61391428D02*
X80595239Y-61391428D01*
X80595239Y-61391428D02*
X80785715Y-61486666D01*
X80785715Y-61486666D02*
X80880953Y-61581904D01*
X80880953Y-61581904D02*
X80976191Y-61772380D01*
X80976191Y-61772380D02*
X80976191Y-62343809D01*
X80976191Y-62343809D02*
X80880953Y-62534285D01*
X80880953Y-62534285D02*
X80785715Y-62629523D01*
X80785715Y-62629523D02*
X80595239Y-62724761D01*
X80595239Y-62724761D02*
X80309524Y-62724761D01*
X82690477Y-62724761D02*
X82690477Y-61677142D01*
X82690477Y-61677142D02*
X82595239Y-61486666D01*
X82595239Y-61486666D02*
X82404763Y-61391428D01*
X82404763Y-61391428D02*
X82023810Y-61391428D01*
X82023810Y-61391428D02*
X81833334Y-61486666D01*
X82690477Y-62629523D02*
X82500001Y-62724761D01*
X82500001Y-62724761D02*
X82023810Y-62724761D01*
X82023810Y-62724761D02*
X81833334Y-62629523D01*
X81833334Y-62629523D02*
X81738096Y-62439047D01*
X81738096Y-62439047D02*
X81738096Y-62248571D01*
X81738096Y-62248571D02*
X81833334Y-62058095D01*
X81833334Y-62058095D02*
X82023810Y-61962857D01*
X82023810Y-61962857D02*
X82500001Y-61962857D01*
X82500001Y-61962857D02*
X82690477Y-61867619D01*
X83642858Y-62724761D02*
X83642858Y-61391428D01*
X83642858Y-61772380D02*
X83738096Y-61581904D01*
X83738096Y-61581904D02*
X83833334Y-61486666D01*
X83833334Y-61486666D02*
X84023810Y-61391428D01*
X84023810Y-61391428D02*
X84214287Y-61391428D01*
X85738096Y-62724761D02*
X85738096Y-60724761D01*
X85738096Y-62629523D02*
X85547620Y-62724761D01*
X85547620Y-62724761D02*
X85166667Y-62724761D01*
X85166667Y-62724761D02*
X84976191Y-62629523D01*
X84976191Y-62629523D02*
X84880953Y-62534285D01*
X84880953Y-62534285D02*
X84785715Y-62343809D01*
X84785715Y-62343809D02*
X84785715Y-61772380D01*
X84785715Y-61772380D02*
X84880953Y-61581904D01*
X84880953Y-61581904D02*
X84976191Y-61486666D01*
X84976191Y-61486666D02*
X85166667Y-61391428D01*
X85166667Y-61391428D02*
X85547620Y-61391428D01*
X85547620Y-61391428D02*
X85738096Y-61486666D01*
X61242857Y-64917142D02*
X61528571Y-65012380D01*
X61528571Y-65012380D02*
X61623809Y-65107619D01*
X61623809Y-65107619D02*
X61719047Y-65298095D01*
X61719047Y-65298095D02*
X61719047Y-65583809D01*
X61719047Y-65583809D02*
X61623809Y-65774285D01*
X61623809Y-65774285D02*
X61528571Y-65869523D01*
X61528571Y-65869523D02*
X61338095Y-65964761D01*
X61338095Y-65964761D02*
X60576190Y-65964761D01*
X60576190Y-65964761D02*
X60576190Y-63964761D01*
X60576190Y-63964761D02*
X61242857Y-63964761D01*
X61242857Y-63964761D02*
X61433333Y-64060000D01*
X61433333Y-64060000D02*
X61528571Y-64155238D01*
X61528571Y-64155238D02*
X61623809Y-64345714D01*
X61623809Y-64345714D02*
X61623809Y-64536190D01*
X61623809Y-64536190D02*
X61528571Y-64726666D01*
X61528571Y-64726666D02*
X61433333Y-64821904D01*
X61433333Y-64821904D02*
X61242857Y-64917142D01*
X61242857Y-64917142D02*
X60576190Y-64917142D01*
X62576190Y-65964761D02*
X62576190Y-63964761D01*
X62576190Y-63964761D02*
X63242857Y-65393333D01*
X63242857Y-65393333D02*
X63909523Y-63964761D01*
X63909523Y-63964761D02*
X63909523Y-65964761D01*
X64766666Y-65869523D02*
X65052380Y-65964761D01*
X65052380Y-65964761D02*
X65528571Y-65964761D01*
X65528571Y-65964761D02*
X65719047Y-65869523D01*
X65719047Y-65869523D02*
X65814285Y-65774285D01*
X65814285Y-65774285D02*
X65909523Y-65583809D01*
X65909523Y-65583809D02*
X65909523Y-65393333D01*
X65909523Y-65393333D02*
X65814285Y-65202857D01*
X65814285Y-65202857D02*
X65719047Y-65107619D01*
X65719047Y-65107619D02*
X65528571Y-65012380D01*
X65528571Y-65012380D02*
X65147618Y-64917142D01*
X65147618Y-64917142D02*
X64957142Y-64821904D01*
X64957142Y-64821904D02*
X64861904Y-64726666D01*
X64861904Y-64726666D02*
X64766666Y-64536190D01*
X64766666Y-64536190D02*
X64766666Y-64345714D01*
X64766666Y-64345714D02*
X64861904Y-64155238D01*
X64861904Y-64155238D02*
X64957142Y-64060000D01*
X64957142Y-64060000D02*
X65147618Y-63964761D01*
X65147618Y-63964761D02*
X65623809Y-63964761D01*
X65623809Y-63964761D02*
X65909523Y-64060000D01*
X67966666Y-65964761D02*
X67966666Y-63964761D01*
X67966666Y-63964761D02*
X68728571Y-63964761D01*
X68728571Y-63964761D02*
X68919047Y-64060000D01*
X68919047Y-64060000D02*
X69014285Y-64155238D01*
X69014285Y-64155238D02*
X69109523Y-64345714D01*
X69109523Y-64345714D02*
X69109523Y-64631428D01*
X69109523Y-64631428D02*
X69014285Y-64821904D01*
X69014285Y-64821904D02*
X68919047Y-64917142D01*
X68919047Y-64917142D02*
X68728571Y-65012380D01*
X68728571Y-65012380D02*
X67966666Y-65012380D01*
X69966666Y-65964761D02*
X69966666Y-64631428D01*
X69966666Y-65012380D02*
X70061904Y-64821904D01*
X70061904Y-64821904D02*
X70157142Y-64726666D01*
X70157142Y-64726666D02*
X70347618Y-64631428D01*
X70347618Y-64631428D02*
X70538095Y-64631428D01*
X71490475Y-65964761D02*
X71299999Y-65869523D01*
X71299999Y-65869523D02*
X71204761Y-65774285D01*
X71204761Y-65774285D02*
X71109523Y-65583809D01*
X71109523Y-65583809D02*
X71109523Y-65012380D01*
X71109523Y-65012380D02*
X71204761Y-64821904D01*
X71204761Y-64821904D02*
X71299999Y-64726666D01*
X71299999Y-64726666D02*
X71490475Y-64631428D01*
X71490475Y-64631428D02*
X71776190Y-64631428D01*
X71776190Y-64631428D02*
X71966666Y-64726666D01*
X71966666Y-64726666D02*
X72061904Y-64821904D01*
X72061904Y-64821904D02*
X72157142Y-65012380D01*
X72157142Y-65012380D02*
X72157142Y-65583809D01*
X72157142Y-65583809D02*
X72061904Y-65774285D01*
X72061904Y-65774285D02*
X71966666Y-65869523D01*
X71966666Y-65869523D02*
X71776190Y-65964761D01*
X71776190Y-65964761D02*
X71490475Y-65964761D01*
X73014285Y-64631428D02*
X73014285Y-66345714D01*
X73014285Y-66345714D02*
X72919047Y-66536190D01*
X72919047Y-66536190D02*
X72728571Y-66631428D01*
X72728571Y-66631428D02*
X72633333Y-66631428D01*
X73014285Y-63964761D02*
X72919047Y-64060000D01*
X72919047Y-64060000D02*
X73014285Y-64155238D01*
X73014285Y-64155238D02*
X73109523Y-64060000D01*
X73109523Y-64060000D02*
X73014285Y-63964761D01*
X73014285Y-63964761D02*
X73014285Y-64155238D01*
X74728571Y-65869523D02*
X74538095Y-65964761D01*
X74538095Y-65964761D02*
X74157142Y-65964761D01*
X74157142Y-65964761D02*
X73966666Y-65869523D01*
X73966666Y-65869523D02*
X73871428Y-65679047D01*
X73871428Y-65679047D02*
X73871428Y-64917142D01*
X73871428Y-64917142D02*
X73966666Y-64726666D01*
X73966666Y-64726666D02*
X74157142Y-64631428D01*
X74157142Y-64631428D02*
X74538095Y-64631428D01*
X74538095Y-64631428D02*
X74728571Y-64726666D01*
X74728571Y-64726666D02*
X74823809Y-64917142D01*
X74823809Y-64917142D02*
X74823809Y-65107619D01*
X74823809Y-65107619D02*
X73871428Y-65298095D01*
X76538095Y-65869523D02*
X76347619Y-65964761D01*
X76347619Y-65964761D02*
X75966666Y-65964761D01*
X75966666Y-65964761D02*
X75776190Y-65869523D01*
X75776190Y-65869523D02*
X75680952Y-65774285D01*
X75680952Y-65774285D02*
X75585714Y-65583809D01*
X75585714Y-65583809D02*
X75585714Y-65012380D01*
X75585714Y-65012380D02*
X75680952Y-64821904D01*
X75680952Y-64821904D02*
X75776190Y-64726666D01*
X75776190Y-64726666D02*
X75966666Y-64631428D01*
X75966666Y-64631428D02*
X76347619Y-64631428D01*
X76347619Y-64631428D02*
X76538095Y-64726666D01*
X77109524Y-64631428D02*
X77871428Y-64631428D01*
X77395238Y-63964761D02*
X77395238Y-65679047D01*
X77395238Y-65679047D02*
X77490476Y-65869523D01*
X77490476Y-65869523D02*
X77680952Y-65964761D01*
X77680952Y-65964761D02*
X77871428Y-65964761D01*
X79642857Y-65869523D02*
X79928571Y-65964761D01*
X79928571Y-65964761D02*
X80404762Y-65964761D01*
X80404762Y-65964761D02*
X80595238Y-65869523D01*
X80595238Y-65869523D02*
X80690476Y-65774285D01*
X80690476Y-65774285D02*
X80785714Y-65583809D01*
X80785714Y-65583809D02*
X80785714Y-65393333D01*
X80785714Y-65393333D02*
X80690476Y-65202857D01*
X80690476Y-65202857D02*
X80595238Y-65107619D01*
X80595238Y-65107619D02*
X80404762Y-65012380D01*
X80404762Y-65012380D02*
X80023809Y-64917142D01*
X80023809Y-64917142D02*
X79833333Y-64821904D01*
X79833333Y-64821904D02*
X79738095Y-64726666D01*
X79738095Y-64726666D02*
X79642857Y-64536190D01*
X79642857Y-64536190D02*
X79642857Y-64345714D01*
X79642857Y-64345714D02*
X79738095Y-64155238D01*
X79738095Y-64155238D02*
X79833333Y-64060000D01*
X79833333Y-64060000D02*
X80023809Y-63964761D01*
X80023809Y-63964761D02*
X80500000Y-63964761D01*
X80500000Y-63964761D02*
X80785714Y-64060000D01*
X81547619Y-65869523D02*
X81833333Y-65964761D01*
X81833333Y-65964761D02*
X82309524Y-65964761D01*
X82309524Y-65964761D02*
X82500000Y-65869523D01*
X82500000Y-65869523D02*
X82595238Y-65774285D01*
X82595238Y-65774285D02*
X82690476Y-65583809D01*
X82690476Y-65583809D02*
X82690476Y-65393333D01*
X82690476Y-65393333D02*
X82595238Y-65202857D01*
X82595238Y-65202857D02*
X82500000Y-65107619D01*
X82500000Y-65107619D02*
X82309524Y-65012380D01*
X82309524Y-65012380D02*
X81928571Y-64917142D01*
X81928571Y-64917142D02*
X81738095Y-64821904D01*
X81738095Y-64821904D02*
X81642857Y-64726666D01*
X81642857Y-64726666D02*
X81547619Y-64536190D01*
X81547619Y-64536190D02*
X81547619Y-64345714D01*
X81547619Y-64345714D02*
X81642857Y-64155238D01*
X81642857Y-64155238D02*
X81738095Y-64060000D01*
X81738095Y-64060000D02*
X81928571Y-63964761D01*
X81928571Y-63964761D02*
X82404762Y-63964761D01*
X82404762Y-63964761D02*
X82690476Y-64060000D01*
X83452381Y-64155238D02*
X83547619Y-64060000D01*
X83547619Y-64060000D02*
X83738095Y-63964761D01*
X83738095Y-63964761D02*
X84214286Y-63964761D01*
X84214286Y-63964761D02*
X84404762Y-64060000D01*
X84404762Y-64060000D02*
X84500000Y-64155238D01*
X84500000Y-64155238D02*
X84595238Y-64345714D01*
X84595238Y-64345714D02*
X84595238Y-64536190D01*
X84595238Y-64536190D02*
X84500000Y-64821904D01*
X84500000Y-64821904D02*
X83357143Y-65964761D01*
X83357143Y-65964761D02*
X84595238Y-65964761D01*
X85261905Y-63964761D02*
X86500000Y-63964761D01*
X86500000Y-63964761D02*
X85833333Y-64726666D01*
X85833333Y-64726666D02*
X86119048Y-64726666D01*
X86119048Y-64726666D02*
X86309524Y-64821904D01*
X86309524Y-64821904D02*
X86404762Y-64917142D01*
X86404762Y-64917142D02*
X86500000Y-65107619D01*
X86500000Y-65107619D02*
X86500000Y-65583809D01*
X86500000Y-65583809D02*
X86404762Y-65774285D01*
X86404762Y-65774285D02*
X86309524Y-65869523D01*
X86309524Y-65869523D02*
X86119048Y-65964761D01*
X86119048Y-65964761D02*
X85547619Y-65964761D01*
X85547619Y-65964761D02*
X85357143Y-65869523D01*
X85357143Y-65869523D02*
X85261905Y-65774285D01*
D11*
X139685714Y-150477142D02*
X140352380Y-150239047D01*
X140352380Y-150239047D02*
X139685714Y-150000952D01*
X139400000Y-148496190D02*
X139352380Y-148591428D01*
X139352380Y-148591428D02*
X139352380Y-148734285D01*
X139352380Y-148734285D02*
X139400000Y-148877142D01*
X139400000Y-148877142D02*
X139495238Y-148972380D01*
X139495238Y-148972380D02*
X139590476Y-149019999D01*
X139590476Y-149019999D02*
X139780952Y-149067618D01*
X139780952Y-149067618D02*
X139923809Y-149067618D01*
X139923809Y-149067618D02*
X140114285Y-149019999D01*
X140114285Y-149019999D02*
X140209523Y-148972380D01*
X140209523Y-148972380D02*
X140304761Y-148877142D01*
X140304761Y-148877142D02*
X140352380Y-148734285D01*
X140352380Y-148734285D02*
X140352380Y-148639047D01*
X140352380Y-148639047D02*
X140304761Y-148496190D01*
X140304761Y-148496190D02*
X140257142Y-148448571D01*
X140257142Y-148448571D02*
X139923809Y-148448571D01*
X139923809Y-148448571D02*
X139923809Y-148639047D01*
X140352380Y-148019999D02*
X139352380Y-148019999D01*
X139352380Y-148019999D02*
X140352380Y-147448571D01*
X140352380Y-147448571D02*
X139352380Y-147448571D01*
X140352380Y-146972380D02*
X139352380Y-146972380D01*
X139352380Y-146972380D02*
X139352380Y-146734285D01*
X139352380Y-146734285D02*
X139400000Y-146591428D01*
X139400000Y-146591428D02*
X139495238Y-146496190D01*
X139495238Y-146496190D02*
X139590476Y-146448571D01*
X139590476Y-146448571D02*
X139780952Y-146400952D01*
X139780952Y-146400952D02*
X139923809Y-146400952D01*
X139923809Y-146400952D02*
X140114285Y-146448571D01*
X140114285Y-146448571D02*
X140209523Y-146496190D01*
X140209523Y-146496190D02*
X140304761Y-146591428D01*
X140304761Y-146591428D02*
X140352380Y-146734285D01*
X140352380Y-146734285D02*
X140352380Y-146972380D01*
X139685714Y-145467618D02*
X140352380Y-145229523D01*
X140352380Y-145229523D02*
X139685714Y-144991428D01*
X65042380Y-110576190D02*
X65756666Y-110576190D01*
X65756666Y-110576190D02*
X65899523Y-110623809D01*
X65899523Y-110623809D02*
X65994761Y-110719047D01*
X65994761Y-110719047D02*
X66042380Y-110861904D01*
X66042380Y-110861904D02*
X66042380Y-110957142D01*
X66042380Y-109623809D02*
X66042380Y-110099999D01*
X66042380Y-110099999D02*
X65042380Y-110099999D01*
X65947142Y-108719047D02*
X65994761Y-108766666D01*
X65994761Y-108766666D02*
X66042380Y-108909523D01*
X66042380Y-108909523D02*
X66042380Y-109004761D01*
X66042380Y-109004761D02*
X65994761Y-109147618D01*
X65994761Y-109147618D02*
X65899523Y-109242856D01*
X65899523Y-109242856D02*
X65804285Y-109290475D01*
X65804285Y-109290475D02*
X65613809Y-109338094D01*
X65613809Y-109338094D02*
X65470952Y-109338094D01*
X65470952Y-109338094D02*
X65280476Y-109290475D01*
X65280476Y-109290475D02*
X65185238Y-109242856D01*
X65185238Y-109242856D02*
X65090000Y-109147618D01*
X65090000Y-109147618D02*
X65042380Y-109004761D01*
X65042380Y-109004761D02*
X65042380Y-108909523D01*
X65042380Y-108909523D02*
X65090000Y-108766666D01*
X65090000Y-108766666D02*
X65137619Y-108719047D01*
X65042380Y-108004761D02*
X65756666Y-108004761D01*
X65756666Y-108004761D02*
X65899523Y-108052380D01*
X65899523Y-108052380D02*
X65994761Y-108147618D01*
X65994761Y-108147618D02*
X66042380Y-108290475D01*
X66042380Y-108290475D02*
X66042380Y-108385713D01*
X66042380Y-107052380D02*
X66042380Y-107528570D01*
X66042380Y-107528570D02*
X65042380Y-107528570D01*
X65947142Y-106147618D02*
X65994761Y-106195237D01*
X65994761Y-106195237D02*
X66042380Y-106338094D01*
X66042380Y-106338094D02*
X66042380Y-106433332D01*
X66042380Y-106433332D02*
X65994761Y-106576189D01*
X65994761Y-106576189D02*
X65899523Y-106671427D01*
X65899523Y-106671427D02*
X65804285Y-106719046D01*
X65804285Y-106719046D02*
X65613809Y-106766665D01*
X65613809Y-106766665D02*
X65470952Y-106766665D01*
X65470952Y-106766665D02*
X65280476Y-106719046D01*
X65280476Y-106719046D02*
X65185238Y-106671427D01*
X65185238Y-106671427D02*
X65090000Y-106576189D01*
X65090000Y-106576189D02*
X65042380Y-106433332D01*
X65042380Y-106433332D02*
X65042380Y-106338094D01*
X65042380Y-106338094D02*
X65090000Y-106195237D01*
X65090000Y-106195237D02*
X65137619Y-106147618D01*
X65042380Y-105433332D02*
X65756666Y-105433332D01*
X65756666Y-105433332D02*
X65899523Y-105480951D01*
X65899523Y-105480951D02*
X65994761Y-105576189D01*
X65994761Y-105576189D02*
X66042380Y-105719046D01*
X66042380Y-105719046D02*
X66042380Y-105814284D01*
X66042380Y-104480951D02*
X66042380Y-104957141D01*
X66042380Y-104957141D02*
X65042380Y-104957141D01*
X65947142Y-103576189D02*
X65994761Y-103623808D01*
X65994761Y-103623808D02*
X66042380Y-103766665D01*
X66042380Y-103766665D02*
X66042380Y-103861903D01*
X66042380Y-103861903D02*
X65994761Y-104004760D01*
X65994761Y-104004760D02*
X65899523Y-104099998D01*
X65899523Y-104099998D02*
X65804285Y-104147617D01*
X65804285Y-104147617D02*
X65613809Y-104195236D01*
X65613809Y-104195236D02*
X65470952Y-104195236D01*
X65470952Y-104195236D02*
X65280476Y-104147617D01*
X65280476Y-104147617D02*
X65185238Y-104099998D01*
X65185238Y-104099998D02*
X65090000Y-104004760D01*
X65090000Y-104004760D02*
X65042380Y-103861903D01*
X65042380Y-103861903D02*
X65042380Y-103766665D01*
X65042380Y-103766665D02*
X65090000Y-103623808D01*
X65090000Y-103623808D02*
X65137619Y-103576189D01*
X65042380Y-102861903D02*
X65756666Y-102861903D01*
X65756666Y-102861903D02*
X65899523Y-102909522D01*
X65899523Y-102909522D02*
X65994761Y-103004760D01*
X65994761Y-103004760D02*
X66042380Y-103147617D01*
X66042380Y-103147617D02*
X66042380Y-103242855D01*
X66042380Y-101909522D02*
X66042380Y-102385712D01*
X66042380Y-102385712D02*
X65042380Y-102385712D01*
X65947142Y-101004760D02*
X65994761Y-101052379D01*
X65994761Y-101052379D02*
X66042380Y-101195236D01*
X66042380Y-101195236D02*
X66042380Y-101290474D01*
X66042380Y-101290474D02*
X65994761Y-101433331D01*
X65994761Y-101433331D02*
X65899523Y-101528569D01*
X65899523Y-101528569D02*
X65804285Y-101576188D01*
X65804285Y-101576188D02*
X65613809Y-101623807D01*
X65613809Y-101623807D02*
X65470952Y-101623807D01*
X65470952Y-101623807D02*
X65280476Y-101576188D01*
X65280476Y-101576188D02*
X65185238Y-101528569D01*
X65185238Y-101528569D02*
X65090000Y-101433331D01*
X65090000Y-101433331D02*
X65042380Y-101290474D01*
X65042380Y-101290474D02*
X65042380Y-101195236D01*
X65042380Y-101195236D02*
X65090000Y-101052379D01*
X65090000Y-101052379D02*
X65137619Y-101004760D01*
D10*
X142976190Y-60202857D02*
X144500000Y-60202857D01*
X129676190Y-60802857D02*
X131200000Y-60802857D01*
X130438095Y-61564761D02*
X130438095Y-60040952D01*
D11*
X117372380Y-155378094D02*
X118181904Y-155378094D01*
X118181904Y-155378094D02*
X118277142Y-155330475D01*
X118277142Y-155330475D02*
X118324761Y-155282856D01*
X118324761Y-155282856D02*
X118372380Y-155187618D01*
X118372380Y-155187618D02*
X118372380Y-154997142D01*
X118372380Y-154997142D02*
X118324761Y-154901904D01*
X118324761Y-154901904D02*
X118277142Y-154854285D01*
X118277142Y-154854285D02*
X118181904Y-154806666D01*
X118181904Y-154806666D02*
X117372380Y-154806666D01*
X118372380Y-153806666D02*
X118372380Y-154378094D01*
X118372380Y-154092380D02*
X117372380Y-154092380D01*
X117372380Y-154092380D02*
X117515238Y-154187618D01*
X117515238Y-154187618D02*
X117610476Y-154282856D01*
X117610476Y-154282856D02*
X117658095Y-154378094D01*
X117467619Y-153425713D02*
X117420000Y-153378094D01*
X117420000Y-153378094D02*
X117372380Y-153282856D01*
X117372380Y-153282856D02*
X117372380Y-153044761D01*
X117372380Y-153044761D02*
X117420000Y-152949523D01*
X117420000Y-152949523D02*
X117467619Y-152901904D01*
X117467619Y-152901904D02*
X117562857Y-152854285D01*
X117562857Y-152854285D02*
X117658095Y-152854285D01*
X117658095Y-152854285D02*
X117800952Y-152901904D01*
X117800952Y-152901904D02*
X118372380Y-153473332D01*
X118372380Y-153473332D02*
X118372380Y-152854285D01*
X131482142Y-146817380D02*
X131148809Y-146341190D01*
X130910714Y-146817380D02*
X130910714Y-145817380D01*
X130910714Y-145817380D02*
X131291666Y-145817380D01*
X131291666Y-145817380D02*
X131386904Y-145865000D01*
X131386904Y-145865000D02*
X131434523Y-145912619D01*
X131434523Y-145912619D02*
X131482142Y-146007857D01*
X131482142Y-146007857D02*
X131482142Y-146150714D01*
X131482142Y-146150714D02*
X131434523Y-146245952D01*
X131434523Y-146245952D02*
X131386904Y-146293571D01*
X131386904Y-146293571D02*
X131291666Y-146341190D01*
X131291666Y-146341190D02*
X130910714Y-146341190D01*
X131863095Y-145912619D02*
X131910714Y-145865000D01*
X131910714Y-145865000D02*
X132005952Y-145817380D01*
X132005952Y-145817380D02*
X132244047Y-145817380D01*
X132244047Y-145817380D02*
X132339285Y-145865000D01*
X132339285Y-145865000D02*
X132386904Y-145912619D01*
X132386904Y-145912619D02*
X132434523Y-146007857D01*
X132434523Y-146007857D02*
X132434523Y-146103095D01*
X132434523Y-146103095D02*
X132386904Y-146245952D01*
X132386904Y-146245952D02*
X131815476Y-146817380D01*
X131815476Y-146817380D02*
X132434523Y-146817380D01*
X132767857Y-145817380D02*
X133386904Y-145817380D01*
X133386904Y-145817380D02*
X133053571Y-146198333D01*
X133053571Y-146198333D02*
X133196428Y-146198333D01*
X133196428Y-146198333D02*
X133291666Y-146245952D01*
X133291666Y-146245952D02*
X133339285Y-146293571D01*
X133339285Y-146293571D02*
X133386904Y-146388809D01*
X133386904Y-146388809D02*
X133386904Y-146626904D01*
X133386904Y-146626904D02*
X133339285Y-146722142D01*
X133339285Y-146722142D02*
X133291666Y-146769761D01*
X133291666Y-146769761D02*
X133196428Y-146817380D01*
X133196428Y-146817380D02*
X132910714Y-146817380D01*
X132910714Y-146817380D02*
X132815476Y-146769761D01*
X132815476Y-146769761D02*
X132767857Y-146722142D01*
X85162619Y-150995238D02*
X85115000Y-151090476D01*
X85115000Y-151090476D02*
X85019761Y-151185714D01*
X85019761Y-151185714D02*
X84876904Y-151328571D01*
X84876904Y-151328571D02*
X84829285Y-151423809D01*
X84829285Y-151423809D02*
X84829285Y-151519047D01*
X85067380Y-151471428D02*
X85019761Y-151566666D01*
X85019761Y-151566666D02*
X84924523Y-151661904D01*
X84924523Y-151661904D02*
X84734047Y-151709523D01*
X84734047Y-151709523D02*
X84400714Y-151709523D01*
X84400714Y-151709523D02*
X84210238Y-151661904D01*
X84210238Y-151661904D02*
X84115000Y-151566666D01*
X84115000Y-151566666D02*
X84067380Y-151471428D01*
X84067380Y-151471428D02*
X84067380Y-151280952D01*
X84067380Y-151280952D02*
X84115000Y-151185714D01*
X84115000Y-151185714D02*
X84210238Y-151090476D01*
X84210238Y-151090476D02*
X84400714Y-151042857D01*
X84400714Y-151042857D02*
X84734047Y-151042857D01*
X84734047Y-151042857D02*
X84924523Y-151090476D01*
X84924523Y-151090476D02*
X85019761Y-151185714D01*
X85019761Y-151185714D02*
X85067380Y-151280952D01*
X85067380Y-151280952D02*
X85067380Y-151471428D01*
X84067380Y-150138095D02*
X84067380Y-150614285D01*
X84067380Y-150614285D02*
X84543571Y-150661904D01*
X84543571Y-150661904D02*
X84495952Y-150614285D01*
X84495952Y-150614285D02*
X84448333Y-150519047D01*
X84448333Y-150519047D02*
X84448333Y-150280952D01*
X84448333Y-150280952D02*
X84495952Y-150185714D01*
X84495952Y-150185714D02*
X84543571Y-150138095D01*
X84543571Y-150138095D02*
X84638809Y-150090476D01*
X84638809Y-150090476D02*
X84876904Y-150090476D01*
X84876904Y-150090476D02*
X84972142Y-150138095D01*
X84972142Y-150138095D02*
X85019761Y-150185714D01*
X85019761Y-150185714D02*
X85067380Y-150280952D01*
X85067380Y-150280952D02*
X85067380Y-150519047D01*
X85067380Y-150519047D02*
X85019761Y-150614285D01*
X85019761Y-150614285D02*
X84972142Y-150661904D01*
X96367380Y-154385713D02*
X96367380Y-153814285D01*
X97367380Y-154099999D02*
X96367380Y-154099999D01*
X97367380Y-153480951D02*
X96367380Y-153480951D01*
X96843571Y-153480951D02*
X96843571Y-152909523D01*
X97367380Y-152909523D02*
X96367380Y-152909523D01*
X96462619Y-152480951D02*
X96415000Y-152433332D01*
X96415000Y-152433332D02*
X96367380Y-152338094D01*
X96367380Y-152338094D02*
X96367380Y-152099999D01*
X96367380Y-152099999D02*
X96415000Y-152004761D01*
X96415000Y-152004761D02*
X96462619Y-151957142D01*
X96462619Y-151957142D02*
X96557857Y-151909523D01*
X96557857Y-151909523D02*
X96653095Y-151909523D01*
X96653095Y-151909523D02*
X96795952Y-151957142D01*
X96795952Y-151957142D02*
X97367380Y-152528570D01*
X97367380Y-152528570D02*
X97367380Y-151909523D01*
X134867380Y-150055713D02*
X134867380Y-149484285D01*
X135867380Y-149769999D02*
X134867380Y-149769999D01*
X135867380Y-149150951D02*
X134867380Y-149150951D01*
X135343571Y-149150951D02*
X135343571Y-148579523D01*
X135867380Y-148579523D02*
X134867380Y-148579523D01*
X135200714Y-147674761D02*
X135867380Y-147674761D01*
X134819761Y-147912856D02*
X135534047Y-148150951D01*
X135534047Y-148150951D02*
X135534047Y-147531904D01*
X146067380Y-100338094D02*
X145067380Y-100338094D01*
X145067380Y-100338094D02*
X145067380Y-100099999D01*
X145067380Y-100099999D02*
X145115000Y-99957142D01*
X145115000Y-99957142D02*
X145210238Y-99861904D01*
X145210238Y-99861904D02*
X145305476Y-99814285D01*
X145305476Y-99814285D02*
X145495952Y-99766666D01*
X145495952Y-99766666D02*
X145638809Y-99766666D01*
X145638809Y-99766666D02*
X145829285Y-99814285D01*
X145829285Y-99814285D02*
X145924523Y-99861904D01*
X145924523Y-99861904D02*
X146019761Y-99957142D01*
X146019761Y-99957142D02*
X146067380Y-100099999D01*
X146067380Y-100099999D02*
X146067380Y-100338094D01*
X146067380Y-98814285D02*
X146067380Y-99385713D01*
X146067380Y-99099999D02*
X145067380Y-99099999D01*
X145067380Y-99099999D02*
X145210238Y-99195237D01*
X145210238Y-99195237D02*
X145305476Y-99290475D01*
X145305476Y-99290475D02*
X145353095Y-99385713D01*
X114092142Y-146847380D02*
X113758809Y-146371190D01*
X113520714Y-146847380D02*
X113520714Y-145847380D01*
X113520714Y-145847380D02*
X113901666Y-145847380D01*
X113901666Y-145847380D02*
X113996904Y-145895000D01*
X113996904Y-145895000D02*
X114044523Y-145942619D01*
X114044523Y-145942619D02*
X114092142Y-146037857D01*
X114092142Y-146037857D02*
X114092142Y-146180714D01*
X114092142Y-146180714D02*
X114044523Y-146275952D01*
X114044523Y-146275952D02*
X113996904Y-146323571D01*
X113996904Y-146323571D02*
X113901666Y-146371190D01*
X113901666Y-146371190D02*
X113520714Y-146371190D01*
X114473095Y-145942619D02*
X114520714Y-145895000D01*
X114520714Y-145895000D02*
X114615952Y-145847380D01*
X114615952Y-145847380D02*
X114854047Y-145847380D01*
X114854047Y-145847380D02*
X114949285Y-145895000D01*
X114949285Y-145895000D02*
X114996904Y-145942619D01*
X114996904Y-145942619D02*
X115044523Y-146037857D01*
X115044523Y-146037857D02*
X115044523Y-146133095D01*
X115044523Y-146133095D02*
X114996904Y-146275952D01*
X114996904Y-146275952D02*
X114425476Y-146847380D01*
X114425476Y-146847380D02*
X115044523Y-146847380D01*
X115377857Y-145847380D02*
X116044523Y-145847380D01*
X116044523Y-145847380D02*
X115615952Y-146847380D01*
X145962619Y-106495238D02*
X145915000Y-106590476D01*
X145915000Y-106590476D02*
X145819761Y-106685714D01*
X145819761Y-106685714D02*
X145676904Y-106828571D01*
X145676904Y-106828571D02*
X145629285Y-106923809D01*
X145629285Y-106923809D02*
X145629285Y-107019047D01*
X145867380Y-106971428D02*
X145819761Y-107066666D01*
X145819761Y-107066666D02*
X145724523Y-107161904D01*
X145724523Y-107161904D02*
X145534047Y-107209523D01*
X145534047Y-107209523D02*
X145200714Y-107209523D01*
X145200714Y-107209523D02*
X145010238Y-107161904D01*
X145010238Y-107161904D02*
X144915000Y-107066666D01*
X144915000Y-107066666D02*
X144867380Y-106971428D01*
X144867380Y-106971428D02*
X144867380Y-106780952D01*
X144867380Y-106780952D02*
X144915000Y-106685714D01*
X144915000Y-106685714D02*
X145010238Y-106590476D01*
X145010238Y-106590476D02*
X145200714Y-106542857D01*
X145200714Y-106542857D02*
X145534047Y-106542857D01*
X145534047Y-106542857D02*
X145724523Y-106590476D01*
X145724523Y-106590476D02*
X145819761Y-106685714D01*
X145819761Y-106685714D02*
X145867380Y-106780952D01*
X145867380Y-106780952D02*
X145867380Y-106971428D01*
X145867380Y-105590476D02*
X145867380Y-106161904D01*
X145867380Y-105876190D02*
X144867380Y-105876190D01*
X144867380Y-105876190D02*
X145010238Y-105971428D01*
X145010238Y-105971428D02*
X145105476Y-106066666D01*
X145105476Y-106066666D02*
X145153095Y-106161904D01*
X118967380Y-148442857D02*
X118491190Y-148776190D01*
X118967380Y-149014285D02*
X117967380Y-149014285D01*
X117967380Y-149014285D02*
X117967380Y-148633333D01*
X117967380Y-148633333D02*
X118015000Y-148538095D01*
X118015000Y-148538095D02*
X118062619Y-148490476D01*
X118062619Y-148490476D02*
X118157857Y-148442857D01*
X118157857Y-148442857D02*
X118300714Y-148442857D01*
X118300714Y-148442857D02*
X118395952Y-148490476D01*
X118395952Y-148490476D02*
X118443571Y-148538095D01*
X118443571Y-148538095D02*
X118491190Y-148633333D01*
X118491190Y-148633333D02*
X118491190Y-149014285D01*
X118062619Y-148061904D02*
X118015000Y-148014285D01*
X118015000Y-148014285D02*
X117967380Y-147919047D01*
X117967380Y-147919047D02*
X117967380Y-147680952D01*
X117967380Y-147680952D02*
X118015000Y-147585714D01*
X118015000Y-147585714D02*
X118062619Y-147538095D01*
X118062619Y-147538095D02*
X118157857Y-147490476D01*
X118157857Y-147490476D02*
X118253095Y-147490476D01*
X118253095Y-147490476D02*
X118395952Y-147538095D01*
X118395952Y-147538095D02*
X118967380Y-148109523D01*
X118967380Y-148109523D02*
X118967380Y-147490476D01*
X117967380Y-146871428D02*
X117967380Y-146776190D01*
X117967380Y-146776190D02*
X118015000Y-146680952D01*
X118015000Y-146680952D02*
X118062619Y-146633333D01*
X118062619Y-146633333D02*
X118157857Y-146585714D01*
X118157857Y-146585714D02*
X118348333Y-146538095D01*
X118348333Y-146538095D02*
X118586428Y-146538095D01*
X118586428Y-146538095D02*
X118776904Y-146585714D01*
X118776904Y-146585714D02*
X118872142Y-146633333D01*
X118872142Y-146633333D02*
X118919761Y-146680952D01*
X118919761Y-146680952D02*
X118967380Y-146776190D01*
X118967380Y-146776190D02*
X118967380Y-146871428D01*
X118967380Y-146871428D02*
X118919761Y-146966666D01*
X118919761Y-146966666D02*
X118872142Y-147014285D01*
X118872142Y-147014285D02*
X118776904Y-147061904D01*
X118776904Y-147061904D02*
X118586428Y-147109523D01*
X118586428Y-147109523D02*
X118348333Y-147109523D01*
X118348333Y-147109523D02*
X118157857Y-147061904D01*
X118157857Y-147061904D02*
X118062619Y-147014285D01*
X118062619Y-147014285D02*
X118015000Y-146966666D01*
X118015000Y-146966666D02*
X117967380Y-146871428D01*
X143233333Y-96767380D02*
X142900000Y-96291190D01*
X142661905Y-96767380D02*
X142661905Y-95767380D01*
X142661905Y-95767380D02*
X143042857Y-95767380D01*
X143042857Y-95767380D02*
X143138095Y-95815000D01*
X143138095Y-95815000D02*
X143185714Y-95862619D01*
X143185714Y-95862619D02*
X143233333Y-95957857D01*
X143233333Y-95957857D02*
X143233333Y-96100714D01*
X143233333Y-96100714D02*
X143185714Y-96195952D01*
X143185714Y-96195952D02*
X143138095Y-96243571D01*
X143138095Y-96243571D02*
X143042857Y-96291190D01*
X143042857Y-96291190D02*
X142661905Y-96291190D01*
X144185714Y-96767380D02*
X143614286Y-96767380D01*
X143900000Y-96767380D02*
X143900000Y-95767380D01*
X143900000Y-95767380D02*
X143804762Y-95910238D01*
X143804762Y-95910238D02*
X143709524Y-96005476D01*
X143709524Y-96005476D02*
X143614286Y-96053095D01*
X140767380Y-82633333D02*
X141481666Y-82633333D01*
X141481666Y-82633333D02*
X141624523Y-82680952D01*
X141624523Y-82680952D02*
X141719761Y-82776190D01*
X141719761Y-82776190D02*
X141767380Y-82919047D01*
X141767380Y-82919047D02*
X141767380Y-83014285D01*
X140767380Y-82252380D02*
X140767380Y-81633333D01*
X140767380Y-81633333D02*
X141148333Y-81966666D01*
X141148333Y-81966666D02*
X141148333Y-81823809D01*
X141148333Y-81823809D02*
X141195952Y-81728571D01*
X141195952Y-81728571D02*
X141243571Y-81680952D01*
X141243571Y-81680952D02*
X141338809Y-81633333D01*
X141338809Y-81633333D02*
X141576904Y-81633333D01*
X141576904Y-81633333D02*
X141672142Y-81680952D01*
X141672142Y-81680952D02*
X141719761Y-81728571D01*
X141719761Y-81728571D02*
X141767380Y-81823809D01*
X141767380Y-81823809D02*
X141767380Y-82109523D01*
X141767380Y-82109523D02*
X141719761Y-82204761D01*
X141719761Y-82204761D02*
X141672142Y-82252380D01*
X126357142Y-159167380D02*
X126023809Y-158691190D01*
X125785714Y-159167380D02*
X125785714Y-158167380D01*
X125785714Y-158167380D02*
X126166666Y-158167380D01*
X126166666Y-158167380D02*
X126261904Y-158215000D01*
X126261904Y-158215000D02*
X126309523Y-158262619D01*
X126309523Y-158262619D02*
X126357142Y-158357857D01*
X126357142Y-158357857D02*
X126357142Y-158500714D01*
X126357142Y-158500714D02*
X126309523Y-158595952D01*
X126309523Y-158595952D02*
X126261904Y-158643571D01*
X126261904Y-158643571D02*
X126166666Y-158691190D01*
X126166666Y-158691190D02*
X125785714Y-158691190D01*
X126738095Y-158262619D02*
X126785714Y-158215000D01*
X126785714Y-158215000D02*
X126880952Y-158167380D01*
X126880952Y-158167380D02*
X127119047Y-158167380D01*
X127119047Y-158167380D02*
X127214285Y-158215000D01*
X127214285Y-158215000D02*
X127261904Y-158262619D01*
X127261904Y-158262619D02*
X127309523Y-158357857D01*
X127309523Y-158357857D02*
X127309523Y-158453095D01*
X127309523Y-158453095D02*
X127261904Y-158595952D01*
X127261904Y-158595952D02*
X126690476Y-159167380D01*
X126690476Y-159167380D02*
X127309523Y-159167380D01*
X127690476Y-158262619D02*
X127738095Y-158215000D01*
X127738095Y-158215000D02*
X127833333Y-158167380D01*
X127833333Y-158167380D02*
X128071428Y-158167380D01*
X128071428Y-158167380D02*
X128166666Y-158215000D01*
X128166666Y-158215000D02*
X128214285Y-158262619D01*
X128214285Y-158262619D02*
X128261904Y-158357857D01*
X128261904Y-158357857D02*
X128261904Y-158453095D01*
X128261904Y-158453095D02*
X128214285Y-158595952D01*
X128214285Y-158595952D02*
X127642857Y-159167380D01*
X127642857Y-159167380D02*
X128261904Y-159167380D01*
X117408333Y-64356428D02*
X117741666Y-64356428D01*
X117741666Y-63832619D02*
X117741666Y-64832619D01*
X117741666Y-64832619D02*
X117265476Y-64832619D01*
X116360714Y-63832619D02*
X116932142Y-63832619D01*
X116646428Y-63832619D02*
X116646428Y-64832619D01*
X116646428Y-64832619D02*
X116741666Y-64689761D01*
X116741666Y-64689761D02*
X116836904Y-64594523D01*
X116836904Y-64594523D02*
X116932142Y-64546904D01*
X118617857Y-62656428D02*
X118951190Y-62656428D01*
X118951190Y-62132619D02*
X118951190Y-63132619D01*
X118951190Y-63132619D02*
X118475000Y-63132619D01*
X117665476Y-62799285D02*
X117665476Y-62132619D01*
X118094047Y-62799285D02*
X118094047Y-62275476D01*
X118094047Y-62275476D02*
X118046428Y-62180238D01*
X118046428Y-62180238D02*
X117951190Y-62132619D01*
X117951190Y-62132619D02*
X117808333Y-62132619D01*
X117808333Y-62132619D02*
X117713095Y-62180238D01*
X117713095Y-62180238D02*
X117665476Y-62227857D01*
X117236904Y-62180238D02*
X117141666Y-62132619D01*
X117141666Y-62132619D02*
X116951190Y-62132619D01*
X116951190Y-62132619D02*
X116855952Y-62180238D01*
X116855952Y-62180238D02*
X116808333Y-62275476D01*
X116808333Y-62275476D02*
X116808333Y-62323095D01*
X116808333Y-62323095D02*
X116855952Y-62418333D01*
X116855952Y-62418333D02*
X116951190Y-62465952D01*
X116951190Y-62465952D02*
X117094047Y-62465952D01*
X117094047Y-62465952D02*
X117189285Y-62513571D01*
X117189285Y-62513571D02*
X117236904Y-62608809D01*
X117236904Y-62608809D02*
X117236904Y-62656428D01*
X117236904Y-62656428D02*
X117189285Y-62751666D01*
X117189285Y-62751666D02*
X117094047Y-62799285D01*
X117094047Y-62799285D02*
X116951190Y-62799285D01*
X116951190Y-62799285D02*
X116855952Y-62751666D01*
X115998809Y-62180238D02*
X116094047Y-62132619D01*
X116094047Y-62132619D02*
X116284523Y-62132619D01*
X116284523Y-62132619D02*
X116379761Y-62180238D01*
X116379761Y-62180238D02*
X116427380Y-62275476D01*
X116427380Y-62275476D02*
X116427380Y-62656428D01*
X116427380Y-62656428D02*
X116379761Y-62751666D01*
X116379761Y-62751666D02*
X116284523Y-62799285D01*
X116284523Y-62799285D02*
X116094047Y-62799285D01*
X116094047Y-62799285D02*
X115998809Y-62751666D01*
X115998809Y-62751666D02*
X115951190Y-62656428D01*
X115951190Y-62656428D02*
X115951190Y-62561190D01*
X115951190Y-62561190D02*
X116427380Y-62465952D01*
X139633333Y-84772142D02*
X139585714Y-84819761D01*
X139585714Y-84819761D02*
X139442857Y-84867380D01*
X139442857Y-84867380D02*
X139347619Y-84867380D01*
X139347619Y-84867380D02*
X139204762Y-84819761D01*
X139204762Y-84819761D02*
X139109524Y-84724523D01*
X139109524Y-84724523D02*
X139061905Y-84629285D01*
X139061905Y-84629285D02*
X139014286Y-84438809D01*
X139014286Y-84438809D02*
X139014286Y-84295952D01*
X139014286Y-84295952D02*
X139061905Y-84105476D01*
X139061905Y-84105476D02*
X139109524Y-84010238D01*
X139109524Y-84010238D02*
X139204762Y-83915000D01*
X139204762Y-83915000D02*
X139347619Y-83867380D01*
X139347619Y-83867380D02*
X139442857Y-83867380D01*
X139442857Y-83867380D02*
X139585714Y-83915000D01*
X139585714Y-83915000D02*
X139633333Y-83962619D01*
X140585714Y-84867380D02*
X140014286Y-84867380D01*
X140300000Y-84867380D02*
X140300000Y-83867380D01*
X140300000Y-83867380D02*
X140204762Y-84010238D01*
X140204762Y-84010238D02*
X140109524Y-84105476D01*
X140109524Y-84105476D02*
X140014286Y-84153095D01*
D12*
X104363239Y-107537619D02*
X105391335Y-107537619D01*
X105391335Y-107537619D02*
X105512287Y-107477142D01*
X105512287Y-107477142D02*
X105572763Y-107416666D01*
X105572763Y-107416666D02*
X105633239Y-107295714D01*
X105633239Y-107295714D02*
X105633239Y-107053809D01*
X105633239Y-107053809D02*
X105572763Y-106932857D01*
X105572763Y-106932857D02*
X105512287Y-106872380D01*
X105512287Y-106872380D02*
X105391335Y-106811904D01*
X105391335Y-106811904D02*
X104363239Y-106811904D01*
X104786573Y-105662857D02*
X105633239Y-105662857D01*
X104302763Y-105965238D02*
X105209906Y-106267619D01*
X105209906Y-106267619D02*
X105209906Y-105481428D01*
D11*
X51367380Y-150685713D02*
X51367380Y-150114285D01*
X52367380Y-150399999D02*
X51367380Y-150399999D01*
X52367380Y-149780951D02*
X51367380Y-149780951D01*
X51843571Y-149780951D02*
X51843571Y-149209523D01*
X52367380Y-149209523D02*
X51367380Y-149209523D01*
X52367380Y-148209523D02*
X52367380Y-148780951D01*
X52367380Y-148495237D02*
X51367380Y-148495237D01*
X51367380Y-148495237D02*
X51510238Y-148590475D01*
X51510238Y-148590475D02*
X51605476Y-148685713D01*
X51605476Y-148685713D02*
X51653095Y-148780951D01*
D13*
X142551071Y-154357142D02*
X142551071Y-155214285D01*
X142551071Y-154785714D02*
X141051071Y-154785714D01*
X141051071Y-154785714D02*
X141265357Y-154928571D01*
X141265357Y-154928571D02*
X141408214Y-155071428D01*
X141408214Y-155071428D02*
X141479642Y-155214285D01*
X142551071Y-153642857D02*
X142551071Y-153357143D01*
X142551071Y-153357143D02*
X142479642Y-153214286D01*
X142479642Y-153214286D02*
X142408214Y-153142857D01*
X142408214Y-153142857D02*
X142193928Y-153000000D01*
X142193928Y-153000000D02*
X141908214Y-152928571D01*
X141908214Y-152928571D02*
X141336785Y-152928571D01*
X141336785Y-152928571D02*
X141193928Y-153000000D01*
X141193928Y-153000000D02*
X141122500Y-153071429D01*
X141122500Y-153071429D02*
X141051071Y-153214286D01*
X141051071Y-153214286D02*
X141051071Y-153500000D01*
X141051071Y-153500000D02*
X141122500Y-153642857D01*
X141122500Y-153642857D02*
X141193928Y-153714286D01*
X141193928Y-153714286D02*
X141336785Y-153785714D01*
X141336785Y-153785714D02*
X141693928Y-153785714D01*
X141693928Y-153785714D02*
X141836785Y-153714286D01*
X141836785Y-153714286D02*
X141908214Y-153642857D01*
X141908214Y-153642857D02*
X141979642Y-153500000D01*
X141979642Y-153500000D02*
X141979642Y-153214286D01*
X141979642Y-153214286D02*
X141908214Y-153071429D01*
X141908214Y-153071429D02*
X141836785Y-153000000D01*
X141836785Y-153000000D02*
X141693928Y-152928571D01*
D11*
X99267380Y-154385713D02*
X99267380Y-153814285D01*
X100267380Y-154099999D02*
X99267380Y-154099999D01*
X100267380Y-153480951D02*
X99267380Y-153480951D01*
X99743571Y-153480951D02*
X99743571Y-152909523D01*
X100267380Y-152909523D02*
X99267380Y-152909523D01*
X99267380Y-152528570D02*
X99267380Y-151909523D01*
X99267380Y-151909523D02*
X99648333Y-152242856D01*
X99648333Y-152242856D02*
X99648333Y-152099999D01*
X99648333Y-152099999D02*
X99695952Y-152004761D01*
X99695952Y-152004761D02*
X99743571Y-151957142D01*
X99743571Y-151957142D02*
X99838809Y-151909523D01*
X99838809Y-151909523D02*
X100076904Y-151909523D01*
X100076904Y-151909523D02*
X100172142Y-151957142D01*
X100172142Y-151957142D02*
X100219761Y-152004761D01*
X100219761Y-152004761D02*
X100267380Y-152099999D01*
X100267380Y-152099999D02*
X100267380Y-152385713D01*
X100267380Y-152385713D02*
X100219761Y-152480951D01*
X100219761Y-152480951D02*
X100172142Y-152528570D01*
X100967380Y-158542857D02*
X100491190Y-158876190D01*
X100967380Y-159114285D02*
X99967380Y-159114285D01*
X99967380Y-159114285D02*
X99967380Y-158733333D01*
X99967380Y-158733333D02*
X100015000Y-158638095D01*
X100015000Y-158638095D02*
X100062619Y-158590476D01*
X100062619Y-158590476D02*
X100157857Y-158542857D01*
X100157857Y-158542857D02*
X100300714Y-158542857D01*
X100300714Y-158542857D02*
X100395952Y-158590476D01*
X100395952Y-158590476D02*
X100443571Y-158638095D01*
X100443571Y-158638095D02*
X100491190Y-158733333D01*
X100491190Y-158733333D02*
X100491190Y-159114285D01*
X100062619Y-158161904D02*
X100015000Y-158114285D01*
X100015000Y-158114285D02*
X99967380Y-158019047D01*
X99967380Y-158019047D02*
X99967380Y-157780952D01*
X99967380Y-157780952D02*
X100015000Y-157685714D01*
X100015000Y-157685714D02*
X100062619Y-157638095D01*
X100062619Y-157638095D02*
X100157857Y-157590476D01*
X100157857Y-157590476D02*
X100253095Y-157590476D01*
X100253095Y-157590476D02*
X100395952Y-157638095D01*
X100395952Y-157638095D02*
X100967380Y-158209523D01*
X100967380Y-158209523D02*
X100967380Y-157590476D01*
X100300714Y-156733333D02*
X100967380Y-156733333D01*
X99919761Y-156971428D02*
X100634047Y-157209523D01*
X100634047Y-157209523D02*
X100634047Y-156590476D01*
X141067380Y-103061904D02*
X141876904Y-103061904D01*
X141876904Y-103061904D02*
X141972142Y-103014285D01*
X141972142Y-103014285D02*
X142019761Y-102966666D01*
X142019761Y-102966666D02*
X142067380Y-102871428D01*
X142067380Y-102871428D02*
X142067380Y-102680952D01*
X142067380Y-102680952D02*
X142019761Y-102585714D01*
X142019761Y-102585714D02*
X141972142Y-102538095D01*
X141972142Y-102538095D02*
X141876904Y-102490476D01*
X141876904Y-102490476D02*
X141067380Y-102490476D01*
X142067380Y-101490476D02*
X142067380Y-102061904D01*
X142067380Y-101776190D02*
X141067380Y-101776190D01*
X141067380Y-101776190D02*
X141210238Y-101871428D01*
X141210238Y-101871428D02*
X141305476Y-101966666D01*
X141305476Y-101966666D02*
X141353095Y-102061904D01*
X67367380Y-148542857D02*
X66891190Y-148876190D01*
X67367380Y-149114285D02*
X66367380Y-149114285D01*
X66367380Y-149114285D02*
X66367380Y-148733333D01*
X66367380Y-148733333D02*
X66415000Y-148638095D01*
X66415000Y-148638095D02*
X66462619Y-148590476D01*
X66462619Y-148590476D02*
X66557857Y-148542857D01*
X66557857Y-148542857D02*
X66700714Y-148542857D01*
X66700714Y-148542857D02*
X66795952Y-148590476D01*
X66795952Y-148590476D02*
X66843571Y-148638095D01*
X66843571Y-148638095D02*
X66891190Y-148733333D01*
X66891190Y-148733333D02*
X66891190Y-149114285D01*
X66367380Y-148209523D02*
X66367380Y-147590476D01*
X66367380Y-147590476D02*
X66748333Y-147923809D01*
X66748333Y-147923809D02*
X66748333Y-147780952D01*
X66748333Y-147780952D02*
X66795952Y-147685714D01*
X66795952Y-147685714D02*
X66843571Y-147638095D01*
X66843571Y-147638095D02*
X66938809Y-147590476D01*
X66938809Y-147590476D02*
X67176904Y-147590476D01*
X67176904Y-147590476D02*
X67272142Y-147638095D01*
X67272142Y-147638095D02*
X67319761Y-147685714D01*
X67319761Y-147685714D02*
X67367380Y-147780952D01*
X67367380Y-147780952D02*
X67367380Y-148066666D01*
X67367380Y-148066666D02*
X67319761Y-148161904D01*
X67319761Y-148161904D02*
X67272142Y-148209523D01*
X66367380Y-147257142D02*
X66367380Y-146638095D01*
X66367380Y-146638095D02*
X66748333Y-146971428D01*
X66748333Y-146971428D02*
X66748333Y-146828571D01*
X66748333Y-146828571D02*
X66795952Y-146733333D01*
X66795952Y-146733333D02*
X66843571Y-146685714D01*
X66843571Y-146685714D02*
X66938809Y-146638095D01*
X66938809Y-146638095D02*
X67176904Y-146638095D01*
X67176904Y-146638095D02*
X67272142Y-146685714D01*
X67272142Y-146685714D02*
X67319761Y-146733333D01*
X67319761Y-146733333D02*
X67367380Y-146828571D01*
X67367380Y-146828571D02*
X67367380Y-147114285D01*
X67367380Y-147114285D02*
X67319761Y-147209523D01*
X67319761Y-147209523D02*
X67272142Y-147257142D01*
X77167380Y-148542857D02*
X76691190Y-148876190D01*
X77167380Y-149114285D02*
X76167380Y-149114285D01*
X76167380Y-149114285D02*
X76167380Y-148733333D01*
X76167380Y-148733333D02*
X76215000Y-148638095D01*
X76215000Y-148638095D02*
X76262619Y-148590476D01*
X76262619Y-148590476D02*
X76357857Y-148542857D01*
X76357857Y-148542857D02*
X76500714Y-148542857D01*
X76500714Y-148542857D02*
X76595952Y-148590476D01*
X76595952Y-148590476D02*
X76643571Y-148638095D01*
X76643571Y-148638095D02*
X76691190Y-148733333D01*
X76691190Y-148733333D02*
X76691190Y-149114285D01*
X76262619Y-148161904D02*
X76215000Y-148114285D01*
X76215000Y-148114285D02*
X76167380Y-148019047D01*
X76167380Y-148019047D02*
X76167380Y-147780952D01*
X76167380Y-147780952D02*
X76215000Y-147685714D01*
X76215000Y-147685714D02*
X76262619Y-147638095D01*
X76262619Y-147638095D02*
X76357857Y-147590476D01*
X76357857Y-147590476D02*
X76453095Y-147590476D01*
X76453095Y-147590476D02*
X76595952Y-147638095D01*
X76595952Y-147638095D02*
X77167380Y-148209523D01*
X77167380Y-148209523D02*
X77167380Y-147590476D01*
X76595952Y-147019047D02*
X76548333Y-147114285D01*
X76548333Y-147114285D02*
X76500714Y-147161904D01*
X76500714Y-147161904D02*
X76405476Y-147209523D01*
X76405476Y-147209523D02*
X76357857Y-147209523D01*
X76357857Y-147209523D02*
X76262619Y-147161904D01*
X76262619Y-147161904D02*
X76215000Y-147114285D01*
X76215000Y-147114285D02*
X76167380Y-147019047D01*
X76167380Y-147019047D02*
X76167380Y-146828571D01*
X76167380Y-146828571D02*
X76215000Y-146733333D01*
X76215000Y-146733333D02*
X76262619Y-146685714D01*
X76262619Y-146685714D02*
X76357857Y-146638095D01*
X76357857Y-146638095D02*
X76405476Y-146638095D01*
X76405476Y-146638095D02*
X76500714Y-146685714D01*
X76500714Y-146685714D02*
X76548333Y-146733333D01*
X76548333Y-146733333D02*
X76595952Y-146828571D01*
X76595952Y-146828571D02*
X76595952Y-147019047D01*
X76595952Y-147019047D02*
X76643571Y-147114285D01*
X76643571Y-147114285D02*
X76691190Y-147161904D01*
X76691190Y-147161904D02*
X76786428Y-147209523D01*
X76786428Y-147209523D02*
X76976904Y-147209523D01*
X76976904Y-147209523D02*
X77072142Y-147161904D01*
X77072142Y-147161904D02*
X77119761Y-147114285D01*
X77119761Y-147114285D02*
X77167380Y-147019047D01*
X77167380Y-147019047D02*
X77167380Y-146828571D01*
X77167380Y-146828571D02*
X77119761Y-146733333D01*
X77119761Y-146733333D02*
X77072142Y-146685714D01*
X77072142Y-146685714D02*
X76976904Y-146638095D01*
X76976904Y-146638095D02*
X76786428Y-146638095D01*
X76786428Y-146638095D02*
X76691190Y-146685714D01*
X76691190Y-146685714D02*
X76643571Y-146733333D01*
X76643571Y-146733333D02*
X76595952Y-146828571D01*
X143266666Y-66367380D02*
X143266666Y-67081666D01*
X143266666Y-67081666D02*
X143219047Y-67224523D01*
X143219047Y-67224523D02*
X143123809Y-67319761D01*
X143123809Y-67319761D02*
X142980952Y-67367380D01*
X142980952Y-67367380D02*
X142885714Y-67367380D01*
X143695238Y-66462619D02*
X143742857Y-66415000D01*
X143742857Y-66415000D02*
X143838095Y-66367380D01*
X143838095Y-66367380D02*
X144076190Y-66367380D01*
X144076190Y-66367380D02*
X144171428Y-66415000D01*
X144171428Y-66415000D02*
X144219047Y-66462619D01*
X144219047Y-66462619D02*
X144266666Y-66557857D01*
X144266666Y-66557857D02*
X144266666Y-66653095D01*
X144266666Y-66653095D02*
X144219047Y-66795952D01*
X144219047Y-66795952D02*
X143647619Y-67367380D01*
X143647619Y-67367380D02*
X144266666Y-67367380D01*
X125667380Y-148442857D02*
X125191190Y-148776190D01*
X125667380Y-149014285D02*
X124667380Y-149014285D01*
X124667380Y-149014285D02*
X124667380Y-148633333D01*
X124667380Y-148633333D02*
X124715000Y-148538095D01*
X124715000Y-148538095D02*
X124762619Y-148490476D01*
X124762619Y-148490476D02*
X124857857Y-148442857D01*
X124857857Y-148442857D02*
X125000714Y-148442857D01*
X125000714Y-148442857D02*
X125095952Y-148490476D01*
X125095952Y-148490476D02*
X125143571Y-148538095D01*
X125143571Y-148538095D02*
X125191190Y-148633333D01*
X125191190Y-148633333D02*
X125191190Y-149014285D01*
X124762619Y-148061904D02*
X124715000Y-148014285D01*
X124715000Y-148014285D02*
X124667380Y-147919047D01*
X124667380Y-147919047D02*
X124667380Y-147680952D01*
X124667380Y-147680952D02*
X124715000Y-147585714D01*
X124715000Y-147585714D02*
X124762619Y-147538095D01*
X124762619Y-147538095D02*
X124857857Y-147490476D01*
X124857857Y-147490476D02*
X124953095Y-147490476D01*
X124953095Y-147490476D02*
X125095952Y-147538095D01*
X125095952Y-147538095D02*
X125667380Y-148109523D01*
X125667380Y-148109523D02*
X125667380Y-147490476D01*
X125667380Y-146538095D02*
X125667380Y-147109523D01*
X125667380Y-146823809D02*
X124667380Y-146823809D01*
X124667380Y-146823809D02*
X124810238Y-146919047D01*
X124810238Y-146919047D02*
X124905476Y-147014285D01*
X124905476Y-147014285D02*
X124953095Y-147109523D01*
X84867380Y-148642857D02*
X84391190Y-148976190D01*
X84867380Y-149214285D02*
X83867380Y-149214285D01*
X83867380Y-149214285D02*
X83867380Y-148833333D01*
X83867380Y-148833333D02*
X83915000Y-148738095D01*
X83915000Y-148738095D02*
X83962619Y-148690476D01*
X83962619Y-148690476D02*
X84057857Y-148642857D01*
X84057857Y-148642857D02*
X84200714Y-148642857D01*
X84200714Y-148642857D02*
X84295952Y-148690476D01*
X84295952Y-148690476D02*
X84343571Y-148738095D01*
X84343571Y-148738095D02*
X84391190Y-148833333D01*
X84391190Y-148833333D02*
X84391190Y-149214285D01*
X83962619Y-148261904D02*
X83915000Y-148214285D01*
X83915000Y-148214285D02*
X83867380Y-148119047D01*
X83867380Y-148119047D02*
X83867380Y-147880952D01*
X83867380Y-147880952D02*
X83915000Y-147785714D01*
X83915000Y-147785714D02*
X83962619Y-147738095D01*
X83962619Y-147738095D02*
X84057857Y-147690476D01*
X84057857Y-147690476D02*
X84153095Y-147690476D01*
X84153095Y-147690476D02*
X84295952Y-147738095D01*
X84295952Y-147738095D02*
X84867380Y-148309523D01*
X84867380Y-148309523D02*
X84867380Y-147690476D01*
X84867380Y-147214285D02*
X84867380Y-147023809D01*
X84867380Y-147023809D02*
X84819761Y-146928571D01*
X84819761Y-146928571D02*
X84772142Y-146880952D01*
X84772142Y-146880952D02*
X84629285Y-146785714D01*
X84629285Y-146785714D02*
X84438809Y-146738095D01*
X84438809Y-146738095D02*
X84057857Y-146738095D01*
X84057857Y-146738095D02*
X83962619Y-146785714D01*
X83962619Y-146785714D02*
X83915000Y-146833333D01*
X83915000Y-146833333D02*
X83867380Y-146928571D01*
X83867380Y-146928571D02*
X83867380Y-147119047D01*
X83867380Y-147119047D02*
X83915000Y-147214285D01*
X83915000Y-147214285D02*
X83962619Y-147261904D01*
X83962619Y-147261904D02*
X84057857Y-147309523D01*
X84057857Y-147309523D02*
X84295952Y-147309523D01*
X84295952Y-147309523D02*
X84391190Y-147261904D01*
X84391190Y-147261904D02*
X84438809Y-147214285D01*
X84438809Y-147214285D02*
X84486428Y-147119047D01*
X84486428Y-147119047D02*
X84486428Y-146928571D01*
X84486428Y-146928571D02*
X84438809Y-146833333D01*
X84438809Y-146833333D02*
X84391190Y-146785714D01*
X84391190Y-146785714D02*
X84295952Y-146738095D01*
X138667380Y-108766666D02*
X138191190Y-109099999D01*
X138667380Y-109338094D02*
X137667380Y-109338094D01*
X137667380Y-109338094D02*
X137667380Y-108957142D01*
X137667380Y-108957142D02*
X137715000Y-108861904D01*
X137715000Y-108861904D02*
X137762619Y-108814285D01*
X137762619Y-108814285D02*
X137857857Y-108766666D01*
X137857857Y-108766666D02*
X138000714Y-108766666D01*
X138000714Y-108766666D02*
X138095952Y-108814285D01*
X138095952Y-108814285D02*
X138143571Y-108861904D01*
X138143571Y-108861904D02*
X138191190Y-108957142D01*
X138191190Y-108957142D02*
X138191190Y-109338094D01*
X137667380Y-108433332D02*
X137667380Y-107814285D01*
X137667380Y-107814285D02*
X138048333Y-108147618D01*
X138048333Y-108147618D02*
X138048333Y-108004761D01*
X138048333Y-108004761D02*
X138095952Y-107909523D01*
X138095952Y-107909523D02*
X138143571Y-107861904D01*
X138143571Y-107861904D02*
X138238809Y-107814285D01*
X138238809Y-107814285D02*
X138476904Y-107814285D01*
X138476904Y-107814285D02*
X138572142Y-107861904D01*
X138572142Y-107861904D02*
X138619761Y-107909523D01*
X138619761Y-107909523D02*
X138667380Y-108004761D01*
X138667380Y-108004761D02*
X138667380Y-108290475D01*
X138667380Y-108290475D02*
X138619761Y-108385713D01*
X138619761Y-108385713D02*
X138572142Y-108433332D01*
X108862619Y-150895238D02*
X108815000Y-150990476D01*
X108815000Y-150990476D02*
X108719761Y-151085714D01*
X108719761Y-151085714D02*
X108576904Y-151228571D01*
X108576904Y-151228571D02*
X108529285Y-151323809D01*
X108529285Y-151323809D02*
X108529285Y-151419047D01*
X108767380Y-151371428D02*
X108719761Y-151466666D01*
X108719761Y-151466666D02*
X108624523Y-151561904D01*
X108624523Y-151561904D02*
X108434047Y-151609523D01*
X108434047Y-151609523D02*
X108100714Y-151609523D01*
X108100714Y-151609523D02*
X107910238Y-151561904D01*
X107910238Y-151561904D02*
X107815000Y-151466666D01*
X107815000Y-151466666D02*
X107767380Y-151371428D01*
X107767380Y-151371428D02*
X107767380Y-151180952D01*
X107767380Y-151180952D02*
X107815000Y-151085714D01*
X107815000Y-151085714D02*
X107910238Y-150990476D01*
X107910238Y-150990476D02*
X108100714Y-150942857D01*
X108100714Y-150942857D02*
X108434047Y-150942857D01*
X108434047Y-150942857D02*
X108624523Y-150990476D01*
X108624523Y-150990476D02*
X108719761Y-151085714D01*
X108719761Y-151085714D02*
X108767380Y-151180952D01*
X108767380Y-151180952D02*
X108767380Y-151371428D01*
X108100714Y-150085714D02*
X108767380Y-150085714D01*
X107719761Y-150323809D02*
X108434047Y-150561904D01*
X108434047Y-150561904D02*
X108434047Y-149942857D01*
X150004761Y-89062619D02*
X149909523Y-89015000D01*
X149909523Y-89015000D02*
X149814285Y-88919761D01*
X149814285Y-88919761D02*
X149671428Y-88776904D01*
X149671428Y-88776904D02*
X149576190Y-88729285D01*
X149576190Y-88729285D02*
X149480952Y-88729285D01*
X149528571Y-88967380D02*
X149433333Y-88919761D01*
X149433333Y-88919761D02*
X149338095Y-88824523D01*
X149338095Y-88824523D02*
X149290476Y-88634047D01*
X149290476Y-88634047D02*
X149290476Y-88300714D01*
X149290476Y-88300714D02*
X149338095Y-88110238D01*
X149338095Y-88110238D02*
X149433333Y-88015000D01*
X149433333Y-88015000D02*
X149528571Y-87967380D01*
X149528571Y-87967380D02*
X149719047Y-87967380D01*
X149719047Y-87967380D02*
X149814285Y-88015000D01*
X149814285Y-88015000D02*
X149909523Y-88110238D01*
X149909523Y-88110238D02*
X149957142Y-88300714D01*
X149957142Y-88300714D02*
X149957142Y-88634047D01*
X149957142Y-88634047D02*
X149909523Y-88824523D01*
X149909523Y-88824523D02*
X149814285Y-88919761D01*
X149814285Y-88919761D02*
X149719047Y-88967380D01*
X149719047Y-88967380D02*
X149528571Y-88967380D01*
X150338095Y-88062619D02*
X150385714Y-88015000D01*
X150385714Y-88015000D02*
X150480952Y-87967380D01*
X150480952Y-87967380D02*
X150719047Y-87967380D01*
X150719047Y-87967380D02*
X150814285Y-88015000D01*
X150814285Y-88015000D02*
X150861904Y-88062619D01*
X150861904Y-88062619D02*
X150909523Y-88157857D01*
X150909523Y-88157857D02*
X150909523Y-88253095D01*
X150909523Y-88253095D02*
X150861904Y-88395952D01*
X150861904Y-88395952D02*
X150290476Y-88967380D01*
X150290476Y-88967380D02*
X150909523Y-88967380D01*
X72692142Y-146997380D02*
X72358809Y-146521190D01*
X72120714Y-146997380D02*
X72120714Y-145997380D01*
X72120714Y-145997380D02*
X72501666Y-145997380D01*
X72501666Y-145997380D02*
X72596904Y-146045000D01*
X72596904Y-146045000D02*
X72644523Y-146092619D01*
X72644523Y-146092619D02*
X72692142Y-146187857D01*
X72692142Y-146187857D02*
X72692142Y-146330714D01*
X72692142Y-146330714D02*
X72644523Y-146425952D01*
X72644523Y-146425952D02*
X72596904Y-146473571D01*
X72596904Y-146473571D02*
X72501666Y-146521190D01*
X72501666Y-146521190D02*
X72120714Y-146521190D01*
X73025476Y-145997380D02*
X73644523Y-145997380D01*
X73644523Y-145997380D02*
X73311190Y-146378333D01*
X73311190Y-146378333D02*
X73454047Y-146378333D01*
X73454047Y-146378333D02*
X73549285Y-146425952D01*
X73549285Y-146425952D02*
X73596904Y-146473571D01*
X73596904Y-146473571D02*
X73644523Y-146568809D01*
X73644523Y-146568809D02*
X73644523Y-146806904D01*
X73644523Y-146806904D02*
X73596904Y-146902142D01*
X73596904Y-146902142D02*
X73549285Y-146949761D01*
X73549285Y-146949761D02*
X73454047Y-146997380D01*
X73454047Y-146997380D02*
X73168333Y-146997380D01*
X73168333Y-146997380D02*
X73073095Y-146949761D01*
X73073095Y-146949761D02*
X73025476Y-146902142D01*
X74549285Y-145997380D02*
X74073095Y-145997380D01*
X74073095Y-145997380D02*
X74025476Y-146473571D01*
X74025476Y-146473571D02*
X74073095Y-146425952D01*
X74073095Y-146425952D02*
X74168333Y-146378333D01*
X74168333Y-146378333D02*
X74406428Y-146378333D01*
X74406428Y-146378333D02*
X74501666Y-146425952D01*
X74501666Y-146425952D02*
X74549285Y-146473571D01*
X74549285Y-146473571D02*
X74596904Y-146568809D01*
X74596904Y-146568809D02*
X74596904Y-146806904D01*
X74596904Y-146806904D02*
X74549285Y-146902142D01*
X74549285Y-146902142D02*
X74501666Y-146949761D01*
X74501666Y-146949761D02*
X74406428Y-146997380D01*
X74406428Y-146997380D02*
X74168333Y-146997380D01*
X74168333Y-146997380D02*
X74073095Y-146949761D01*
X74073095Y-146949761D02*
X74025476Y-146902142D01*
D13*
X139551071Y-154357142D02*
X139551071Y-155214285D01*
X139551071Y-154785714D02*
X138051071Y-154785714D01*
X138051071Y-154785714D02*
X138265357Y-154928571D01*
X138265357Y-154928571D02*
X138408214Y-155071428D01*
X138408214Y-155071428D02*
X138479642Y-155214285D01*
X138051071Y-153857143D02*
X138051071Y-152857143D01*
X138051071Y-152857143D02*
X139551071Y-153500000D01*
D12*
X83129906Y-107537619D02*
X84158002Y-107537619D01*
X84158002Y-107537619D02*
X84278954Y-107477142D01*
X84278954Y-107477142D02*
X84339430Y-107416666D01*
X84339430Y-107416666D02*
X84399906Y-107295714D01*
X84399906Y-107295714D02*
X84399906Y-107053809D01*
X84399906Y-107053809D02*
X84339430Y-106932857D01*
X84339430Y-106932857D02*
X84278954Y-106872380D01*
X84278954Y-106872380D02*
X84158002Y-106811904D01*
X84158002Y-106811904D02*
X83129906Y-106811904D01*
X83129906Y-106328095D02*
X83129906Y-105541904D01*
X83129906Y-105541904D02*
X83613716Y-105965238D01*
X83613716Y-105965238D02*
X83613716Y-105783809D01*
X83613716Y-105783809D02*
X83674192Y-105662857D01*
X83674192Y-105662857D02*
X83734668Y-105602381D01*
X83734668Y-105602381D02*
X83855621Y-105541904D01*
X83855621Y-105541904D02*
X84158002Y-105541904D01*
X84158002Y-105541904D02*
X84278954Y-105602381D01*
X84278954Y-105602381D02*
X84339430Y-105662857D01*
X84339430Y-105662857D02*
X84399906Y-105783809D01*
X84399906Y-105783809D02*
X84399906Y-106146666D01*
X84399906Y-106146666D02*
X84339430Y-106267619D01*
X84339430Y-106267619D02*
X84278954Y-106328095D01*
D11*
X67562619Y-150895238D02*
X67515000Y-150990476D01*
X67515000Y-150990476D02*
X67419761Y-151085714D01*
X67419761Y-151085714D02*
X67276904Y-151228571D01*
X67276904Y-151228571D02*
X67229285Y-151323809D01*
X67229285Y-151323809D02*
X67229285Y-151419047D01*
X67467380Y-151371428D02*
X67419761Y-151466666D01*
X67419761Y-151466666D02*
X67324523Y-151561904D01*
X67324523Y-151561904D02*
X67134047Y-151609523D01*
X67134047Y-151609523D02*
X66800714Y-151609523D01*
X66800714Y-151609523D02*
X66610238Y-151561904D01*
X66610238Y-151561904D02*
X66515000Y-151466666D01*
X66515000Y-151466666D02*
X66467380Y-151371428D01*
X66467380Y-151371428D02*
X66467380Y-151180952D01*
X66467380Y-151180952D02*
X66515000Y-151085714D01*
X66515000Y-151085714D02*
X66610238Y-150990476D01*
X66610238Y-150990476D02*
X66800714Y-150942857D01*
X66800714Y-150942857D02*
X67134047Y-150942857D01*
X67134047Y-150942857D02*
X67324523Y-150990476D01*
X67324523Y-150990476D02*
X67419761Y-151085714D01*
X67419761Y-151085714D02*
X67467380Y-151180952D01*
X67467380Y-151180952D02*
X67467380Y-151371428D01*
X66467380Y-150085714D02*
X66467380Y-150276190D01*
X66467380Y-150276190D02*
X66515000Y-150371428D01*
X66515000Y-150371428D02*
X66562619Y-150419047D01*
X66562619Y-150419047D02*
X66705476Y-150514285D01*
X66705476Y-150514285D02*
X66895952Y-150561904D01*
X66895952Y-150561904D02*
X67276904Y-150561904D01*
X67276904Y-150561904D02*
X67372142Y-150514285D01*
X67372142Y-150514285D02*
X67419761Y-150466666D01*
X67419761Y-150466666D02*
X67467380Y-150371428D01*
X67467380Y-150371428D02*
X67467380Y-150180952D01*
X67467380Y-150180952D02*
X67419761Y-150085714D01*
X67419761Y-150085714D02*
X67372142Y-150038095D01*
X67372142Y-150038095D02*
X67276904Y-149990476D01*
X67276904Y-149990476D02*
X67038809Y-149990476D01*
X67038809Y-149990476D02*
X66943571Y-150038095D01*
X66943571Y-150038095D02*
X66895952Y-150085714D01*
X66895952Y-150085714D02*
X66848333Y-150180952D01*
X66848333Y-150180952D02*
X66848333Y-150371428D01*
X66848333Y-150371428D02*
X66895952Y-150466666D01*
X66895952Y-150466666D02*
X66943571Y-150514285D01*
X66943571Y-150514285D02*
X67038809Y-150561904D01*
X145296666Y-116647380D02*
X145296666Y-117361666D01*
X145296666Y-117361666D02*
X145249047Y-117504523D01*
X145249047Y-117504523D02*
X145153809Y-117599761D01*
X145153809Y-117599761D02*
X145010952Y-117647380D01*
X145010952Y-117647380D02*
X144915714Y-117647380D01*
X146296666Y-117647380D02*
X145725238Y-117647380D01*
X146010952Y-117647380D02*
X146010952Y-116647380D01*
X146010952Y-116647380D02*
X145915714Y-116790238D01*
X145915714Y-116790238D02*
X145820476Y-116885476D01*
X145820476Y-116885476D02*
X145725238Y-116933095D01*
D12*
X125596572Y-107527619D02*
X126624668Y-107527619D01*
X126624668Y-107527619D02*
X126745620Y-107467142D01*
X126745620Y-107467142D02*
X126806096Y-107406666D01*
X126806096Y-107406666D02*
X126866572Y-107285714D01*
X126866572Y-107285714D02*
X126866572Y-107043809D01*
X126866572Y-107043809D02*
X126806096Y-106922857D01*
X126806096Y-106922857D02*
X126745620Y-106862380D01*
X126745620Y-106862380D02*
X126624668Y-106801904D01*
X126624668Y-106801904D02*
X125596572Y-106801904D01*
X125596572Y-105592381D02*
X125596572Y-106197143D01*
X125596572Y-106197143D02*
X126201334Y-106257619D01*
X126201334Y-106257619D02*
X126140858Y-106197143D01*
X126140858Y-106197143D02*
X126080382Y-106076190D01*
X126080382Y-106076190D02*
X126080382Y-105773809D01*
X126080382Y-105773809D02*
X126140858Y-105652857D01*
X126140858Y-105652857D02*
X126201334Y-105592381D01*
X126201334Y-105592381D02*
X126322287Y-105531904D01*
X126322287Y-105531904D02*
X126624668Y-105531904D01*
X126624668Y-105531904D02*
X126745620Y-105592381D01*
X126745620Y-105592381D02*
X126806096Y-105652857D01*
X126806096Y-105652857D02*
X126866572Y-105773809D01*
X126866572Y-105773809D02*
X126866572Y-106076190D01*
X126866572Y-106076190D02*
X126806096Y-106197143D01*
X126806096Y-106197143D02*
X126745620Y-106257619D01*
X61896573Y-107537619D02*
X62924669Y-107537619D01*
X62924669Y-107537619D02*
X63045621Y-107477142D01*
X63045621Y-107477142D02*
X63106097Y-107416666D01*
X63106097Y-107416666D02*
X63166573Y-107295714D01*
X63166573Y-107295714D02*
X63166573Y-107053809D01*
X63166573Y-107053809D02*
X63106097Y-106932857D01*
X63106097Y-106932857D02*
X63045621Y-106872380D01*
X63045621Y-106872380D02*
X62924669Y-106811904D01*
X62924669Y-106811904D02*
X61896573Y-106811904D01*
X62017526Y-106267619D02*
X61957050Y-106207143D01*
X61957050Y-106207143D02*
X61896573Y-106086190D01*
X61896573Y-106086190D02*
X61896573Y-105783809D01*
X61896573Y-105783809D02*
X61957050Y-105662857D01*
X61957050Y-105662857D02*
X62017526Y-105602381D01*
X62017526Y-105602381D02*
X62138478Y-105541904D01*
X62138478Y-105541904D02*
X62259430Y-105541904D01*
X62259430Y-105541904D02*
X62440859Y-105602381D01*
X62440859Y-105602381D02*
X63166573Y-106328095D01*
X63166573Y-106328095D02*
X63166573Y-105541904D01*
D11*
X145261905Y-87667380D02*
X145261905Y-88476904D01*
X145261905Y-88476904D02*
X145309524Y-88572142D01*
X145309524Y-88572142D02*
X145357143Y-88619761D01*
X145357143Y-88619761D02*
X145452381Y-88667380D01*
X145452381Y-88667380D02*
X145642857Y-88667380D01*
X145642857Y-88667380D02*
X145738095Y-88619761D01*
X145738095Y-88619761D02*
X145785714Y-88572142D01*
X145785714Y-88572142D02*
X145833333Y-88476904D01*
X145833333Y-88476904D02*
X145833333Y-87667380D01*
X146833333Y-88667380D02*
X146261905Y-88667380D01*
X146547619Y-88667380D02*
X146547619Y-87667380D01*
X146547619Y-87667380D02*
X146452381Y-87810238D01*
X146452381Y-87810238D02*
X146357143Y-87905476D01*
X146357143Y-87905476D02*
X146261905Y-87953095D01*
X147452381Y-87667380D02*
X147547619Y-87667380D01*
X147547619Y-87667380D02*
X147642857Y-87715000D01*
X147642857Y-87715000D02*
X147690476Y-87762619D01*
X147690476Y-87762619D02*
X147738095Y-87857857D01*
X147738095Y-87857857D02*
X147785714Y-88048333D01*
X147785714Y-88048333D02*
X147785714Y-88286428D01*
X147785714Y-88286428D02*
X147738095Y-88476904D01*
X147738095Y-88476904D02*
X147690476Y-88572142D01*
X147690476Y-88572142D02*
X147642857Y-88619761D01*
X147642857Y-88619761D02*
X147547619Y-88667380D01*
X147547619Y-88667380D02*
X147452381Y-88667380D01*
X147452381Y-88667380D02*
X147357143Y-88619761D01*
X147357143Y-88619761D02*
X147309524Y-88572142D01*
X147309524Y-88572142D02*
X147261905Y-88476904D01*
X147261905Y-88476904D02*
X147214286Y-88286428D01*
X147214286Y-88286428D02*
X147214286Y-88048333D01*
X147214286Y-88048333D02*
X147261905Y-87857857D01*
X147261905Y-87857857D02*
X147309524Y-87762619D01*
X147309524Y-87762619D02*
X147357143Y-87715000D01*
X147357143Y-87715000D02*
X147452381Y-87667380D01*
X108467380Y-148542857D02*
X107991190Y-148876190D01*
X108467380Y-149114285D02*
X107467380Y-149114285D01*
X107467380Y-149114285D02*
X107467380Y-148733333D01*
X107467380Y-148733333D02*
X107515000Y-148638095D01*
X107515000Y-148638095D02*
X107562619Y-148590476D01*
X107562619Y-148590476D02*
X107657857Y-148542857D01*
X107657857Y-148542857D02*
X107800714Y-148542857D01*
X107800714Y-148542857D02*
X107895952Y-148590476D01*
X107895952Y-148590476D02*
X107943571Y-148638095D01*
X107943571Y-148638095D02*
X107991190Y-148733333D01*
X107991190Y-148733333D02*
X107991190Y-149114285D01*
X107562619Y-148161904D02*
X107515000Y-148114285D01*
X107515000Y-148114285D02*
X107467380Y-148019047D01*
X107467380Y-148019047D02*
X107467380Y-147780952D01*
X107467380Y-147780952D02*
X107515000Y-147685714D01*
X107515000Y-147685714D02*
X107562619Y-147638095D01*
X107562619Y-147638095D02*
X107657857Y-147590476D01*
X107657857Y-147590476D02*
X107753095Y-147590476D01*
X107753095Y-147590476D02*
X107895952Y-147638095D01*
X107895952Y-147638095D02*
X108467380Y-148209523D01*
X108467380Y-148209523D02*
X108467380Y-147590476D01*
X107467380Y-146685714D02*
X107467380Y-147161904D01*
X107467380Y-147161904D02*
X107943571Y-147209523D01*
X107943571Y-147209523D02*
X107895952Y-147161904D01*
X107895952Y-147161904D02*
X107848333Y-147066666D01*
X107848333Y-147066666D02*
X107848333Y-146828571D01*
X107848333Y-146828571D02*
X107895952Y-146733333D01*
X107895952Y-146733333D02*
X107943571Y-146685714D01*
X107943571Y-146685714D02*
X108038809Y-146638095D01*
X108038809Y-146638095D02*
X108276904Y-146638095D01*
X108276904Y-146638095D02*
X108372142Y-146685714D01*
X108372142Y-146685714D02*
X108419761Y-146733333D01*
X108419761Y-146733333D02*
X108467380Y-146828571D01*
X108467380Y-146828571D02*
X108467380Y-147066666D01*
X108467380Y-147066666D02*
X108419761Y-147161904D01*
X108419761Y-147161904D02*
X108372142Y-147209523D01*
X145767380Y-109366666D02*
X145291190Y-109699999D01*
X145767380Y-109938094D02*
X144767380Y-109938094D01*
X144767380Y-109938094D02*
X144767380Y-109557142D01*
X144767380Y-109557142D02*
X144815000Y-109461904D01*
X144815000Y-109461904D02*
X144862619Y-109414285D01*
X144862619Y-109414285D02*
X144957857Y-109366666D01*
X144957857Y-109366666D02*
X145100714Y-109366666D01*
X145100714Y-109366666D02*
X145195952Y-109414285D01*
X145195952Y-109414285D02*
X145243571Y-109461904D01*
X145243571Y-109461904D02*
X145291190Y-109557142D01*
X145291190Y-109557142D02*
X145291190Y-109938094D01*
X144862619Y-108985713D02*
X144815000Y-108938094D01*
X144815000Y-108938094D02*
X144767380Y-108842856D01*
X144767380Y-108842856D02*
X144767380Y-108604761D01*
X144767380Y-108604761D02*
X144815000Y-108509523D01*
X144815000Y-108509523D02*
X144862619Y-108461904D01*
X144862619Y-108461904D02*
X144957857Y-108414285D01*
X144957857Y-108414285D02*
X145053095Y-108414285D01*
X145053095Y-108414285D02*
X145195952Y-108461904D01*
X145195952Y-108461904D02*
X145767380Y-109033332D01*
X145767380Y-109033332D02*
X145767380Y-108414285D01*
X67782142Y-159267380D02*
X67448809Y-158791190D01*
X67210714Y-159267380D02*
X67210714Y-158267380D01*
X67210714Y-158267380D02*
X67591666Y-158267380D01*
X67591666Y-158267380D02*
X67686904Y-158315000D01*
X67686904Y-158315000D02*
X67734523Y-158362619D01*
X67734523Y-158362619D02*
X67782142Y-158457857D01*
X67782142Y-158457857D02*
X67782142Y-158600714D01*
X67782142Y-158600714D02*
X67734523Y-158695952D01*
X67734523Y-158695952D02*
X67686904Y-158743571D01*
X67686904Y-158743571D02*
X67591666Y-158791190D01*
X67591666Y-158791190D02*
X67210714Y-158791190D01*
X68115476Y-158267380D02*
X68734523Y-158267380D01*
X68734523Y-158267380D02*
X68401190Y-158648333D01*
X68401190Y-158648333D02*
X68544047Y-158648333D01*
X68544047Y-158648333D02*
X68639285Y-158695952D01*
X68639285Y-158695952D02*
X68686904Y-158743571D01*
X68686904Y-158743571D02*
X68734523Y-158838809D01*
X68734523Y-158838809D02*
X68734523Y-159076904D01*
X68734523Y-159076904D02*
X68686904Y-159172142D01*
X68686904Y-159172142D02*
X68639285Y-159219761D01*
X68639285Y-159219761D02*
X68544047Y-159267380D01*
X68544047Y-159267380D02*
X68258333Y-159267380D01*
X68258333Y-159267380D02*
X68163095Y-159219761D01*
X68163095Y-159219761D02*
X68115476Y-159172142D01*
X69591666Y-158600714D02*
X69591666Y-159267380D01*
X69353571Y-158219761D02*
X69115476Y-158934047D01*
X69115476Y-158934047D02*
X69734523Y-158934047D01*
X59567380Y-148442857D02*
X59091190Y-148776190D01*
X59567380Y-149014285D02*
X58567380Y-149014285D01*
X58567380Y-149014285D02*
X58567380Y-148633333D01*
X58567380Y-148633333D02*
X58615000Y-148538095D01*
X58615000Y-148538095D02*
X58662619Y-148490476D01*
X58662619Y-148490476D02*
X58757857Y-148442857D01*
X58757857Y-148442857D02*
X58900714Y-148442857D01*
X58900714Y-148442857D02*
X58995952Y-148490476D01*
X58995952Y-148490476D02*
X59043571Y-148538095D01*
X59043571Y-148538095D02*
X59091190Y-148633333D01*
X59091190Y-148633333D02*
X59091190Y-149014285D01*
X58567380Y-148109523D02*
X58567380Y-147490476D01*
X58567380Y-147490476D02*
X58948333Y-147823809D01*
X58948333Y-147823809D02*
X58948333Y-147680952D01*
X58948333Y-147680952D02*
X58995952Y-147585714D01*
X58995952Y-147585714D02*
X59043571Y-147538095D01*
X59043571Y-147538095D02*
X59138809Y-147490476D01*
X59138809Y-147490476D02*
X59376904Y-147490476D01*
X59376904Y-147490476D02*
X59472142Y-147538095D01*
X59472142Y-147538095D02*
X59519761Y-147585714D01*
X59519761Y-147585714D02*
X59567380Y-147680952D01*
X59567380Y-147680952D02*
X59567380Y-147966666D01*
X59567380Y-147966666D02*
X59519761Y-148061904D01*
X59519761Y-148061904D02*
X59472142Y-148109523D01*
X58662619Y-147109523D02*
X58615000Y-147061904D01*
X58615000Y-147061904D02*
X58567380Y-146966666D01*
X58567380Y-146966666D02*
X58567380Y-146728571D01*
X58567380Y-146728571D02*
X58615000Y-146633333D01*
X58615000Y-146633333D02*
X58662619Y-146585714D01*
X58662619Y-146585714D02*
X58757857Y-146538095D01*
X58757857Y-146538095D02*
X58853095Y-146538095D01*
X58853095Y-146538095D02*
X58995952Y-146585714D01*
X58995952Y-146585714D02*
X59567380Y-147157142D01*
X59567380Y-147157142D02*
X59567380Y-146538095D01*
X134762380Y-155348094D02*
X135571904Y-155348094D01*
X135571904Y-155348094D02*
X135667142Y-155300475D01*
X135667142Y-155300475D02*
X135714761Y-155252856D01*
X135714761Y-155252856D02*
X135762380Y-155157618D01*
X135762380Y-155157618D02*
X135762380Y-154967142D01*
X135762380Y-154967142D02*
X135714761Y-154871904D01*
X135714761Y-154871904D02*
X135667142Y-154824285D01*
X135667142Y-154824285D02*
X135571904Y-154776666D01*
X135571904Y-154776666D02*
X134762380Y-154776666D01*
X135762380Y-153776666D02*
X135762380Y-154348094D01*
X135762380Y-154062380D02*
X134762380Y-154062380D01*
X134762380Y-154062380D02*
X134905238Y-154157618D01*
X134905238Y-154157618D02*
X135000476Y-154252856D01*
X135000476Y-154252856D02*
X135048095Y-154348094D01*
X135762380Y-152824285D02*
X135762380Y-153395713D01*
X135762380Y-153109999D02*
X134762380Y-153109999D01*
X134762380Y-153109999D02*
X134905238Y-153205237D01*
X134905238Y-153205237D02*
X135000476Y-153300475D01*
X135000476Y-153300475D02*
X135048095Y-153395713D01*
X90292142Y-146997380D02*
X89958809Y-146521190D01*
X89720714Y-146997380D02*
X89720714Y-145997380D01*
X89720714Y-145997380D02*
X90101666Y-145997380D01*
X90101666Y-145997380D02*
X90196904Y-146045000D01*
X90196904Y-146045000D02*
X90244523Y-146092619D01*
X90244523Y-146092619D02*
X90292142Y-146187857D01*
X90292142Y-146187857D02*
X90292142Y-146330714D01*
X90292142Y-146330714D02*
X90244523Y-146425952D01*
X90244523Y-146425952D02*
X90196904Y-146473571D01*
X90196904Y-146473571D02*
X90101666Y-146521190D01*
X90101666Y-146521190D02*
X89720714Y-146521190D01*
X90625476Y-145997380D02*
X91244523Y-145997380D01*
X91244523Y-145997380D02*
X90911190Y-146378333D01*
X90911190Y-146378333D02*
X91054047Y-146378333D01*
X91054047Y-146378333D02*
X91149285Y-146425952D01*
X91149285Y-146425952D02*
X91196904Y-146473571D01*
X91196904Y-146473571D02*
X91244523Y-146568809D01*
X91244523Y-146568809D02*
X91244523Y-146806904D01*
X91244523Y-146806904D02*
X91196904Y-146902142D01*
X91196904Y-146902142D02*
X91149285Y-146949761D01*
X91149285Y-146949761D02*
X91054047Y-146997380D01*
X91054047Y-146997380D02*
X90768333Y-146997380D01*
X90768333Y-146997380D02*
X90673095Y-146949761D01*
X90673095Y-146949761D02*
X90625476Y-146902142D01*
X92196904Y-146997380D02*
X91625476Y-146997380D01*
X91911190Y-146997380D02*
X91911190Y-145997380D01*
X91911190Y-145997380D02*
X91815952Y-146140238D01*
X91815952Y-146140238D02*
X91720714Y-146235476D01*
X91720714Y-146235476D02*
X91625476Y-146283095D01*
X109157142Y-159167380D02*
X108823809Y-158691190D01*
X108585714Y-159167380D02*
X108585714Y-158167380D01*
X108585714Y-158167380D02*
X108966666Y-158167380D01*
X108966666Y-158167380D02*
X109061904Y-158215000D01*
X109061904Y-158215000D02*
X109109523Y-158262619D01*
X109109523Y-158262619D02*
X109157142Y-158357857D01*
X109157142Y-158357857D02*
X109157142Y-158500714D01*
X109157142Y-158500714D02*
X109109523Y-158595952D01*
X109109523Y-158595952D02*
X109061904Y-158643571D01*
X109061904Y-158643571D02*
X108966666Y-158691190D01*
X108966666Y-158691190D02*
X108585714Y-158691190D01*
X109538095Y-158262619D02*
X109585714Y-158215000D01*
X109585714Y-158215000D02*
X109680952Y-158167380D01*
X109680952Y-158167380D02*
X109919047Y-158167380D01*
X109919047Y-158167380D02*
X110014285Y-158215000D01*
X110014285Y-158215000D02*
X110061904Y-158262619D01*
X110061904Y-158262619D02*
X110109523Y-158357857D01*
X110109523Y-158357857D02*
X110109523Y-158453095D01*
X110109523Y-158453095D02*
X110061904Y-158595952D01*
X110061904Y-158595952D02*
X109490476Y-159167380D01*
X109490476Y-159167380D02*
X110109523Y-159167380D01*
X110966666Y-158167380D02*
X110776190Y-158167380D01*
X110776190Y-158167380D02*
X110680952Y-158215000D01*
X110680952Y-158215000D02*
X110633333Y-158262619D01*
X110633333Y-158262619D02*
X110538095Y-158405476D01*
X110538095Y-158405476D02*
X110490476Y-158595952D01*
X110490476Y-158595952D02*
X110490476Y-158976904D01*
X110490476Y-158976904D02*
X110538095Y-159072142D01*
X110538095Y-159072142D02*
X110585714Y-159119761D01*
X110585714Y-159119761D02*
X110680952Y-159167380D01*
X110680952Y-159167380D02*
X110871428Y-159167380D01*
X110871428Y-159167380D02*
X110966666Y-159119761D01*
X110966666Y-159119761D02*
X111014285Y-159072142D01*
X111014285Y-159072142D02*
X111061904Y-158976904D01*
X111061904Y-158976904D02*
X111061904Y-158738809D01*
X111061904Y-158738809D02*
X111014285Y-158643571D01*
X111014285Y-158643571D02*
X110966666Y-158595952D01*
X110966666Y-158595952D02*
X110871428Y-158548333D01*
X110871428Y-158548333D02*
X110680952Y-158548333D01*
X110680952Y-158548333D02*
X110585714Y-158595952D01*
X110585714Y-158595952D02*
X110538095Y-158643571D01*
X110538095Y-158643571D02*
X110490476Y-158738809D01*
X85357142Y-159267380D02*
X85023809Y-158791190D01*
X84785714Y-159267380D02*
X84785714Y-158267380D01*
X84785714Y-158267380D02*
X85166666Y-158267380D01*
X85166666Y-158267380D02*
X85261904Y-158315000D01*
X85261904Y-158315000D02*
X85309523Y-158362619D01*
X85309523Y-158362619D02*
X85357142Y-158457857D01*
X85357142Y-158457857D02*
X85357142Y-158600714D01*
X85357142Y-158600714D02*
X85309523Y-158695952D01*
X85309523Y-158695952D02*
X85261904Y-158743571D01*
X85261904Y-158743571D02*
X85166666Y-158791190D01*
X85166666Y-158791190D02*
X84785714Y-158791190D01*
X85690476Y-158267380D02*
X86309523Y-158267380D01*
X86309523Y-158267380D02*
X85976190Y-158648333D01*
X85976190Y-158648333D02*
X86119047Y-158648333D01*
X86119047Y-158648333D02*
X86214285Y-158695952D01*
X86214285Y-158695952D02*
X86261904Y-158743571D01*
X86261904Y-158743571D02*
X86309523Y-158838809D01*
X86309523Y-158838809D02*
X86309523Y-159076904D01*
X86309523Y-159076904D02*
X86261904Y-159172142D01*
X86261904Y-159172142D02*
X86214285Y-159219761D01*
X86214285Y-159219761D02*
X86119047Y-159267380D01*
X86119047Y-159267380D02*
X85833333Y-159267380D01*
X85833333Y-159267380D02*
X85738095Y-159219761D01*
X85738095Y-159219761D02*
X85690476Y-159172142D01*
X86928571Y-158267380D02*
X87023809Y-158267380D01*
X87023809Y-158267380D02*
X87119047Y-158315000D01*
X87119047Y-158315000D02*
X87166666Y-158362619D01*
X87166666Y-158362619D02*
X87214285Y-158457857D01*
X87214285Y-158457857D02*
X87261904Y-158648333D01*
X87261904Y-158648333D02*
X87261904Y-158886428D01*
X87261904Y-158886428D02*
X87214285Y-159076904D01*
X87214285Y-159076904D02*
X87166666Y-159172142D01*
X87166666Y-159172142D02*
X87119047Y-159219761D01*
X87119047Y-159219761D02*
X87023809Y-159267380D01*
X87023809Y-159267380D02*
X86928571Y-159267380D01*
X86928571Y-159267380D02*
X86833333Y-159219761D01*
X86833333Y-159219761D02*
X86785714Y-159172142D01*
X86785714Y-159172142D02*
X86738095Y-159076904D01*
X86738095Y-159076904D02*
X86690476Y-158886428D01*
X86690476Y-158886428D02*
X86690476Y-158648333D01*
X86690476Y-158648333D02*
X86738095Y-158457857D01*
X86738095Y-158457857D02*
X86785714Y-158362619D01*
X86785714Y-158362619D02*
X86833333Y-158315000D01*
X86833333Y-158315000D02*
X86928571Y-158267380D01*
X93572380Y-155528094D02*
X94381904Y-155528094D01*
X94381904Y-155528094D02*
X94477142Y-155480475D01*
X94477142Y-155480475D02*
X94524761Y-155432856D01*
X94524761Y-155432856D02*
X94572380Y-155337618D01*
X94572380Y-155337618D02*
X94572380Y-155147142D01*
X94572380Y-155147142D02*
X94524761Y-155051904D01*
X94524761Y-155051904D02*
X94477142Y-155004285D01*
X94477142Y-155004285D02*
X94381904Y-154956666D01*
X94381904Y-154956666D02*
X93572380Y-154956666D01*
X94572380Y-153956666D02*
X94572380Y-154528094D01*
X94572380Y-154242380D02*
X93572380Y-154242380D01*
X93572380Y-154242380D02*
X93715238Y-154337618D01*
X93715238Y-154337618D02*
X93810476Y-154432856D01*
X93810476Y-154432856D02*
X93858095Y-154528094D01*
X93572380Y-153623332D02*
X93572380Y-153004285D01*
X93572380Y-153004285D02*
X93953333Y-153337618D01*
X93953333Y-153337618D02*
X93953333Y-153194761D01*
X93953333Y-153194761D02*
X94000952Y-153099523D01*
X94000952Y-153099523D02*
X94048571Y-153051904D01*
X94048571Y-153051904D02*
X94143809Y-153004285D01*
X94143809Y-153004285D02*
X94381904Y-153004285D01*
X94381904Y-153004285D02*
X94477142Y-153051904D01*
X94477142Y-153051904D02*
X94524761Y-153099523D01*
X94524761Y-153099523D02*
X94572380Y-153194761D01*
X94572380Y-153194761D02*
X94572380Y-153480475D01*
X94572380Y-153480475D02*
X94524761Y-153575713D01*
X94524761Y-153575713D02*
X94477142Y-153623332D01*
X143433333Y-88672142D02*
X143385714Y-88719761D01*
X143385714Y-88719761D02*
X143242857Y-88767380D01*
X143242857Y-88767380D02*
X143147619Y-88767380D01*
X143147619Y-88767380D02*
X143004762Y-88719761D01*
X143004762Y-88719761D02*
X142909524Y-88624523D01*
X142909524Y-88624523D02*
X142861905Y-88529285D01*
X142861905Y-88529285D02*
X142814286Y-88338809D01*
X142814286Y-88338809D02*
X142814286Y-88195952D01*
X142814286Y-88195952D02*
X142861905Y-88005476D01*
X142861905Y-88005476D02*
X142909524Y-87910238D01*
X142909524Y-87910238D02*
X143004762Y-87815000D01*
X143004762Y-87815000D02*
X143147619Y-87767380D01*
X143147619Y-87767380D02*
X143242857Y-87767380D01*
X143242857Y-87767380D02*
X143385714Y-87815000D01*
X143385714Y-87815000D02*
X143433333Y-87862619D01*
X143814286Y-87862619D02*
X143861905Y-87815000D01*
X143861905Y-87815000D02*
X143957143Y-87767380D01*
X143957143Y-87767380D02*
X144195238Y-87767380D01*
X144195238Y-87767380D02*
X144290476Y-87815000D01*
X144290476Y-87815000D02*
X144338095Y-87862619D01*
X144338095Y-87862619D02*
X144385714Y-87957857D01*
X144385714Y-87957857D02*
X144385714Y-88053095D01*
X144385714Y-88053095D02*
X144338095Y-88195952D01*
X144338095Y-88195952D02*
X143766667Y-88767380D01*
X143766667Y-88767380D02*
X144385714Y-88767380D01*
X126362619Y-150895238D02*
X126315000Y-150990476D01*
X126315000Y-150990476D02*
X126219761Y-151085714D01*
X126219761Y-151085714D02*
X126076904Y-151228571D01*
X126076904Y-151228571D02*
X126029285Y-151323809D01*
X126029285Y-151323809D02*
X126029285Y-151419047D01*
X126267380Y-151371428D02*
X126219761Y-151466666D01*
X126219761Y-151466666D02*
X126124523Y-151561904D01*
X126124523Y-151561904D02*
X125934047Y-151609523D01*
X125934047Y-151609523D02*
X125600714Y-151609523D01*
X125600714Y-151609523D02*
X125410238Y-151561904D01*
X125410238Y-151561904D02*
X125315000Y-151466666D01*
X125315000Y-151466666D02*
X125267380Y-151371428D01*
X125267380Y-151371428D02*
X125267380Y-151180952D01*
X125267380Y-151180952D02*
X125315000Y-151085714D01*
X125315000Y-151085714D02*
X125410238Y-150990476D01*
X125410238Y-150990476D02*
X125600714Y-150942857D01*
X125600714Y-150942857D02*
X125934047Y-150942857D01*
X125934047Y-150942857D02*
X126124523Y-150990476D01*
X126124523Y-150990476D02*
X126219761Y-151085714D01*
X126219761Y-151085714D02*
X126267380Y-151180952D01*
X126267380Y-151180952D02*
X126267380Y-151371428D01*
X125267380Y-150609523D02*
X125267380Y-149990476D01*
X125267380Y-149990476D02*
X125648333Y-150323809D01*
X125648333Y-150323809D02*
X125648333Y-150180952D01*
X125648333Y-150180952D02*
X125695952Y-150085714D01*
X125695952Y-150085714D02*
X125743571Y-150038095D01*
X125743571Y-150038095D02*
X125838809Y-149990476D01*
X125838809Y-149990476D02*
X126076904Y-149990476D01*
X126076904Y-149990476D02*
X126172142Y-150038095D01*
X126172142Y-150038095D02*
X126219761Y-150085714D01*
X126219761Y-150085714D02*
X126267380Y-150180952D01*
X126267380Y-150180952D02*
X126267380Y-150466666D01*
X126267380Y-150466666D02*
X126219761Y-150561904D01*
X126219761Y-150561904D02*
X126172142Y-150609523D01*
X75972380Y-155528094D02*
X76781904Y-155528094D01*
X76781904Y-155528094D02*
X76877142Y-155480475D01*
X76877142Y-155480475D02*
X76924761Y-155432856D01*
X76924761Y-155432856D02*
X76972380Y-155337618D01*
X76972380Y-155337618D02*
X76972380Y-155147142D01*
X76972380Y-155147142D02*
X76924761Y-155051904D01*
X76924761Y-155051904D02*
X76877142Y-155004285D01*
X76877142Y-155004285D02*
X76781904Y-154956666D01*
X76781904Y-154956666D02*
X75972380Y-154956666D01*
X76972380Y-153956666D02*
X76972380Y-154528094D01*
X76972380Y-154242380D02*
X75972380Y-154242380D01*
X75972380Y-154242380D02*
X76115238Y-154337618D01*
X76115238Y-154337618D02*
X76210476Y-154432856D01*
X76210476Y-154432856D02*
X76258095Y-154528094D01*
X76305714Y-153099523D02*
X76972380Y-153099523D01*
X75924761Y-153337618D02*
X76639047Y-153575713D01*
X76639047Y-153575713D02*
X76639047Y-152956666D01*
D14*
X117005000Y-151490000D02*
X111805000Y-151490000D01*
X111805000Y-151490000D02*
X111805000Y-156790000D01*
X117005000Y-153140000D02*
X117005000Y-151490000D01*
X117005000Y-156790000D02*
X117005000Y-155140000D01*
X111805000Y-156790000D02*
X117005000Y-156790000D01*
X117005000Y-153140000D02*
G75*
G03*
X117005000Y-155140000I0J-1000000D01*
G01*
X131897936Y-147365000D02*
X132352064Y-147365000D01*
X131897936Y-148835000D02*
X132352064Y-148835000D01*
X84465000Y-154137500D02*
X84465000Y-155812500D01*
X84465000Y-154137500D02*
X84465000Y-153487500D01*
X87585000Y-154137500D02*
X87585000Y-154787500D01*
X87585000Y-154137500D02*
X87585000Y-153487500D01*
X96200000Y-148720000D02*
X96200000Y-148650000D01*
X97570000Y-150090000D02*
G75*
G03*
X97570000Y-150090000I-1370000J0D01*
G01*
D15*
X151500000Y-156000000D02*
G75*
G03*
X151500000Y-156000000I-3500000J0D01*
G01*
D14*
X137700000Y-148670000D02*
X137700000Y-148600000D01*
X139070000Y-150040000D02*
G75*
G03*
X139070000Y-150040000I-1370000J0D01*
G01*
X144490000Y-100800000D02*
X144490000Y-104100000D01*
X144490000Y-100800000D02*
X150000000Y-100800000D01*
X144490000Y-104100000D02*
X150000000Y-104100000D01*
X114507936Y-147395000D02*
X114962064Y-147395000D01*
X114507936Y-148865000D02*
X114962064Y-148865000D01*
X151405000Y-105290000D02*
X146764000Y-105290000D01*
X151405000Y-105290000D02*
X151405000Y-115530000D01*
X149895000Y-105290000D02*
X149895000Y-115530000D01*
X146764000Y-105290000D02*
X146764000Y-115530000D01*
X151405000Y-108560000D02*
X149895000Y-108560000D01*
X151405000Y-112261000D02*
X149895000Y-112261000D01*
X151405000Y-115530000D02*
X146764000Y-115530000D01*
X120200000Y-156920000D02*
X120200000Y-156150000D01*
X118830000Y-156150000D02*
X121570000Y-156150000D01*
X121570000Y-156150000D02*
X121570000Y-149610000D01*
X118830000Y-149610000D02*
X118830000Y-156150000D01*
X121570000Y-149610000D02*
X118830000Y-149610000D01*
X120200000Y-148840000D02*
X120200000Y-149610000D01*
X140272936Y-95515000D02*
X140727064Y-95515000D01*
X140272936Y-96985000D02*
X140727064Y-96985000D01*
X143590000Y-86630000D02*
X151210000Y-86630000D01*
X151210000Y-86630000D02*
X151210000Y-76470000D01*
X143590000Y-76470000D02*
X143590000Y-86630000D01*
X149940000Y-76470000D02*
X149940000Y-86630000D01*
X151210000Y-76470000D02*
X143590000Y-76470000D01*
X126987936Y-156185000D02*
X127442064Y-156185000D01*
X126987936Y-157655000D02*
X127442064Y-157655000D01*
X128375000Y-65900000D02*
X128375000Y-65900000D01*
X128375000Y-65900000D02*
X128375000Y-60900000D01*
X128375000Y-60900000D02*
X128375000Y-60900000D01*
X128375000Y-60900000D02*
X128375000Y-65900000D01*
X128375000Y-65900000D02*
X123375000Y-65900000D01*
X123375000Y-65900000D02*
X123375000Y-65900000D01*
X123375000Y-65900000D02*
X128375000Y-65900000D01*
X128375000Y-65900000D02*
X128375000Y-65900000D01*
X123375000Y-65900000D02*
X123375000Y-65900000D01*
X123375000Y-65900000D02*
X123375000Y-60900000D01*
X123375000Y-60900000D02*
X123375000Y-60900000D01*
X123375000Y-60900000D02*
X123375000Y-65900000D01*
X123375000Y-60900000D02*
X128375000Y-60900000D01*
X128375000Y-60900000D02*
X128375000Y-60900000D01*
X128375000Y-60900000D02*
X123375000Y-60900000D01*
X123375000Y-60900000D02*
X123375000Y-60900000D01*
X111575000Y-65900000D02*
X111575000Y-65900000D01*
X111575000Y-65900000D02*
X111575000Y-60900000D01*
X111575000Y-60900000D02*
X111575000Y-60900000D01*
X111575000Y-60900000D02*
X111575000Y-65900000D01*
X111575000Y-65900000D02*
X106575000Y-65900000D01*
X106575000Y-65900000D02*
X106575000Y-65900000D01*
X106575000Y-65900000D02*
X111575000Y-65900000D01*
X111575000Y-65900000D02*
X111575000Y-65900000D01*
X106575000Y-65900000D02*
X106575000Y-65900000D01*
X106575000Y-65900000D02*
X106575000Y-60900000D01*
X106575000Y-60900000D02*
X106575000Y-60900000D01*
X106575000Y-60900000D02*
X106575000Y-65900000D01*
X106575000Y-60900000D02*
X111575000Y-60900000D01*
X111575000Y-60900000D02*
X111575000Y-60900000D01*
X111575000Y-60900000D02*
X106575000Y-60900000D01*
X106575000Y-60900000D02*
X106575000Y-60900000D01*
X141661252Y-86985000D02*
X141138748Y-86985000D01*
X141661252Y-85515000D02*
X141138748Y-85515000D01*
D15*
X151500000Y-63000000D02*
G75*
G03*
X151500000Y-63000000I-3500000J0D01*
G01*
X94841666Y-145095000D02*
X94841666Y-82570000D01*
X115491666Y-145095000D02*
X94841666Y-145095000D01*
X115491666Y-137570000D02*
X115491666Y-145095000D01*
X94841666Y-75570000D02*
X94841666Y-68045000D01*
X94841666Y-68045000D02*
X115491666Y-68045000D01*
X115491666Y-68045000D02*
X115491666Y-130570000D01*
D14*
X55630000Y-149350000D02*
X55700000Y-149350000D01*
X55630000Y-149350000D02*
G75*
G03*
X55630000Y-149350000I-1370000J0D01*
G01*
X99400000Y-148720000D02*
X99400000Y-148650000D01*
X100770000Y-150090000D02*
G75*
G03*
X100770000Y-150090000I-1370000J0D01*
G01*
X102810000Y-156950000D02*
X102810000Y-156180000D01*
X101440000Y-156180000D02*
X104180000Y-156180000D01*
X104180000Y-156180000D02*
X104180000Y-149640000D01*
X101440000Y-149640000D02*
X101440000Y-156180000D01*
X104180000Y-149640000D02*
X101440000Y-149640000D01*
X102810000Y-148870000D02*
X102810000Y-149640000D01*
X138795000Y-105090000D02*
X143995000Y-105090000D01*
X143995000Y-105090000D02*
X143995000Y-99790000D01*
X138795000Y-103440000D02*
X138795000Y-105090000D01*
X138795000Y-99790000D02*
X138795000Y-101440000D01*
X143995000Y-99790000D02*
X138795000Y-99790000D01*
X138795000Y-103440000D02*
G75*
G03*
X138795000Y-101440000I0J1000000D01*
G01*
X64410000Y-157100000D02*
X64410000Y-156330000D01*
X63040000Y-156330000D02*
X65780000Y-156330000D01*
X65780000Y-156330000D02*
X65780000Y-149790000D01*
X63040000Y-149790000D02*
X63040000Y-156330000D01*
X65780000Y-149790000D02*
X63040000Y-149790000D01*
X64410000Y-149020000D02*
X64410000Y-149790000D01*
X79010000Y-157100000D02*
X79010000Y-156330000D01*
X77640000Y-156330000D02*
X80380000Y-156330000D01*
X80380000Y-156330000D02*
X80380000Y-149790000D01*
X77640000Y-149790000D02*
X77640000Y-156330000D01*
X80380000Y-149790000D02*
X77640000Y-149790000D01*
X79010000Y-149020000D02*
X79010000Y-149790000D01*
X142180000Y-67010000D02*
X142180000Y-59390000D01*
X142180000Y-59390000D02*
X132020000Y-59390000D01*
X132020000Y-67010000D02*
X142180000Y-67010000D01*
X132020000Y-60660000D02*
X142180000Y-60660000D01*
X132020000Y-59390000D02*
X132020000Y-67010000D01*
X123200000Y-156920000D02*
X123200000Y-156150000D01*
X121830000Y-156150000D02*
X124570000Y-156150000D01*
X124570000Y-156150000D02*
X124570000Y-149610000D01*
X121830000Y-149610000D02*
X121830000Y-156150000D01*
X124570000Y-149610000D02*
X121830000Y-149610000D01*
X123200000Y-148840000D02*
X123200000Y-149610000D01*
X82010000Y-157100000D02*
X82010000Y-156330000D01*
X80640000Y-156330000D02*
X83380000Y-156330000D01*
X83380000Y-156330000D02*
X83380000Y-149790000D01*
X80640000Y-149790000D02*
X80640000Y-156330000D01*
X83380000Y-149790000D02*
X80640000Y-149790000D01*
X82010000Y-149020000D02*
X82010000Y-149790000D01*
X140422936Y-107765000D02*
X140877064Y-107765000D01*
X140422936Y-109235000D02*
X140877064Y-109235000D01*
X108265000Y-153987500D02*
X108265000Y-155662500D01*
X108265000Y-153987500D02*
X108265000Y-153337500D01*
X111385000Y-153987500D02*
X111385000Y-154637500D01*
X111385000Y-153987500D02*
X111385000Y-153337500D01*
D15*
X58500000Y-63000000D02*
G75*
G03*
X58500000Y-63000000I-3500000J0D01*
G01*
D14*
X151325000Y-89430000D02*
X146684000Y-89430000D01*
X151325000Y-89430000D02*
X151325000Y-99670000D01*
X149815000Y-89430000D02*
X149815000Y-99670000D01*
X146684000Y-89430000D02*
X146684000Y-99670000D01*
X151325000Y-92700000D02*
X149815000Y-92700000D01*
X151325000Y-96401000D02*
X149815000Y-96401000D01*
X151325000Y-99670000D02*
X146684000Y-99670000D01*
X73107936Y-147545000D02*
X73562064Y-147545000D01*
X73107936Y-149015000D02*
X73562064Y-149015000D01*
D15*
X94258333Y-68045000D02*
X94258333Y-130570000D01*
X73608333Y-68045000D02*
X94258333Y-68045000D01*
X73608333Y-75570000D02*
X73608333Y-68045000D01*
X94258333Y-137570000D02*
X94258333Y-145095000D01*
X94258333Y-145095000D02*
X73608333Y-145095000D01*
X73608333Y-145095000D02*
X73608333Y-82570000D01*
D14*
X66865000Y-154137500D02*
X66865000Y-155812500D01*
X66865000Y-154137500D02*
X66865000Y-153487500D01*
X69985000Y-154137500D02*
X69985000Y-154787500D01*
X69985000Y-154137500D02*
X69985000Y-153487500D01*
X139680000Y-122880000D02*
X139680000Y-123880000D01*
X139680000Y-123880000D02*
X140680000Y-123380000D01*
X140680000Y-123380000D02*
X139680000Y-122880000D01*
X141070000Y-118170000D02*
X150190000Y-118170000D01*
X141070000Y-132760000D02*
X142380000Y-132760000D01*
X141070000Y-151450000D02*
X141070000Y-118170000D01*
X142380000Y-119470000D02*
X148880000Y-119470000D01*
X142380000Y-132760000D02*
X142380000Y-119470000D01*
X142380000Y-136860000D02*
X141070000Y-136860000D01*
X142380000Y-136860000D02*
X142380000Y-136860000D01*
X142380000Y-150150000D02*
X142380000Y-136860000D01*
X148880000Y-119470000D02*
X148880000Y-150150000D01*
X148880000Y-150150000D02*
X142380000Y-150150000D01*
X150190000Y-118170000D02*
X150190000Y-151450000D01*
X150190000Y-151450000D02*
X141070000Y-151450000D01*
D15*
X136724999Y-68035000D02*
X136724999Y-130560000D01*
X116074999Y-68035000D02*
X136724999Y-68035000D01*
X116074999Y-75560000D02*
X116074999Y-68035000D01*
X136724999Y-137560000D02*
X136724999Y-145085000D01*
X136724999Y-145085000D02*
X116074999Y-145085000D01*
X116074999Y-145085000D02*
X116074999Y-82560000D01*
X52375000Y-145095000D02*
X52375000Y-82570000D01*
X73025000Y-145095000D02*
X52375000Y-145095000D01*
X73025000Y-137570000D02*
X73025000Y-145095000D01*
X52375000Y-75570000D02*
X52375000Y-68045000D01*
X52375000Y-68045000D02*
X73025000Y-68045000D01*
X73025000Y-68045000D02*
X73025000Y-130570000D01*
D14*
X142500000Y-94610000D02*
X145950000Y-94610000D01*
X142500000Y-94610000D02*
X140550000Y-94610000D01*
X142500000Y-89490000D02*
X144450000Y-89490000D01*
X142500000Y-89490000D02*
X140550000Y-89490000D01*
X105810000Y-156950000D02*
X105810000Y-156180000D01*
X104440000Y-156180000D02*
X107180000Y-156180000D01*
X107180000Y-156180000D02*
X107180000Y-149640000D01*
X104440000Y-149640000D02*
X104440000Y-156180000D01*
X107180000Y-149640000D02*
X104440000Y-149640000D01*
X105810000Y-148870000D02*
X105810000Y-149640000D01*
X144185000Y-108972936D02*
X144185000Y-109427064D01*
X142715000Y-108972936D02*
X142715000Y-109427064D01*
D15*
X58500000Y-156000000D02*
G75*
G03*
X58500000Y-156000000I-3500000J0D01*
G01*
D14*
X68197936Y-156365000D02*
X68652064Y-156365000D01*
X68197936Y-157835000D02*
X68652064Y-157835000D01*
X61410000Y-157100000D02*
X61410000Y-156330000D01*
X60040000Y-156330000D02*
X62780000Y-156330000D01*
X62780000Y-156330000D02*
X62780000Y-149790000D01*
X60040000Y-149790000D02*
X60040000Y-156330000D01*
X62780000Y-149790000D02*
X60040000Y-149790000D01*
X61410000Y-149020000D02*
X61410000Y-149790000D01*
X134395000Y-151460000D02*
X129195000Y-151460000D01*
X129195000Y-151460000D02*
X129195000Y-156760000D01*
X134395000Y-153110000D02*
X134395000Y-151460000D01*
X134395000Y-156760000D02*
X134395000Y-155110000D01*
X129195000Y-156760000D02*
X134395000Y-156760000D01*
X134395000Y-153110000D02*
G75*
G03*
X134395000Y-155110000I0J-1000000D01*
G01*
G36*
X100586727Y-61685379D02*
G01*
X100652966Y-61714073D01*
X100713855Y-61757674D01*
X100729918Y-61772814D01*
X100778052Y-61832172D01*
X100811012Y-61897795D01*
X100828515Y-61967880D01*
X100830276Y-62040624D01*
X100816009Y-62114224D01*
X100793022Y-62172189D01*
X100755570Y-62230273D01*
X100706252Y-62279274D01*
X100647902Y-62317916D01*
X100583352Y-62344925D01*
X100515434Y-62359025D01*
X100446980Y-62358943D01*
X100399166Y-62349448D01*
X100374190Y-62342402D01*
X100356399Y-62337775D01*
X100351448Y-62336773D01*
X100335338Y-62330392D01*
X100311243Y-62314775D01*
X100282859Y-62292946D01*
X100253881Y-62267929D01*
X100228004Y-62242748D01*
X100208924Y-62220426D01*
X100208447Y-62219765D01*
X100170940Y-62153890D01*
X100148772Y-62084154D01*
X100141736Y-62012827D01*
X100149624Y-61942179D01*
X100172225Y-61874478D01*
X100209331Y-61811996D01*
X100250153Y-61766511D01*
X100311056Y-61720244D01*
X100377303Y-61689025D01*
X100446757Y-61672827D01*
X100517278Y-61671621D01*
X100586727Y-61685379D01*
G37*
D16*
X100586727Y-61685379D02*
X100652966Y-61714073D01*
X100713855Y-61757674D01*
X100729918Y-61772814D01*
X100778052Y-61832172D01*
X100811012Y-61897795D01*
X100828515Y-61967880D01*
X100830276Y-62040624D01*
X100816009Y-62114224D01*
X100793022Y-62172189D01*
X100755570Y-62230273D01*
X100706252Y-62279274D01*
X100647902Y-62317916D01*
X100583352Y-62344925D01*
X100515434Y-62359025D01*
X100446980Y-62358943D01*
X100399166Y-62349448D01*
X100374190Y-62342402D01*
X100356399Y-62337775D01*
X100351448Y-62336773D01*
X100335338Y-62330392D01*
X100311243Y-62314775D01*
X100282859Y-62292946D01*
X100253881Y-62267929D01*
X100228004Y-62242748D01*
X100208924Y-62220426D01*
X100208447Y-62219765D01*
X100170940Y-62153890D01*
X100148772Y-62084154D01*
X100141736Y-62012827D01*
X100149624Y-61942179D01*
X100172225Y-61874478D01*
X100209331Y-61811996D01*
X100250153Y-61766511D01*
X100311056Y-61720244D01*
X100377303Y-61689025D01*
X100446757Y-61672827D01*
X100517278Y-61671621D01*
X100586727Y-61685379D01*
G36*
X98139144Y-61077299D02*
G01*
X98172575Y-61083893D01*
X98214193Y-61093591D01*
X98260035Y-61105337D01*
X98306140Y-61118073D01*
X98348547Y-61130744D01*
X98383293Y-61142292D01*
X98406418Y-61151660D01*
X98407187Y-61152046D01*
X98444835Y-61180021D01*
X98475286Y-61219556D01*
X98496153Y-61265973D01*
X98505051Y-61314597D01*
X98503855Y-61341479D01*
X98500808Y-61355979D01*
X98493793Y-61385194D01*
X98483235Y-61427485D01*
X98469553Y-61481210D01*
X98453171Y-61544731D01*
X98434509Y-61616406D01*
X98413990Y-61694597D01*
X98392035Y-61777663D01*
X98380805Y-61819933D01*
X98358337Y-61904388D01*
X98337059Y-61984429D01*
X98317393Y-62058465D01*
X98299761Y-62124906D01*
X98284583Y-62182162D01*
X98272282Y-62228645D01*
X98263279Y-62262762D01*
X98257995Y-62282926D01*
X98256863Y-62287347D01*
X98251216Y-62310262D01*
X98948424Y-62312948D01*
X99645633Y-62315635D01*
X99728414Y-62338288D01*
X99849835Y-62379869D01*
X99962322Y-62435795D01*
X100066252Y-62506291D01*
X100162002Y-62591585D01*
X100177337Y-62607409D01*
X100258932Y-62704524D01*
X100324607Y-62807345D01*
X100374496Y-62916205D01*
X100408731Y-63031436D01*
X100427446Y-63153370D01*
X100431381Y-63242333D01*
X100431241Y-63283360D01*
X100430285Y-63319078D01*
X100428047Y-63352169D01*
X100424059Y-63385317D01*
X100417853Y-63421205D01*
X100408962Y-63462514D01*
X100396918Y-63511929D01*
X100381254Y-63572131D01*
X100361503Y-63645805D01*
X100360284Y-63650317D01*
X100343756Y-63711462D01*
X100323394Y-63786713D01*
X100299806Y-63873836D01*
X100273597Y-63970595D01*
X100245374Y-64074755D01*
X100215742Y-64184081D01*
X100185307Y-64296339D01*
X100154675Y-64409294D01*
X100124453Y-64520709D01*
X100095246Y-64628351D01*
X100067660Y-64729985D01*
X100042302Y-64823375D01*
X100019778Y-64906287D01*
X100000692Y-64976485D01*
X100000280Y-64978000D01*
X99978529Y-65056244D01*
X99959153Y-65122437D01*
X99942485Y-65175538D01*
X99928854Y-65214508D01*
X99918590Y-65238305D01*
X99916361Y-65242115D01*
X99882899Y-65278380D01*
X99838329Y-65305041D01*
X99786803Y-65319833D01*
X99770519Y-65321624D01*
X99745170Y-65321931D01*
X99716776Y-65318969D01*
X99681707Y-65312088D01*
X99636332Y-65300637D01*
X99604810Y-65291912D01*
X99543759Y-65273544D01*
X99496748Y-65256405D01*
X99461105Y-65238990D01*
X99434161Y-65219793D01*
X99413243Y-65197310D01*
X99399046Y-65175932D01*
X99392254Y-65164556D01*
X99386276Y-65154134D01*
X99381310Y-65143707D01*
X99377552Y-65132319D01*
X99375201Y-65119014D01*
X99374453Y-65102835D01*
X99375507Y-65082824D01*
X99378560Y-65058026D01*
X99383810Y-65027484D01*
X99391453Y-64990240D01*
X99401688Y-64945339D01*
X99414711Y-64891822D01*
X99430722Y-64828735D01*
X99449916Y-64755119D01*
X99472492Y-64670018D01*
X99498647Y-64572475D01*
X99528579Y-64461534D01*
X99562484Y-64336238D01*
X99600562Y-64195629D01*
X99604216Y-64182133D01*
X99641706Y-64043597D01*
X99674995Y-63920406D01*
X99704334Y-63811568D01*
X99729969Y-63716090D01*
X99752149Y-63632979D01*
X99771122Y-63561241D01*
X99787136Y-63499884D01*
X99800440Y-63447916D01*
X99811283Y-63404342D01*
X99819911Y-63368170D01*
X99826574Y-63338407D01*
X99831520Y-63314060D01*
X99834997Y-63294135D01*
X99837253Y-63277641D01*
X99838536Y-63263584D01*
X99839096Y-63250972D01*
X99839190Y-63242333D01*
X99831580Y-63166020D01*
X99808848Y-63097229D01*
X99771235Y-63036411D01*
X99718981Y-62984020D01*
X99690941Y-62963437D01*
X99675938Y-62953287D01*
X99662477Y-62944354D01*
X99649434Y-62936560D01*
X99635683Y-62929829D01*
X99620097Y-62924081D01*
X99601553Y-62919241D01*
X99578924Y-62915229D01*
X99551084Y-62911970D01*
X99516908Y-62909384D01*
X99475271Y-62907395D01*
X99425047Y-62905925D01*
X99365110Y-62904897D01*
X99294336Y-62904232D01*
X99211597Y-62903854D01*
X99115770Y-62903685D01*
X99005728Y-62903647D01*
X98880346Y-62903662D01*
X98823486Y-62903666D01*
X98093313Y-62903666D01*
X98084674Y-62931183D01*
X98081006Y-62944022D01*
X98073347Y-62971753D01*
X98062094Y-63012912D01*
X98047642Y-63066034D01*
X98030390Y-63129658D01*
X98010734Y-63202318D01*
X97989070Y-63282552D01*
X97965795Y-63368896D01*
X97941307Y-63459886D01*
X97934922Y-63483633D01*
X97910040Y-63575754D01*
X97886054Y-63663715D01*
X97863383Y-63746035D01*
X97842446Y-63821233D01*
X97823660Y-63887829D01*
X97807445Y-63944340D01*
X97794218Y-63989288D01*
X97784399Y-64021191D01*
X97778405Y-64038568D01*
X97777574Y-64040430D01*
X97750949Y-64076043D01*
X97712211Y-64106034D01*
X97666024Y-64127096D01*
X97648848Y-64131771D01*
X97630516Y-64135309D01*
X97613305Y-64136655D01*
X97593787Y-64135356D01*
X97568530Y-64130961D01*
X97534107Y-64123018D01*
X97487086Y-64111075D01*
X97482256Y-64109824D01*
X97436373Y-64097448D01*
X97393997Y-64085139D01*
X97358974Y-64074078D01*
X97335148Y-64065442D01*
X97329999Y-64063127D01*
X97285241Y-64031438D01*
X97250961Y-63987844D01*
X97229070Y-63935046D01*
X97224564Y-63914148D01*
X97223215Y-63906652D01*
X97222128Y-63899960D01*
X97221600Y-63892834D01*
X97221930Y-63884034D01*
X97223416Y-63872322D01*
X97226355Y-63856460D01*
X97231045Y-63835207D01*
X97237785Y-63807326D01*
X97246872Y-63771578D01*
X97258604Y-63726724D01*
X97273279Y-63671525D01*
X97291196Y-63604743D01*
X97312652Y-63525138D01*
X97337945Y-63431472D01*
X97362731Y-63339700D01*
X97479322Y-62907900D01*
X96970744Y-62903666D01*
X96865140Y-62902770D01*
X96775120Y-62901942D01*
X96699339Y-62901128D01*
X96636447Y-62900273D01*
X96585098Y-62899325D01*
X96543943Y-62898230D01*
X96511635Y-62896933D01*
X96486826Y-62895380D01*
X96468169Y-62893519D01*
X96454316Y-62891295D01*
X96443920Y-62888655D01*
X96435632Y-62885544D01*
X96428300Y-62882009D01*
X96397114Y-62857480D01*
X96372718Y-62822183D01*
X96358548Y-62781946D01*
X96356360Y-62760056D01*
X96358728Y-62739190D01*
X96365140Y-62706033D01*
X96374596Y-62664458D01*
X96386092Y-62618339D01*
X96398629Y-62571546D01*
X96411203Y-62527955D01*
X96422814Y-62491438D01*
X96432414Y-62465970D01*
X96456185Y-62427090D01*
X96491211Y-62388340D01*
X96532508Y-62354647D01*
X96563987Y-62335956D01*
X96606100Y-62315233D01*
X97122566Y-62312927D01*
X97639033Y-62310621D01*
X97782137Y-61771060D01*
X97807086Y-61677339D01*
X97831162Y-61587555D01*
X97853955Y-61503199D01*
X97875055Y-61425759D01*
X97894051Y-61356726D01*
X97910531Y-61297588D01*
X97924086Y-61249835D01*
X97934306Y-61214956D01*
X97940778Y-61194442D01*
X97942089Y-61190915D01*
X97969756Y-61145318D01*
X98009278Y-61109305D01*
X98057246Y-61085124D01*
X98110249Y-61075028D01*
X98117861Y-61074866D01*
X98139144Y-61077299D01*
G37*
X98139144Y-61077299D02*
X98172575Y-61083893D01*
X98214193Y-61093591D01*
X98260035Y-61105337D01*
X98306140Y-61118073D01*
X98348547Y-61130744D01*
X98383293Y-61142292D01*
X98406418Y-61151660D01*
X98407187Y-61152046D01*
X98444835Y-61180021D01*
X98475286Y-61219556D01*
X98496153Y-61265973D01*
X98505051Y-61314597D01*
X98503855Y-61341479D01*
X98500808Y-61355979D01*
X98493793Y-61385194D01*
X98483235Y-61427485D01*
X98469553Y-61481210D01*
X98453171Y-61544731D01*
X98434509Y-61616406D01*
X98413990Y-61694597D01*
X98392035Y-61777663D01*
X98380805Y-61819933D01*
X98358337Y-61904388D01*
X98337059Y-61984429D01*
X98317393Y-62058465D01*
X98299761Y-62124906D01*
X98284583Y-62182162D01*
X98272282Y-62228645D01*
X98263279Y-62262762D01*
X98257995Y-62282926D01*
X98256863Y-62287347D01*
X98251216Y-62310262D01*
X98948424Y-62312948D01*
X99645633Y-62315635D01*
X99728414Y-62338288D01*
X99849835Y-62379869D01*
X99962322Y-62435795D01*
X100066252Y-62506291D01*
X100162002Y-62591585D01*
X100177337Y-62607409D01*
X100258932Y-62704524D01*
X100324607Y-62807345D01*
X100374496Y-62916205D01*
X100408731Y-63031436D01*
X100427446Y-63153370D01*
X100431381Y-63242333D01*
X100431241Y-63283360D01*
X100430285Y-63319078D01*
X100428047Y-63352169D01*
X100424059Y-63385317D01*
X100417853Y-63421205D01*
X100408962Y-63462514D01*
X100396918Y-63511929D01*
X100381254Y-63572131D01*
X100361503Y-63645805D01*
X100360284Y-63650317D01*
X100343756Y-63711462D01*
X100323394Y-63786713D01*
X100299806Y-63873836D01*
X100273597Y-63970595D01*
X100245374Y-64074755D01*
X100215742Y-64184081D01*
X100185307Y-64296339D01*
X100154675Y-64409294D01*
X100124453Y-64520709D01*
X100095246Y-64628351D01*
X100067660Y-64729985D01*
X100042302Y-64823375D01*
X100019778Y-64906287D01*
X100000692Y-64976485D01*
X100000280Y-64978000D01*
X99978529Y-65056244D01*
X99959153Y-65122437D01*
X99942485Y-65175538D01*
X99928854Y-65214508D01*
X99918590Y-65238305D01*
X99916361Y-65242115D01*
X99882899Y-65278380D01*
X99838329Y-65305041D01*
X99786803Y-65319833D01*
X99770519Y-65321624D01*
X99745170Y-65321931D01*
X99716776Y-65318969D01*
X99681707Y-65312088D01*
X99636332Y-65300637D01*
X99604810Y-65291912D01*
X99543759Y-65273544D01*
X99496748Y-65256405D01*
X99461105Y-65238990D01*
X99434161Y-65219793D01*
X99413243Y-65197310D01*
X99399046Y-65175932D01*
X99392254Y-65164556D01*
X99386276Y-65154134D01*
X99381310Y-65143707D01*
X99377552Y-65132319D01*
X99375201Y-65119014D01*
X99374453Y-65102835D01*
X99375507Y-65082824D01*
X99378560Y-65058026D01*
X99383810Y-65027484D01*
X99391453Y-64990240D01*
X99401688Y-64945339D01*
X99414711Y-64891822D01*
X99430722Y-64828735D01*
X99449916Y-64755119D01*
X99472492Y-64670018D01*
X99498647Y-64572475D01*
X99528579Y-64461534D01*
X99562484Y-64336238D01*
X99600562Y-64195629D01*
X99604216Y-64182133D01*
X99641706Y-64043597D01*
X99674995Y-63920406D01*
X99704334Y-63811568D01*
X99729969Y-63716090D01*
X99752149Y-63632979D01*
X99771122Y-63561241D01*
X99787136Y-63499884D01*
X99800440Y-63447916D01*
X99811283Y-63404342D01*
X99819911Y-63368170D01*
X99826574Y-63338407D01*
X99831520Y-63314060D01*
X99834997Y-63294135D01*
X99837253Y-63277641D01*
X99838536Y-63263584D01*
X99839096Y-63250972D01*
X99839190Y-63242333D01*
X99831580Y-63166020D01*
X99808848Y-63097229D01*
X99771235Y-63036411D01*
X99718981Y-62984020D01*
X99690941Y-62963437D01*
X99675938Y-62953287D01*
X99662477Y-62944354D01*
X99649434Y-62936560D01*
X99635683Y-62929829D01*
X99620097Y-62924081D01*
X99601553Y-62919241D01*
X99578924Y-62915229D01*
X99551084Y-62911970D01*
X99516908Y-62909384D01*
X99475271Y-62907395D01*
X99425047Y-62905925D01*
X99365110Y-62904897D01*
X99294336Y-62904232D01*
X99211597Y-62903854D01*
X99115770Y-62903685D01*
X99005728Y-62903647D01*
X98880346Y-62903662D01*
X98823486Y-62903666D01*
X98093313Y-62903666D01*
X98084674Y-62931183D01*
X98081006Y-62944022D01*
X98073347Y-62971753D01*
X98062094Y-63012912D01*
X98047642Y-63066034D01*
X98030390Y-63129658D01*
X98010734Y-63202318D01*
X97989070Y-63282552D01*
X97965795Y-63368896D01*
X97941307Y-63459886D01*
X97934922Y-63483633D01*
X97910040Y-63575754D01*
X97886054Y-63663715D01*
X97863383Y-63746035D01*
X97842446Y-63821233D01*
X97823660Y-63887829D01*
X97807445Y-63944340D01*
X97794218Y-63989288D01*
X97784399Y-64021191D01*
X97778405Y-64038568D01*
X97777574Y-64040430D01*
X97750949Y-64076043D01*
X97712211Y-64106034D01*
X97666024Y-64127096D01*
X97648848Y-64131771D01*
X97630516Y-64135309D01*
X97613305Y-64136655D01*
X97593787Y-64135356D01*
X97568530Y-64130961D01*
X97534107Y-64123018D01*
X97487086Y-64111075D01*
X97482256Y-64109824D01*
X97436373Y-64097448D01*
X97393997Y-64085139D01*
X97358974Y-64074078D01*
X97335148Y-64065442D01*
X97329999Y-64063127D01*
X97285241Y-64031438D01*
X97250961Y-63987844D01*
X97229070Y-63935046D01*
X97224564Y-63914148D01*
X97223215Y-63906652D01*
X97222128Y-63899960D01*
X97221600Y-63892834D01*
X97221930Y-63884034D01*
X97223416Y-63872322D01*
X97226355Y-63856460D01*
X97231045Y-63835207D01*
X97237785Y-63807326D01*
X97246872Y-63771578D01*
X97258604Y-63726724D01*
X97273279Y-63671525D01*
X97291196Y-63604743D01*
X97312652Y-63525138D01*
X97337945Y-63431472D01*
X97362731Y-63339700D01*
X97479322Y-62907900D01*
X96970744Y-62903666D01*
X96865140Y-62902770D01*
X96775120Y-62901942D01*
X96699339Y-62901128D01*
X96636447Y-62900273D01*
X96585098Y-62899325D01*
X96543943Y-62898230D01*
X96511635Y-62896933D01*
X96486826Y-62895380D01*
X96468169Y-62893519D01*
X96454316Y-62891295D01*
X96443920Y-62888655D01*
X96435632Y-62885544D01*
X96428300Y-62882009D01*
X96397114Y-62857480D01*
X96372718Y-62822183D01*
X96358548Y-62781946D01*
X96356360Y-62760056D01*
X96358728Y-62739190D01*
X96365140Y-62706033D01*
X96374596Y-62664458D01*
X96386092Y-62618339D01*
X96398629Y-62571546D01*
X96411203Y-62527955D01*
X96422814Y-62491438D01*
X96432414Y-62465970D01*
X96456185Y-62427090D01*
X96491211Y-62388340D01*
X96532508Y-62354647D01*
X96563987Y-62335956D01*
X96606100Y-62315233D01*
X97122566Y-62312927D01*
X97639033Y-62310621D01*
X97782137Y-61771060D01*
X97807086Y-61677339D01*
X97831162Y-61587555D01*
X97853955Y-61503199D01*
X97875055Y-61425759D01*
X97894051Y-61356726D01*
X97910531Y-61297588D01*
X97924086Y-61249835D01*
X97934306Y-61214956D01*
X97940778Y-61194442D01*
X97942089Y-61190915D01*
X97969756Y-61145318D01*
X98009278Y-61109305D01*
X98057246Y-61085124D01*
X98110249Y-61075028D01*
X98117861Y-61074866D01*
X98139144Y-61077299D01*
D14*
X90707936Y-147545000D02*
X91162064Y-147545000D01*
X90707936Y-149015000D02*
X91162064Y-149015000D01*
X109597936Y-156215000D02*
X110052064Y-156215000D01*
X109597936Y-157685000D02*
X110052064Y-157685000D01*
X85797936Y-156365000D02*
X86252064Y-156365000D01*
X85797936Y-157835000D02*
X86252064Y-157835000D01*
X93205000Y-151640000D02*
X88005000Y-151640000D01*
X88005000Y-151640000D02*
X88005000Y-156940000D01*
X93205000Y-153290000D02*
X93205000Y-151640000D01*
X93205000Y-156940000D02*
X93205000Y-155290000D01*
X88005000Y-156940000D02*
X93205000Y-156940000D01*
X93205000Y-153290000D02*
G75*
G03*
X93205000Y-155290000I0J-1000000D01*
G01*
X140761252Y-88985000D02*
X140238748Y-88985000D01*
X140761252Y-87515000D02*
X140238748Y-87515000D01*
X125655000Y-153957500D02*
X125655000Y-155632500D01*
X125655000Y-153957500D02*
X125655000Y-153307500D01*
X128775000Y-153957500D02*
X128775000Y-154607500D01*
X128775000Y-153957500D02*
X128775000Y-153307500D01*
X75605000Y-151640000D02*
X70405000Y-151640000D01*
X70405000Y-151640000D02*
X70405000Y-156940000D01*
X75605000Y-153290000D02*
X75605000Y-151640000D01*
X75605000Y-156940000D02*
X75605000Y-155290000D01*
X70405000Y-156940000D02*
X75605000Y-156940000D01*
X75605000Y-153290000D02*
G75*
G03*
X75605000Y-155290000I0J-1000000D01*
G01*
%LPC*%
D17*
X115674999Y-150329999D03*
D18*
X113134999Y-150329999D03*
X113134999Y-157949999D03*
X115674999Y-157949999D03*
D19*
X131212500Y-148100000D03*
X133037500Y-148100000D03*
D20*
X85075000Y-155075000D03*
X86975000Y-155075000D03*
X86025000Y-153200000D03*
D21*
X96200000Y-150090000D03*
D18*
X96199999Y-147549999D03*
D22*
X148000000Y-156000000D03*
D21*
X137700000Y-150040000D03*
D18*
X137699999Y-147499999D03*
D23*
X146000000Y-102450000D03*
X150000000Y-102450000D03*
D19*
X113822500Y-148130000D03*
X115647500Y-148130000D03*
D24*
X148134999Y-107869999D03*
D25*
X148134999Y-110409999D03*
X148134999Y-112949999D03*
D21*
X120200000Y-157960000D03*
D18*
X120199999Y-147799999D03*
D19*
X139587500Y-96250000D03*
X141412500Y-96250000D03*
D26*
X147399999Y-84089999D03*
D27*
X147400000Y-79010000D03*
D19*
X126302500Y-156920000D03*
X128127500Y-156920000D03*
D28*
X126375000Y-65900000D03*
X126375000Y-60900000D03*
X108575000Y-65900000D03*
X108575000Y-60900000D03*
D29*
X142350000Y-86250000D03*
X140450000Y-86250000D03*
D22*
X148000000Y-63000000D03*
D30*
X105166666Y-142910000D03*
X105166666Y-70690000D03*
D31*
X97166666Y-78970000D03*
D32*
X113166666Y-70690000D03*
D31*
X113166666Y-134170000D03*
D21*
X54260000Y-149350000D03*
D18*
X56799999Y-149349999D03*
D33*
X141999999Y-156999999D03*
D21*
X99400000Y-150090000D03*
D18*
X99399999Y-147549999D03*
D21*
X102810000Y-157990000D03*
D18*
X102809999Y-147829999D03*
D17*
X140124999Y-106249999D03*
D18*
X142664999Y-106249999D03*
X142664999Y-98629999D03*
X140124999Y-98629999D03*
D21*
X64410000Y-158140000D03*
D18*
X64409999Y-147979999D03*
D21*
X79010000Y-158140000D03*
D18*
X79009999Y-147979999D03*
D26*
X139639999Y-63199999D03*
D27*
X134560000Y-63200000D03*
D21*
X123200000Y-157960000D03*
D18*
X123199999Y-147799999D03*
D21*
X82010000Y-158140000D03*
D18*
X82009999Y-147979999D03*
D19*
X139737500Y-108500000D03*
X141562500Y-108500000D03*
D20*
X108875000Y-154925000D03*
X110775000Y-154925000D03*
X109825000Y-153050000D03*
D22*
X55000000Y-63000000D03*
D24*
X148054999Y-92009999D03*
D25*
X148054999Y-94549999D03*
X148054999Y-97089999D03*
D19*
X72422500Y-148280000D03*
X74247500Y-148280000D03*
D33*
X138999999Y-156999999D03*
D30*
X83933333Y-70230000D03*
X83933333Y-142450000D03*
D31*
X91933333Y-134170000D03*
D32*
X75933333Y-142450000D03*
D31*
X75933333Y-78970000D03*
D20*
X67475000Y-155075000D03*
X69375000Y-155075000D03*
X68425000Y-153200000D03*
D34*
X144360000Y-123380000D03*
D35*
X146900000Y-123380000D03*
X144360000Y-125920000D03*
X146900000Y-125920000D03*
X144360000Y-128460000D03*
X146900000Y-128460000D03*
X144360000Y-131000000D03*
X146900000Y-131000000D03*
X144360000Y-133540000D03*
X146900000Y-133540000D03*
X144360000Y-136080000D03*
X146900000Y-136080000D03*
X144360000Y-138620000D03*
X146900000Y-138620000D03*
X144360000Y-141160000D03*
X146900000Y-141160000D03*
X144360000Y-143700000D03*
X146900000Y-143700000D03*
X144360000Y-146240000D03*
X146900000Y-146240000D03*
D30*
X126399999Y-70220000D03*
X126399999Y-142440000D03*
D31*
X134399999Y-134160000D03*
D32*
X118399999Y-142440000D03*
D31*
X118399999Y-78960000D03*
D30*
X62700000Y-142910000D03*
X62700000Y-70690000D03*
D31*
X54700000Y-78970000D03*
D32*
X70700000Y-70690000D03*
D31*
X70700000Y-134170000D03*
D36*
X144975000Y-93955000D03*
X144975000Y-92685000D03*
X144975000Y-91415000D03*
X144975000Y-90145000D03*
X140025000Y-90145000D03*
X140025000Y-91415000D03*
X140025000Y-92685000D03*
X140025000Y-93955000D03*
D21*
X105810000Y-157990000D03*
D18*
X105809999Y-147829999D03*
D37*
X143450000Y-108287500D03*
X143450000Y-110112500D03*
D22*
X55000000Y-156000000D03*
D19*
X67512500Y-157100000D03*
X69337500Y-157100000D03*
D21*
X61410000Y-158140000D03*
D18*
X61409999Y-147979999D03*
D17*
X133064999Y-150299999D03*
D18*
X130524999Y-150299999D03*
X130524999Y-157919999D03*
X133064999Y-157919999D03*
D19*
X90022500Y-148280000D03*
X91847500Y-148280000D03*
X108912500Y-156950000D03*
X110737500Y-156950000D03*
X85112500Y-157100000D03*
X86937500Y-157100000D03*
D17*
X91874999Y-150479999D03*
D18*
X89334999Y-150479999D03*
X89334999Y-158099999D03*
X91874999Y-158099999D03*
D29*
X141450000Y-88250000D03*
X139550000Y-88250000D03*
D20*
X126265000Y-154895000D03*
X128165000Y-154895000D03*
X127215000Y-153020000D03*
D17*
X74274999Y-150479999D03*
D18*
X71734999Y-150479999D03*
X71734999Y-158099999D03*
X74274999Y-158099999D03*
M02*
