%TF.GenerationSoftware,KiCad,Pcbnew,(7.0.0)*%
%TF.CreationDate,2023-05-12T10:49:56+02:00*%
%TF.ProjectId,BMS_Project,424d535f-5072-46f6-9a65-63742e6b6963,rev?*%
%TF.SameCoordinates,Original*%
%TF.FileFunction,Drillmap*%
%TF.FilePolarity,Positive*%
%FSLAX45Y45*%
G04 Gerber Fmt 4.5, Leading zero omitted, Abs format (unit mm)*
G04 Created by KiCad (PCBNEW (7.0.0)) date 2023-05-12 10:49:56*
%MOMM*%
%LPD*%
G01*
G04 APERTURE LIST*
%ADD10C,0.100000*%
%ADD11C,0.200000*%
%ADD12C,0.320000*%
%ADD13C,0.350000*%
%ADD14C,0.400000*%
G04 APERTURE END LIST*
D10*
X9870000Y-3610000D02*
X19870000Y-3610000D01*
X19870000Y-3610000D02*
X19870000Y-13610000D01*
X19870000Y-13610000D02*
X9870000Y-13610000D01*
X9870000Y-13610000D02*
X9870000Y-3610000D01*
D11*
D12*
X10237000Y-4181000D02*
X10557000Y-4501000D01*
X10557000Y-4181000D02*
X10237000Y-4501000D01*
X10237000Y-11674000D02*
X10557000Y-11994000D01*
X10557000Y-11674000D02*
X10237000Y-11994000D01*
X11761000Y-9261000D02*
X12081000Y-9581000D01*
X12081000Y-9261000D02*
X11761000Y-9581000D01*
X14555000Y-9261000D02*
X14875000Y-9581000D01*
X14875000Y-9261000D02*
X14555000Y-9581000D01*
X15063000Y-4054000D02*
X15383000Y-4374000D01*
X15383000Y-4054000D02*
X15063000Y-4374000D01*
X15063000Y-12309000D02*
X15383000Y-12629000D01*
X15383000Y-12309000D02*
X15063000Y-12629000D01*
D13*
X17370000Y-4050000D02*
G75*
G03*
X17370000Y-4050000I-175000J0D01*
G01*
X17370000Y-7585000D02*
G75*
G03*
X17370000Y-7585000I-175000J0D01*
G01*
X19695000Y-4050000D02*
G75*
G03*
X19695000Y-4050000I-175000J0D01*
G01*
X19695000Y-7585000D02*
G75*
G03*
X19695000Y-7585000I-175000J0D01*
G01*
D14*
X10620000Y-12970000D02*
X10620000Y-13370000D01*
X10420000Y-13170000D02*
X10820000Y-13170000D01*
X16210000Y-4170000D02*
X16210000Y-4570000D01*
X16010000Y-4370000D02*
X16410000Y-4370000D01*
X16220000Y-7300000D02*
X16220000Y-7700000D01*
X16020000Y-7500000D02*
X16420000Y-7500000D01*
X17420000Y-12470000D02*
X17420000Y-12870000D01*
X17220000Y-12670000D02*
X17620000Y-12670000D01*
D11*
X10112619Y-13908476D02*
X10112619Y-13708476D01*
X10112619Y-13708476D02*
X10160238Y-13708476D01*
X10160238Y-13708476D02*
X10188810Y-13718000D01*
X10188810Y-13718000D02*
X10207857Y-13737048D01*
X10207857Y-13737048D02*
X10217381Y-13756095D01*
X10217381Y-13756095D02*
X10226905Y-13794190D01*
X10226905Y-13794190D02*
X10226905Y-13822762D01*
X10226905Y-13822762D02*
X10217381Y-13860857D01*
X10217381Y-13860857D02*
X10207857Y-13879905D01*
X10207857Y-13879905D02*
X10188810Y-13898952D01*
X10188810Y-13898952D02*
X10160238Y-13908476D01*
X10160238Y-13908476D02*
X10112619Y-13908476D01*
X10312619Y-13908476D02*
X10312619Y-13775143D01*
X10312619Y-13813238D02*
X10322143Y-13794190D01*
X10322143Y-13794190D02*
X10331667Y-13784667D01*
X10331667Y-13784667D02*
X10350714Y-13775143D01*
X10350714Y-13775143D02*
X10369762Y-13775143D01*
X10436429Y-13908476D02*
X10436429Y-13775143D01*
X10436429Y-13708476D02*
X10426905Y-13718000D01*
X10426905Y-13718000D02*
X10436429Y-13727524D01*
X10436429Y-13727524D02*
X10445952Y-13718000D01*
X10445952Y-13718000D02*
X10436429Y-13708476D01*
X10436429Y-13708476D02*
X10436429Y-13727524D01*
X10560238Y-13908476D02*
X10541190Y-13898952D01*
X10541190Y-13898952D02*
X10531667Y-13879905D01*
X10531667Y-13879905D02*
X10531667Y-13708476D01*
X10665000Y-13908476D02*
X10645952Y-13898952D01*
X10645952Y-13898952D02*
X10636429Y-13879905D01*
X10636429Y-13879905D02*
X10636429Y-13708476D01*
X10861190Y-13908476D02*
X10861190Y-13708476D01*
X10861190Y-13708476D02*
X10927857Y-13851333D01*
X10927857Y-13851333D02*
X10994524Y-13708476D01*
X10994524Y-13708476D02*
X10994524Y-13908476D01*
X11175476Y-13908476D02*
X11175476Y-13803714D01*
X11175476Y-13803714D02*
X11165952Y-13784667D01*
X11165952Y-13784667D02*
X11146905Y-13775143D01*
X11146905Y-13775143D02*
X11108809Y-13775143D01*
X11108809Y-13775143D02*
X11089762Y-13784667D01*
X11175476Y-13898952D02*
X11156429Y-13908476D01*
X11156429Y-13908476D02*
X11108809Y-13908476D01*
X11108809Y-13908476D02*
X11089762Y-13898952D01*
X11089762Y-13898952D02*
X11080238Y-13879905D01*
X11080238Y-13879905D02*
X11080238Y-13860857D01*
X11080238Y-13860857D02*
X11089762Y-13841809D01*
X11089762Y-13841809D02*
X11108809Y-13832286D01*
X11108809Y-13832286D02*
X11156429Y-13832286D01*
X11156429Y-13832286D02*
X11175476Y-13822762D01*
X11270714Y-13775143D02*
X11270714Y-13975143D01*
X11270714Y-13784667D02*
X11289762Y-13775143D01*
X11289762Y-13775143D02*
X11327857Y-13775143D01*
X11327857Y-13775143D02*
X11346905Y-13784667D01*
X11346905Y-13784667D02*
X11356428Y-13794190D01*
X11356428Y-13794190D02*
X11365952Y-13813238D01*
X11365952Y-13813238D02*
X11365952Y-13870381D01*
X11365952Y-13870381D02*
X11356428Y-13889428D01*
X11356428Y-13889428D02*
X11346905Y-13898952D01*
X11346905Y-13898952D02*
X11327857Y-13908476D01*
X11327857Y-13908476D02*
X11289762Y-13908476D01*
X11289762Y-13908476D02*
X11270714Y-13898952D01*
X11451667Y-13889428D02*
X11461190Y-13898952D01*
X11461190Y-13898952D02*
X11451667Y-13908476D01*
X11451667Y-13908476D02*
X11442143Y-13898952D01*
X11442143Y-13898952D02*
X11451667Y-13889428D01*
X11451667Y-13889428D02*
X11451667Y-13908476D01*
X11451667Y-13784667D02*
X11461190Y-13794190D01*
X11461190Y-13794190D02*
X11451667Y-13803714D01*
X11451667Y-13803714D02*
X11442143Y-13794190D01*
X11442143Y-13794190D02*
X11451667Y-13784667D01*
X11451667Y-13784667D02*
X11451667Y-13803714D01*
X9665000Y-14155000D02*
X9865000Y-14355000D01*
X9865000Y-14155000D02*
X9665000Y-14355000D01*
X10093571Y-14128476D02*
X10217381Y-14128476D01*
X10217381Y-14128476D02*
X10150714Y-14204667D01*
X10150714Y-14204667D02*
X10179286Y-14204667D01*
X10179286Y-14204667D02*
X10198333Y-14214190D01*
X10198333Y-14214190D02*
X10207857Y-14223714D01*
X10207857Y-14223714D02*
X10217381Y-14242762D01*
X10217381Y-14242762D02*
X10217381Y-14290381D01*
X10217381Y-14290381D02*
X10207857Y-14309428D01*
X10207857Y-14309428D02*
X10198333Y-14318952D01*
X10198333Y-14318952D02*
X10179286Y-14328476D01*
X10179286Y-14328476D02*
X10122143Y-14328476D01*
X10122143Y-14328476D02*
X10103095Y-14318952D01*
X10103095Y-14318952D02*
X10093571Y-14309428D01*
X10303095Y-14309428D02*
X10312619Y-14318952D01*
X10312619Y-14318952D02*
X10303095Y-14328476D01*
X10303095Y-14328476D02*
X10293571Y-14318952D01*
X10293571Y-14318952D02*
X10303095Y-14309428D01*
X10303095Y-14309428D02*
X10303095Y-14328476D01*
X10388810Y-14147524D02*
X10398333Y-14138000D01*
X10398333Y-14138000D02*
X10417381Y-14128476D01*
X10417381Y-14128476D02*
X10465000Y-14128476D01*
X10465000Y-14128476D02*
X10484048Y-14138000D01*
X10484048Y-14138000D02*
X10493571Y-14147524D01*
X10493571Y-14147524D02*
X10503095Y-14166571D01*
X10503095Y-14166571D02*
X10503095Y-14185619D01*
X10503095Y-14185619D02*
X10493571Y-14214190D01*
X10493571Y-14214190D02*
X10379286Y-14328476D01*
X10379286Y-14328476D02*
X10503095Y-14328476D01*
X10626905Y-14128476D02*
X10645952Y-14128476D01*
X10645952Y-14128476D02*
X10665000Y-14138000D01*
X10665000Y-14138000D02*
X10674524Y-14147524D01*
X10674524Y-14147524D02*
X10684048Y-14166571D01*
X10684048Y-14166571D02*
X10693571Y-14204667D01*
X10693571Y-14204667D02*
X10693571Y-14252286D01*
X10693571Y-14252286D02*
X10684048Y-14290381D01*
X10684048Y-14290381D02*
X10674524Y-14309428D01*
X10674524Y-14309428D02*
X10665000Y-14318952D01*
X10665000Y-14318952D02*
X10645952Y-14328476D01*
X10645952Y-14328476D02*
X10626905Y-14328476D01*
X10626905Y-14328476D02*
X10607857Y-14318952D01*
X10607857Y-14318952D02*
X10598333Y-14309428D01*
X10598333Y-14309428D02*
X10588810Y-14290381D01*
X10588810Y-14290381D02*
X10579286Y-14252286D01*
X10579286Y-14252286D02*
X10579286Y-14204667D01*
X10579286Y-14204667D02*
X10588810Y-14166571D01*
X10588810Y-14166571D02*
X10598333Y-14147524D01*
X10598333Y-14147524D02*
X10607857Y-14138000D01*
X10607857Y-14138000D02*
X10626905Y-14128476D01*
X10817381Y-14128476D02*
X10836429Y-14128476D01*
X10836429Y-14128476D02*
X10855476Y-14138000D01*
X10855476Y-14138000D02*
X10865000Y-14147524D01*
X10865000Y-14147524D02*
X10874524Y-14166571D01*
X10874524Y-14166571D02*
X10884048Y-14204667D01*
X10884048Y-14204667D02*
X10884048Y-14252286D01*
X10884048Y-14252286D02*
X10874524Y-14290381D01*
X10874524Y-14290381D02*
X10865000Y-14309428D01*
X10865000Y-14309428D02*
X10855476Y-14318952D01*
X10855476Y-14318952D02*
X10836429Y-14328476D01*
X10836429Y-14328476D02*
X10817381Y-14328476D01*
X10817381Y-14328476D02*
X10798333Y-14318952D01*
X10798333Y-14318952D02*
X10788810Y-14309428D01*
X10788810Y-14309428D02*
X10779286Y-14290381D01*
X10779286Y-14290381D02*
X10769762Y-14252286D01*
X10769762Y-14252286D02*
X10769762Y-14204667D01*
X10769762Y-14204667D02*
X10779286Y-14166571D01*
X10779286Y-14166571D02*
X10788810Y-14147524D01*
X10788810Y-14147524D02*
X10798333Y-14138000D01*
X10798333Y-14138000D02*
X10817381Y-14128476D01*
X10969762Y-14328476D02*
X10969762Y-14195143D01*
X10969762Y-14214190D02*
X10979286Y-14204667D01*
X10979286Y-14204667D02*
X10998333Y-14195143D01*
X10998333Y-14195143D02*
X11026905Y-14195143D01*
X11026905Y-14195143D02*
X11045952Y-14204667D01*
X11045952Y-14204667D02*
X11055476Y-14223714D01*
X11055476Y-14223714D02*
X11055476Y-14328476D01*
X11055476Y-14223714D02*
X11065000Y-14204667D01*
X11065000Y-14204667D02*
X11084048Y-14195143D01*
X11084048Y-14195143D02*
X11112619Y-14195143D01*
X11112619Y-14195143D02*
X11131667Y-14204667D01*
X11131667Y-14204667D02*
X11141191Y-14223714D01*
X11141191Y-14223714D02*
X11141191Y-14328476D01*
X11236429Y-14328476D02*
X11236429Y-14195143D01*
X11236429Y-14214190D02*
X11245952Y-14204667D01*
X11245952Y-14204667D02*
X11265000Y-14195143D01*
X11265000Y-14195143D02*
X11293571Y-14195143D01*
X11293571Y-14195143D02*
X11312619Y-14204667D01*
X11312619Y-14204667D02*
X11322143Y-14223714D01*
X11322143Y-14223714D02*
X11322143Y-14328476D01*
X11322143Y-14223714D02*
X11331667Y-14204667D01*
X11331667Y-14204667D02*
X11350714Y-14195143D01*
X11350714Y-14195143D02*
X11379286Y-14195143D01*
X11379286Y-14195143D02*
X11398333Y-14204667D01*
X11398333Y-14204667D02*
X11407857Y-14223714D01*
X11407857Y-14223714D02*
X11407857Y-14328476D01*
X11765952Y-14118952D02*
X11594524Y-14376095D01*
X11990714Y-14128476D02*
X12009762Y-14128476D01*
X12009762Y-14128476D02*
X12028810Y-14138000D01*
X12028810Y-14138000D02*
X12038333Y-14147524D01*
X12038333Y-14147524D02*
X12047857Y-14166571D01*
X12047857Y-14166571D02*
X12057381Y-14204667D01*
X12057381Y-14204667D02*
X12057381Y-14252286D01*
X12057381Y-14252286D02*
X12047857Y-14290381D01*
X12047857Y-14290381D02*
X12038333Y-14309428D01*
X12038333Y-14309428D02*
X12028810Y-14318952D01*
X12028810Y-14318952D02*
X12009762Y-14328476D01*
X12009762Y-14328476D02*
X11990714Y-14328476D01*
X11990714Y-14328476D02*
X11971667Y-14318952D01*
X11971667Y-14318952D02*
X11962143Y-14309428D01*
X11962143Y-14309428D02*
X11952619Y-14290381D01*
X11952619Y-14290381D02*
X11943095Y-14252286D01*
X11943095Y-14252286D02*
X11943095Y-14204667D01*
X11943095Y-14204667D02*
X11952619Y-14166571D01*
X11952619Y-14166571D02*
X11962143Y-14147524D01*
X11962143Y-14147524D02*
X11971667Y-14138000D01*
X11971667Y-14138000D02*
X11990714Y-14128476D01*
X12143095Y-14309428D02*
X12152619Y-14318952D01*
X12152619Y-14318952D02*
X12143095Y-14328476D01*
X12143095Y-14328476D02*
X12133571Y-14318952D01*
X12133571Y-14318952D02*
X12143095Y-14309428D01*
X12143095Y-14309428D02*
X12143095Y-14328476D01*
X12343095Y-14328476D02*
X12228810Y-14328476D01*
X12285952Y-14328476D02*
X12285952Y-14128476D01*
X12285952Y-14128476D02*
X12266905Y-14157048D01*
X12266905Y-14157048D02*
X12247857Y-14176095D01*
X12247857Y-14176095D02*
X12228810Y-14185619D01*
X12419286Y-14147524D02*
X12428810Y-14138000D01*
X12428810Y-14138000D02*
X12447857Y-14128476D01*
X12447857Y-14128476D02*
X12495476Y-14128476D01*
X12495476Y-14128476D02*
X12514524Y-14138000D01*
X12514524Y-14138000D02*
X12524048Y-14147524D01*
X12524048Y-14147524D02*
X12533571Y-14166571D01*
X12533571Y-14166571D02*
X12533571Y-14185619D01*
X12533571Y-14185619D02*
X12524048Y-14214190D01*
X12524048Y-14214190D02*
X12409762Y-14328476D01*
X12409762Y-14328476D02*
X12533571Y-14328476D01*
X12705000Y-14128476D02*
X12666905Y-14128476D01*
X12666905Y-14128476D02*
X12647857Y-14138000D01*
X12647857Y-14138000D02*
X12638333Y-14147524D01*
X12638333Y-14147524D02*
X12619286Y-14176095D01*
X12619286Y-14176095D02*
X12609762Y-14214190D01*
X12609762Y-14214190D02*
X12609762Y-14290381D01*
X12609762Y-14290381D02*
X12619286Y-14309428D01*
X12619286Y-14309428D02*
X12628810Y-14318952D01*
X12628810Y-14318952D02*
X12647857Y-14328476D01*
X12647857Y-14328476D02*
X12685952Y-14328476D01*
X12685952Y-14328476D02*
X12705000Y-14318952D01*
X12705000Y-14318952D02*
X12714524Y-14309428D01*
X12714524Y-14309428D02*
X12724048Y-14290381D01*
X12724048Y-14290381D02*
X12724048Y-14242762D01*
X12724048Y-14242762D02*
X12714524Y-14223714D01*
X12714524Y-14223714D02*
X12705000Y-14214190D01*
X12705000Y-14214190D02*
X12685952Y-14204667D01*
X12685952Y-14204667D02*
X12647857Y-14204667D01*
X12647857Y-14204667D02*
X12628810Y-14214190D01*
X12628810Y-14214190D02*
X12619286Y-14223714D01*
X12619286Y-14223714D02*
X12609762Y-14242762D01*
X12847857Y-14128476D02*
X12866905Y-14128476D01*
X12866905Y-14128476D02*
X12885952Y-14138000D01*
X12885952Y-14138000D02*
X12895476Y-14147524D01*
X12895476Y-14147524D02*
X12905000Y-14166571D01*
X12905000Y-14166571D02*
X12914524Y-14204667D01*
X12914524Y-14204667D02*
X12914524Y-14252286D01*
X12914524Y-14252286D02*
X12905000Y-14290381D01*
X12905000Y-14290381D02*
X12895476Y-14309428D01*
X12895476Y-14309428D02*
X12885952Y-14318952D01*
X12885952Y-14318952D02*
X12866905Y-14328476D01*
X12866905Y-14328476D02*
X12847857Y-14328476D01*
X12847857Y-14328476D02*
X12828810Y-14318952D01*
X12828810Y-14318952D02*
X12819286Y-14309428D01*
X12819286Y-14309428D02*
X12809762Y-14290381D01*
X12809762Y-14290381D02*
X12800238Y-14252286D01*
X12800238Y-14252286D02*
X12800238Y-14204667D01*
X12800238Y-14204667D02*
X12809762Y-14166571D01*
X12809762Y-14166571D02*
X12819286Y-14147524D01*
X12819286Y-14147524D02*
X12828810Y-14138000D01*
X12828810Y-14138000D02*
X12847857Y-14128476D01*
X12990714Y-14128476D02*
X12990714Y-14166571D01*
X13066905Y-14128476D02*
X13066905Y-14166571D01*
X13329762Y-14404667D02*
X13320238Y-14395143D01*
X13320238Y-14395143D02*
X13301191Y-14366571D01*
X13301191Y-14366571D02*
X13291667Y-14347524D01*
X13291667Y-14347524D02*
X13282143Y-14318952D01*
X13282143Y-14318952D02*
X13272619Y-14271333D01*
X13272619Y-14271333D02*
X13272619Y-14233238D01*
X13272619Y-14233238D02*
X13282143Y-14185619D01*
X13282143Y-14185619D02*
X13291667Y-14157048D01*
X13291667Y-14157048D02*
X13301191Y-14138000D01*
X13301191Y-14138000D02*
X13320238Y-14109428D01*
X13320238Y-14109428D02*
X13329762Y-14099905D01*
X13491667Y-14128476D02*
X13453571Y-14128476D01*
X13453571Y-14128476D02*
X13434524Y-14138000D01*
X13434524Y-14138000D02*
X13425000Y-14147524D01*
X13425000Y-14147524D02*
X13405952Y-14176095D01*
X13405952Y-14176095D02*
X13396429Y-14214190D01*
X13396429Y-14214190D02*
X13396429Y-14290381D01*
X13396429Y-14290381D02*
X13405952Y-14309428D01*
X13405952Y-14309428D02*
X13415476Y-14318952D01*
X13415476Y-14318952D02*
X13434524Y-14328476D01*
X13434524Y-14328476D02*
X13472619Y-14328476D01*
X13472619Y-14328476D02*
X13491667Y-14318952D01*
X13491667Y-14318952D02*
X13501191Y-14309428D01*
X13501191Y-14309428D02*
X13510714Y-14290381D01*
X13510714Y-14290381D02*
X13510714Y-14242762D01*
X13510714Y-14242762D02*
X13501191Y-14223714D01*
X13501191Y-14223714D02*
X13491667Y-14214190D01*
X13491667Y-14214190D02*
X13472619Y-14204667D01*
X13472619Y-14204667D02*
X13434524Y-14204667D01*
X13434524Y-14204667D02*
X13415476Y-14214190D01*
X13415476Y-14214190D02*
X13405952Y-14223714D01*
X13405952Y-14223714D02*
X13396429Y-14242762D01*
X13716429Y-14328476D02*
X13716429Y-14128476D01*
X13802143Y-14328476D02*
X13802143Y-14223714D01*
X13802143Y-14223714D02*
X13792619Y-14204667D01*
X13792619Y-14204667D02*
X13773572Y-14195143D01*
X13773572Y-14195143D02*
X13745000Y-14195143D01*
X13745000Y-14195143D02*
X13725952Y-14204667D01*
X13725952Y-14204667D02*
X13716429Y-14214190D01*
X13925952Y-14328476D02*
X13906905Y-14318952D01*
X13906905Y-14318952D02*
X13897381Y-14309428D01*
X13897381Y-14309428D02*
X13887857Y-14290381D01*
X13887857Y-14290381D02*
X13887857Y-14233238D01*
X13887857Y-14233238D02*
X13897381Y-14214190D01*
X13897381Y-14214190D02*
X13906905Y-14204667D01*
X13906905Y-14204667D02*
X13925952Y-14195143D01*
X13925952Y-14195143D02*
X13954524Y-14195143D01*
X13954524Y-14195143D02*
X13973572Y-14204667D01*
X13973572Y-14204667D02*
X13983095Y-14214190D01*
X13983095Y-14214190D02*
X13992619Y-14233238D01*
X13992619Y-14233238D02*
X13992619Y-14290381D01*
X13992619Y-14290381D02*
X13983095Y-14309428D01*
X13983095Y-14309428D02*
X13973572Y-14318952D01*
X13973572Y-14318952D02*
X13954524Y-14328476D01*
X13954524Y-14328476D02*
X13925952Y-14328476D01*
X14106905Y-14328476D02*
X14087857Y-14318952D01*
X14087857Y-14318952D02*
X14078333Y-14299905D01*
X14078333Y-14299905D02*
X14078333Y-14128476D01*
X14259286Y-14318952D02*
X14240238Y-14328476D01*
X14240238Y-14328476D02*
X14202143Y-14328476D01*
X14202143Y-14328476D02*
X14183095Y-14318952D01*
X14183095Y-14318952D02*
X14173572Y-14299905D01*
X14173572Y-14299905D02*
X14173572Y-14223714D01*
X14173572Y-14223714D02*
X14183095Y-14204667D01*
X14183095Y-14204667D02*
X14202143Y-14195143D01*
X14202143Y-14195143D02*
X14240238Y-14195143D01*
X14240238Y-14195143D02*
X14259286Y-14204667D01*
X14259286Y-14204667D02*
X14268810Y-14223714D01*
X14268810Y-14223714D02*
X14268810Y-14242762D01*
X14268810Y-14242762D02*
X14173572Y-14261809D01*
X14345000Y-14318952D02*
X14364048Y-14328476D01*
X14364048Y-14328476D02*
X14402143Y-14328476D01*
X14402143Y-14328476D02*
X14421191Y-14318952D01*
X14421191Y-14318952D02*
X14430714Y-14299905D01*
X14430714Y-14299905D02*
X14430714Y-14290381D01*
X14430714Y-14290381D02*
X14421191Y-14271333D01*
X14421191Y-14271333D02*
X14402143Y-14261809D01*
X14402143Y-14261809D02*
X14373572Y-14261809D01*
X14373572Y-14261809D02*
X14354524Y-14252286D01*
X14354524Y-14252286D02*
X14345000Y-14233238D01*
X14345000Y-14233238D02*
X14345000Y-14223714D01*
X14345000Y-14223714D02*
X14354524Y-14204667D01*
X14354524Y-14204667D02*
X14373572Y-14195143D01*
X14373572Y-14195143D02*
X14402143Y-14195143D01*
X14402143Y-14195143D02*
X14421191Y-14204667D01*
X14497381Y-14404667D02*
X14506905Y-14395143D01*
X14506905Y-14395143D02*
X14525953Y-14366571D01*
X14525953Y-14366571D02*
X14535476Y-14347524D01*
X14535476Y-14347524D02*
X14545000Y-14318952D01*
X14545000Y-14318952D02*
X14554524Y-14271333D01*
X14554524Y-14271333D02*
X14554524Y-14233238D01*
X14554524Y-14233238D02*
X14545000Y-14185619D01*
X14545000Y-14185619D02*
X14535476Y-14157048D01*
X14535476Y-14157048D02*
X14525953Y-14138000D01*
X14525953Y-14138000D02*
X14506905Y-14109428D01*
X14506905Y-14109428D02*
X14497381Y-14099905D01*
X14826905Y-14404667D02*
X14817381Y-14395143D01*
X14817381Y-14395143D02*
X14798333Y-14366571D01*
X14798333Y-14366571D02*
X14788810Y-14347524D01*
X14788810Y-14347524D02*
X14779286Y-14318952D01*
X14779286Y-14318952D02*
X14769762Y-14271333D01*
X14769762Y-14271333D02*
X14769762Y-14233238D01*
X14769762Y-14233238D02*
X14779286Y-14185619D01*
X14779286Y-14185619D02*
X14788810Y-14157048D01*
X14788810Y-14157048D02*
X14798333Y-14138000D01*
X14798333Y-14138000D02*
X14817381Y-14109428D01*
X14817381Y-14109428D02*
X14826905Y-14099905D01*
X14903095Y-14195143D02*
X14903095Y-14328476D01*
X14903095Y-14214190D02*
X14912619Y-14204667D01*
X14912619Y-14204667D02*
X14931667Y-14195143D01*
X14931667Y-14195143D02*
X14960238Y-14195143D01*
X14960238Y-14195143D02*
X14979286Y-14204667D01*
X14979286Y-14204667D02*
X14988810Y-14223714D01*
X14988810Y-14223714D02*
X14988810Y-14328476D01*
X15112619Y-14328476D02*
X15093572Y-14318952D01*
X15093572Y-14318952D02*
X15084048Y-14309428D01*
X15084048Y-14309428D02*
X15074524Y-14290381D01*
X15074524Y-14290381D02*
X15074524Y-14233238D01*
X15074524Y-14233238D02*
X15084048Y-14214190D01*
X15084048Y-14214190D02*
X15093572Y-14204667D01*
X15093572Y-14204667D02*
X15112619Y-14195143D01*
X15112619Y-14195143D02*
X15141191Y-14195143D01*
X15141191Y-14195143D02*
X15160238Y-14204667D01*
X15160238Y-14204667D02*
X15169762Y-14214190D01*
X15169762Y-14214190D02*
X15179286Y-14233238D01*
X15179286Y-14233238D02*
X15179286Y-14290381D01*
X15179286Y-14290381D02*
X15169762Y-14309428D01*
X15169762Y-14309428D02*
X15160238Y-14318952D01*
X15160238Y-14318952D02*
X15141191Y-14328476D01*
X15141191Y-14328476D02*
X15112619Y-14328476D01*
X15236429Y-14195143D02*
X15312619Y-14195143D01*
X15265000Y-14128476D02*
X15265000Y-14299905D01*
X15265000Y-14299905D02*
X15274524Y-14318952D01*
X15274524Y-14318952D02*
X15293572Y-14328476D01*
X15293572Y-14328476D02*
X15312619Y-14328476D01*
X15499286Y-14195143D02*
X15499286Y-14395143D01*
X15499286Y-14204667D02*
X15518333Y-14195143D01*
X15518333Y-14195143D02*
X15556429Y-14195143D01*
X15556429Y-14195143D02*
X15575476Y-14204667D01*
X15575476Y-14204667D02*
X15585000Y-14214190D01*
X15585000Y-14214190D02*
X15594524Y-14233238D01*
X15594524Y-14233238D02*
X15594524Y-14290381D01*
X15594524Y-14290381D02*
X15585000Y-14309428D01*
X15585000Y-14309428D02*
X15575476Y-14318952D01*
X15575476Y-14318952D02*
X15556429Y-14328476D01*
X15556429Y-14328476D02*
X15518333Y-14328476D01*
X15518333Y-14328476D02*
X15499286Y-14318952D01*
X15708810Y-14328476D02*
X15689762Y-14318952D01*
X15689762Y-14318952D02*
X15680238Y-14299905D01*
X15680238Y-14299905D02*
X15680238Y-14128476D01*
X15870714Y-14328476D02*
X15870714Y-14223714D01*
X15870714Y-14223714D02*
X15861191Y-14204667D01*
X15861191Y-14204667D02*
X15842143Y-14195143D01*
X15842143Y-14195143D02*
X15804048Y-14195143D01*
X15804048Y-14195143D02*
X15785000Y-14204667D01*
X15870714Y-14318952D02*
X15851667Y-14328476D01*
X15851667Y-14328476D02*
X15804048Y-14328476D01*
X15804048Y-14328476D02*
X15785000Y-14318952D01*
X15785000Y-14318952D02*
X15775476Y-14299905D01*
X15775476Y-14299905D02*
X15775476Y-14280857D01*
X15775476Y-14280857D02*
X15785000Y-14261809D01*
X15785000Y-14261809D02*
X15804048Y-14252286D01*
X15804048Y-14252286D02*
X15851667Y-14252286D01*
X15851667Y-14252286D02*
X15870714Y-14242762D01*
X15937381Y-14195143D02*
X16013572Y-14195143D01*
X15965953Y-14128476D02*
X15965953Y-14299905D01*
X15965953Y-14299905D02*
X15975476Y-14318952D01*
X15975476Y-14318952D02*
X15994524Y-14328476D01*
X15994524Y-14328476D02*
X16013572Y-14328476D01*
X16156429Y-14318952D02*
X16137381Y-14328476D01*
X16137381Y-14328476D02*
X16099286Y-14328476D01*
X16099286Y-14328476D02*
X16080238Y-14318952D01*
X16080238Y-14318952D02*
X16070714Y-14299905D01*
X16070714Y-14299905D02*
X16070714Y-14223714D01*
X16070714Y-14223714D02*
X16080238Y-14204667D01*
X16080238Y-14204667D02*
X16099286Y-14195143D01*
X16099286Y-14195143D02*
X16137381Y-14195143D01*
X16137381Y-14195143D02*
X16156429Y-14204667D01*
X16156429Y-14204667D02*
X16165953Y-14223714D01*
X16165953Y-14223714D02*
X16165953Y-14242762D01*
X16165953Y-14242762D02*
X16070714Y-14261809D01*
X16337381Y-14328476D02*
X16337381Y-14128476D01*
X16337381Y-14318952D02*
X16318334Y-14328476D01*
X16318334Y-14328476D02*
X16280238Y-14328476D01*
X16280238Y-14328476D02*
X16261191Y-14318952D01*
X16261191Y-14318952D02*
X16251667Y-14309428D01*
X16251667Y-14309428D02*
X16242143Y-14290381D01*
X16242143Y-14290381D02*
X16242143Y-14233238D01*
X16242143Y-14233238D02*
X16251667Y-14214190D01*
X16251667Y-14214190D02*
X16261191Y-14204667D01*
X16261191Y-14204667D02*
X16280238Y-14195143D01*
X16280238Y-14195143D02*
X16318334Y-14195143D01*
X16318334Y-14195143D02*
X16337381Y-14204667D01*
X16413572Y-14404667D02*
X16423095Y-14395143D01*
X16423095Y-14395143D02*
X16442143Y-14366571D01*
X16442143Y-14366571D02*
X16451667Y-14347524D01*
X16451667Y-14347524D02*
X16461191Y-14318952D01*
X16461191Y-14318952D02*
X16470714Y-14271333D01*
X16470714Y-14271333D02*
X16470714Y-14233238D01*
X16470714Y-14233238D02*
X16461191Y-14185619D01*
X16461191Y-14185619D02*
X16451667Y-14157048D01*
X16451667Y-14157048D02*
X16442143Y-14138000D01*
X16442143Y-14138000D02*
X16423095Y-14109428D01*
X16423095Y-14109428D02*
X16413572Y-14099905D01*
X9865000Y-14575000D02*
G75*
G03*
X9865000Y-14575000I-100000J0D01*
G01*
X10093571Y-14448476D02*
X10217381Y-14448476D01*
X10217381Y-14448476D02*
X10150714Y-14524667D01*
X10150714Y-14524667D02*
X10179286Y-14524667D01*
X10179286Y-14524667D02*
X10198333Y-14534190D01*
X10198333Y-14534190D02*
X10207857Y-14543714D01*
X10207857Y-14543714D02*
X10217381Y-14562762D01*
X10217381Y-14562762D02*
X10217381Y-14610381D01*
X10217381Y-14610381D02*
X10207857Y-14629428D01*
X10207857Y-14629428D02*
X10198333Y-14638952D01*
X10198333Y-14638952D02*
X10179286Y-14648476D01*
X10179286Y-14648476D02*
X10122143Y-14648476D01*
X10122143Y-14648476D02*
X10103095Y-14638952D01*
X10103095Y-14638952D02*
X10093571Y-14629428D01*
X10303095Y-14629428D02*
X10312619Y-14638952D01*
X10312619Y-14638952D02*
X10303095Y-14648476D01*
X10303095Y-14648476D02*
X10293571Y-14638952D01*
X10293571Y-14638952D02*
X10303095Y-14629428D01*
X10303095Y-14629428D02*
X10303095Y-14648476D01*
X10493571Y-14448476D02*
X10398333Y-14448476D01*
X10398333Y-14448476D02*
X10388810Y-14543714D01*
X10388810Y-14543714D02*
X10398333Y-14534190D01*
X10398333Y-14534190D02*
X10417381Y-14524667D01*
X10417381Y-14524667D02*
X10465000Y-14524667D01*
X10465000Y-14524667D02*
X10484048Y-14534190D01*
X10484048Y-14534190D02*
X10493571Y-14543714D01*
X10493571Y-14543714D02*
X10503095Y-14562762D01*
X10503095Y-14562762D02*
X10503095Y-14610381D01*
X10503095Y-14610381D02*
X10493571Y-14629428D01*
X10493571Y-14629428D02*
X10484048Y-14638952D01*
X10484048Y-14638952D02*
X10465000Y-14648476D01*
X10465000Y-14648476D02*
X10417381Y-14648476D01*
X10417381Y-14648476D02*
X10398333Y-14638952D01*
X10398333Y-14638952D02*
X10388810Y-14629428D01*
X10626905Y-14448476D02*
X10645952Y-14448476D01*
X10645952Y-14448476D02*
X10665000Y-14458000D01*
X10665000Y-14458000D02*
X10674524Y-14467524D01*
X10674524Y-14467524D02*
X10684048Y-14486571D01*
X10684048Y-14486571D02*
X10693571Y-14524667D01*
X10693571Y-14524667D02*
X10693571Y-14572286D01*
X10693571Y-14572286D02*
X10684048Y-14610381D01*
X10684048Y-14610381D02*
X10674524Y-14629428D01*
X10674524Y-14629428D02*
X10665000Y-14638952D01*
X10665000Y-14638952D02*
X10645952Y-14648476D01*
X10645952Y-14648476D02*
X10626905Y-14648476D01*
X10626905Y-14648476D02*
X10607857Y-14638952D01*
X10607857Y-14638952D02*
X10598333Y-14629428D01*
X10598333Y-14629428D02*
X10588810Y-14610381D01*
X10588810Y-14610381D02*
X10579286Y-14572286D01*
X10579286Y-14572286D02*
X10579286Y-14524667D01*
X10579286Y-14524667D02*
X10588810Y-14486571D01*
X10588810Y-14486571D02*
X10598333Y-14467524D01*
X10598333Y-14467524D02*
X10607857Y-14458000D01*
X10607857Y-14458000D02*
X10626905Y-14448476D01*
X10817381Y-14448476D02*
X10836429Y-14448476D01*
X10836429Y-14448476D02*
X10855476Y-14458000D01*
X10855476Y-14458000D02*
X10865000Y-14467524D01*
X10865000Y-14467524D02*
X10874524Y-14486571D01*
X10874524Y-14486571D02*
X10884048Y-14524667D01*
X10884048Y-14524667D02*
X10884048Y-14572286D01*
X10884048Y-14572286D02*
X10874524Y-14610381D01*
X10874524Y-14610381D02*
X10865000Y-14629428D01*
X10865000Y-14629428D02*
X10855476Y-14638952D01*
X10855476Y-14638952D02*
X10836429Y-14648476D01*
X10836429Y-14648476D02*
X10817381Y-14648476D01*
X10817381Y-14648476D02*
X10798333Y-14638952D01*
X10798333Y-14638952D02*
X10788810Y-14629428D01*
X10788810Y-14629428D02*
X10779286Y-14610381D01*
X10779286Y-14610381D02*
X10769762Y-14572286D01*
X10769762Y-14572286D02*
X10769762Y-14524667D01*
X10769762Y-14524667D02*
X10779286Y-14486571D01*
X10779286Y-14486571D02*
X10788810Y-14467524D01*
X10788810Y-14467524D02*
X10798333Y-14458000D01*
X10798333Y-14458000D02*
X10817381Y-14448476D01*
X10969762Y-14648476D02*
X10969762Y-14515143D01*
X10969762Y-14534190D02*
X10979286Y-14524667D01*
X10979286Y-14524667D02*
X10998333Y-14515143D01*
X10998333Y-14515143D02*
X11026905Y-14515143D01*
X11026905Y-14515143D02*
X11045952Y-14524667D01*
X11045952Y-14524667D02*
X11055476Y-14543714D01*
X11055476Y-14543714D02*
X11055476Y-14648476D01*
X11055476Y-14543714D02*
X11065000Y-14524667D01*
X11065000Y-14524667D02*
X11084048Y-14515143D01*
X11084048Y-14515143D02*
X11112619Y-14515143D01*
X11112619Y-14515143D02*
X11131667Y-14524667D01*
X11131667Y-14524667D02*
X11141191Y-14543714D01*
X11141191Y-14543714D02*
X11141191Y-14648476D01*
X11236429Y-14648476D02*
X11236429Y-14515143D01*
X11236429Y-14534190D02*
X11245952Y-14524667D01*
X11245952Y-14524667D02*
X11265000Y-14515143D01*
X11265000Y-14515143D02*
X11293571Y-14515143D01*
X11293571Y-14515143D02*
X11312619Y-14524667D01*
X11312619Y-14524667D02*
X11322143Y-14543714D01*
X11322143Y-14543714D02*
X11322143Y-14648476D01*
X11322143Y-14543714D02*
X11331667Y-14524667D01*
X11331667Y-14524667D02*
X11350714Y-14515143D01*
X11350714Y-14515143D02*
X11379286Y-14515143D01*
X11379286Y-14515143D02*
X11398333Y-14524667D01*
X11398333Y-14524667D02*
X11407857Y-14543714D01*
X11407857Y-14543714D02*
X11407857Y-14648476D01*
X11765952Y-14438952D02*
X11594524Y-14696095D01*
X11990714Y-14448476D02*
X12009762Y-14448476D01*
X12009762Y-14448476D02*
X12028810Y-14458000D01*
X12028810Y-14458000D02*
X12038333Y-14467524D01*
X12038333Y-14467524D02*
X12047857Y-14486571D01*
X12047857Y-14486571D02*
X12057381Y-14524667D01*
X12057381Y-14524667D02*
X12057381Y-14572286D01*
X12057381Y-14572286D02*
X12047857Y-14610381D01*
X12047857Y-14610381D02*
X12038333Y-14629428D01*
X12038333Y-14629428D02*
X12028810Y-14638952D01*
X12028810Y-14638952D02*
X12009762Y-14648476D01*
X12009762Y-14648476D02*
X11990714Y-14648476D01*
X11990714Y-14648476D02*
X11971667Y-14638952D01*
X11971667Y-14638952D02*
X11962143Y-14629428D01*
X11962143Y-14629428D02*
X11952619Y-14610381D01*
X11952619Y-14610381D02*
X11943095Y-14572286D01*
X11943095Y-14572286D02*
X11943095Y-14524667D01*
X11943095Y-14524667D02*
X11952619Y-14486571D01*
X11952619Y-14486571D02*
X11962143Y-14467524D01*
X11962143Y-14467524D02*
X11971667Y-14458000D01*
X11971667Y-14458000D02*
X11990714Y-14448476D01*
X12143095Y-14629428D02*
X12152619Y-14638952D01*
X12152619Y-14638952D02*
X12143095Y-14648476D01*
X12143095Y-14648476D02*
X12133571Y-14638952D01*
X12133571Y-14638952D02*
X12143095Y-14629428D01*
X12143095Y-14629428D02*
X12143095Y-14648476D01*
X12343095Y-14648476D02*
X12228810Y-14648476D01*
X12285952Y-14648476D02*
X12285952Y-14448476D01*
X12285952Y-14448476D02*
X12266905Y-14477048D01*
X12266905Y-14477048D02*
X12247857Y-14496095D01*
X12247857Y-14496095D02*
X12228810Y-14505619D01*
X12409762Y-14448476D02*
X12533571Y-14448476D01*
X12533571Y-14448476D02*
X12466905Y-14524667D01*
X12466905Y-14524667D02*
X12495476Y-14524667D01*
X12495476Y-14524667D02*
X12514524Y-14534190D01*
X12514524Y-14534190D02*
X12524048Y-14543714D01*
X12524048Y-14543714D02*
X12533571Y-14562762D01*
X12533571Y-14562762D02*
X12533571Y-14610381D01*
X12533571Y-14610381D02*
X12524048Y-14629428D01*
X12524048Y-14629428D02*
X12514524Y-14638952D01*
X12514524Y-14638952D02*
X12495476Y-14648476D01*
X12495476Y-14648476D02*
X12438333Y-14648476D01*
X12438333Y-14648476D02*
X12419286Y-14638952D01*
X12419286Y-14638952D02*
X12409762Y-14629428D01*
X12600238Y-14448476D02*
X12733571Y-14448476D01*
X12733571Y-14448476D02*
X12647857Y-14648476D01*
X12838333Y-14534190D02*
X12819286Y-14524667D01*
X12819286Y-14524667D02*
X12809762Y-14515143D01*
X12809762Y-14515143D02*
X12800238Y-14496095D01*
X12800238Y-14496095D02*
X12800238Y-14486571D01*
X12800238Y-14486571D02*
X12809762Y-14467524D01*
X12809762Y-14467524D02*
X12819286Y-14458000D01*
X12819286Y-14458000D02*
X12838333Y-14448476D01*
X12838333Y-14448476D02*
X12876429Y-14448476D01*
X12876429Y-14448476D02*
X12895476Y-14458000D01*
X12895476Y-14458000D02*
X12905000Y-14467524D01*
X12905000Y-14467524D02*
X12914524Y-14486571D01*
X12914524Y-14486571D02*
X12914524Y-14496095D01*
X12914524Y-14496095D02*
X12905000Y-14515143D01*
X12905000Y-14515143D02*
X12895476Y-14524667D01*
X12895476Y-14524667D02*
X12876429Y-14534190D01*
X12876429Y-14534190D02*
X12838333Y-14534190D01*
X12838333Y-14534190D02*
X12819286Y-14543714D01*
X12819286Y-14543714D02*
X12809762Y-14553238D01*
X12809762Y-14553238D02*
X12800238Y-14572286D01*
X12800238Y-14572286D02*
X12800238Y-14610381D01*
X12800238Y-14610381D02*
X12809762Y-14629428D01*
X12809762Y-14629428D02*
X12819286Y-14638952D01*
X12819286Y-14638952D02*
X12838333Y-14648476D01*
X12838333Y-14648476D02*
X12876429Y-14648476D01*
X12876429Y-14648476D02*
X12895476Y-14638952D01*
X12895476Y-14638952D02*
X12905000Y-14629428D01*
X12905000Y-14629428D02*
X12914524Y-14610381D01*
X12914524Y-14610381D02*
X12914524Y-14572286D01*
X12914524Y-14572286D02*
X12905000Y-14553238D01*
X12905000Y-14553238D02*
X12895476Y-14543714D01*
X12895476Y-14543714D02*
X12876429Y-14534190D01*
X12990714Y-14448476D02*
X12990714Y-14486571D01*
X13066905Y-14448476D02*
X13066905Y-14486571D01*
X13329762Y-14724667D02*
X13320238Y-14715143D01*
X13320238Y-14715143D02*
X13301191Y-14686571D01*
X13301191Y-14686571D02*
X13291667Y-14667524D01*
X13291667Y-14667524D02*
X13282143Y-14638952D01*
X13282143Y-14638952D02*
X13272619Y-14591333D01*
X13272619Y-14591333D02*
X13272619Y-14553238D01*
X13272619Y-14553238D02*
X13282143Y-14505619D01*
X13282143Y-14505619D02*
X13291667Y-14477048D01*
X13291667Y-14477048D02*
X13301191Y-14458000D01*
X13301191Y-14458000D02*
X13320238Y-14429428D01*
X13320238Y-14429428D02*
X13329762Y-14419905D01*
X13491667Y-14515143D02*
X13491667Y-14648476D01*
X13444048Y-14438952D02*
X13396429Y-14581809D01*
X13396429Y-14581809D02*
X13520238Y-14581809D01*
X13716429Y-14648476D02*
X13716429Y-14448476D01*
X13802143Y-14648476D02*
X13802143Y-14543714D01*
X13802143Y-14543714D02*
X13792619Y-14524667D01*
X13792619Y-14524667D02*
X13773572Y-14515143D01*
X13773572Y-14515143D02*
X13745000Y-14515143D01*
X13745000Y-14515143D02*
X13725952Y-14524667D01*
X13725952Y-14524667D02*
X13716429Y-14534190D01*
X13925952Y-14648476D02*
X13906905Y-14638952D01*
X13906905Y-14638952D02*
X13897381Y-14629428D01*
X13897381Y-14629428D02*
X13887857Y-14610381D01*
X13887857Y-14610381D02*
X13887857Y-14553238D01*
X13887857Y-14553238D02*
X13897381Y-14534190D01*
X13897381Y-14534190D02*
X13906905Y-14524667D01*
X13906905Y-14524667D02*
X13925952Y-14515143D01*
X13925952Y-14515143D02*
X13954524Y-14515143D01*
X13954524Y-14515143D02*
X13973572Y-14524667D01*
X13973572Y-14524667D02*
X13983095Y-14534190D01*
X13983095Y-14534190D02*
X13992619Y-14553238D01*
X13992619Y-14553238D02*
X13992619Y-14610381D01*
X13992619Y-14610381D02*
X13983095Y-14629428D01*
X13983095Y-14629428D02*
X13973572Y-14638952D01*
X13973572Y-14638952D02*
X13954524Y-14648476D01*
X13954524Y-14648476D02*
X13925952Y-14648476D01*
X14106905Y-14648476D02*
X14087857Y-14638952D01*
X14087857Y-14638952D02*
X14078333Y-14619905D01*
X14078333Y-14619905D02*
X14078333Y-14448476D01*
X14259286Y-14638952D02*
X14240238Y-14648476D01*
X14240238Y-14648476D02*
X14202143Y-14648476D01*
X14202143Y-14648476D02*
X14183095Y-14638952D01*
X14183095Y-14638952D02*
X14173572Y-14619905D01*
X14173572Y-14619905D02*
X14173572Y-14543714D01*
X14173572Y-14543714D02*
X14183095Y-14524667D01*
X14183095Y-14524667D02*
X14202143Y-14515143D01*
X14202143Y-14515143D02*
X14240238Y-14515143D01*
X14240238Y-14515143D02*
X14259286Y-14524667D01*
X14259286Y-14524667D02*
X14268810Y-14543714D01*
X14268810Y-14543714D02*
X14268810Y-14562762D01*
X14268810Y-14562762D02*
X14173572Y-14581809D01*
X14345000Y-14638952D02*
X14364048Y-14648476D01*
X14364048Y-14648476D02*
X14402143Y-14648476D01*
X14402143Y-14648476D02*
X14421191Y-14638952D01*
X14421191Y-14638952D02*
X14430714Y-14619905D01*
X14430714Y-14619905D02*
X14430714Y-14610381D01*
X14430714Y-14610381D02*
X14421191Y-14591333D01*
X14421191Y-14591333D02*
X14402143Y-14581809D01*
X14402143Y-14581809D02*
X14373572Y-14581809D01*
X14373572Y-14581809D02*
X14354524Y-14572286D01*
X14354524Y-14572286D02*
X14345000Y-14553238D01*
X14345000Y-14553238D02*
X14345000Y-14543714D01*
X14345000Y-14543714D02*
X14354524Y-14524667D01*
X14354524Y-14524667D02*
X14373572Y-14515143D01*
X14373572Y-14515143D02*
X14402143Y-14515143D01*
X14402143Y-14515143D02*
X14421191Y-14524667D01*
X14497381Y-14724667D02*
X14506905Y-14715143D01*
X14506905Y-14715143D02*
X14525953Y-14686571D01*
X14525953Y-14686571D02*
X14535476Y-14667524D01*
X14535476Y-14667524D02*
X14545000Y-14638952D01*
X14545000Y-14638952D02*
X14554524Y-14591333D01*
X14554524Y-14591333D02*
X14554524Y-14553238D01*
X14554524Y-14553238D02*
X14545000Y-14505619D01*
X14545000Y-14505619D02*
X14535476Y-14477048D01*
X14535476Y-14477048D02*
X14525953Y-14458000D01*
X14525953Y-14458000D02*
X14506905Y-14429428D01*
X14506905Y-14429428D02*
X14497381Y-14419905D01*
X14826905Y-14724667D02*
X14817381Y-14715143D01*
X14817381Y-14715143D02*
X14798333Y-14686571D01*
X14798333Y-14686571D02*
X14788810Y-14667524D01*
X14788810Y-14667524D02*
X14779286Y-14638952D01*
X14779286Y-14638952D02*
X14769762Y-14591333D01*
X14769762Y-14591333D02*
X14769762Y-14553238D01*
X14769762Y-14553238D02*
X14779286Y-14505619D01*
X14779286Y-14505619D02*
X14788810Y-14477048D01*
X14788810Y-14477048D02*
X14798333Y-14458000D01*
X14798333Y-14458000D02*
X14817381Y-14429428D01*
X14817381Y-14429428D02*
X14826905Y-14419905D01*
X14903095Y-14515143D02*
X14903095Y-14648476D01*
X14903095Y-14534190D02*
X14912619Y-14524667D01*
X14912619Y-14524667D02*
X14931667Y-14515143D01*
X14931667Y-14515143D02*
X14960238Y-14515143D01*
X14960238Y-14515143D02*
X14979286Y-14524667D01*
X14979286Y-14524667D02*
X14988810Y-14543714D01*
X14988810Y-14543714D02*
X14988810Y-14648476D01*
X15112619Y-14648476D02*
X15093572Y-14638952D01*
X15093572Y-14638952D02*
X15084048Y-14629428D01*
X15084048Y-14629428D02*
X15074524Y-14610381D01*
X15074524Y-14610381D02*
X15074524Y-14553238D01*
X15074524Y-14553238D02*
X15084048Y-14534190D01*
X15084048Y-14534190D02*
X15093572Y-14524667D01*
X15093572Y-14524667D02*
X15112619Y-14515143D01*
X15112619Y-14515143D02*
X15141191Y-14515143D01*
X15141191Y-14515143D02*
X15160238Y-14524667D01*
X15160238Y-14524667D02*
X15169762Y-14534190D01*
X15169762Y-14534190D02*
X15179286Y-14553238D01*
X15179286Y-14553238D02*
X15179286Y-14610381D01*
X15179286Y-14610381D02*
X15169762Y-14629428D01*
X15169762Y-14629428D02*
X15160238Y-14638952D01*
X15160238Y-14638952D02*
X15141191Y-14648476D01*
X15141191Y-14648476D02*
X15112619Y-14648476D01*
X15236429Y-14515143D02*
X15312619Y-14515143D01*
X15265000Y-14448476D02*
X15265000Y-14619905D01*
X15265000Y-14619905D02*
X15274524Y-14638952D01*
X15274524Y-14638952D02*
X15293572Y-14648476D01*
X15293572Y-14648476D02*
X15312619Y-14648476D01*
X15499286Y-14515143D02*
X15499286Y-14715143D01*
X15499286Y-14524667D02*
X15518333Y-14515143D01*
X15518333Y-14515143D02*
X15556429Y-14515143D01*
X15556429Y-14515143D02*
X15575476Y-14524667D01*
X15575476Y-14524667D02*
X15585000Y-14534190D01*
X15585000Y-14534190D02*
X15594524Y-14553238D01*
X15594524Y-14553238D02*
X15594524Y-14610381D01*
X15594524Y-14610381D02*
X15585000Y-14629428D01*
X15585000Y-14629428D02*
X15575476Y-14638952D01*
X15575476Y-14638952D02*
X15556429Y-14648476D01*
X15556429Y-14648476D02*
X15518333Y-14648476D01*
X15518333Y-14648476D02*
X15499286Y-14638952D01*
X15708810Y-14648476D02*
X15689762Y-14638952D01*
X15689762Y-14638952D02*
X15680238Y-14619905D01*
X15680238Y-14619905D02*
X15680238Y-14448476D01*
X15870714Y-14648476D02*
X15870714Y-14543714D01*
X15870714Y-14543714D02*
X15861191Y-14524667D01*
X15861191Y-14524667D02*
X15842143Y-14515143D01*
X15842143Y-14515143D02*
X15804048Y-14515143D01*
X15804048Y-14515143D02*
X15785000Y-14524667D01*
X15870714Y-14638952D02*
X15851667Y-14648476D01*
X15851667Y-14648476D02*
X15804048Y-14648476D01*
X15804048Y-14648476D02*
X15785000Y-14638952D01*
X15785000Y-14638952D02*
X15775476Y-14619905D01*
X15775476Y-14619905D02*
X15775476Y-14600857D01*
X15775476Y-14600857D02*
X15785000Y-14581809D01*
X15785000Y-14581809D02*
X15804048Y-14572286D01*
X15804048Y-14572286D02*
X15851667Y-14572286D01*
X15851667Y-14572286D02*
X15870714Y-14562762D01*
X15937381Y-14515143D02*
X16013572Y-14515143D01*
X15965953Y-14448476D02*
X15965953Y-14619905D01*
X15965953Y-14619905D02*
X15975476Y-14638952D01*
X15975476Y-14638952D02*
X15994524Y-14648476D01*
X15994524Y-14648476D02*
X16013572Y-14648476D01*
X16156429Y-14638952D02*
X16137381Y-14648476D01*
X16137381Y-14648476D02*
X16099286Y-14648476D01*
X16099286Y-14648476D02*
X16080238Y-14638952D01*
X16080238Y-14638952D02*
X16070714Y-14619905D01*
X16070714Y-14619905D02*
X16070714Y-14543714D01*
X16070714Y-14543714D02*
X16080238Y-14524667D01*
X16080238Y-14524667D02*
X16099286Y-14515143D01*
X16099286Y-14515143D02*
X16137381Y-14515143D01*
X16137381Y-14515143D02*
X16156429Y-14524667D01*
X16156429Y-14524667D02*
X16165953Y-14543714D01*
X16165953Y-14543714D02*
X16165953Y-14562762D01*
X16165953Y-14562762D02*
X16070714Y-14581809D01*
X16337381Y-14648476D02*
X16337381Y-14448476D01*
X16337381Y-14638952D02*
X16318334Y-14648476D01*
X16318334Y-14648476D02*
X16280238Y-14648476D01*
X16280238Y-14648476D02*
X16261191Y-14638952D01*
X16261191Y-14638952D02*
X16251667Y-14629428D01*
X16251667Y-14629428D02*
X16242143Y-14610381D01*
X16242143Y-14610381D02*
X16242143Y-14553238D01*
X16242143Y-14553238D02*
X16251667Y-14534190D01*
X16251667Y-14534190D02*
X16261191Y-14524667D01*
X16261191Y-14524667D02*
X16280238Y-14515143D01*
X16280238Y-14515143D02*
X16318334Y-14515143D01*
X16318334Y-14515143D02*
X16337381Y-14524667D01*
X16413572Y-14724667D02*
X16423095Y-14715143D01*
X16423095Y-14715143D02*
X16442143Y-14686571D01*
X16442143Y-14686571D02*
X16451667Y-14667524D01*
X16451667Y-14667524D02*
X16461191Y-14638952D01*
X16461191Y-14638952D02*
X16470714Y-14591333D01*
X16470714Y-14591333D02*
X16470714Y-14553238D01*
X16470714Y-14553238D02*
X16461191Y-14505619D01*
X16461191Y-14505619D02*
X16451667Y-14477048D01*
X16451667Y-14477048D02*
X16442143Y-14458000D01*
X16442143Y-14458000D02*
X16423095Y-14429428D01*
X16423095Y-14429428D02*
X16413572Y-14419905D01*
X9765000Y-14795000D02*
X9765000Y-14995000D01*
X9665000Y-14895000D02*
X9865000Y-14895000D01*
X10198333Y-14835143D02*
X10198333Y-14968476D01*
X10150714Y-14758952D02*
X10103095Y-14901809D01*
X10103095Y-14901809D02*
X10226905Y-14901809D01*
X10303095Y-14949428D02*
X10312619Y-14958952D01*
X10312619Y-14958952D02*
X10303095Y-14968476D01*
X10303095Y-14968476D02*
X10293571Y-14958952D01*
X10293571Y-14958952D02*
X10303095Y-14949428D01*
X10303095Y-14949428D02*
X10303095Y-14968476D01*
X10436429Y-14768476D02*
X10455476Y-14768476D01*
X10455476Y-14768476D02*
X10474524Y-14778000D01*
X10474524Y-14778000D02*
X10484048Y-14787524D01*
X10484048Y-14787524D02*
X10493571Y-14806571D01*
X10493571Y-14806571D02*
X10503095Y-14844667D01*
X10503095Y-14844667D02*
X10503095Y-14892286D01*
X10503095Y-14892286D02*
X10493571Y-14930381D01*
X10493571Y-14930381D02*
X10484048Y-14949428D01*
X10484048Y-14949428D02*
X10474524Y-14958952D01*
X10474524Y-14958952D02*
X10455476Y-14968476D01*
X10455476Y-14968476D02*
X10436429Y-14968476D01*
X10436429Y-14968476D02*
X10417381Y-14958952D01*
X10417381Y-14958952D02*
X10407857Y-14949428D01*
X10407857Y-14949428D02*
X10398333Y-14930381D01*
X10398333Y-14930381D02*
X10388810Y-14892286D01*
X10388810Y-14892286D02*
X10388810Y-14844667D01*
X10388810Y-14844667D02*
X10398333Y-14806571D01*
X10398333Y-14806571D02*
X10407857Y-14787524D01*
X10407857Y-14787524D02*
X10417381Y-14778000D01*
X10417381Y-14778000D02*
X10436429Y-14768476D01*
X10626905Y-14768476D02*
X10645952Y-14768476D01*
X10645952Y-14768476D02*
X10665000Y-14778000D01*
X10665000Y-14778000D02*
X10674524Y-14787524D01*
X10674524Y-14787524D02*
X10684048Y-14806571D01*
X10684048Y-14806571D02*
X10693571Y-14844667D01*
X10693571Y-14844667D02*
X10693571Y-14892286D01*
X10693571Y-14892286D02*
X10684048Y-14930381D01*
X10684048Y-14930381D02*
X10674524Y-14949428D01*
X10674524Y-14949428D02*
X10665000Y-14958952D01*
X10665000Y-14958952D02*
X10645952Y-14968476D01*
X10645952Y-14968476D02*
X10626905Y-14968476D01*
X10626905Y-14968476D02*
X10607857Y-14958952D01*
X10607857Y-14958952D02*
X10598333Y-14949428D01*
X10598333Y-14949428D02*
X10588810Y-14930381D01*
X10588810Y-14930381D02*
X10579286Y-14892286D01*
X10579286Y-14892286D02*
X10579286Y-14844667D01*
X10579286Y-14844667D02*
X10588810Y-14806571D01*
X10588810Y-14806571D02*
X10598333Y-14787524D01*
X10598333Y-14787524D02*
X10607857Y-14778000D01*
X10607857Y-14778000D02*
X10626905Y-14768476D01*
X10817381Y-14768476D02*
X10836429Y-14768476D01*
X10836429Y-14768476D02*
X10855476Y-14778000D01*
X10855476Y-14778000D02*
X10865000Y-14787524D01*
X10865000Y-14787524D02*
X10874524Y-14806571D01*
X10874524Y-14806571D02*
X10884048Y-14844667D01*
X10884048Y-14844667D02*
X10884048Y-14892286D01*
X10884048Y-14892286D02*
X10874524Y-14930381D01*
X10874524Y-14930381D02*
X10865000Y-14949428D01*
X10865000Y-14949428D02*
X10855476Y-14958952D01*
X10855476Y-14958952D02*
X10836429Y-14968476D01*
X10836429Y-14968476D02*
X10817381Y-14968476D01*
X10817381Y-14968476D02*
X10798333Y-14958952D01*
X10798333Y-14958952D02*
X10788810Y-14949428D01*
X10788810Y-14949428D02*
X10779286Y-14930381D01*
X10779286Y-14930381D02*
X10769762Y-14892286D01*
X10769762Y-14892286D02*
X10769762Y-14844667D01*
X10769762Y-14844667D02*
X10779286Y-14806571D01*
X10779286Y-14806571D02*
X10788810Y-14787524D01*
X10788810Y-14787524D02*
X10798333Y-14778000D01*
X10798333Y-14778000D02*
X10817381Y-14768476D01*
X10969762Y-14968476D02*
X10969762Y-14835143D01*
X10969762Y-14854190D02*
X10979286Y-14844667D01*
X10979286Y-14844667D02*
X10998333Y-14835143D01*
X10998333Y-14835143D02*
X11026905Y-14835143D01*
X11026905Y-14835143D02*
X11045952Y-14844667D01*
X11045952Y-14844667D02*
X11055476Y-14863714D01*
X11055476Y-14863714D02*
X11055476Y-14968476D01*
X11055476Y-14863714D02*
X11065000Y-14844667D01*
X11065000Y-14844667D02*
X11084048Y-14835143D01*
X11084048Y-14835143D02*
X11112619Y-14835143D01*
X11112619Y-14835143D02*
X11131667Y-14844667D01*
X11131667Y-14844667D02*
X11141191Y-14863714D01*
X11141191Y-14863714D02*
X11141191Y-14968476D01*
X11236429Y-14968476D02*
X11236429Y-14835143D01*
X11236429Y-14854190D02*
X11245952Y-14844667D01*
X11245952Y-14844667D02*
X11265000Y-14835143D01*
X11265000Y-14835143D02*
X11293571Y-14835143D01*
X11293571Y-14835143D02*
X11312619Y-14844667D01*
X11312619Y-14844667D02*
X11322143Y-14863714D01*
X11322143Y-14863714D02*
X11322143Y-14968476D01*
X11322143Y-14863714D02*
X11331667Y-14844667D01*
X11331667Y-14844667D02*
X11350714Y-14835143D01*
X11350714Y-14835143D02*
X11379286Y-14835143D01*
X11379286Y-14835143D02*
X11398333Y-14844667D01*
X11398333Y-14844667D02*
X11407857Y-14863714D01*
X11407857Y-14863714D02*
X11407857Y-14968476D01*
X11765952Y-14758952D02*
X11594524Y-15016095D01*
X11990714Y-14768476D02*
X12009762Y-14768476D01*
X12009762Y-14768476D02*
X12028810Y-14778000D01*
X12028810Y-14778000D02*
X12038333Y-14787524D01*
X12038333Y-14787524D02*
X12047857Y-14806571D01*
X12047857Y-14806571D02*
X12057381Y-14844667D01*
X12057381Y-14844667D02*
X12057381Y-14892286D01*
X12057381Y-14892286D02*
X12047857Y-14930381D01*
X12047857Y-14930381D02*
X12038333Y-14949428D01*
X12038333Y-14949428D02*
X12028810Y-14958952D01*
X12028810Y-14958952D02*
X12009762Y-14968476D01*
X12009762Y-14968476D02*
X11990714Y-14968476D01*
X11990714Y-14968476D02*
X11971667Y-14958952D01*
X11971667Y-14958952D02*
X11962143Y-14949428D01*
X11962143Y-14949428D02*
X11952619Y-14930381D01*
X11952619Y-14930381D02*
X11943095Y-14892286D01*
X11943095Y-14892286D02*
X11943095Y-14844667D01*
X11943095Y-14844667D02*
X11952619Y-14806571D01*
X11952619Y-14806571D02*
X11962143Y-14787524D01*
X11962143Y-14787524D02*
X11971667Y-14778000D01*
X11971667Y-14778000D02*
X11990714Y-14768476D01*
X12143095Y-14949428D02*
X12152619Y-14958952D01*
X12152619Y-14958952D02*
X12143095Y-14968476D01*
X12143095Y-14968476D02*
X12133571Y-14958952D01*
X12133571Y-14958952D02*
X12143095Y-14949428D01*
X12143095Y-14949428D02*
X12143095Y-14968476D01*
X12343095Y-14968476D02*
X12228810Y-14968476D01*
X12285952Y-14968476D02*
X12285952Y-14768476D01*
X12285952Y-14768476D02*
X12266905Y-14797048D01*
X12266905Y-14797048D02*
X12247857Y-14816095D01*
X12247857Y-14816095D02*
X12228810Y-14825619D01*
X12524048Y-14768476D02*
X12428810Y-14768476D01*
X12428810Y-14768476D02*
X12419286Y-14863714D01*
X12419286Y-14863714D02*
X12428810Y-14854190D01*
X12428810Y-14854190D02*
X12447857Y-14844667D01*
X12447857Y-14844667D02*
X12495476Y-14844667D01*
X12495476Y-14844667D02*
X12514524Y-14854190D01*
X12514524Y-14854190D02*
X12524048Y-14863714D01*
X12524048Y-14863714D02*
X12533571Y-14882762D01*
X12533571Y-14882762D02*
X12533571Y-14930381D01*
X12533571Y-14930381D02*
X12524048Y-14949428D01*
X12524048Y-14949428D02*
X12514524Y-14958952D01*
X12514524Y-14958952D02*
X12495476Y-14968476D01*
X12495476Y-14968476D02*
X12447857Y-14968476D01*
X12447857Y-14968476D02*
X12428810Y-14958952D01*
X12428810Y-14958952D02*
X12419286Y-14949428D01*
X12600238Y-14768476D02*
X12733571Y-14768476D01*
X12733571Y-14768476D02*
X12647857Y-14968476D01*
X12905000Y-14768476D02*
X12809762Y-14768476D01*
X12809762Y-14768476D02*
X12800238Y-14863714D01*
X12800238Y-14863714D02*
X12809762Y-14854190D01*
X12809762Y-14854190D02*
X12828810Y-14844667D01*
X12828810Y-14844667D02*
X12876429Y-14844667D01*
X12876429Y-14844667D02*
X12895476Y-14854190D01*
X12895476Y-14854190D02*
X12905000Y-14863714D01*
X12905000Y-14863714D02*
X12914524Y-14882762D01*
X12914524Y-14882762D02*
X12914524Y-14930381D01*
X12914524Y-14930381D02*
X12905000Y-14949428D01*
X12905000Y-14949428D02*
X12895476Y-14958952D01*
X12895476Y-14958952D02*
X12876429Y-14968476D01*
X12876429Y-14968476D02*
X12828810Y-14968476D01*
X12828810Y-14968476D02*
X12809762Y-14958952D01*
X12809762Y-14958952D02*
X12800238Y-14949428D01*
X12990714Y-14768476D02*
X12990714Y-14806571D01*
X13066905Y-14768476D02*
X13066905Y-14806571D01*
X13329762Y-15044667D02*
X13320238Y-15035143D01*
X13320238Y-15035143D02*
X13301191Y-15006571D01*
X13301191Y-15006571D02*
X13291667Y-14987524D01*
X13291667Y-14987524D02*
X13282143Y-14958952D01*
X13282143Y-14958952D02*
X13272619Y-14911333D01*
X13272619Y-14911333D02*
X13272619Y-14873238D01*
X13272619Y-14873238D02*
X13282143Y-14825619D01*
X13282143Y-14825619D02*
X13291667Y-14797048D01*
X13291667Y-14797048D02*
X13301191Y-14778000D01*
X13301191Y-14778000D02*
X13320238Y-14749428D01*
X13320238Y-14749428D02*
X13329762Y-14739905D01*
X13491667Y-14835143D02*
X13491667Y-14968476D01*
X13444048Y-14758952D02*
X13396429Y-14901809D01*
X13396429Y-14901809D02*
X13520238Y-14901809D01*
X13716429Y-14968476D02*
X13716429Y-14768476D01*
X13802143Y-14968476D02*
X13802143Y-14863714D01*
X13802143Y-14863714D02*
X13792619Y-14844667D01*
X13792619Y-14844667D02*
X13773572Y-14835143D01*
X13773572Y-14835143D02*
X13745000Y-14835143D01*
X13745000Y-14835143D02*
X13725952Y-14844667D01*
X13725952Y-14844667D02*
X13716429Y-14854190D01*
X13925952Y-14968476D02*
X13906905Y-14958952D01*
X13906905Y-14958952D02*
X13897381Y-14949428D01*
X13897381Y-14949428D02*
X13887857Y-14930381D01*
X13887857Y-14930381D02*
X13887857Y-14873238D01*
X13887857Y-14873238D02*
X13897381Y-14854190D01*
X13897381Y-14854190D02*
X13906905Y-14844667D01*
X13906905Y-14844667D02*
X13925952Y-14835143D01*
X13925952Y-14835143D02*
X13954524Y-14835143D01*
X13954524Y-14835143D02*
X13973572Y-14844667D01*
X13973572Y-14844667D02*
X13983095Y-14854190D01*
X13983095Y-14854190D02*
X13992619Y-14873238D01*
X13992619Y-14873238D02*
X13992619Y-14930381D01*
X13992619Y-14930381D02*
X13983095Y-14949428D01*
X13983095Y-14949428D02*
X13973572Y-14958952D01*
X13973572Y-14958952D02*
X13954524Y-14968476D01*
X13954524Y-14968476D02*
X13925952Y-14968476D01*
X14106905Y-14968476D02*
X14087857Y-14958952D01*
X14087857Y-14958952D02*
X14078333Y-14939905D01*
X14078333Y-14939905D02*
X14078333Y-14768476D01*
X14259286Y-14958952D02*
X14240238Y-14968476D01*
X14240238Y-14968476D02*
X14202143Y-14968476D01*
X14202143Y-14968476D02*
X14183095Y-14958952D01*
X14183095Y-14958952D02*
X14173572Y-14939905D01*
X14173572Y-14939905D02*
X14173572Y-14863714D01*
X14173572Y-14863714D02*
X14183095Y-14844667D01*
X14183095Y-14844667D02*
X14202143Y-14835143D01*
X14202143Y-14835143D02*
X14240238Y-14835143D01*
X14240238Y-14835143D02*
X14259286Y-14844667D01*
X14259286Y-14844667D02*
X14268810Y-14863714D01*
X14268810Y-14863714D02*
X14268810Y-14882762D01*
X14268810Y-14882762D02*
X14173572Y-14901809D01*
X14345000Y-14958952D02*
X14364048Y-14968476D01*
X14364048Y-14968476D02*
X14402143Y-14968476D01*
X14402143Y-14968476D02*
X14421191Y-14958952D01*
X14421191Y-14958952D02*
X14430714Y-14939905D01*
X14430714Y-14939905D02*
X14430714Y-14930381D01*
X14430714Y-14930381D02*
X14421191Y-14911333D01*
X14421191Y-14911333D02*
X14402143Y-14901809D01*
X14402143Y-14901809D02*
X14373572Y-14901809D01*
X14373572Y-14901809D02*
X14354524Y-14892286D01*
X14354524Y-14892286D02*
X14345000Y-14873238D01*
X14345000Y-14873238D02*
X14345000Y-14863714D01*
X14345000Y-14863714D02*
X14354524Y-14844667D01*
X14354524Y-14844667D02*
X14373572Y-14835143D01*
X14373572Y-14835143D02*
X14402143Y-14835143D01*
X14402143Y-14835143D02*
X14421191Y-14844667D01*
X14497381Y-15044667D02*
X14506905Y-15035143D01*
X14506905Y-15035143D02*
X14525953Y-15006571D01*
X14525953Y-15006571D02*
X14535476Y-14987524D01*
X14535476Y-14987524D02*
X14545000Y-14958952D01*
X14545000Y-14958952D02*
X14554524Y-14911333D01*
X14554524Y-14911333D02*
X14554524Y-14873238D01*
X14554524Y-14873238D02*
X14545000Y-14825619D01*
X14545000Y-14825619D02*
X14535476Y-14797048D01*
X14535476Y-14797048D02*
X14525953Y-14778000D01*
X14525953Y-14778000D02*
X14506905Y-14749428D01*
X14506905Y-14749428D02*
X14497381Y-14739905D01*
X14826905Y-15044667D02*
X14817381Y-15035143D01*
X14817381Y-15035143D02*
X14798333Y-15006571D01*
X14798333Y-15006571D02*
X14788810Y-14987524D01*
X14788810Y-14987524D02*
X14779286Y-14958952D01*
X14779286Y-14958952D02*
X14769762Y-14911333D01*
X14769762Y-14911333D02*
X14769762Y-14873238D01*
X14769762Y-14873238D02*
X14779286Y-14825619D01*
X14779286Y-14825619D02*
X14788810Y-14797048D01*
X14788810Y-14797048D02*
X14798333Y-14778000D01*
X14798333Y-14778000D02*
X14817381Y-14749428D01*
X14817381Y-14749428D02*
X14826905Y-14739905D01*
X14903095Y-14835143D02*
X14903095Y-14968476D01*
X14903095Y-14854190D02*
X14912619Y-14844667D01*
X14912619Y-14844667D02*
X14931667Y-14835143D01*
X14931667Y-14835143D02*
X14960238Y-14835143D01*
X14960238Y-14835143D02*
X14979286Y-14844667D01*
X14979286Y-14844667D02*
X14988810Y-14863714D01*
X14988810Y-14863714D02*
X14988810Y-14968476D01*
X15112619Y-14968476D02*
X15093572Y-14958952D01*
X15093572Y-14958952D02*
X15084048Y-14949428D01*
X15084048Y-14949428D02*
X15074524Y-14930381D01*
X15074524Y-14930381D02*
X15074524Y-14873238D01*
X15074524Y-14873238D02*
X15084048Y-14854190D01*
X15084048Y-14854190D02*
X15093572Y-14844667D01*
X15093572Y-14844667D02*
X15112619Y-14835143D01*
X15112619Y-14835143D02*
X15141191Y-14835143D01*
X15141191Y-14835143D02*
X15160238Y-14844667D01*
X15160238Y-14844667D02*
X15169762Y-14854190D01*
X15169762Y-14854190D02*
X15179286Y-14873238D01*
X15179286Y-14873238D02*
X15179286Y-14930381D01*
X15179286Y-14930381D02*
X15169762Y-14949428D01*
X15169762Y-14949428D02*
X15160238Y-14958952D01*
X15160238Y-14958952D02*
X15141191Y-14968476D01*
X15141191Y-14968476D02*
X15112619Y-14968476D01*
X15236429Y-14835143D02*
X15312619Y-14835143D01*
X15265000Y-14768476D02*
X15265000Y-14939905D01*
X15265000Y-14939905D02*
X15274524Y-14958952D01*
X15274524Y-14958952D02*
X15293572Y-14968476D01*
X15293572Y-14968476D02*
X15312619Y-14968476D01*
X15499286Y-14835143D02*
X15499286Y-15035143D01*
X15499286Y-14844667D02*
X15518333Y-14835143D01*
X15518333Y-14835143D02*
X15556429Y-14835143D01*
X15556429Y-14835143D02*
X15575476Y-14844667D01*
X15575476Y-14844667D02*
X15585000Y-14854190D01*
X15585000Y-14854190D02*
X15594524Y-14873238D01*
X15594524Y-14873238D02*
X15594524Y-14930381D01*
X15594524Y-14930381D02*
X15585000Y-14949428D01*
X15585000Y-14949428D02*
X15575476Y-14958952D01*
X15575476Y-14958952D02*
X15556429Y-14968476D01*
X15556429Y-14968476D02*
X15518333Y-14968476D01*
X15518333Y-14968476D02*
X15499286Y-14958952D01*
X15708810Y-14968476D02*
X15689762Y-14958952D01*
X15689762Y-14958952D02*
X15680238Y-14939905D01*
X15680238Y-14939905D02*
X15680238Y-14768476D01*
X15870714Y-14968476D02*
X15870714Y-14863714D01*
X15870714Y-14863714D02*
X15861191Y-14844667D01*
X15861191Y-14844667D02*
X15842143Y-14835143D01*
X15842143Y-14835143D02*
X15804048Y-14835143D01*
X15804048Y-14835143D02*
X15785000Y-14844667D01*
X15870714Y-14958952D02*
X15851667Y-14968476D01*
X15851667Y-14968476D02*
X15804048Y-14968476D01*
X15804048Y-14968476D02*
X15785000Y-14958952D01*
X15785000Y-14958952D02*
X15775476Y-14939905D01*
X15775476Y-14939905D02*
X15775476Y-14920857D01*
X15775476Y-14920857D02*
X15785000Y-14901809D01*
X15785000Y-14901809D02*
X15804048Y-14892286D01*
X15804048Y-14892286D02*
X15851667Y-14892286D01*
X15851667Y-14892286D02*
X15870714Y-14882762D01*
X15937381Y-14835143D02*
X16013572Y-14835143D01*
X15965953Y-14768476D02*
X15965953Y-14939905D01*
X15965953Y-14939905D02*
X15975476Y-14958952D01*
X15975476Y-14958952D02*
X15994524Y-14968476D01*
X15994524Y-14968476D02*
X16013572Y-14968476D01*
X16156429Y-14958952D02*
X16137381Y-14968476D01*
X16137381Y-14968476D02*
X16099286Y-14968476D01*
X16099286Y-14968476D02*
X16080238Y-14958952D01*
X16080238Y-14958952D02*
X16070714Y-14939905D01*
X16070714Y-14939905D02*
X16070714Y-14863714D01*
X16070714Y-14863714D02*
X16080238Y-14844667D01*
X16080238Y-14844667D02*
X16099286Y-14835143D01*
X16099286Y-14835143D02*
X16137381Y-14835143D01*
X16137381Y-14835143D02*
X16156429Y-14844667D01*
X16156429Y-14844667D02*
X16165953Y-14863714D01*
X16165953Y-14863714D02*
X16165953Y-14882762D01*
X16165953Y-14882762D02*
X16070714Y-14901809D01*
X16337381Y-14968476D02*
X16337381Y-14768476D01*
X16337381Y-14958952D02*
X16318334Y-14968476D01*
X16318334Y-14968476D02*
X16280238Y-14968476D01*
X16280238Y-14968476D02*
X16261191Y-14958952D01*
X16261191Y-14958952D02*
X16251667Y-14949428D01*
X16251667Y-14949428D02*
X16242143Y-14930381D01*
X16242143Y-14930381D02*
X16242143Y-14873238D01*
X16242143Y-14873238D02*
X16251667Y-14854190D01*
X16251667Y-14854190D02*
X16261191Y-14844667D01*
X16261191Y-14844667D02*
X16280238Y-14835143D01*
X16280238Y-14835143D02*
X16318334Y-14835143D01*
X16318334Y-14835143D02*
X16337381Y-14844667D01*
X16413572Y-15044667D02*
X16423095Y-15035143D01*
X16423095Y-15035143D02*
X16442143Y-15006571D01*
X16442143Y-15006571D02*
X16451667Y-14987524D01*
X16451667Y-14987524D02*
X16461191Y-14958952D01*
X16461191Y-14958952D02*
X16470714Y-14911333D01*
X16470714Y-14911333D02*
X16470714Y-14873238D01*
X16470714Y-14873238D02*
X16461191Y-14825619D01*
X16461191Y-14825619D02*
X16451667Y-14797048D01*
X16451667Y-14797048D02*
X16442143Y-14778000D01*
X16442143Y-14778000D02*
X16423095Y-14749428D01*
X16423095Y-14749428D02*
X16413572Y-14739905D01*
M02*
