G04 #@! TF.GenerationSoftware,KiCad,Pcbnew,(7.0.0)*
G04 #@! TF.CreationDate,2023-05-12T10:49:53+02:00*
G04 #@! TF.ProjectId,BMS_Project,424d535f-5072-46f6-9a65-63742e6b6963,rev?*
G04 #@! TF.SameCoordinates,Original*
G04 #@! TF.FileFunction,Soldermask,Bot*
G04 #@! TF.FilePolarity,Negative*
%FSLAX46Y46*%
G04 Gerber Fmt 4.6, Leading zero omitted, Abs format (unit mm)*
G04 Created by KiCad (PCBNEW (7.0.0)) date 2023-05-12 10:49:53*
%MOMM*%
%LPD*%
G01*
G04 APERTURE LIST*
G04 Aperture macros list*
%AMRoundRect*
0 Rectangle with rounded corners*
0 $1 Rounding radius*
0 $2 $3 $4 $5 $6 $7 $8 $9 X,Y pos of 4 corners*
0 Add a 4 corners polygon primitive as box body*
4,1,4,$2,$3,$4,$5,$6,$7,$8,$9,$2,$3,0*
0 Add four circle primitives for the rounded corners*
1,1,$1+$1,$2,$3*
1,1,$1+$1,$4,$5*
1,1,$1+$1,$6,$7*
1,1,$1+$1,$8,$9*
0 Add four rect primitives between the rounded corners*
20,1,$1+$1,$2,$3,$4,$5,0*
20,1,$1+$1,$4,$5,$6,$7,0*
20,1,$1+$1,$6,$7,$8,$9,0*
20,1,$1+$1,$8,$9,$2,$3,0*%
G04 Aperture macros list end*
%ADD10C,10.160000*%
%ADD11C,7.000000*%
%ADD12R,3.000000X3.000000*%
%ADD13C,3.000000*%
%ADD14RoundRect,0.500000X0.500000X-0.500000X0.500000X0.500000X-0.500000X0.500000X-0.500000X-0.500000X0*%
%ADD15RoundRect,0.250000X0.600000X-0.600000X0.600000X0.600000X-0.600000X0.600000X-0.600000X-0.600000X0*%
%ADD16C,1.700000*%
%ADD17R,1.600000X1.600000*%
%ADD18O,1.600000X1.600000*%
%ADD19C,3.500000*%
%ADD20R,1.700000X1.700000*%
%ADD21O,1.700000X1.700000*%
%ADD22O,2.200000X3.500000*%
%ADD23R,1.500000X2.500000*%
%ADD24O,1.500000X2.500000*%
%ADD25C,3.200000*%
%ADD26O,1.727200X1.727200*%
%ADD27R,1.727200X1.727200*%
G04 APERTURE END LIST*
D10*
X190000000Y-111000000D03*
D11*
X162100000Y-43700000D03*
D12*
X193599999Y-84659999D03*
D13*
X193600000Y-89740000D03*
D14*
X160550000Y-132050000D03*
X178050000Y-132050000D03*
X160550000Y-92050000D03*
X178050000Y-92050000D03*
D12*
X193599999Y-95659999D03*
D13*
X193600000Y-100740000D03*
D11*
X174200000Y-126700000D03*
X106200000Y-131700000D03*
X162200000Y-75000000D03*
D15*
X111540000Y-85340000D03*
D16*
X111540000Y-82800000D03*
X114080000Y-85340000D03*
X114080000Y-82800000D03*
X116620000Y-85340000D03*
X116620000Y-82800000D03*
X119160000Y-85340000D03*
X119160000Y-82800000D03*
X121700000Y-85340000D03*
X121700000Y-82800000D03*
X124240000Y-85340000D03*
X124240000Y-82800000D03*
X126780000Y-85340000D03*
X126780000Y-82800000D03*
X129320000Y-85340000D03*
X129320000Y-82800000D03*
X131860000Y-85340000D03*
X131860000Y-82800000D03*
X134400000Y-85340000D03*
X134400000Y-82800000D03*
D10*
X190000000Y-126000000D03*
D17*
X122999999Y-41599999D03*
D18*
X122999999Y-44139999D03*
X122999999Y-46679999D03*
X122999999Y-49219999D03*
X130619999Y-49219999D03*
X130619999Y-46679999D03*
X130619999Y-44139999D03*
X130619999Y-41599999D03*
D17*
X122899999Y-57799999D03*
D18*
X122899999Y-60339999D03*
X122899999Y-62879999D03*
X122899999Y-65419999D03*
X130519999Y-65419999D03*
X130519999Y-62879999D03*
X130519999Y-60339999D03*
X130519999Y-57799999D03*
D19*
X171950000Y-75850000D03*
X195200000Y-75850000D03*
X171950000Y-40500000D03*
X195200000Y-40500000D03*
D20*
X175869999Y-76349999D03*
D21*
X178409999Y-76349999D03*
X180949999Y-76349999D03*
X183489999Y-76349999D03*
X186029999Y-76349999D03*
X188569999Y-76349999D03*
X191109999Y-76349999D03*
D22*
X175499999Y-84499999D03*
X167299999Y-84499999D03*
D23*
X173399999Y-84499999D03*
D24*
X171399999Y-84499999D03*
X169399999Y-84499999D03*
D25*
X152230000Y-42140000D03*
X103970000Y-43410000D03*
D26*
X152229999Y-56109999D03*
D25*
X147150000Y-94210000D03*
X119210000Y-94210000D03*
X103970000Y-118340000D03*
X152230000Y-124690000D03*
D26*
X152229999Y-63729999D03*
X152229999Y-66269999D03*
X124289999Y-94336999D03*
X103969999Y-122149999D03*
X103969999Y-124689999D03*
X152229999Y-78969999D03*
X152229999Y-81509999D03*
X152229999Y-84049999D03*
X152229999Y-86589999D03*
X152229999Y-89129999D03*
X152229999Y-91669999D03*
X152229999Y-94209999D03*
X152229999Y-96749999D03*
X152229999Y-101829999D03*
X152229999Y-104369999D03*
X152229999Y-106909999D03*
X152229999Y-109449999D03*
X152229999Y-111989999D03*
X152229999Y-114529999D03*
X152229999Y-117069999D03*
X152229999Y-119609999D03*
X103969999Y-52045999D03*
X103969999Y-91669999D03*
X103969999Y-89129999D03*
X103969999Y-86589999D03*
X103969999Y-84049999D03*
X103969999Y-81509999D03*
X103969999Y-78969999D03*
X103969999Y-76429999D03*
X103969999Y-73889999D03*
X103969999Y-69825999D03*
X103969999Y-67285999D03*
X103969999Y-64745999D03*
X103969999Y-62205999D03*
X103969999Y-59665999D03*
X103969999Y-57125999D03*
X103969999Y-96749999D03*
X103969999Y-99289999D03*
X103969999Y-101829999D03*
X103969999Y-104369999D03*
X103969999Y-106909999D03*
X103969999Y-109449999D03*
X103969999Y-111989999D03*
X103969999Y-114529999D03*
X106509999Y-122149999D03*
X106509999Y-124689999D03*
X109049999Y-122149999D03*
X109049999Y-124689999D03*
X111589999Y-122149999D03*
X111589999Y-124689999D03*
X114129999Y-122149999D03*
X114129999Y-124689999D03*
X116669999Y-122149999D03*
X116669999Y-124689999D03*
X119209999Y-122149999D03*
X119209999Y-124689999D03*
X121749999Y-122149999D03*
X121749999Y-124689999D03*
X124289999Y-122149999D03*
X124289999Y-124689999D03*
X126829999Y-122149999D03*
X126829999Y-124689999D03*
X129369999Y-122149999D03*
X129369999Y-124689999D03*
X131909999Y-122149999D03*
X131909999Y-124689999D03*
X134449999Y-122149999D03*
X134449999Y-124689999D03*
X136989999Y-122149999D03*
X136989999Y-124689999D03*
X139529999Y-122149999D03*
X139529999Y-124689999D03*
X142069999Y-122149999D03*
X142069999Y-124689999D03*
X144609999Y-122149999D03*
X144609999Y-124689999D03*
D27*
X103969999Y-54585999D03*
X152229999Y-68809999D03*
X152229999Y-71349999D03*
X129369999Y-94336999D03*
X147149999Y-122149999D03*
X147149999Y-124689999D03*
D26*
X152229999Y-58649999D03*
X124289999Y-91796999D03*
X126829999Y-94336999D03*
X152229999Y-61189999D03*
X129369999Y-91796999D03*
X126829999Y-91796999D03*
X103969999Y-46965999D03*
X103969999Y-49505999D03*
X152229999Y-73889999D03*
M02*
