G04 #@! TF.GenerationSoftware,KiCad,Pcbnew,(7.0.0)*
G04 #@! TF.CreationDate,2023-05-12T10:49:53+02:00*
G04 #@! TF.ProjectId,BMS_Project,424d535f-5072-46f6-9a65-63742e6b6963,rev?*
G04 #@! TF.SameCoordinates,Original*
G04 #@! TF.FileFunction,Legend,Top*
G04 #@! TF.FilePolarity,Positive*
%FSLAX46Y46*%
G04 Gerber Fmt 4.6, Leading zero omitted, Abs format (unit mm)*
G04 Created by KiCad (PCBNEW (7.0.0)) date 2023-05-12 10:49:53*
%MOMM*%
%LPD*%
G01*
G04 APERTURE LIST*
G04 Aperture macros list*
%AMRoundRect*
0 Rectangle with rounded corners*
0 $1 Rounding radius*
0 $2 $3 $4 $5 $6 $7 $8 $9 X,Y pos of 4 corners*
0 Add a 4 corners polygon primitive as box body*
4,1,4,$2,$3,$4,$5,$6,$7,$8,$9,$2,$3,0*
0 Add four circle primitives for the rounded corners*
1,1,$1+$1,$2,$3*
1,1,$1+$1,$4,$5*
1,1,$1+$1,$6,$7*
1,1,$1+$1,$8,$9*
0 Add four rect primitives between the rounded corners*
20,1,$1+$1,$2,$3,$4,$5,0*
20,1,$1+$1,$4,$5,$6,$7,0*
20,1,$1+$1,$6,$7,$8,$9,0*
20,1,$1+$1,$8,$9,$2,$3,0*%
G04 Aperture macros list end*
%ADD10C,0.150000*%
%ADD11C,0.300000*%
%ADD12C,0.250000*%
%ADD13C,0.100000*%
%ADD14C,0.120000*%
%ADD15C,0.010000*%
%ADD16C,0.500000*%
%ADD17RoundRect,0.250000X-0.262500X-0.450000X0.262500X-0.450000X0.262500X0.450000X-0.262500X0.450000X0*%
%ADD18RoundRect,0.250000X0.262500X0.450000X-0.262500X0.450000X-0.262500X-0.450000X0.262500X-0.450000X0*%
%ADD19C,10.160000*%
%ADD20R,1.550000X1.300000*%
%ADD21C,7.000000*%
%ADD22R,3.000000X3.000000*%
%ADD23C,3.000000*%
%ADD24R,2.000000X3.000000*%
%ADD25RoundRect,0.500000X0.500000X-0.500000X0.500000X0.500000X-0.500000X0.500000X-0.500000X-0.500000X0*%
%ADD26RoundRect,0.250000X0.450000X-0.262500X0.450000X0.262500X-0.450000X0.262500X-0.450000X-0.262500X0*%
%ADD27RoundRect,0.250000X-0.450000X0.262500X-0.450000X-0.262500X0.450000X-0.262500X0.450000X0.262500X0*%
%ADD28R,1.000000X1.500000*%
%ADD29RoundRect,0.150000X0.150000X-0.587500X0.150000X0.587500X-0.150000X0.587500X-0.150000X-0.587500X0*%
%ADD30RoundRect,0.250000X-0.625000X0.375000X-0.625000X-0.375000X0.625000X-0.375000X0.625000X0.375000X0*%
%ADD31RoundRect,0.250000X0.600000X-0.600000X0.600000X0.600000X-0.600000X0.600000X-0.600000X-0.600000X0*%
%ADD32C,1.700000*%
%ADD33R,1.600000X1.600000*%
%ADD34O,1.600000X1.600000*%
%ADD35RoundRect,0.250000X-0.475000X0.250000X-0.475000X-0.250000X0.475000X-0.250000X0.475000X0.250000X0*%
%ADD36C,3.500000*%
%ADD37R,1.700000X1.700000*%
%ADD38O,1.700000X1.700000*%
%ADD39O,2.200000X3.500000*%
%ADD40R,1.500000X2.500000*%
%ADD41O,1.500000X2.500000*%
%ADD42C,3.200000*%
%ADD43O,1.727200X1.727200*%
%ADD44R,1.727200X1.727200*%
G04 APERTURE END LIST*
D10*
X165223809Y-94682380D02*
X165223809Y-95396666D01*
X165223809Y-95396666D02*
X165176190Y-95539523D01*
X165176190Y-95539523D02*
X165080952Y-95634761D01*
X165080952Y-95634761D02*
X164938095Y-95682380D01*
X164938095Y-95682380D02*
X164842857Y-95682380D01*
X166176190Y-95682380D02*
X165700000Y-95682380D01*
X165700000Y-95682380D02*
X165700000Y-94682380D01*
X167080952Y-95587142D02*
X167033333Y-95634761D01*
X167033333Y-95634761D02*
X166890476Y-95682380D01*
X166890476Y-95682380D02*
X166795238Y-95682380D01*
X166795238Y-95682380D02*
X166652381Y-95634761D01*
X166652381Y-95634761D02*
X166557143Y-95539523D01*
X166557143Y-95539523D02*
X166509524Y-95444285D01*
X166509524Y-95444285D02*
X166461905Y-95253809D01*
X166461905Y-95253809D02*
X166461905Y-95110952D01*
X166461905Y-95110952D02*
X166509524Y-94920476D01*
X166509524Y-94920476D02*
X166557143Y-94825238D01*
X166557143Y-94825238D02*
X166652381Y-94730000D01*
X166652381Y-94730000D02*
X166795238Y-94682380D01*
X166795238Y-94682380D02*
X166890476Y-94682380D01*
X166890476Y-94682380D02*
X167033333Y-94730000D01*
X167033333Y-94730000D02*
X167080952Y-94777619D01*
X167795238Y-94682380D02*
X167795238Y-95396666D01*
X167795238Y-95396666D02*
X167747619Y-95539523D01*
X167747619Y-95539523D02*
X167652381Y-95634761D01*
X167652381Y-95634761D02*
X167509524Y-95682380D01*
X167509524Y-95682380D02*
X167414286Y-95682380D01*
X168747619Y-95682380D02*
X168271429Y-95682380D01*
X168271429Y-95682380D02*
X168271429Y-94682380D01*
X169652381Y-95587142D02*
X169604762Y-95634761D01*
X169604762Y-95634761D02*
X169461905Y-95682380D01*
X169461905Y-95682380D02*
X169366667Y-95682380D01*
X169366667Y-95682380D02*
X169223810Y-95634761D01*
X169223810Y-95634761D02*
X169128572Y-95539523D01*
X169128572Y-95539523D02*
X169080953Y-95444285D01*
X169080953Y-95444285D02*
X169033334Y-95253809D01*
X169033334Y-95253809D02*
X169033334Y-95110952D01*
X169033334Y-95110952D02*
X169080953Y-94920476D01*
X169080953Y-94920476D02*
X169128572Y-94825238D01*
X169128572Y-94825238D02*
X169223810Y-94730000D01*
X169223810Y-94730000D02*
X169366667Y-94682380D01*
X169366667Y-94682380D02*
X169461905Y-94682380D01*
X169461905Y-94682380D02*
X169604762Y-94730000D01*
X169604762Y-94730000D02*
X169652381Y-94777619D01*
X170366667Y-94682380D02*
X170366667Y-95396666D01*
X170366667Y-95396666D02*
X170319048Y-95539523D01*
X170319048Y-95539523D02*
X170223810Y-95634761D01*
X170223810Y-95634761D02*
X170080953Y-95682380D01*
X170080953Y-95682380D02*
X169985715Y-95682380D01*
X171319048Y-95682380D02*
X170842858Y-95682380D01*
X170842858Y-95682380D02*
X170842858Y-94682380D01*
X172223810Y-95587142D02*
X172176191Y-95634761D01*
X172176191Y-95634761D02*
X172033334Y-95682380D01*
X172033334Y-95682380D02*
X171938096Y-95682380D01*
X171938096Y-95682380D02*
X171795239Y-95634761D01*
X171795239Y-95634761D02*
X171700001Y-95539523D01*
X171700001Y-95539523D02*
X171652382Y-95444285D01*
X171652382Y-95444285D02*
X171604763Y-95253809D01*
X171604763Y-95253809D02*
X171604763Y-95110952D01*
X171604763Y-95110952D02*
X171652382Y-94920476D01*
X171652382Y-94920476D02*
X171700001Y-94825238D01*
X171700001Y-94825238D02*
X171795239Y-94730000D01*
X171795239Y-94730000D02*
X171938096Y-94682380D01*
X171938096Y-94682380D02*
X172033334Y-94682380D01*
X172033334Y-94682380D02*
X172176191Y-94730000D01*
X172176191Y-94730000D02*
X172223810Y-94777619D01*
X172938096Y-94682380D02*
X172938096Y-95396666D01*
X172938096Y-95396666D02*
X172890477Y-95539523D01*
X172890477Y-95539523D02*
X172795239Y-95634761D01*
X172795239Y-95634761D02*
X172652382Y-95682380D01*
X172652382Y-95682380D02*
X172557144Y-95682380D01*
X173890477Y-95682380D02*
X173414287Y-95682380D01*
X173414287Y-95682380D02*
X173414287Y-94682380D01*
X174795239Y-95587142D02*
X174747620Y-95634761D01*
X174747620Y-95634761D02*
X174604763Y-95682380D01*
X174604763Y-95682380D02*
X174509525Y-95682380D01*
X174509525Y-95682380D02*
X174366668Y-95634761D01*
X174366668Y-95634761D02*
X174271430Y-95539523D01*
X174271430Y-95539523D02*
X174223811Y-95444285D01*
X174223811Y-95444285D02*
X174176192Y-95253809D01*
X174176192Y-95253809D02*
X174176192Y-95110952D01*
X174176192Y-95110952D02*
X174223811Y-94920476D01*
X174223811Y-94920476D02*
X174271430Y-94825238D01*
X174271430Y-94825238D02*
X174366668Y-94730000D01*
X174366668Y-94730000D02*
X174509525Y-94682380D01*
X174509525Y-94682380D02*
X174604763Y-94682380D01*
X174604763Y-94682380D02*
X174747620Y-94730000D01*
X174747620Y-94730000D02*
X174795239Y-94777619D01*
D11*
X182702857Y-114923809D02*
X182702857Y-113400000D01*
X183464761Y-114161904D02*
X181940952Y-114161904D01*
X183464761Y-111400000D02*
X183464761Y-112542857D01*
X183464761Y-111971429D02*
X181464761Y-111971429D01*
X181464761Y-111971429D02*
X181750476Y-112161905D01*
X181750476Y-112161905D02*
X181940952Y-112352381D01*
X181940952Y-112352381D02*
X182036190Y-112542857D01*
X181655238Y-110638095D02*
X181560000Y-110542857D01*
X181560000Y-110542857D02*
X181464761Y-110352381D01*
X181464761Y-110352381D02*
X181464761Y-109876190D01*
X181464761Y-109876190D02*
X181560000Y-109685714D01*
X181560000Y-109685714D02*
X181655238Y-109590476D01*
X181655238Y-109590476D02*
X181845714Y-109495238D01*
X181845714Y-109495238D02*
X182036190Y-109495238D01*
X182036190Y-109495238D02*
X182321904Y-109590476D01*
X182321904Y-109590476D02*
X183464761Y-110733333D01*
X183464761Y-110733333D02*
X183464761Y-109495238D01*
X181464761Y-108923809D02*
X183464761Y-108257143D01*
X183464761Y-108257143D02*
X181464761Y-107590476D01*
X131523809Y-76660000D02*
X131333333Y-76564761D01*
X131333333Y-76564761D02*
X131047619Y-76564761D01*
X131047619Y-76564761D02*
X130761904Y-76660000D01*
X130761904Y-76660000D02*
X130571428Y-76850476D01*
X130571428Y-76850476D02*
X130476190Y-77040952D01*
X130476190Y-77040952D02*
X130380952Y-77421904D01*
X130380952Y-77421904D02*
X130380952Y-77707619D01*
X130380952Y-77707619D02*
X130476190Y-78088571D01*
X130476190Y-78088571D02*
X130571428Y-78279047D01*
X130571428Y-78279047D02*
X130761904Y-78469523D01*
X130761904Y-78469523D02*
X131047619Y-78564761D01*
X131047619Y-78564761D02*
X131238095Y-78564761D01*
X131238095Y-78564761D02*
X131523809Y-78469523D01*
X131523809Y-78469523D02*
X131619047Y-78374285D01*
X131619047Y-78374285D02*
X131619047Y-77707619D01*
X131619047Y-77707619D02*
X131238095Y-77707619D01*
X132476190Y-78564761D02*
X132476190Y-76564761D01*
X132476190Y-76564761D02*
X133619047Y-78564761D01*
X133619047Y-78564761D02*
X133619047Y-76564761D01*
X134571428Y-78564761D02*
X134571428Y-76564761D01*
X134571428Y-76564761D02*
X135047618Y-76564761D01*
X135047618Y-76564761D02*
X135333333Y-76660000D01*
X135333333Y-76660000D02*
X135523809Y-76850476D01*
X135523809Y-76850476D02*
X135619047Y-77040952D01*
X135619047Y-77040952D02*
X135714285Y-77421904D01*
X135714285Y-77421904D02*
X135714285Y-77707619D01*
X135714285Y-77707619D02*
X135619047Y-78088571D01*
X135619047Y-78088571D02*
X135523809Y-78279047D01*
X135523809Y-78279047D02*
X135333333Y-78469523D01*
X135333333Y-78469523D02*
X135047618Y-78564761D01*
X135047618Y-78564761D02*
X134571428Y-78564761D01*
X109976190Y-105024761D02*
X109976190Y-103024761D01*
X109976190Y-103024761D02*
X110642857Y-104453333D01*
X110642857Y-104453333D02*
X111309523Y-103024761D01*
X111309523Y-103024761D02*
X111309523Y-105024761D01*
X113119047Y-105024761D02*
X113119047Y-103977142D01*
X113119047Y-103977142D02*
X113023809Y-103786666D01*
X113023809Y-103786666D02*
X112833333Y-103691428D01*
X112833333Y-103691428D02*
X112452380Y-103691428D01*
X112452380Y-103691428D02*
X112261904Y-103786666D01*
X113119047Y-104929523D02*
X112928571Y-105024761D01*
X112928571Y-105024761D02*
X112452380Y-105024761D01*
X112452380Y-105024761D02*
X112261904Y-104929523D01*
X112261904Y-104929523D02*
X112166666Y-104739047D01*
X112166666Y-104739047D02*
X112166666Y-104548571D01*
X112166666Y-104548571D02*
X112261904Y-104358095D01*
X112261904Y-104358095D02*
X112452380Y-104262857D01*
X112452380Y-104262857D02*
X112928571Y-104262857D01*
X112928571Y-104262857D02*
X113119047Y-104167619D01*
X114071428Y-105024761D02*
X114071428Y-103691428D01*
X114071428Y-103024761D02*
X113976190Y-103120000D01*
X113976190Y-103120000D02*
X114071428Y-103215238D01*
X114071428Y-103215238D02*
X114166666Y-103120000D01*
X114166666Y-103120000D02*
X114071428Y-103024761D01*
X114071428Y-103024761D02*
X114071428Y-103215238D01*
X115023809Y-103691428D02*
X115023809Y-105024761D01*
X115023809Y-103881904D02*
X115119047Y-103786666D01*
X115119047Y-103786666D02*
X115309523Y-103691428D01*
X115309523Y-103691428D02*
X115595238Y-103691428D01*
X115595238Y-103691428D02*
X115785714Y-103786666D01*
X115785714Y-103786666D02*
X115880952Y-103977142D01*
X115880952Y-103977142D02*
X115880952Y-105024761D01*
X118033333Y-105024761D02*
X118033333Y-103024761D01*
X118033333Y-103786666D02*
X118223809Y-103691428D01*
X118223809Y-103691428D02*
X118604762Y-103691428D01*
X118604762Y-103691428D02*
X118795238Y-103786666D01*
X118795238Y-103786666D02*
X118890476Y-103881904D01*
X118890476Y-103881904D02*
X118985714Y-104072380D01*
X118985714Y-104072380D02*
X118985714Y-104643809D01*
X118985714Y-104643809D02*
X118890476Y-104834285D01*
X118890476Y-104834285D02*
X118795238Y-104929523D01*
X118795238Y-104929523D02*
X118604762Y-105024761D01*
X118604762Y-105024761D02*
X118223809Y-105024761D01*
X118223809Y-105024761D02*
X118033333Y-104929523D01*
X120128571Y-105024761D02*
X119938095Y-104929523D01*
X119938095Y-104929523D02*
X119842857Y-104834285D01*
X119842857Y-104834285D02*
X119747619Y-104643809D01*
X119747619Y-104643809D02*
X119747619Y-104072380D01*
X119747619Y-104072380D02*
X119842857Y-103881904D01*
X119842857Y-103881904D02*
X119938095Y-103786666D01*
X119938095Y-103786666D02*
X120128571Y-103691428D01*
X120128571Y-103691428D02*
X120414286Y-103691428D01*
X120414286Y-103691428D02*
X120604762Y-103786666D01*
X120604762Y-103786666D02*
X120700000Y-103881904D01*
X120700000Y-103881904D02*
X120795238Y-104072380D01*
X120795238Y-104072380D02*
X120795238Y-104643809D01*
X120795238Y-104643809D02*
X120700000Y-104834285D01*
X120700000Y-104834285D02*
X120604762Y-104929523D01*
X120604762Y-104929523D02*
X120414286Y-105024761D01*
X120414286Y-105024761D02*
X120128571Y-105024761D01*
X122509524Y-105024761D02*
X122509524Y-103977142D01*
X122509524Y-103977142D02*
X122414286Y-103786666D01*
X122414286Y-103786666D02*
X122223810Y-103691428D01*
X122223810Y-103691428D02*
X121842857Y-103691428D01*
X121842857Y-103691428D02*
X121652381Y-103786666D01*
X122509524Y-104929523D02*
X122319048Y-105024761D01*
X122319048Y-105024761D02*
X121842857Y-105024761D01*
X121842857Y-105024761D02*
X121652381Y-104929523D01*
X121652381Y-104929523D02*
X121557143Y-104739047D01*
X121557143Y-104739047D02*
X121557143Y-104548571D01*
X121557143Y-104548571D02*
X121652381Y-104358095D01*
X121652381Y-104358095D02*
X121842857Y-104262857D01*
X121842857Y-104262857D02*
X122319048Y-104262857D01*
X122319048Y-104262857D02*
X122509524Y-104167619D01*
X123461905Y-105024761D02*
X123461905Y-103691428D01*
X123461905Y-104072380D02*
X123557143Y-103881904D01*
X123557143Y-103881904D02*
X123652381Y-103786666D01*
X123652381Y-103786666D02*
X123842857Y-103691428D01*
X123842857Y-103691428D02*
X124033334Y-103691428D01*
X125557143Y-105024761D02*
X125557143Y-103024761D01*
X125557143Y-104929523D02*
X125366667Y-105024761D01*
X125366667Y-105024761D02*
X124985714Y-105024761D01*
X124985714Y-105024761D02*
X124795238Y-104929523D01*
X124795238Y-104929523D02*
X124700000Y-104834285D01*
X124700000Y-104834285D02*
X124604762Y-104643809D01*
X124604762Y-104643809D02*
X124604762Y-104072380D01*
X124604762Y-104072380D02*
X124700000Y-103881904D01*
X124700000Y-103881904D02*
X124795238Y-103786666D01*
X124795238Y-103786666D02*
X124985714Y-103691428D01*
X124985714Y-103691428D02*
X125366667Y-103691428D01*
X125366667Y-103691428D02*
X125557143Y-103786666D01*
X110642857Y-107217142D02*
X110928571Y-107312380D01*
X110928571Y-107312380D02*
X111023809Y-107407619D01*
X111023809Y-107407619D02*
X111119047Y-107598095D01*
X111119047Y-107598095D02*
X111119047Y-107883809D01*
X111119047Y-107883809D02*
X111023809Y-108074285D01*
X111023809Y-108074285D02*
X110928571Y-108169523D01*
X110928571Y-108169523D02*
X110738095Y-108264761D01*
X110738095Y-108264761D02*
X109976190Y-108264761D01*
X109976190Y-108264761D02*
X109976190Y-106264761D01*
X109976190Y-106264761D02*
X110642857Y-106264761D01*
X110642857Y-106264761D02*
X110833333Y-106360000D01*
X110833333Y-106360000D02*
X110928571Y-106455238D01*
X110928571Y-106455238D02*
X111023809Y-106645714D01*
X111023809Y-106645714D02*
X111023809Y-106836190D01*
X111023809Y-106836190D02*
X110928571Y-107026666D01*
X110928571Y-107026666D02*
X110833333Y-107121904D01*
X110833333Y-107121904D02*
X110642857Y-107217142D01*
X110642857Y-107217142D02*
X109976190Y-107217142D01*
X111976190Y-108264761D02*
X111976190Y-106264761D01*
X111976190Y-106264761D02*
X112642857Y-107693333D01*
X112642857Y-107693333D02*
X113309523Y-106264761D01*
X113309523Y-106264761D02*
X113309523Y-108264761D01*
X114166666Y-108169523D02*
X114452380Y-108264761D01*
X114452380Y-108264761D02*
X114928571Y-108264761D01*
X114928571Y-108264761D02*
X115119047Y-108169523D01*
X115119047Y-108169523D02*
X115214285Y-108074285D01*
X115214285Y-108074285D02*
X115309523Y-107883809D01*
X115309523Y-107883809D02*
X115309523Y-107693333D01*
X115309523Y-107693333D02*
X115214285Y-107502857D01*
X115214285Y-107502857D02*
X115119047Y-107407619D01*
X115119047Y-107407619D02*
X114928571Y-107312380D01*
X114928571Y-107312380D02*
X114547618Y-107217142D01*
X114547618Y-107217142D02*
X114357142Y-107121904D01*
X114357142Y-107121904D02*
X114261904Y-107026666D01*
X114261904Y-107026666D02*
X114166666Y-106836190D01*
X114166666Y-106836190D02*
X114166666Y-106645714D01*
X114166666Y-106645714D02*
X114261904Y-106455238D01*
X114261904Y-106455238D02*
X114357142Y-106360000D01*
X114357142Y-106360000D02*
X114547618Y-106264761D01*
X114547618Y-106264761D02*
X115023809Y-106264761D01*
X115023809Y-106264761D02*
X115309523Y-106360000D01*
X117366666Y-108264761D02*
X117366666Y-106264761D01*
X117366666Y-106264761D02*
X118128571Y-106264761D01*
X118128571Y-106264761D02*
X118319047Y-106360000D01*
X118319047Y-106360000D02*
X118414285Y-106455238D01*
X118414285Y-106455238D02*
X118509523Y-106645714D01*
X118509523Y-106645714D02*
X118509523Y-106931428D01*
X118509523Y-106931428D02*
X118414285Y-107121904D01*
X118414285Y-107121904D02*
X118319047Y-107217142D01*
X118319047Y-107217142D02*
X118128571Y-107312380D01*
X118128571Y-107312380D02*
X117366666Y-107312380D01*
X119366666Y-108264761D02*
X119366666Y-106931428D01*
X119366666Y-107312380D02*
X119461904Y-107121904D01*
X119461904Y-107121904D02*
X119557142Y-107026666D01*
X119557142Y-107026666D02*
X119747618Y-106931428D01*
X119747618Y-106931428D02*
X119938095Y-106931428D01*
X120890475Y-108264761D02*
X120699999Y-108169523D01*
X120699999Y-108169523D02*
X120604761Y-108074285D01*
X120604761Y-108074285D02*
X120509523Y-107883809D01*
X120509523Y-107883809D02*
X120509523Y-107312380D01*
X120509523Y-107312380D02*
X120604761Y-107121904D01*
X120604761Y-107121904D02*
X120699999Y-107026666D01*
X120699999Y-107026666D02*
X120890475Y-106931428D01*
X120890475Y-106931428D02*
X121176190Y-106931428D01*
X121176190Y-106931428D02*
X121366666Y-107026666D01*
X121366666Y-107026666D02*
X121461904Y-107121904D01*
X121461904Y-107121904D02*
X121557142Y-107312380D01*
X121557142Y-107312380D02*
X121557142Y-107883809D01*
X121557142Y-107883809D02*
X121461904Y-108074285D01*
X121461904Y-108074285D02*
X121366666Y-108169523D01*
X121366666Y-108169523D02*
X121176190Y-108264761D01*
X121176190Y-108264761D02*
X120890475Y-108264761D01*
X122414285Y-106931428D02*
X122414285Y-108645714D01*
X122414285Y-108645714D02*
X122319047Y-108836190D01*
X122319047Y-108836190D02*
X122128571Y-108931428D01*
X122128571Y-108931428D02*
X122033333Y-108931428D01*
X122414285Y-106264761D02*
X122319047Y-106360000D01*
X122319047Y-106360000D02*
X122414285Y-106455238D01*
X122414285Y-106455238D02*
X122509523Y-106360000D01*
X122509523Y-106360000D02*
X122414285Y-106264761D01*
X122414285Y-106264761D02*
X122414285Y-106455238D01*
X124128571Y-108169523D02*
X123938095Y-108264761D01*
X123938095Y-108264761D02*
X123557142Y-108264761D01*
X123557142Y-108264761D02*
X123366666Y-108169523D01*
X123366666Y-108169523D02*
X123271428Y-107979047D01*
X123271428Y-107979047D02*
X123271428Y-107217142D01*
X123271428Y-107217142D02*
X123366666Y-107026666D01*
X123366666Y-107026666D02*
X123557142Y-106931428D01*
X123557142Y-106931428D02*
X123938095Y-106931428D01*
X123938095Y-106931428D02*
X124128571Y-107026666D01*
X124128571Y-107026666D02*
X124223809Y-107217142D01*
X124223809Y-107217142D02*
X124223809Y-107407619D01*
X124223809Y-107407619D02*
X123271428Y-107598095D01*
X125938095Y-108169523D02*
X125747619Y-108264761D01*
X125747619Y-108264761D02*
X125366666Y-108264761D01*
X125366666Y-108264761D02*
X125176190Y-108169523D01*
X125176190Y-108169523D02*
X125080952Y-108074285D01*
X125080952Y-108074285D02*
X124985714Y-107883809D01*
X124985714Y-107883809D02*
X124985714Y-107312380D01*
X124985714Y-107312380D02*
X125080952Y-107121904D01*
X125080952Y-107121904D02*
X125176190Y-107026666D01*
X125176190Y-107026666D02*
X125366666Y-106931428D01*
X125366666Y-106931428D02*
X125747619Y-106931428D01*
X125747619Y-106931428D02*
X125938095Y-107026666D01*
X126509524Y-106931428D02*
X127271428Y-106931428D01*
X126795238Y-106264761D02*
X126795238Y-107979047D01*
X126795238Y-107979047D02*
X126890476Y-108169523D01*
X126890476Y-108169523D02*
X127080952Y-108264761D01*
X127080952Y-108264761D02*
X127271428Y-108264761D01*
X129042857Y-108169523D02*
X129328571Y-108264761D01*
X129328571Y-108264761D02*
X129804762Y-108264761D01*
X129804762Y-108264761D02*
X129995238Y-108169523D01*
X129995238Y-108169523D02*
X130090476Y-108074285D01*
X130090476Y-108074285D02*
X130185714Y-107883809D01*
X130185714Y-107883809D02*
X130185714Y-107693333D01*
X130185714Y-107693333D02*
X130090476Y-107502857D01*
X130090476Y-107502857D02*
X129995238Y-107407619D01*
X129995238Y-107407619D02*
X129804762Y-107312380D01*
X129804762Y-107312380D02*
X129423809Y-107217142D01*
X129423809Y-107217142D02*
X129233333Y-107121904D01*
X129233333Y-107121904D02*
X129138095Y-107026666D01*
X129138095Y-107026666D02*
X129042857Y-106836190D01*
X129042857Y-106836190D02*
X129042857Y-106645714D01*
X129042857Y-106645714D02*
X129138095Y-106455238D01*
X129138095Y-106455238D02*
X129233333Y-106360000D01*
X129233333Y-106360000D02*
X129423809Y-106264761D01*
X129423809Y-106264761D02*
X129900000Y-106264761D01*
X129900000Y-106264761D02*
X130185714Y-106360000D01*
X130947619Y-108169523D02*
X131233333Y-108264761D01*
X131233333Y-108264761D02*
X131709524Y-108264761D01*
X131709524Y-108264761D02*
X131900000Y-108169523D01*
X131900000Y-108169523D02*
X131995238Y-108074285D01*
X131995238Y-108074285D02*
X132090476Y-107883809D01*
X132090476Y-107883809D02*
X132090476Y-107693333D01*
X132090476Y-107693333D02*
X131995238Y-107502857D01*
X131995238Y-107502857D02*
X131900000Y-107407619D01*
X131900000Y-107407619D02*
X131709524Y-107312380D01*
X131709524Y-107312380D02*
X131328571Y-107217142D01*
X131328571Y-107217142D02*
X131138095Y-107121904D01*
X131138095Y-107121904D02*
X131042857Y-107026666D01*
X131042857Y-107026666D02*
X130947619Y-106836190D01*
X130947619Y-106836190D02*
X130947619Y-106645714D01*
X130947619Y-106645714D02*
X131042857Y-106455238D01*
X131042857Y-106455238D02*
X131138095Y-106360000D01*
X131138095Y-106360000D02*
X131328571Y-106264761D01*
X131328571Y-106264761D02*
X131804762Y-106264761D01*
X131804762Y-106264761D02*
X132090476Y-106360000D01*
X132852381Y-106455238D02*
X132947619Y-106360000D01*
X132947619Y-106360000D02*
X133138095Y-106264761D01*
X133138095Y-106264761D02*
X133614286Y-106264761D01*
X133614286Y-106264761D02*
X133804762Y-106360000D01*
X133804762Y-106360000D02*
X133900000Y-106455238D01*
X133900000Y-106455238D02*
X133995238Y-106645714D01*
X133995238Y-106645714D02*
X133995238Y-106836190D01*
X133995238Y-106836190D02*
X133900000Y-107121904D01*
X133900000Y-107121904D02*
X132757143Y-108264761D01*
X132757143Y-108264761D02*
X133995238Y-108264761D01*
X134661905Y-106264761D02*
X135900000Y-106264761D01*
X135900000Y-106264761D02*
X135233333Y-107026666D01*
X135233333Y-107026666D02*
X135519048Y-107026666D01*
X135519048Y-107026666D02*
X135709524Y-107121904D01*
X135709524Y-107121904D02*
X135804762Y-107217142D01*
X135804762Y-107217142D02*
X135900000Y-107407619D01*
X135900000Y-107407619D02*
X135900000Y-107883809D01*
X135900000Y-107883809D02*
X135804762Y-108074285D01*
X135804762Y-108074285D02*
X135709524Y-108169523D01*
X135709524Y-108169523D02*
X135519048Y-108264761D01*
X135519048Y-108264761D02*
X134947619Y-108264761D01*
X134947619Y-108264761D02*
X134757143Y-108169523D01*
X134757143Y-108169523D02*
X134661905Y-108074285D01*
X181560000Y-127576190D02*
X181464761Y-127766666D01*
X181464761Y-127766666D02*
X181464761Y-128052380D01*
X181464761Y-128052380D02*
X181560000Y-128338095D01*
X181560000Y-128338095D02*
X181750476Y-128528571D01*
X181750476Y-128528571D02*
X181940952Y-128623809D01*
X181940952Y-128623809D02*
X182321904Y-128719047D01*
X182321904Y-128719047D02*
X182607619Y-128719047D01*
X182607619Y-128719047D02*
X182988571Y-128623809D01*
X182988571Y-128623809D02*
X183179047Y-128528571D01*
X183179047Y-128528571D02*
X183369523Y-128338095D01*
X183369523Y-128338095D02*
X183464761Y-128052380D01*
X183464761Y-128052380D02*
X183464761Y-127861904D01*
X183464761Y-127861904D02*
X183369523Y-127576190D01*
X183369523Y-127576190D02*
X183274285Y-127480952D01*
X183274285Y-127480952D02*
X182607619Y-127480952D01*
X182607619Y-127480952D02*
X182607619Y-127861904D01*
X183464761Y-126623809D02*
X181464761Y-126623809D01*
X181464761Y-126623809D02*
X183464761Y-125480952D01*
X183464761Y-125480952D02*
X181464761Y-125480952D01*
X183464761Y-124528571D02*
X181464761Y-124528571D01*
X181464761Y-124528571D02*
X181464761Y-124052381D01*
X181464761Y-124052381D02*
X181560000Y-123766666D01*
X181560000Y-123766666D02*
X181750476Y-123576190D01*
X181750476Y-123576190D02*
X181940952Y-123480952D01*
X181940952Y-123480952D02*
X182321904Y-123385714D01*
X182321904Y-123385714D02*
X182607619Y-123385714D01*
X182607619Y-123385714D02*
X182988571Y-123480952D01*
X182988571Y-123480952D02*
X183179047Y-123576190D01*
X183179047Y-123576190D02*
X183369523Y-123766666D01*
X183369523Y-123766666D02*
X183464761Y-124052381D01*
X183464761Y-124052381D02*
X183464761Y-124528571D01*
X183776190Y-84802857D02*
X185300000Y-84802857D01*
X184538095Y-85564761D02*
X184538095Y-84040952D01*
X187204761Y-83564761D02*
X186252380Y-83564761D01*
X186252380Y-83564761D02*
X186157142Y-84517142D01*
X186157142Y-84517142D02*
X186252380Y-84421904D01*
X186252380Y-84421904D02*
X186442856Y-84326666D01*
X186442856Y-84326666D02*
X186919047Y-84326666D01*
X186919047Y-84326666D02*
X187109523Y-84421904D01*
X187109523Y-84421904D02*
X187204761Y-84517142D01*
X187204761Y-84517142D02*
X187299999Y-84707619D01*
X187299999Y-84707619D02*
X187299999Y-85183809D01*
X187299999Y-85183809D02*
X187204761Y-85374285D01*
X187204761Y-85374285D02*
X187109523Y-85469523D01*
X187109523Y-85469523D02*
X186919047Y-85564761D01*
X186919047Y-85564761D02*
X186442856Y-85564761D01*
X186442856Y-85564761D02*
X186252380Y-85469523D01*
X186252380Y-85469523D02*
X186157142Y-85374285D01*
X187871428Y-83564761D02*
X188538094Y-85564761D01*
X188538094Y-85564761D02*
X189204761Y-83564761D01*
X184923809Y-101060000D02*
X184733333Y-100964761D01*
X184733333Y-100964761D02*
X184447619Y-100964761D01*
X184447619Y-100964761D02*
X184161904Y-101060000D01*
X184161904Y-101060000D02*
X183971428Y-101250476D01*
X183971428Y-101250476D02*
X183876190Y-101440952D01*
X183876190Y-101440952D02*
X183780952Y-101821904D01*
X183780952Y-101821904D02*
X183780952Y-102107619D01*
X183780952Y-102107619D02*
X183876190Y-102488571D01*
X183876190Y-102488571D02*
X183971428Y-102679047D01*
X183971428Y-102679047D02*
X184161904Y-102869523D01*
X184161904Y-102869523D02*
X184447619Y-102964761D01*
X184447619Y-102964761D02*
X184638095Y-102964761D01*
X184638095Y-102964761D02*
X184923809Y-102869523D01*
X184923809Y-102869523D02*
X185019047Y-102774285D01*
X185019047Y-102774285D02*
X185019047Y-102107619D01*
X185019047Y-102107619D02*
X184638095Y-102107619D01*
X185876190Y-102964761D02*
X185876190Y-100964761D01*
X185876190Y-100964761D02*
X187019047Y-102964761D01*
X187019047Y-102964761D02*
X187019047Y-100964761D01*
X187971428Y-102964761D02*
X187971428Y-100964761D01*
X187971428Y-100964761D02*
X188447618Y-100964761D01*
X188447618Y-100964761D02*
X188733333Y-101060000D01*
X188733333Y-101060000D02*
X188923809Y-101250476D01*
X188923809Y-101250476D02*
X189019047Y-101440952D01*
X189019047Y-101440952D02*
X189114285Y-101821904D01*
X189114285Y-101821904D02*
X189114285Y-102107619D01*
X189114285Y-102107619D02*
X189019047Y-102488571D01*
X189019047Y-102488571D02*
X188923809Y-102679047D01*
X188923809Y-102679047D02*
X188733333Y-102869523D01*
X188733333Y-102869523D02*
X188447618Y-102964761D01*
X188447618Y-102964761D02*
X187971428Y-102964761D01*
X185023809Y-88760000D02*
X184833333Y-88664761D01*
X184833333Y-88664761D02*
X184547619Y-88664761D01*
X184547619Y-88664761D02*
X184261904Y-88760000D01*
X184261904Y-88760000D02*
X184071428Y-88950476D01*
X184071428Y-88950476D02*
X183976190Y-89140952D01*
X183976190Y-89140952D02*
X183880952Y-89521904D01*
X183880952Y-89521904D02*
X183880952Y-89807619D01*
X183880952Y-89807619D02*
X183976190Y-90188571D01*
X183976190Y-90188571D02*
X184071428Y-90379047D01*
X184071428Y-90379047D02*
X184261904Y-90569523D01*
X184261904Y-90569523D02*
X184547619Y-90664761D01*
X184547619Y-90664761D02*
X184738095Y-90664761D01*
X184738095Y-90664761D02*
X185023809Y-90569523D01*
X185023809Y-90569523D02*
X185119047Y-90474285D01*
X185119047Y-90474285D02*
X185119047Y-89807619D01*
X185119047Y-89807619D02*
X184738095Y-89807619D01*
X185976190Y-90664761D02*
X185976190Y-88664761D01*
X185976190Y-88664761D02*
X187119047Y-90664761D01*
X187119047Y-90664761D02*
X187119047Y-88664761D01*
X188071428Y-90664761D02*
X188071428Y-88664761D01*
X188071428Y-88664761D02*
X188547618Y-88664761D01*
X188547618Y-88664761D02*
X188833333Y-88760000D01*
X188833333Y-88760000D02*
X189023809Y-88950476D01*
X189023809Y-88950476D02*
X189119047Y-89140952D01*
X189119047Y-89140952D02*
X189214285Y-89521904D01*
X189214285Y-89521904D02*
X189214285Y-89807619D01*
X189214285Y-89807619D02*
X189119047Y-90188571D01*
X189119047Y-90188571D02*
X189023809Y-90379047D01*
X189023809Y-90379047D02*
X188833333Y-90569523D01*
X188833333Y-90569523D02*
X188547618Y-90664761D01*
X188547618Y-90664761D02*
X188071428Y-90664761D01*
X183676190Y-95124761D02*
X183676190Y-93124761D01*
X183676190Y-93124761D02*
X184152380Y-93124761D01*
X184152380Y-93124761D02*
X184438095Y-93220000D01*
X184438095Y-93220000D02*
X184628571Y-93410476D01*
X184628571Y-93410476D02*
X184723809Y-93600952D01*
X184723809Y-93600952D02*
X184819047Y-93981904D01*
X184819047Y-93981904D02*
X184819047Y-94267619D01*
X184819047Y-94267619D02*
X184723809Y-94648571D01*
X184723809Y-94648571D02*
X184628571Y-94839047D01*
X184628571Y-94839047D02*
X184438095Y-95029523D01*
X184438095Y-95029523D02*
X184152380Y-95124761D01*
X184152380Y-95124761D02*
X183676190Y-95124761D01*
X185580952Y-95029523D02*
X185866666Y-95124761D01*
X185866666Y-95124761D02*
X186342857Y-95124761D01*
X186342857Y-95124761D02*
X186533333Y-95029523D01*
X186533333Y-95029523D02*
X186628571Y-94934285D01*
X186628571Y-94934285D02*
X186723809Y-94743809D01*
X186723809Y-94743809D02*
X186723809Y-94553333D01*
X186723809Y-94553333D02*
X186628571Y-94362857D01*
X186628571Y-94362857D02*
X186533333Y-94267619D01*
X186533333Y-94267619D02*
X186342857Y-94172380D01*
X186342857Y-94172380D02*
X185961904Y-94077142D01*
X185961904Y-94077142D02*
X185771428Y-93981904D01*
X185771428Y-93981904D02*
X185676190Y-93886666D01*
X185676190Y-93886666D02*
X185580952Y-93696190D01*
X185580952Y-93696190D02*
X185580952Y-93505714D01*
X185580952Y-93505714D02*
X185676190Y-93315238D01*
X185676190Y-93315238D02*
X185771428Y-93220000D01*
X185771428Y-93220000D02*
X185961904Y-93124761D01*
X185961904Y-93124761D02*
X186438095Y-93124761D01*
X186438095Y-93124761D02*
X186723809Y-93220000D01*
X187580952Y-95124761D02*
X187580952Y-93124761D01*
X187580952Y-93124761D02*
X188342857Y-93124761D01*
X188342857Y-93124761D02*
X188533333Y-93220000D01*
X188533333Y-93220000D02*
X188628571Y-93315238D01*
X188628571Y-93315238D02*
X188723809Y-93505714D01*
X188723809Y-93505714D02*
X188723809Y-93791428D01*
X188723809Y-93791428D02*
X188628571Y-93981904D01*
X188628571Y-93981904D02*
X188533333Y-94077142D01*
X188533333Y-94077142D02*
X188342857Y-94172380D01*
X188342857Y-94172380D02*
X187580952Y-94172380D01*
X183676190Y-98364761D02*
X183676190Y-96364761D01*
X183676190Y-96364761D02*
X184438095Y-96364761D01*
X184438095Y-96364761D02*
X184628571Y-96460000D01*
X184628571Y-96460000D02*
X184723809Y-96555238D01*
X184723809Y-96555238D02*
X184819047Y-96745714D01*
X184819047Y-96745714D02*
X184819047Y-97031428D01*
X184819047Y-97031428D02*
X184723809Y-97221904D01*
X184723809Y-97221904D02*
X184628571Y-97317142D01*
X184628571Y-97317142D02*
X184438095Y-97412380D01*
X184438095Y-97412380D02*
X183676190Y-97412380D01*
X185485714Y-96364761D02*
X185961904Y-98364761D01*
X185961904Y-98364761D02*
X186342857Y-96936190D01*
X186342857Y-96936190D02*
X186723809Y-98364761D01*
X186723809Y-98364761D02*
X187200000Y-96364761D01*
X189104761Y-98364761D02*
X188438094Y-97412380D01*
X187961904Y-98364761D02*
X187961904Y-96364761D01*
X187961904Y-96364761D02*
X188723809Y-96364761D01*
X188723809Y-96364761D02*
X188914285Y-96460000D01*
X188914285Y-96460000D02*
X189009523Y-96555238D01*
X189009523Y-96555238D02*
X189104761Y-96745714D01*
X189104761Y-96745714D02*
X189104761Y-97031428D01*
X189104761Y-97031428D02*
X189009523Y-97221904D01*
X189009523Y-97221904D02*
X188914285Y-97317142D01*
X188914285Y-97317142D02*
X188723809Y-97412380D01*
X188723809Y-97412380D02*
X187961904Y-97412380D01*
D10*
X136233333Y-44567380D02*
X135900000Y-44091190D01*
X135661905Y-44567380D02*
X135661905Y-43567380D01*
X135661905Y-43567380D02*
X136042857Y-43567380D01*
X136042857Y-43567380D02*
X136138095Y-43615000D01*
X136138095Y-43615000D02*
X136185714Y-43662619D01*
X136185714Y-43662619D02*
X136233333Y-43757857D01*
X136233333Y-43757857D02*
X136233333Y-43900714D01*
X136233333Y-43900714D02*
X136185714Y-43995952D01*
X136185714Y-43995952D02*
X136138095Y-44043571D01*
X136138095Y-44043571D02*
X136042857Y-44091190D01*
X136042857Y-44091190D02*
X135661905Y-44091190D01*
X137185714Y-44567380D02*
X136614286Y-44567380D01*
X136900000Y-44567380D02*
X136900000Y-43567380D01*
X136900000Y-43567380D02*
X136804762Y-43710238D01*
X136804762Y-43710238D02*
X136709524Y-43805476D01*
X136709524Y-43805476D02*
X136614286Y-43853095D01*
X136257142Y-47067380D02*
X135923809Y-46591190D01*
X135685714Y-47067380D02*
X135685714Y-46067380D01*
X135685714Y-46067380D02*
X136066666Y-46067380D01*
X136066666Y-46067380D02*
X136161904Y-46115000D01*
X136161904Y-46115000D02*
X136209523Y-46162619D01*
X136209523Y-46162619D02*
X136257142Y-46257857D01*
X136257142Y-46257857D02*
X136257142Y-46400714D01*
X136257142Y-46400714D02*
X136209523Y-46495952D01*
X136209523Y-46495952D02*
X136161904Y-46543571D01*
X136161904Y-46543571D02*
X136066666Y-46591190D01*
X136066666Y-46591190D02*
X135685714Y-46591190D01*
X137209523Y-47067380D02*
X136638095Y-47067380D01*
X136923809Y-47067380D02*
X136923809Y-46067380D01*
X136923809Y-46067380D02*
X136828571Y-46210238D01*
X136828571Y-46210238D02*
X136733333Y-46305476D01*
X136733333Y-46305476D02*
X136638095Y-46353095D01*
X137828571Y-46067380D02*
X137923809Y-46067380D01*
X137923809Y-46067380D02*
X138019047Y-46115000D01*
X138019047Y-46115000D02*
X138066666Y-46162619D01*
X138066666Y-46162619D02*
X138114285Y-46257857D01*
X138114285Y-46257857D02*
X138161904Y-46448333D01*
X138161904Y-46448333D02*
X138161904Y-46686428D01*
X138161904Y-46686428D02*
X138114285Y-46876904D01*
X138114285Y-46876904D02*
X138066666Y-46972142D01*
X138066666Y-46972142D02*
X138019047Y-47019761D01*
X138019047Y-47019761D02*
X137923809Y-47067380D01*
X137923809Y-47067380D02*
X137828571Y-47067380D01*
X137828571Y-47067380D02*
X137733333Y-47019761D01*
X137733333Y-47019761D02*
X137685714Y-46972142D01*
X137685714Y-46972142D02*
X137638095Y-46876904D01*
X137638095Y-46876904D02*
X137590476Y-46686428D01*
X137590476Y-46686428D02*
X137590476Y-46448333D01*
X137590476Y-46448333D02*
X137638095Y-46257857D01*
X137638095Y-46257857D02*
X137685714Y-46162619D01*
X137685714Y-46162619D02*
X137733333Y-46115000D01*
X137733333Y-46115000D02*
X137828571Y-46067380D01*
X196766666Y-110367380D02*
X196766666Y-111081666D01*
X196766666Y-111081666D02*
X196719047Y-111224523D01*
X196719047Y-111224523D02*
X196623809Y-111319761D01*
X196623809Y-111319761D02*
X196480952Y-111367380D01*
X196480952Y-111367380D02*
X196385714Y-111367380D01*
X197671428Y-110367380D02*
X197480952Y-110367380D01*
X197480952Y-110367380D02*
X197385714Y-110415000D01*
X197385714Y-110415000D02*
X197338095Y-110462619D01*
X197338095Y-110462619D02*
X197242857Y-110605476D01*
X197242857Y-110605476D02*
X197195238Y-110795952D01*
X197195238Y-110795952D02*
X197195238Y-111176904D01*
X197195238Y-111176904D02*
X197242857Y-111272142D01*
X197242857Y-111272142D02*
X197290476Y-111319761D01*
X197290476Y-111319761D02*
X197385714Y-111367380D01*
X197385714Y-111367380D02*
X197576190Y-111367380D01*
X197576190Y-111367380D02*
X197671428Y-111319761D01*
X197671428Y-111319761D02*
X197719047Y-111272142D01*
X197719047Y-111272142D02*
X197766666Y-111176904D01*
X197766666Y-111176904D02*
X197766666Y-110938809D01*
X197766666Y-110938809D02*
X197719047Y-110843571D01*
X197719047Y-110843571D02*
X197671428Y-110795952D01*
X197671428Y-110795952D02*
X197576190Y-110748333D01*
X197576190Y-110748333D02*
X197385714Y-110748333D01*
X197385714Y-110748333D02*
X197290476Y-110795952D01*
X197290476Y-110795952D02*
X197242857Y-110843571D01*
X197242857Y-110843571D02*
X197195238Y-110938809D01*
X136333333Y-66167380D02*
X136000000Y-65691190D01*
X135761905Y-66167380D02*
X135761905Y-65167380D01*
X135761905Y-65167380D02*
X136142857Y-65167380D01*
X136142857Y-65167380D02*
X136238095Y-65215000D01*
X136238095Y-65215000D02*
X136285714Y-65262619D01*
X136285714Y-65262619D02*
X136333333Y-65357857D01*
X136333333Y-65357857D02*
X136333333Y-65500714D01*
X136333333Y-65500714D02*
X136285714Y-65595952D01*
X136285714Y-65595952D02*
X136238095Y-65643571D01*
X136238095Y-65643571D02*
X136142857Y-65691190D01*
X136142857Y-65691190D02*
X135761905Y-65691190D01*
X136666667Y-65167380D02*
X137333333Y-65167380D01*
X137333333Y-65167380D02*
X136904762Y-66167380D01*
X143166667Y-118369761D02*
X143309524Y-118417380D01*
X143309524Y-118417380D02*
X143547619Y-118417380D01*
X143547619Y-118417380D02*
X143642857Y-118369761D01*
X143642857Y-118369761D02*
X143690476Y-118322142D01*
X143690476Y-118322142D02*
X143738095Y-118226904D01*
X143738095Y-118226904D02*
X143738095Y-118131666D01*
X143738095Y-118131666D02*
X143690476Y-118036428D01*
X143690476Y-118036428D02*
X143642857Y-117988809D01*
X143642857Y-117988809D02*
X143547619Y-117941190D01*
X143547619Y-117941190D02*
X143357143Y-117893571D01*
X143357143Y-117893571D02*
X143261905Y-117845952D01*
X143261905Y-117845952D02*
X143214286Y-117798333D01*
X143214286Y-117798333D02*
X143166667Y-117703095D01*
X143166667Y-117703095D02*
X143166667Y-117607857D01*
X143166667Y-117607857D02*
X143214286Y-117512619D01*
X143214286Y-117512619D02*
X143261905Y-117465000D01*
X143261905Y-117465000D02*
X143357143Y-117417380D01*
X143357143Y-117417380D02*
X143595238Y-117417380D01*
X143595238Y-117417380D02*
X143738095Y-117465000D01*
X144071429Y-117417380D02*
X144309524Y-118417380D01*
X144309524Y-118417380D02*
X144500000Y-117703095D01*
X144500000Y-117703095D02*
X144690476Y-118417380D01*
X144690476Y-118417380D02*
X144928572Y-117417380D01*
X145785714Y-117417380D02*
X145309524Y-117417380D01*
X145309524Y-117417380D02*
X145261905Y-117893571D01*
X145261905Y-117893571D02*
X145309524Y-117845952D01*
X145309524Y-117845952D02*
X145404762Y-117798333D01*
X145404762Y-117798333D02*
X145642857Y-117798333D01*
X145642857Y-117798333D02*
X145738095Y-117845952D01*
X145738095Y-117845952D02*
X145785714Y-117893571D01*
X145785714Y-117893571D02*
X145833333Y-117988809D01*
X145833333Y-117988809D02*
X145833333Y-118226904D01*
X145833333Y-118226904D02*
X145785714Y-118322142D01*
X145785714Y-118322142D02*
X145738095Y-118369761D01*
X145738095Y-118369761D02*
X145642857Y-118417380D01*
X145642857Y-118417380D02*
X145404762Y-118417380D01*
X145404762Y-118417380D02*
X145309524Y-118369761D01*
X145309524Y-118369761D02*
X145261905Y-118322142D01*
X111936667Y-118419761D02*
X112079524Y-118467380D01*
X112079524Y-118467380D02*
X112317619Y-118467380D01*
X112317619Y-118467380D02*
X112412857Y-118419761D01*
X112412857Y-118419761D02*
X112460476Y-118372142D01*
X112460476Y-118372142D02*
X112508095Y-118276904D01*
X112508095Y-118276904D02*
X112508095Y-118181666D01*
X112508095Y-118181666D02*
X112460476Y-118086428D01*
X112460476Y-118086428D02*
X112412857Y-118038809D01*
X112412857Y-118038809D02*
X112317619Y-117991190D01*
X112317619Y-117991190D02*
X112127143Y-117943571D01*
X112127143Y-117943571D02*
X112031905Y-117895952D01*
X112031905Y-117895952D02*
X111984286Y-117848333D01*
X111984286Y-117848333D02*
X111936667Y-117753095D01*
X111936667Y-117753095D02*
X111936667Y-117657857D01*
X111936667Y-117657857D02*
X111984286Y-117562619D01*
X111984286Y-117562619D02*
X112031905Y-117515000D01*
X112031905Y-117515000D02*
X112127143Y-117467380D01*
X112127143Y-117467380D02*
X112365238Y-117467380D01*
X112365238Y-117467380D02*
X112508095Y-117515000D01*
X112841429Y-117467380D02*
X113079524Y-118467380D01*
X113079524Y-118467380D02*
X113270000Y-117753095D01*
X113270000Y-117753095D02*
X113460476Y-118467380D01*
X113460476Y-118467380D02*
X113698572Y-117467380D01*
X114603333Y-118467380D02*
X114031905Y-118467380D01*
X114317619Y-118467380D02*
X114317619Y-117467380D01*
X114317619Y-117467380D02*
X114222381Y-117610238D01*
X114222381Y-117610238D02*
X114127143Y-117705476D01*
X114127143Y-117705476D02*
X114031905Y-117753095D01*
X137157142Y-64167380D02*
X136823809Y-63691190D01*
X136585714Y-64167380D02*
X136585714Y-63167380D01*
X136585714Y-63167380D02*
X136966666Y-63167380D01*
X136966666Y-63167380D02*
X137061904Y-63215000D01*
X137061904Y-63215000D02*
X137109523Y-63262619D01*
X137109523Y-63262619D02*
X137157142Y-63357857D01*
X137157142Y-63357857D02*
X137157142Y-63500714D01*
X137157142Y-63500714D02*
X137109523Y-63595952D01*
X137109523Y-63595952D02*
X137061904Y-63643571D01*
X137061904Y-63643571D02*
X136966666Y-63691190D01*
X136966666Y-63691190D02*
X136585714Y-63691190D01*
X138109523Y-64167380D02*
X137538095Y-64167380D01*
X137823809Y-64167380D02*
X137823809Y-63167380D01*
X137823809Y-63167380D02*
X137728571Y-63310238D01*
X137728571Y-63310238D02*
X137633333Y-63405476D01*
X137633333Y-63405476D02*
X137538095Y-63453095D01*
X138966666Y-63500714D02*
X138966666Y-64167380D01*
X138728571Y-63119761D02*
X138490476Y-63834047D01*
X138490476Y-63834047D02*
X139109523Y-63834047D01*
X193266666Y-80667380D02*
X193266666Y-81381666D01*
X193266666Y-81381666D02*
X193219047Y-81524523D01*
X193219047Y-81524523D02*
X193123809Y-81619761D01*
X193123809Y-81619761D02*
X192980952Y-81667380D01*
X192980952Y-81667380D02*
X192885714Y-81667380D01*
X194171428Y-81000714D02*
X194171428Y-81667380D01*
X193933333Y-80619761D02*
X193695238Y-81334047D01*
X193695238Y-81334047D02*
X194314285Y-81334047D01*
X116057142Y-44467380D02*
X115723809Y-43991190D01*
X115485714Y-44467380D02*
X115485714Y-43467380D01*
X115485714Y-43467380D02*
X115866666Y-43467380D01*
X115866666Y-43467380D02*
X115961904Y-43515000D01*
X115961904Y-43515000D02*
X116009523Y-43562619D01*
X116009523Y-43562619D02*
X116057142Y-43657857D01*
X116057142Y-43657857D02*
X116057142Y-43800714D01*
X116057142Y-43800714D02*
X116009523Y-43895952D01*
X116009523Y-43895952D02*
X115961904Y-43943571D01*
X115961904Y-43943571D02*
X115866666Y-43991190D01*
X115866666Y-43991190D02*
X115485714Y-43991190D01*
X117009523Y-44467380D02*
X116438095Y-44467380D01*
X116723809Y-44467380D02*
X116723809Y-43467380D01*
X116723809Y-43467380D02*
X116628571Y-43610238D01*
X116628571Y-43610238D02*
X116533333Y-43705476D01*
X116533333Y-43705476D02*
X116438095Y-43753095D01*
X117390476Y-43562619D02*
X117438095Y-43515000D01*
X117438095Y-43515000D02*
X117533333Y-43467380D01*
X117533333Y-43467380D02*
X117771428Y-43467380D01*
X117771428Y-43467380D02*
X117866666Y-43515000D01*
X117866666Y-43515000D02*
X117914285Y-43562619D01*
X117914285Y-43562619D02*
X117961904Y-43657857D01*
X117961904Y-43657857D02*
X117961904Y-43753095D01*
X117961904Y-43753095D02*
X117914285Y-43895952D01*
X117914285Y-43895952D02*
X117342857Y-44467380D01*
X117342857Y-44467380D02*
X117961904Y-44467380D01*
X132836667Y-118394761D02*
X132979524Y-118442380D01*
X132979524Y-118442380D02*
X133217619Y-118442380D01*
X133217619Y-118442380D02*
X133312857Y-118394761D01*
X133312857Y-118394761D02*
X133360476Y-118347142D01*
X133360476Y-118347142D02*
X133408095Y-118251904D01*
X133408095Y-118251904D02*
X133408095Y-118156666D01*
X133408095Y-118156666D02*
X133360476Y-118061428D01*
X133360476Y-118061428D02*
X133312857Y-118013809D01*
X133312857Y-118013809D02*
X133217619Y-117966190D01*
X133217619Y-117966190D02*
X133027143Y-117918571D01*
X133027143Y-117918571D02*
X132931905Y-117870952D01*
X132931905Y-117870952D02*
X132884286Y-117823333D01*
X132884286Y-117823333D02*
X132836667Y-117728095D01*
X132836667Y-117728095D02*
X132836667Y-117632857D01*
X132836667Y-117632857D02*
X132884286Y-117537619D01*
X132884286Y-117537619D02*
X132931905Y-117490000D01*
X132931905Y-117490000D02*
X133027143Y-117442380D01*
X133027143Y-117442380D02*
X133265238Y-117442380D01*
X133265238Y-117442380D02*
X133408095Y-117490000D01*
X133741429Y-117442380D02*
X133979524Y-118442380D01*
X133979524Y-118442380D02*
X134170000Y-117728095D01*
X134170000Y-117728095D02*
X134360476Y-118442380D01*
X134360476Y-118442380D02*
X134598572Y-117442380D01*
X135408095Y-117775714D02*
X135408095Y-118442380D01*
X135170000Y-117394761D02*
X134931905Y-118109047D01*
X134931905Y-118109047D02*
X135550952Y-118109047D01*
D12*
X137751071Y-101442857D02*
X136251071Y-101442857D01*
X136251071Y-101442857D02*
X136251071Y-100871428D01*
X136251071Y-100871428D02*
X136322500Y-100728571D01*
X136322500Y-100728571D02*
X136393928Y-100657142D01*
X136393928Y-100657142D02*
X136536785Y-100585714D01*
X136536785Y-100585714D02*
X136751071Y-100585714D01*
X136751071Y-100585714D02*
X136893928Y-100657142D01*
X136893928Y-100657142D02*
X136965357Y-100728571D01*
X136965357Y-100728571D02*
X137036785Y-100871428D01*
X137036785Y-100871428D02*
X137036785Y-101442857D01*
X137751071Y-99942857D02*
X136751071Y-99942857D01*
X136251071Y-99942857D02*
X136322500Y-100014285D01*
X136322500Y-100014285D02*
X136393928Y-99942857D01*
X136393928Y-99942857D02*
X136322500Y-99871428D01*
X136322500Y-99871428D02*
X136251071Y-99942857D01*
X136251071Y-99942857D02*
X136393928Y-99942857D01*
X136751071Y-99228571D02*
X137751071Y-99228571D01*
X136893928Y-99228571D02*
X136822500Y-99157142D01*
X136822500Y-99157142D02*
X136751071Y-99014285D01*
X136751071Y-99014285D02*
X136751071Y-98799999D01*
X136751071Y-98799999D02*
X136822500Y-98657142D01*
X136822500Y-98657142D02*
X136965357Y-98585714D01*
X136965357Y-98585714D02*
X137751071Y-98585714D01*
X137893928Y-98228571D02*
X137893928Y-97085713D01*
X137751071Y-95942856D02*
X137751071Y-96799999D01*
X137751071Y-96371428D02*
X136251071Y-96371428D01*
X136251071Y-96371428D02*
X136465357Y-96514285D01*
X136465357Y-96514285D02*
X136608214Y-96657142D01*
X136608214Y-96657142D02*
X136679642Y-96799999D01*
X137751071Y-95228571D02*
X137751071Y-94942857D01*
X137751071Y-94942857D02*
X137679642Y-94800000D01*
X137679642Y-94800000D02*
X137608214Y-94728571D01*
X137608214Y-94728571D02*
X137393928Y-94585714D01*
X137393928Y-94585714D02*
X137108214Y-94514285D01*
X137108214Y-94514285D02*
X136536785Y-94514285D01*
X136536785Y-94514285D02*
X136393928Y-94585714D01*
X136393928Y-94585714D02*
X136322500Y-94657143D01*
X136322500Y-94657143D02*
X136251071Y-94800000D01*
X136251071Y-94800000D02*
X136251071Y-95085714D01*
X136251071Y-95085714D02*
X136322500Y-95228571D01*
X136322500Y-95228571D02*
X136393928Y-95300000D01*
X136393928Y-95300000D02*
X136536785Y-95371428D01*
X136536785Y-95371428D02*
X136893928Y-95371428D01*
X136893928Y-95371428D02*
X137036785Y-95300000D01*
X137036785Y-95300000D02*
X137108214Y-95228571D01*
X137108214Y-95228571D02*
X137179642Y-95085714D01*
X137179642Y-95085714D02*
X137179642Y-94800000D01*
X137179642Y-94800000D02*
X137108214Y-94657143D01*
X137108214Y-94657143D02*
X137036785Y-94585714D01*
X137036785Y-94585714D02*
X136893928Y-94514285D01*
D13*
X168338095Y-110967380D02*
X168338095Y-111776904D01*
X168338095Y-111776904D02*
X168385714Y-111872142D01*
X168385714Y-111872142D02*
X168433333Y-111919761D01*
X168433333Y-111919761D02*
X168528571Y-111967380D01*
X168528571Y-111967380D02*
X168719047Y-111967380D01*
X168719047Y-111967380D02*
X168814285Y-111919761D01*
X168814285Y-111919761D02*
X168861904Y-111872142D01*
X168861904Y-111872142D02*
X168909523Y-111776904D01*
X168909523Y-111776904D02*
X168909523Y-110967380D01*
X169290476Y-110967380D02*
X169909523Y-110967380D01*
X169909523Y-110967380D02*
X169576190Y-111348333D01*
X169576190Y-111348333D02*
X169719047Y-111348333D01*
X169719047Y-111348333D02*
X169814285Y-111395952D01*
X169814285Y-111395952D02*
X169861904Y-111443571D01*
X169861904Y-111443571D02*
X169909523Y-111538809D01*
X169909523Y-111538809D02*
X169909523Y-111776904D01*
X169909523Y-111776904D02*
X169861904Y-111872142D01*
X169861904Y-111872142D02*
X169814285Y-111919761D01*
X169814285Y-111919761D02*
X169719047Y-111967380D01*
X169719047Y-111967380D02*
X169433333Y-111967380D01*
X169433333Y-111967380D02*
X169338095Y-111919761D01*
X169338095Y-111919761D02*
X169290476Y-111872142D01*
D10*
X136333333Y-62367380D02*
X136000000Y-61891190D01*
X135761905Y-62367380D02*
X135761905Y-61367380D01*
X135761905Y-61367380D02*
X136142857Y-61367380D01*
X136142857Y-61367380D02*
X136238095Y-61415000D01*
X136238095Y-61415000D02*
X136285714Y-61462619D01*
X136285714Y-61462619D02*
X136333333Y-61557857D01*
X136333333Y-61557857D02*
X136333333Y-61700714D01*
X136333333Y-61700714D02*
X136285714Y-61795952D01*
X136285714Y-61795952D02*
X136238095Y-61843571D01*
X136238095Y-61843571D02*
X136142857Y-61891190D01*
X136142857Y-61891190D02*
X135761905Y-61891190D01*
X136666667Y-61367380D02*
X137285714Y-61367380D01*
X137285714Y-61367380D02*
X136952381Y-61748333D01*
X136952381Y-61748333D02*
X137095238Y-61748333D01*
X137095238Y-61748333D02*
X137190476Y-61795952D01*
X137190476Y-61795952D02*
X137238095Y-61843571D01*
X137238095Y-61843571D02*
X137285714Y-61938809D01*
X137285714Y-61938809D02*
X137285714Y-62176904D01*
X137285714Y-62176904D02*
X137238095Y-62272142D01*
X137238095Y-62272142D02*
X137190476Y-62319761D01*
X137190476Y-62319761D02*
X137095238Y-62367380D01*
X137095238Y-62367380D02*
X136809524Y-62367380D01*
X136809524Y-62367380D02*
X136714286Y-62319761D01*
X136714286Y-62319761D02*
X136666667Y-62272142D01*
X144157142Y-79467380D02*
X143823809Y-78991190D01*
X143585714Y-79467380D02*
X143585714Y-78467380D01*
X143585714Y-78467380D02*
X143966666Y-78467380D01*
X143966666Y-78467380D02*
X144061904Y-78515000D01*
X144061904Y-78515000D02*
X144109523Y-78562619D01*
X144109523Y-78562619D02*
X144157142Y-78657857D01*
X144157142Y-78657857D02*
X144157142Y-78800714D01*
X144157142Y-78800714D02*
X144109523Y-78895952D01*
X144109523Y-78895952D02*
X144061904Y-78943571D01*
X144061904Y-78943571D02*
X143966666Y-78991190D01*
X143966666Y-78991190D02*
X143585714Y-78991190D01*
X144538095Y-78562619D02*
X144585714Y-78515000D01*
X144585714Y-78515000D02*
X144680952Y-78467380D01*
X144680952Y-78467380D02*
X144919047Y-78467380D01*
X144919047Y-78467380D02*
X145014285Y-78515000D01*
X145014285Y-78515000D02*
X145061904Y-78562619D01*
X145061904Y-78562619D02*
X145109523Y-78657857D01*
X145109523Y-78657857D02*
X145109523Y-78753095D01*
X145109523Y-78753095D02*
X145061904Y-78895952D01*
X145061904Y-78895952D02*
X144490476Y-79467380D01*
X144490476Y-79467380D02*
X145109523Y-79467380D01*
X145585714Y-79467380D02*
X145776190Y-79467380D01*
X145776190Y-79467380D02*
X145871428Y-79419761D01*
X145871428Y-79419761D02*
X145919047Y-79372142D01*
X145919047Y-79372142D02*
X146014285Y-79229285D01*
X146014285Y-79229285D02*
X146061904Y-79038809D01*
X146061904Y-79038809D02*
X146061904Y-78657857D01*
X146061904Y-78657857D02*
X146014285Y-78562619D01*
X146014285Y-78562619D02*
X145966666Y-78515000D01*
X145966666Y-78515000D02*
X145871428Y-78467380D01*
X145871428Y-78467380D02*
X145680952Y-78467380D01*
X145680952Y-78467380D02*
X145585714Y-78515000D01*
X145585714Y-78515000D02*
X145538095Y-78562619D01*
X145538095Y-78562619D02*
X145490476Y-78657857D01*
X145490476Y-78657857D02*
X145490476Y-78895952D01*
X145490476Y-78895952D02*
X145538095Y-78991190D01*
X145538095Y-78991190D02*
X145585714Y-79038809D01*
X145585714Y-79038809D02*
X145680952Y-79086428D01*
X145680952Y-79086428D02*
X145871428Y-79086428D01*
X145871428Y-79086428D02*
X145966666Y-79038809D01*
X145966666Y-79038809D02*
X146014285Y-78991190D01*
X146014285Y-78991190D02*
X146061904Y-78895952D01*
X122426667Y-118394761D02*
X122569524Y-118442380D01*
X122569524Y-118442380D02*
X122807619Y-118442380D01*
X122807619Y-118442380D02*
X122902857Y-118394761D01*
X122902857Y-118394761D02*
X122950476Y-118347142D01*
X122950476Y-118347142D02*
X122998095Y-118251904D01*
X122998095Y-118251904D02*
X122998095Y-118156666D01*
X122998095Y-118156666D02*
X122950476Y-118061428D01*
X122950476Y-118061428D02*
X122902857Y-118013809D01*
X122902857Y-118013809D02*
X122807619Y-117966190D01*
X122807619Y-117966190D02*
X122617143Y-117918571D01*
X122617143Y-117918571D02*
X122521905Y-117870952D01*
X122521905Y-117870952D02*
X122474286Y-117823333D01*
X122474286Y-117823333D02*
X122426667Y-117728095D01*
X122426667Y-117728095D02*
X122426667Y-117632857D01*
X122426667Y-117632857D02*
X122474286Y-117537619D01*
X122474286Y-117537619D02*
X122521905Y-117490000D01*
X122521905Y-117490000D02*
X122617143Y-117442380D01*
X122617143Y-117442380D02*
X122855238Y-117442380D01*
X122855238Y-117442380D02*
X122998095Y-117490000D01*
X123331429Y-117442380D02*
X123569524Y-118442380D01*
X123569524Y-118442380D02*
X123760000Y-117728095D01*
X123760000Y-117728095D02*
X123950476Y-118442380D01*
X123950476Y-118442380D02*
X124188572Y-117442380D01*
X124474286Y-117442380D02*
X125093333Y-117442380D01*
X125093333Y-117442380D02*
X124760000Y-117823333D01*
X124760000Y-117823333D02*
X124902857Y-117823333D01*
X124902857Y-117823333D02*
X124998095Y-117870952D01*
X124998095Y-117870952D02*
X125045714Y-117918571D01*
X125045714Y-117918571D02*
X125093333Y-118013809D01*
X125093333Y-118013809D02*
X125093333Y-118251904D01*
X125093333Y-118251904D02*
X125045714Y-118347142D01*
X125045714Y-118347142D02*
X124998095Y-118394761D01*
X124998095Y-118394761D02*
X124902857Y-118442380D01*
X124902857Y-118442380D02*
X124617143Y-118442380D01*
X124617143Y-118442380D02*
X124521905Y-118394761D01*
X124521905Y-118394761D02*
X124474286Y-118347142D01*
X144107142Y-84617380D02*
X143773809Y-84141190D01*
X143535714Y-84617380D02*
X143535714Y-83617380D01*
X143535714Y-83617380D02*
X143916666Y-83617380D01*
X143916666Y-83617380D02*
X144011904Y-83665000D01*
X144011904Y-83665000D02*
X144059523Y-83712619D01*
X144059523Y-83712619D02*
X144107142Y-83807857D01*
X144107142Y-83807857D02*
X144107142Y-83950714D01*
X144107142Y-83950714D02*
X144059523Y-84045952D01*
X144059523Y-84045952D02*
X144011904Y-84093571D01*
X144011904Y-84093571D02*
X143916666Y-84141190D01*
X143916666Y-84141190D02*
X143535714Y-84141190D01*
X144440476Y-83617380D02*
X145059523Y-83617380D01*
X145059523Y-83617380D02*
X144726190Y-83998333D01*
X144726190Y-83998333D02*
X144869047Y-83998333D01*
X144869047Y-83998333D02*
X144964285Y-84045952D01*
X144964285Y-84045952D02*
X145011904Y-84093571D01*
X145011904Y-84093571D02*
X145059523Y-84188809D01*
X145059523Y-84188809D02*
X145059523Y-84426904D01*
X145059523Y-84426904D02*
X145011904Y-84522142D01*
X145011904Y-84522142D02*
X144964285Y-84569761D01*
X144964285Y-84569761D02*
X144869047Y-84617380D01*
X144869047Y-84617380D02*
X144583333Y-84617380D01*
X144583333Y-84617380D02*
X144488095Y-84569761D01*
X144488095Y-84569761D02*
X144440476Y-84522142D01*
X146011904Y-84617380D02*
X145440476Y-84617380D01*
X145726190Y-84617380D02*
X145726190Y-83617380D01*
X145726190Y-83617380D02*
X145630952Y-83760238D01*
X145630952Y-83760238D02*
X145535714Y-83855476D01*
X145535714Y-83855476D02*
X145440476Y-83903095D01*
X193266666Y-103667380D02*
X193266666Y-104381666D01*
X193266666Y-104381666D02*
X193219047Y-104524523D01*
X193219047Y-104524523D02*
X193123809Y-104619761D01*
X193123809Y-104619761D02*
X192980952Y-104667380D01*
X192980952Y-104667380D02*
X192885714Y-104667380D01*
X194219047Y-103667380D02*
X193742857Y-103667380D01*
X193742857Y-103667380D02*
X193695238Y-104143571D01*
X193695238Y-104143571D02*
X193742857Y-104095952D01*
X193742857Y-104095952D02*
X193838095Y-104048333D01*
X193838095Y-104048333D02*
X194076190Y-104048333D01*
X194076190Y-104048333D02*
X194171428Y-104095952D01*
X194171428Y-104095952D02*
X194219047Y-104143571D01*
X194219047Y-104143571D02*
X194266666Y-104238809D01*
X194266666Y-104238809D02*
X194266666Y-104476904D01*
X194266666Y-104476904D02*
X194219047Y-104572142D01*
X194219047Y-104572142D02*
X194171428Y-104619761D01*
X194171428Y-104619761D02*
X194076190Y-104667380D01*
X194076190Y-104667380D02*
X193838095Y-104667380D01*
X193838095Y-104667380D02*
X193742857Y-104619761D01*
X193742857Y-104619761D02*
X193695238Y-104572142D01*
X116733333Y-63267380D02*
X116400000Y-62791190D01*
X116161905Y-63267380D02*
X116161905Y-62267380D01*
X116161905Y-62267380D02*
X116542857Y-62267380D01*
X116542857Y-62267380D02*
X116638095Y-62315000D01*
X116638095Y-62315000D02*
X116685714Y-62362619D01*
X116685714Y-62362619D02*
X116733333Y-62457857D01*
X116733333Y-62457857D02*
X116733333Y-62600714D01*
X116733333Y-62600714D02*
X116685714Y-62695952D01*
X116685714Y-62695952D02*
X116638095Y-62743571D01*
X116638095Y-62743571D02*
X116542857Y-62791190D01*
X116542857Y-62791190D02*
X116161905Y-62791190D01*
X117304762Y-62695952D02*
X117209524Y-62648333D01*
X117209524Y-62648333D02*
X117161905Y-62600714D01*
X117161905Y-62600714D02*
X117114286Y-62505476D01*
X117114286Y-62505476D02*
X117114286Y-62457857D01*
X117114286Y-62457857D02*
X117161905Y-62362619D01*
X117161905Y-62362619D02*
X117209524Y-62315000D01*
X117209524Y-62315000D02*
X117304762Y-62267380D01*
X117304762Y-62267380D02*
X117495238Y-62267380D01*
X117495238Y-62267380D02*
X117590476Y-62315000D01*
X117590476Y-62315000D02*
X117638095Y-62362619D01*
X117638095Y-62362619D02*
X117685714Y-62457857D01*
X117685714Y-62457857D02*
X117685714Y-62505476D01*
X117685714Y-62505476D02*
X117638095Y-62600714D01*
X117638095Y-62600714D02*
X117590476Y-62648333D01*
X117590476Y-62648333D02*
X117495238Y-62695952D01*
X117495238Y-62695952D02*
X117304762Y-62695952D01*
X117304762Y-62695952D02*
X117209524Y-62743571D01*
X117209524Y-62743571D02*
X117161905Y-62791190D01*
X117161905Y-62791190D02*
X117114286Y-62886428D01*
X117114286Y-62886428D02*
X117114286Y-63076904D01*
X117114286Y-63076904D02*
X117161905Y-63172142D01*
X117161905Y-63172142D02*
X117209524Y-63219761D01*
X117209524Y-63219761D02*
X117304762Y-63267380D01*
X117304762Y-63267380D02*
X117495238Y-63267380D01*
X117495238Y-63267380D02*
X117590476Y-63219761D01*
X117590476Y-63219761D02*
X117638095Y-63172142D01*
X117638095Y-63172142D02*
X117685714Y-63076904D01*
X117685714Y-63076904D02*
X117685714Y-62886428D01*
X117685714Y-62886428D02*
X117638095Y-62791190D01*
X117638095Y-62791190D02*
X117590476Y-62743571D01*
X117590476Y-62743571D02*
X117495238Y-62695952D01*
X144107142Y-87117380D02*
X143773809Y-86641190D01*
X143535714Y-87117380D02*
X143535714Y-86117380D01*
X143535714Y-86117380D02*
X143916666Y-86117380D01*
X143916666Y-86117380D02*
X144011904Y-86165000D01*
X144011904Y-86165000D02*
X144059523Y-86212619D01*
X144059523Y-86212619D02*
X144107142Y-86307857D01*
X144107142Y-86307857D02*
X144107142Y-86450714D01*
X144107142Y-86450714D02*
X144059523Y-86545952D01*
X144059523Y-86545952D02*
X144011904Y-86593571D01*
X144011904Y-86593571D02*
X143916666Y-86641190D01*
X143916666Y-86641190D02*
X143535714Y-86641190D01*
X144440476Y-86117380D02*
X145059523Y-86117380D01*
X145059523Y-86117380D02*
X144726190Y-86498333D01*
X144726190Y-86498333D02*
X144869047Y-86498333D01*
X144869047Y-86498333D02*
X144964285Y-86545952D01*
X144964285Y-86545952D02*
X145011904Y-86593571D01*
X145011904Y-86593571D02*
X145059523Y-86688809D01*
X145059523Y-86688809D02*
X145059523Y-86926904D01*
X145059523Y-86926904D02*
X145011904Y-87022142D01*
X145011904Y-87022142D02*
X144964285Y-87069761D01*
X144964285Y-87069761D02*
X144869047Y-87117380D01*
X144869047Y-87117380D02*
X144583333Y-87117380D01*
X144583333Y-87117380D02*
X144488095Y-87069761D01*
X144488095Y-87069761D02*
X144440476Y-87022142D01*
X145440476Y-86212619D02*
X145488095Y-86165000D01*
X145488095Y-86165000D02*
X145583333Y-86117380D01*
X145583333Y-86117380D02*
X145821428Y-86117380D01*
X145821428Y-86117380D02*
X145916666Y-86165000D01*
X145916666Y-86165000D02*
X145964285Y-86212619D01*
X145964285Y-86212619D02*
X146011904Y-86307857D01*
X146011904Y-86307857D02*
X146011904Y-86403095D01*
X146011904Y-86403095D02*
X145964285Y-86545952D01*
X145964285Y-86545952D02*
X145392857Y-87117380D01*
X145392857Y-87117380D02*
X146011904Y-87117380D01*
X148367380Y-101542857D02*
X147891190Y-101876190D01*
X148367380Y-102114285D02*
X147367380Y-102114285D01*
X147367380Y-102114285D02*
X147367380Y-101733333D01*
X147367380Y-101733333D02*
X147415000Y-101638095D01*
X147415000Y-101638095D02*
X147462619Y-101590476D01*
X147462619Y-101590476D02*
X147557857Y-101542857D01*
X147557857Y-101542857D02*
X147700714Y-101542857D01*
X147700714Y-101542857D02*
X147795952Y-101590476D01*
X147795952Y-101590476D02*
X147843571Y-101638095D01*
X147843571Y-101638095D02*
X147891190Y-101733333D01*
X147891190Y-101733333D02*
X147891190Y-102114285D01*
X148367380Y-100590476D02*
X148367380Y-101161904D01*
X148367380Y-100876190D02*
X147367380Y-100876190D01*
X147367380Y-100876190D02*
X147510238Y-100971428D01*
X147510238Y-100971428D02*
X147605476Y-101066666D01*
X147605476Y-101066666D02*
X147653095Y-101161904D01*
X147367380Y-100257142D02*
X147367380Y-99590476D01*
X147367380Y-99590476D02*
X148367380Y-100019047D01*
X120967380Y-50766666D02*
X120491190Y-51099999D01*
X120967380Y-51338094D02*
X119967380Y-51338094D01*
X119967380Y-51338094D02*
X119967380Y-50957142D01*
X119967380Y-50957142D02*
X120015000Y-50861904D01*
X120015000Y-50861904D02*
X120062619Y-50814285D01*
X120062619Y-50814285D02*
X120157857Y-50766666D01*
X120157857Y-50766666D02*
X120300714Y-50766666D01*
X120300714Y-50766666D02*
X120395952Y-50814285D01*
X120395952Y-50814285D02*
X120443571Y-50861904D01*
X120443571Y-50861904D02*
X120491190Y-50957142D01*
X120491190Y-50957142D02*
X120491190Y-51338094D01*
X119967380Y-49909523D02*
X119967380Y-50099999D01*
X119967380Y-50099999D02*
X120015000Y-50195237D01*
X120015000Y-50195237D02*
X120062619Y-50242856D01*
X120062619Y-50242856D02*
X120205476Y-50338094D01*
X120205476Y-50338094D02*
X120395952Y-50385713D01*
X120395952Y-50385713D02*
X120776904Y-50385713D01*
X120776904Y-50385713D02*
X120872142Y-50338094D01*
X120872142Y-50338094D02*
X120919761Y-50290475D01*
X120919761Y-50290475D02*
X120967380Y-50195237D01*
X120967380Y-50195237D02*
X120967380Y-50004761D01*
X120967380Y-50004761D02*
X120919761Y-49909523D01*
X120919761Y-49909523D02*
X120872142Y-49861904D01*
X120872142Y-49861904D02*
X120776904Y-49814285D01*
X120776904Y-49814285D02*
X120538809Y-49814285D01*
X120538809Y-49814285D02*
X120443571Y-49861904D01*
X120443571Y-49861904D02*
X120395952Y-49909523D01*
X120395952Y-49909523D02*
X120348333Y-50004761D01*
X120348333Y-50004761D02*
X120348333Y-50195237D01*
X120348333Y-50195237D02*
X120395952Y-50290475D01*
X120395952Y-50290475D02*
X120443571Y-50338094D01*
X120443571Y-50338094D02*
X120538809Y-50385713D01*
X119057142Y-66967380D02*
X118723809Y-66491190D01*
X118485714Y-66967380D02*
X118485714Y-65967380D01*
X118485714Y-65967380D02*
X118866666Y-65967380D01*
X118866666Y-65967380D02*
X118961904Y-66015000D01*
X118961904Y-66015000D02*
X119009523Y-66062619D01*
X119009523Y-66062619D02*
X119057142Y-66157857D01*
X119057142Y-66157857D02*
X119057142Y-66300714D01*
X119057142Y-66300714D02*
X119009523Y-66395952D01*
X119009523Y-66395952D02*
X118961904Y-66443571D01*
X118961904Y-66443571D02*
X118866666Y-66491190D01*
X118866666Y-66491190D02*
X118485714Y-66491190D01*
X120009523Y-66967380D02*
X119438095Y-66967380D01*
X119723809Y-66967380D02*
X119723809Y-65967380D01*
X119723809Y-65967380D02*
X119628571Y-66110238D01*
X119628571Y-66110238D02*
X119533333Y-66205476D01*
X119533333Y-66205476D02*
X119438095Y-66253095D01*
X120914285Y-65967380D02*
X120438095Y-65967380D01*
X120438095Y-65967380D02*
X120390476Y-66443571D01*
X120390476Y-66443571D02*
X120438095Y-66395952D01*
X120438095Y-66395952D02*
X120533333Y-66348333D01*
X120533333Y-66348333D02*
X120771428Y-66348333D01*
X120771428Y-66348333D02*
X120866666Y-66395952D01*
X120866666Y-66395952D02*
X120914285Y-66443571D01*
X120914285Y-66443571D02*
X120961904Y-66538809D01*
X120961904Y-66538809D02*
X120961904Y-66776904D01*
X120961904Y-66776904D02*
X120914285Y-66872142D01*
X120914285Y-66872142D02*
X120866666Y-66919761D01*
X120866666Y-66919761D02*
X120771428Y-66967380D01*
X120771428Y-66967380D02*
X120533333Y-66967380D01*
X120533333Y-66967380D02*
X120438095Y-66919761D01*
X120438095Y-66919761D02*
X120390476Y-66872142D01*
X117033333Y-42067380D02*
X116700000Y-41591190D01*
X116461905Y-42067380D02*
X116461905Y-41067380D01*
X116461905Y-41067380D02*
X116842857Y-41067380D01*
X116842857Y-41067380D02*
X116938095Y-41115000D01*
X116938095Y-41115000D02*
X116985714Y-41162619D01*
X116985714Y-41162619D02*
X117033333Y-41257857D01*
X117033333Y-41257857D02*
X117033333Y-41400714D01*
X117033333Y-41400714D02*
X116985714Y-41495952D01*
X116985714Y-41495952D02*
X116938095Y-41543571D01*
X116938095Y-41543571D02*
X116842857Y-41591190D01*
X116842857Y-41591190D02*
X116461905Y-41591190D01*
X117414286Y-41162619D02*
X117461905Y-41115000D01*
X117461905Y-41115000D02*
X117557143Y-41067380D01*
X117557143Y-41067380D02*
X117795238Y-41067380D01*
X117795238Y-41067380D02*
X117890476Y-41115000D01*
X117890476Y-41115000D02*
X117938095Y-41162619D01*
X117938095Y-41162619D02*
X117985714Y-41257857D01*
X117985714Y-41257857D02*
X117985714Y-41353095D01*
X117985714Y-41353095D02*
X117938095Y-41495952D01*
X117938095Y-41495952D02*
X117366667Y-42067380D01*
X117366667Y-42067380D02*
X117985714Y-42067380D01*
X132957142Y-69767380D02*
X132623809Y-69291190D01*
X132385714Y-69767380D02*
X132385714Y-68767380D01*
X132385714Y-68767380D02*
X132766666Y-68767380D01*
X132766666Y-68767380D02*
X132861904Y-68815000D01*
X132861904Y-68815000D02*
X132909523Y-68862619D01*
X132909523Y-68862619D02*
X132957142Y-68957857D01*
X132957142Y-68957857D02*
X132957142Y-69100714D01*
X132957142Y-69100714D02*
X132909523Y-69195952D01*
X132909523Y-69195952D02*
X132861904Y-69243571D01*
X132861904Y-69243571D02*
X132766666Y-69291190D01*
X132766666Y-69291190D02*
X132385714Y-69291190D01*
X133909523Y-69767380D02*
X133338095Y-69767380D01*
X133623809Y-69767380D02*
X133623809Y-68767380D01*
X133623809Y-68767380D02*
X133528571Y-68910238D01*
X133528571Y-68910238D02*
X133433333Y-69005476D01*
X133433333Y-69005476D02*
X133338095Y-69053095D01*
X134242857Y-68767380D02*
X134861904Y-68767380D01*
X134861904Y-68767380D02*
X134528571Y-69148333D01*
X134528571Y-69148333D02*
X134671428Y-69148333D01*
X134671428Y-69148333D02*
X134766666Y-69195952D01*
X134766666Y-69195952D02*
X134814285Y-69243571D01*
X134814285Y-69243571D02*
X134861904Y-69338809D01*
X134861904Y-69338809D02*
X134861904Y-69576904D01*
X134861904Y-69576904D02*
X134814285Y-69672142D01*
X134814285Y-69672142D02*
X134766666Y-69719761D01*
X134766666Y-69719761D02*
X134671428Y-69767380D01*
X134671428Y-69767380D02*
X134385714Y-69767380D01*
X134385714Y-69767380D02*
X134290476Y-69719761D01*
X134290476Y-69719761D02*
X134242857Y-69672142D01*
X120867380Y-56066666D02*
X120391190Y-56399999D01*
X120867380Y-56638094D02*
X119867380Y-56638094D01*
X119867380Y-56638094D02*
X119867380Y-56257142D01*
X119867380Y-56257142D02*
X119915000Y-56161904D01*
X119915000Y-56161904D02*
X119962619Y-56114285D01*
X119962619Y-56114285D02*
X120057857Y-56066666D01*
X120057857Y-56066666D02*
X120200714Y-56066666D01*
X120200714Y-56066666D02*
X120295952Y-56114285D01*
X120295952Y-56114285D02*
X120343571Y-56161904D01*
X120343571Y-56161904D02*
X120391190Y-56257142D01*
X120391190Y-56257142D02*
X120391190Y-56638094D01*
X120200714Y-55209523D02*
X120867380Y-55209523D01*
X119819761Y-55447618D02*
X120534047Y-55685713D01*
X120534047Y-55685713D02*
X120534047Y-55066666D01*
X108416666Y-53267380D02*
X108416666Y-53981666D01*
X108416666Y-53981666D02*
X108369047Y-54124523D01*
X108369047Y-54124523D02*
X108273809Y-54219761D01*
X108273809Y-54219761D02*
X108130952Y-54267380D01*
X108130952Y-54267380D02*
X108035714Y-54267380D01*
X108892857Y-54267380D02*
X108892857Y-53267380D01*
X108892857Y-53267380D02*
X109273809Y-53267380D01*
X109273809Y-53267380D02*
X109369047Y-53315000D01*
X109369047Y-53315000D02*
X109416666Y-53362619D01*
X109416666Y-53362619D02*
X109464285Y-53457857D01*
X109464285Y-53457857D02*
X109464285Y-53600714D01*
X109464285Y-53600714D02*
X109416666Y-53695952D01*
X109416666Y-53695952D02*
X109369047Y-53743571D01*
X109369047Y-53743571D02*
X109273809Y-53791190D01*
X109273809Y-53791190D02*
X108892857Y-53791190D01*
X110416666Y-54267380D02*
X109845238Y-54267380D01*
X110130952Y-54267380D02*
X110130952Y-53267380D01*
X110130952Y-53267380D02*
X110035714Y-53410238D01*
X110035714Y-53410238D02*
X109940476Y-53505476D01*
X109940476Y-53505476D02*
X109845238Y-53553095D01*
D12*
X133951071Y-101442857D02*
X132451071Y-101442857D01*
X132451071Y-101442857D02*
X132451071Y-100871428D01*
X132451071Y-100871428D02*
X132522500Y-100728571D01*
X132522500Y-100728571D02*
X132593928Y-100657142D01*
X132593928Y-100657142D02*
X132736785Y-100585714D01*
X132736785Y-100585714D02*
X132951071Y-100585714D01*
X132951071Y-100585714D02*
X133093928Y-100657142D01*
X133093928Y-100657142D02*
X133165357Y-100728571D01*
X133165357Y-100728571D02*
X133236785Y-100871428D01*
X133236785Y-100871428D02*
X133236785Y-101442857D01*
X133951071Y-99942857D02*
X132951071Y-99942857D01*
X132451071Y-99942857D02*
X132522500Y-100014285D01*
X132522500Y-100014285D02*
X132593928Y-99942857D01*
X132593928Y-99942857D02*
X132522500Y-99871428D01*
X132522500Y-99871428D02*
X132451071Y-99942857D01*
X132451071Y-99942857D02*
X132593928Y-99942857D01*
X132951071Y-99228571D02*
X133951071Y-99228571D01*
X133093928Y-99228571D02*
X133022500Y-99157142D01*
X133022500Y-99157142D02*
X132951071Y-99014285D01*
X132951071Y-99014285D02*
X132951071Y-98799999D01*
X132951071Y-98799999D02*
X133022500Y-98657142D01*
X133022500Y-98657142D02*
X133165357Y-98585714D01*
X133165357Y-98585714D02*
X133951071Y-98585714D01*
X134093928Y-98228571D02*
X134093928Y-97085713D01*
X133951071Y-95942856D02*
X133951071Y-96799999D01*
X133951071Y-96371428D02*
X132451071Y-96371428D01*
X132451071Y-96371428D02*
X132665357Y-96514285D01*
X132665357Y-96514285D02*
X132808214Y-96657142D01*
X132808214Y-96657142D02*
X132879642Y-96799999D01*
X132451071Y-95442857D02*
X132451071Y-94442857D01*
X132451071Y-94442857D02*
X133951071Y-95085714D01*
D10*
X157004761Y-118562619D02*
X156909523Y-118515000D01*
X156909523Y-118515000D02*
X156814285Y-118419761D01*
X156814285Y-118419761D02*
X156671428Y-118276904D01*
X156671428Y-118276904D02*
X156576190Y-118229285D01*
X156576190Y-118229285D02*
X156480952Y-118229285D01*
X156528571Y-118467380D02*
X156433333Y-118419761D01*
X156433333Y-118419761D02*
X156338095Y-118324523D01*
X156338095Y-118324523D02*
X156290476Y-118134047D01*
X156290476Y-118134047D02*
X156290476Y-117800714D01*
X156290476Y-117800714D02*
X156338095Y-117610238D01*
X156338095Y-117610238D02*
X156433333Y-117515000D01*
X156433333Y-117515000D02*
X156528571Y-117467380D01*
X156528571Y-117467380D02*
X156719047Y-117467380D01*
X156719047Y-117467380D02*
X156814285Y-117515000D01*
X156814285Y-117515000D02*
X156909523Y-117610238D01*
X156909523Y-117610238D02*
X156957142Y-117800714D01*
X156957142Y-117800714D02*
X156957142Y-118134047D01*
X156957142Y-118134047D02*
X156909523Y-118324523D01*
X156909523Y-118324523D02*
X156814285Y-118419761D01*
X156814285Y-118419761D02*
X156719047Y-118467380D01*
X156719047Y-118467380D02*
X156528571Y-118467380D01*
X157909523Y-118467380D02*
X157338095Y-118467380D01*
X157623809Y-118467380D02*
X157623809Y-117467380D01*
X157623809Y-117467380D02*
X157528571Y-117610238D01*
X157528571Y-117610238D02*
X157433333Y-117705476D01*
X157433333Y-117705476D02*
X157338095Y-117753095D01*
X162163571Y-97733333D02*
X162163571Y-98066666D01*
X162687380Y-98066666D02*
X161687380Y-98066666D01*
X161687380Y-98066666D02*
X161687380Y-97590476D01*
X162687380Y-96685714D02*
X162687380Y-97257142D01*
X162687380Y-96971428D02*
X161687380Y-96971428D01*
X161687380Y-96971428D02*
X161830238Y-97066666D01*
X161830238Y-97066666D02*
X161925476Y-97161904D01*
X161925476Y-97161904D02*
X161973095Y-97257142D01*
X104807380Y-84403333D02*
X105521666Y-84403333D01*
X105521666Y-84403333D02*
X105664523Y-84450952D01*
X105664523Y-84450952D02*
X105759761Y-84546190D01*
X105759761Y-84546190D02*
X105807380Y-84689047D01*
X105807380Y-84689047D02*
X105807380Y-84784285D01*
X105807380Y-83403333D02*
X105807380Y-83974761D01*
X105807380Y-83689047D02*
X104807380Y-83689047D01*
X104807380Y-83689047D02*
X104950238Y-83784285D01*
X104950238Y-83784285D02*
X105045476Y-83879523D01*
X105045476Y-83879523D02*
X105093095Y-83974761D01*
X196766666Y-125367380D02*
X196766666Y-126081666D01*
X196766666Y-126081666D02*
X196719047Y-126224523D01*
X196719047Y-126224523D02*
X196623809Y-126319761D01*
X196623809Y-126319761D02*
X196480952Y-126367380D01*
X196480952Y-126367380D02*
X196385714Y-126367380D01*
X197195238Y-125462619D02*
X197242857Y-125415000D01*
X197242857Y-125415000D02*
X197338095Y-125367380D01*
X197338095Y-125367380D02*
X197576190Y-125367380D01*
X197576190Y-125367380D02*
X197671428Y-125415000D01*
X197671428Y-125415000D02*
X197719047Y-125462619D01*
X197719047Y-125462619D02*
X197766666Y-125557857D01*
X197766666Y-125557857D02*
X197766666Y-125653095D01*
X197766666Y-125653095D02*
X197719047Y-125795952D01*
X197719047Y-125795952D02*
X197147619Y-126367380D01*
X197147619Y-126367380D02*
X197766666Y-126367380D01*
X126048095Y-38637380D02*
X126048095Y-39446904D01*
X126048095Y-39446904D02*
X126095714Y-39542142D01*
X126095714Y-39542142D02*
X126143333Y-39589761D01*
X126143333Y-39589761D02*
X126238571Y-39637380D01*
X126238571Y-39637380D02*
X126429047Y-39637380D01*
X126429047Y-39637380D02*
X126524285Y-39589761D01*
X126524285Y-39589761D02*
X126571904Y-39542142D01*
X126571904Y-39542142D02*
X126619523Y-39446904D01*
X126619523Y-39446904D02*
X126619523Y-38637380D01*
X127619523Y-39637380D02*
X127048095Y-39637380D01*
X127333809Y-39637380D02*
X127333809Y-38637380D01*
X127333809Y-38637380D02*
X127238571Y-38780238D01*
X127238571Y-38780238D02*
X127143333Y-38875476D01*
X127143333Y-38875476D02*
X127048095Y-38923095D01*
X125948095Y-54837380D02*
X125948095Y-55646904D01*
X125948095Y-55646904D02*
X125995714Y-55742142D01*
X125995714Y-55742142D02*
X126043333Y-55789761D01*
X126043333Y-55789761D02*
X126138571Y-55837380D01*
X126138571Y-55837380D02*
X126329047Y-55837380D01*
X126329047Y-55837380D02*
X126424285Y-55789761D01*
X126424285Y-55789761D02*
X126471904Y-55742142D01*
X126471904Y-55742142D02*
X126519523Y-55646904D01*
X126519523Y-55646904D02*
X126519523Y-54837380D01*
X126948095Y-54932619D02*
X126995714Y-54885000D01*
X126995714Y-54885000D02*
X127090952Y-54837380D01*
X127090952Y-54837380D02*
X127329047Y-54837380D01*
X127329047Y-54837380D02*
X127424285Y-54885000D01*
X127424285Y-54885000D02*
X127471904Y-54932619D01*
X127471904Y-54932619D02*
X127519523Y-55027857D01*
X127519523Y-55027857D02*
X127519523Y-55123095D01*
X127519523Y-55123095D02*
X127471904Y-55265952D01*
X127471904Y-55265952D02*
X126900476Y-55837380D01*
X126900476Y-55837380D02*
X127519523Y-55837380D01*
X129633333Y-52367380D02*
X129300000Y-51891190D01*
X129061905Y-52367380D02*
X129061905Y-51367380D01*
X129061905Y-51367380D02*
X129442857Y-51367380D01*
X129442857Y-51367380D02*
X129538095Y-51415000D01*
X129538095Y-51415000D02*
X129585714Y-51462619D01*
X129585714Y-51462619D02*
X129633333Y-51557857D01*
X129633333Y-51557857D02*
X129633333Y-51700714D01*
X129633333Y-51700714D02*
X129585714Y-51795952D01*
X129585714Y-51795952D02*
X129538095Y-51843571D01*
X129538095Y-51843571D02*
X129442857Y-51891190D01*
X129442857Y-51891190D02*
X129061905Y-51891190D01*
X130538095Y-51367380D02*
X130061905Y-51367380D01*
X130061905Y-51367380D02*
X130014286Y-51843571D01*
X130014286Y-51843571D02*
X130061905Y-51795952D01*
X130061905Y-51795952D02*
X130157143Y-51748333D01*
X130157143Y-51748333D02*
X130395238Y-51748333D01*
X130395238Y-51748333D02*
X130490476Y-51795952D01*
X130490476Y-51795952D02*
X130538095Y-51843571D01*
X130538095Y-51843571D02*
X130585714Y-51938809D01*
X130585714Y-51938809D02*
X130585714Y-52176904D01*
X130585714Y-52176904D02*
X130538095Y-52272142D01*
X130538095Y-52272142D02*
X130490476Y-52319761D01*
X130490476Y-52319761D02*
X130395238Y-52367380D01*
X130395238Y-52367380D02*
X130157143Y-52367380D01*
X130157143Y-52367380D02*
X130061905Y-52319761D01*
X130061905Y-52319761D02*
X130014286Y-52272142D01*
X115857142Y-61267380D02*
X115523809Y-60791190D01*
X115285714Y-61267380D02*
X115285714Y-60267380D01*
X115285714Y-60267380D02*
X115666666Y-60267380D01*
X115666666Y-60267380D02*
X115761904Y-60315000D01*
X115761904Y-60315000D02*
X115809523Y-60362619D01*
X115809523Y-60362619D02*
X115857142Y-60457857D01*
X115857142Y-60457857D02*
X115857142Y-60600714D01*
X115857142Y-60600714D02*
X115809523Y-60695952D01*
X115809523Y-60695952D02*
X115761904Y-60743571D01*
X115761904Y-60743571D02*
X115666666Y-60791190D01*
X115666666Y-60791190D02*
X115285714Y-60791190D01*
X116809523Y-61267380D02*
X116238095Y-61267380D01*
X116523809Y-61267380D02*
X116523809Y-60267380D01*
X116523809Y-60267380D02*
X116428571Y-60410238D01*
X116428571Y-60410238D02*
X116333333Y-60505476D01*
X116333333Y-60505476D02*
X116238095Y-60553095D01*
X117666666Y-60267380D02*
X117476190Y-60267380D01*
X117476190Y-60267380D02*
X117380952Y-60315000D01*
X117380952Y-60315000D02*
X117333333Y-60362619D01*
X117333333Y-60362619D02*
X117238095Y-60505476D01*
X117238095Y-60505476D02*
X117190476Y-60695952D01*
X117190476Y-60695952D02*
X117190476Y-61076904D01*
X117190476Y-61076904D02*
X117238095Y-61172142D01*
X117238095Y-61172142D02*
X117285714Y-61219761D01*
X117285714Y-61219761D02*
X117380952Y-61267380D01*
X117380952Y-61267380D02*
X117571428Y-61267380D01*
X117571428Y-61267380D02*
X117666666Y-61219761D01*
X117666666Y-61219761D02*
X117714285Y-61172142D01*
X117714285Y-61172142D02*
X117761904Y-61076904D01*
X117761904Y-61076904D02*
X117761904Y-60838809D01*
X117761904Y-60838809D02*
X117714285Y-60743571D01*
X117714285Y-60743571D02*
X117666666Y-60695952D01*
X117666666Y-60695952D02*
X117571428Y-60648333D01*
X117571428Y-60648333D02*
X117380952Y-60648333D01*
X117380952Y-60648333D02*
X117285714Y-60695952D01*
X117285714Y-60695952D02*
X117238095Y-60743571D01*
X117238095Y-60743571D02*
X117190476Y-60838809D01*
X148272142Y-104566666D02*
X148319761Y-104614285D01*
X148319761Y-104614285D02*
X148367380Y-104757142D01*
X148367380Y-104757142D02*
X148367380Y-104852380D01*
X148367380Y-104852380D02*
X148319761Y-104995237D01*
X148319761Y-104995237D02*
X148224523Y-105090475D01*
X148224523Y-105090475D02*
X148129285Y-105138094D01*
X148129285Y-105138094D02*
X147938809Y-105185713D01*
X147938809Y-105185713D02*
X147795952Y-105185713D01*
X147795952Y-105185713D02*
X147605476Y-105138094D01*
X147605476Y-105138094D02*
X147510238Y-105090475D01*
X147510238Y-105090475D02*
X147415000Y-104995237D01*
X147415000Y-104995237D02*
X147367380Y-104852380D01*
X147367380Y-104852380D02*
X147367380Y-104757142D01*
X147367380Y-104757142D02*
X147415000Y-104614285D01*
X147415000Y-104614285D02*
X147462619Y-104566666D01*
X148367380Y-103614285D02*
X148367380Y-104185713D01*
X148367380Y-103899999D02*
X147367380Y-103899999D01*
X147367380Y-103899999D02*
X147510238Y-103995237D01*
X147510238Y-103995237D02*
X147605476Y-104090475D01*
X147605476Y-104090475D02*
X147653095Y-104185713D01*
X144107142Y-81867380D02*
X143773809Y-81391190D01*
X143535714Y-81867380D02*
X143535714Y-80867380D01*
X143535714Y-80867380D02*
X143916666Y-80867380D01*
X143916666Y-80867380D02*
X144011904Y-80915000D01*
X144011904Y-80915000D02*
X144059523Y-80962619D01*
X144059523Y-80962619D02*
X144107142Y-81057857D01*
X144107142Y-81057857D02*
X144107142Y-81200714D01*
X144107142Y-81200714D02*
X144059523Y-81295952D01*
X144059523Y-81295952D02*
X144011904Y-81343571D01*
X144011904Y-81343571D02*
X143916666Y-81391190D01*
X143916666Y-81391190D02*
X143535714Y-81391190D01*
X144440476Y-80867380D02*
X145059523Y-80867380D01*
X145059523Y-80867380D02*
X144726190Y-81248333D01*
X144726190Y-81248333D02*
X144869047Y-81248333D01*
X144869047Y-81248333D02*
X144964285Y-81295952D01*
X144964285Y-81295952D02*
X145011904Y-81343571D01*
X145011904Y-81343571D02*
X145059523Y-81438809D01*
X145059523Y-81438809D02*
X145059523Y-81676904D01*
X145059523Y-81676904D02*
X145011904Y-81772142D01*
X145011904Y-81772142D02*
X144964285Y-81819761D01*
X144964285Y-81819761D02*
X144869047Y-81867380D01*
X144869047Y-81867380D02*
X144583333Y-81867380D01*
X144583333Y-81867380D02*
X144488095Y-81819761D01*
X144488095Y-81819761D02*
X144440476Y-81772142D01*
X145678571Y-80867380D02*
X145773809Y-80867380D01*
X145773809Y-80867380D02*
X145869047Y-80915000D01*
X145869047Y-80915000D02*
X145916666Y-80962619D01*
X145916666Y-80962619D02*
X145964285Y-81057857D01*
X145964285Y-81057857D02*
X146011904Y-81248333D01*
X146011904Y-81248333D02*
X146011904Y-81486428D01*
X146011904Y-81486428D02*
X145964285Y-81676904D01*
X145964285Y-81676904D02*
X145916666Y-81772142D01*
X145916666Y-81772142D02*
X145869047Y-81819761D01*
X145869047Y-81819761D02*
X145773809Y-81867380D01*
X145773809Y-81867380D02*
X145678571Y-81867380D01*
X145678571Y-81867380D02*
X145583333Y-81819761D01*
X145583333Y-81819761D02*
X145535714Y-81772142D01*
X145535714Y-81772142D02*
X145488095Y-81676904D01*
X145488095Y-81676904D02*
X145440476Y-81486428D01*
X145440476Y-81486428D02*
X145440476Y-81248333D01*
X145440476Y-81248333D02*
X145488095Y-81057857D01*
X145488095Y-81057857D02*
X145535714Y-80962619D01*
X145535714Y-80962619D02*
X145583333Y-80915000D01*
X145583333Y-80915000D02*
X145678571Y-80867380D01*
D13*
X170638095Y-43767380D02*
X170638095Y-44576904D01*
X170638095Y-44576904D02*
X170685714Y-44672142D01*
X170685714Y-44672142D02*
X170733333Y-44719761D01*
X170733333Y-44719761D02*
X170828571Y-44767380D01*
X170828571Y-44767380D02*
X171019047Y-44767380D01*
X171019047Y-44767380D02*
X171114285Y-44719761D01*
X171114285Y-44719761D02*
X171161904Y-44672142D01*
X171161904Y-44672142D02*
X171209523Y-44576904D01*
X171209523Y-44576904D02*
X171209523Y-43767380D01*
X172114285Y-44100714D02*
X172114285Y-44767380D01*
X171876190Y-43719761D02*
X171638095Y-44434047D01*
X171638095Y-44434047D02*
X172257142Y-44434047D01*
D10*
X168076667Y-87809761D02*
X168219524Y-87857380D01*
X168219524Y-87857380D02*
X168457619Y-87857380D01*
X168457619Y-87857380D02*
X168552857Y-87809761D01*
X168552857Y-87809761D02*
X168600476Y-87762142D01*
X168600476Y-87762142D02*
X168648095Y-87666904D01*
X168648095Y-87666904D02*
X168648095Y-87571666D01*
X168648095Y-87571666D02*
X168600476Y-87476428D01*
X168600476Y-87476428D02*
X168552857Y-87428809D01*
X168552857Y-87428809D02*
X168457619Y-87381190D01*
X168457619Y-87381190D02*
X168267143Y-87333571D01*
X168267143Y-87333571D02*
X168171905Y-87285952D01*
X168171905Y-87285952D02*
X168124286Y-87238333D01*
X168124286Y-87238333D02*
X168076667Y-87143095D01*
X168076667Y-87143095D02*
X168076667Y-87047857D01*
X168076667Y-87047857D02*
X168124286Y-86952619D01*
X168124286Y-86952619D02*
X168171905Y-86905000D01*
X168171905Y-86905000D02*
X168267143Y-86857380D01*
X168267143Y-86857380D02*
X168505238Y-86857380D01*
X168505238Y-86857380D02*
X168648095Y-86905000D01*
X168981429Y-86857380D02*
X169219524Y-87857380D01*
X169219524Y-87857380D02*
X169410000Y-87143095D01*
X169410000Y-87143095D02*
X169600476Y-87857380D01*
X169600476Y-87857380D02*
X169838572Y-86857380D01*
X170171905Y-86952619D02*
X170219524Y-86905000D01*
X170219524Y-86905000D02*
X170314762Y-86857380D01*
X170314762Y-86857380D02*
X170552857Y-86857380D01*
X170552857Y-86857380D02*
X170648095Y-86905000D01*
X170648095Y-86905000D02*
X170695714Y-86952619D01*
X170695714Y-86952619D02*
X170743333Y-87047857D01*
X170743333Y-87047857D02*
X170743333Y-87143095D01*
X170743333Y-87143095D02*
X170695714Y-87285952D01*
X170695714Y-87285952D02*
X170124286Y-87857380D01*
X170124286Y-87857380D02*
X170743333Y-87857380D01*
X136233333Y-49567380D02*
X135900000Y-49091190D01*
X135661905Y-49567380D02*
X135661905Y-48567380D01*
X135661905Y-48567380D02*
X136042857Y-48567380D01*
X136042857Y-48567380D02*
X136138095Y-48615000D01*
X136138095Y-48615000D02*
X136185714Y-48662619D01*
X136185714Y-48662619D02*
X136233333Y-48757857D01*
X136233333Y-48757857D02*
X136233333Y-48900714D01*
X136233333Y-48900714D02*
X136185714Y-48995952D01*
X136185714Y-48995952D02*
X136138095Y-49043571D01*
X136138095Y-49043571D02*
X136042857Y-49091190D01*
X136042857Y-49091190D02*
X135661905Y-49091190D01*
X136709524Y-49567380D02*
X136900000Y-49567380D01*
X136900000Y-49567380D02*
X136995238Y-49519761D01*
X136995238Y-49519761D02*
X137042857Y-49472142D01*
X137042857Y-49472142D02*
X137138095Y-49329285D01*
X137138095Y-49329285D02*
X137185714Y-49138809D01*
X137185714Y-49138809D02*
X137185714Y-48757857D01*
X137185714Y-48757857D02*
X137138095Y-48662619D01*
X137138095Y-48662619D02*
X137090476Y-48615000D01*
X137090476Y-48615000D02*
X136995238Y-48567380D01*
X136995238Y-48567380D02*
X136804762Y-48567380D01*
X136804762Y-48567380D02*
X136709524Y-48615000D01*
X136709524Y-48615000D02*
X136661905Y-48662619D01*
X136661905Y-48662619D02*
X136614286Y-48757857D01*
X136614286Y-48757857D02*
X136614286Y-48995952D01*
X136614286Y-48995952D02*
X136661905Y-49091190D01*
X136661905Y-49091190D02*
X136709524Y-49138809D01*
X136709524Y-49138809D02*
X136804762Y-49186428D01*
X136804762Y-49186428D02*
X136995238Y-49186428D01*
X136995238Y-49186428D02*
X137090476Y-49138809D01*
X137090476Y-49138809D02*
X137138095Y-49091190D01*
X137138095Y-49091190D02*
X137185714Y-48995952D01*
X118967380Y-51642857D02*
X118491190Y-51976190D01*
X118967380Y-52214285D02*
X117967380Y-52214285D01*
X117967380Y-52214285D02*
X117967380Y-51833333D01*
X117967380Y-51833333D02*
X118015000Y-51738095D01*
X118015000Y-51738095D02*
X118062619Y-51690476D01*
X118062619Y-51690476D02*
X118157857Y-51642857D01*
X118157857Y-51642857D02*
X118300714Y-51642857D01*
X118300714Y-51642857D02*
X118395952Y-51690476D01*
X118395952Y-51690476D02*
X118443571Y-51738095D01*
X118443571Y-51738095D02*
X118491190Y-51833333D01*
X118491190Y-51833333D02*
X118491190Y-52214285D01*
X118967380Y-50690476D02*
X118967380Y-51261904D01*
X118967380Y-50976190D02*
X117967380Y-50976190D01*
X117967380Y-50976190D02*
X118110238Y-51071428D01*
X118110238Y-51071428D02*
X118205476Y-51166666D01*
X118205476Y-51166666D02*
X118253095Y-51261904D01*
X118967380Y-49738095D02*
X118967380Y-50309523D01*
X118967380Y-50023809D02*
X117967380Y-50023809D01*
X117967380Y-50023809D02*
X118110238Y-50119047D01*
X118110238Y-50119047D02*
X118205476Y-50214285D01*
X118205476Y-50214285D02*
X118253095Y-50309523D01*
X155961905Y-37867380D02*
X156628571Y-38867380D01*
X156628571Y-37867380D02*
X155961905Y-38867380D01*
X156961905Y-38581666D02*
X157438095Y-38581666D01*
X156866667Y-38867380D02*
X157200000Y-37867380D01*
X157200000Y-37867380D02*
X157533333Y-38867380D01*
X158390476Y-38867380D02*
X157819048Y-38867380D01*
X158104762Y-38867380D02*
X158104762Y-37867380D01*
X158104762Y-37867380D02*
X158009524Y-38010238D01*
X158009524Y-38010238D02*
X157914286Y-38105476D01*
X157914286Y-38105476D02*
X157819048Y-38153095D01*
X123038142Y-90654000D02*
X123085761Y-90701619D01*
X123085761Y-90701619D02*
X123133380Y-90654000D01*
X123133380Y-90654000D02*
X123085761Y-90606381D01*
X123085761Y-90606381D02*
X123038142Y-90654000D01*
X123038142Y-90654000D02*
X123133380Y-90654000D01*
D14*
X133272936Y-43465000D02*
X133727064Y-43465000D01*
X133272936Y-44935000D02*
X133727064Y-44935000D01*
X133727064Y-47435000D02*
X133272936Y-47435000D01*
X133727064Y-45965000D02*
X133272936Y-45965000D01*
X195500000Y-111000000D02*
G75*
G03*
X195500000Y-111000000I-5500000J0D01*
G01*
X133372936Y-64965000D02*
X133827064Y-64965000D01*
X133372936Y-66435000D02*
X133827064Y-66435000D01*
X147730000Y-117230000D02*
X141270000Y-117230000D01*
X147730000Y-117200000D02*
X147730000Y-117230000D01*
X147730000Y-115300000D02*
X147730000Y-112700000D01*
X147730000Y-110770000D02*
X147730000Y-110800000D01*
X147730000Y-110770000D02*
X141270000Y-110770000D01*
X141270000Y-117230000D02*
X141270000Y-117200000D01*
X141270000Y-115300000D02*
X141270000Y-112700000D01*
X141270000Y-110770000D02*
X141270000Y-110800000D01*
X116500000Y-117280000D02*
X110040000Y-117280000D01*
X116500000Y-117250000D02*
X116500000Y-117280000D01*
X116500000Y-115350000D02*
X116500000Y-112750000D01*
X116500000Y-110820000D02*
X116500000Y-110850000D01*
X116500000Y-110820000D02*
X110040000Y-110820000D01*
X110040000Y-117280000D02*
X110040000Y-117250000D01*
X110040000Y-115350000D02*
X110040000Y-112750000D01*
X110040000Y-110820000D02*
X110040000Y-110850000D01*
D13*
X165600000Y-43700000D02*
G75*
G03*
X165600000Y-43700000I-3500000J0D01*
G01*
D14*
X133827064Y-64535000D02*
X133372936Y-64535000D01*
X133827064Y-63065000D02*
X133372936Y-63065000D01*
X197410000Y-82120000D02*
X189790000Y-82120000D01*
X189790000Y-82120000D02*
X189790000Y-92280000D01*
X197410000Y-92280000D02*
X197410000Y-82120000D01*
X191060000Y-92280000D02*
X191060000Y-82120000D01*
X189790000Y-92280000D02*
X197410000Y-92280000D01*
X119872936Y-43365000D02*
X120327064Y-43365000D01*
X119872936Y-44835000D02*
X120327064Y-44835000D01*
X137400000Y-117255000D02*
X130940000Y-117255000D01*
X137400000Y-117225000D02*
X137400000Y-117255000D01*
X137400000Y-115325000D02*
X137400000Y-112725000D01*
X137400000Y-110795000D02*
X137400000Y-110825000D01*
X137400000Y-110795000D02*
X130940000Y-110795000D01*
X130940000Y-117255000D02*
X130940000Y-117225000D01*
X130940000Y-115325000D02*
X130940000Y-112725000D01*
X130940000Y-110795000D02*
X130940000Y-110825000D01*
D13*
X158550000Y-134250000D02*
X180050000Y-134250000D01*
X180050000Y-134250000D02*
X180050000Y-89750000D01*
X180050000Y-89750000D02*
X158550000Y-89750000D01*
X158550000Y-89750000D02*
X158550000Y-134250000D01*
D14*
X133827064Y-62635000D02*
X133372936Y-62635000D01*
X133827064Y-61165000D02*
X133372936Y-61165000D01*
G36*
X192833638Y-55326896D02*
G01*
X193164833Y-55470365D01*
X193469279Y-55688373D01*
X193549594Y-55764072D01*
X193790261Y-56060863D01*
X193955064Y-56388978D01*
X194042579Y-56739403D01*
X194051381Y-57103123D01*
X193980047Y-57471123D01*
X193865112Y-57760945D01*
X193677850Y-58051369D01*
X193431263Y-58296373D01*
X193139514Y-58489583D01*
X192816763Y-58624626D01*
X192477173Y-58695129D01*
X192134904Y-58694716D01*
X191895833Y-58647242D01*
X191770951Y-58612013D01*
X191681998Y-58588875D01*
X191657240Y-58583868D01*
X191576692Y-58551962D01*
X191456218Y-58473877D01*
X191314297Y-58364733D01*
X191169405Y-58239647D01*
X191040021Y-58113740D01*
X190944623Y-58002131D01*
X190942239Y-57998827D01*
X190754700Y-57669453D01*
X190643863Y-57320773D01*
X190608684Y-56964138D01*
X190648120Y-56610895D01*
X190761125Y-56272394D01*
X190946657Y-55959984D01*
X191150767Y-55732555D01*
X191455280Y-55501221D01*
X191786518Y-55345128D01*
X192133786Y-55264137D01*
X192486392Y-55258106D01*
X192833638Y-55326896D01*
G37*
D15*
X192833638Y-55326896D02*
X193164833Y-55470365D01*
X193469279Y-55688373D01*
X193549594Y-55764072D01*
X193790261Y-56060863D01*
X193955064Y-56388978D01*
X194042579Y-56739403D01*
X194051381Y-57103123D01*
X193980047Y-57471123D01*
X193865112Y-57760945D01*
X193677850Y-58051369D01*
X193431263Y-58296373D01*
X193139514Y-58489583D01*
X192816763Y-58624626D01*
X192477173Y-58695129D01*
X192134904Y-58694716D01*
X191895833Y-58647242D01*
X191770951Y-58612013D01*
X191681998Y-58588875D01*
X191657240Y-58583868D01*
X191576692Y-58551962D01*
X191456218Y-58473877D01*
X191314297Y-58364733D01*
X191169405Y-58239647D01*
X191040021Y-58113740D01*
X190944623Y-58002131D01*
X190942239Y-57998827D01*
X190754700Y-57669453D01*
X190643863Y-57320773D01*
X190608684Y-56964138D01*
X190648120Y-56610895D01*
X190761125Y-56272394D01*
X190946657Y-55959984D01*
X191150767Y-55732555D01*
X191455280Y-55501221D01*
X191786518Y-55345128D01*
X192133786Y-55264137D01*
X192486392Y-55258106D01*
X192833638Y-55326896D01*
G36*
X180595724Y-52286497D02*
G01*
X180762879Y-52319466D01*
X180970966Y-52367957D01*
X181200176Y-52426686D01*
X181430701Y-52490369D01*
X181642735Y-52553721D01*
X181816468Y-52611460D01*
X181932093Y-52658300D01*
X181935937Y-52660233D01*
X182124178Y-52800108D01*
X182276433Y-52997780D01*
X182380769Y-53229866D01*
X182425255Y-53472986D01*
X182419278Y-53607395D01*
X182404040Y-53679897D01*
X182368969Y-53825974D01*
X182316176Y-54037426D01*
X182247768Y-54306053D01*
X182165856Y-54623655D01*
X182072547Y-54982033D01*
X181969951Y-55372987D01*
X181860176Y-55788317D01*
X181804026Y-55999666D01*
X181691687Y-56421943D01*
X181585298Y-56822146D01*
X181486968Y-57192325D01*
X181398805Y-57524530D01*
X181322917Y-57810813D01*
X181261411Y-58043225D01*
X181216395Y-58213814D01*
X181189978Y-58314633D01*
X181184318Y-58336738D01*
X181156080Y-58451310D01*
X188128166Y-58478176D01*
X188542074Y-58591443D01*
X189149179Y-58799348D01*
X189711612Y-59078976D01*
X190231260Y-59431459D01*
X190710010Y-59857928D01*
X190786688Y-59937048D01*
X191194660Y-60422622D01*
X191523035Y-60936729D01*
X191772480Y-61481029D01*
X191943657Y-62057183D01*
X192037231Y-62666850D01*
X192056909Y-63111666D01*
X192056206Y-63316802D01*
X192051429Y-63495392D01*
X192040238Y-63660849D01*
X192020297Y-63826589D01*
X191989268Y-64006025D01*
X191944812Y-64212572D01*
X191884594Y-64459645D01*
X191806274Y-64760658D01*
X191707515Y-65129026D01*
X191701422Y-65151585D01*
X191618780Y-65457311D01*
X191516973Y-65833568D01*
X191399033Y-66269181D01*
X191267989Y-66752975D01*
X191126871Y-67273776D01*
X190978710Y-67820409D01*
X190826535Y-68381698D01*
X190673377Y-68946470D01*
X190522266Y-69503548D01*
X190376231Y-70041759D01*
X190238304Y-70549926D01*
X190111513Y-71016877D01*
X189998890Y-71431435D01*
X189903463Y-71782426D01*
X189901403Y-71790000D01*
X189792645Y-72181224D01*
X189695768Y-72512188D01*
X189612426Y-72777694D01*
X189544270Y-72972541D01*
X189492953Y-73091529D01*
X189481806Y-73110576D01*
X189314495Y-73291904D01*
X189091646Y-73425206D01*
X188834016Y-73499166D01*
X188752599Y-73508122D01*
X188625852Y-73509656D01*
X188483881Y-73494848D01*
X188308536Y-73460443D01*
X188081662Y-73403185D01*
X187924053Y-73359563D01*
X187618797Y-73267721D01*
X187383740Y-73182027D01*
X187205528Y-73094952D01*
X187070805Y-72998969D01*
X186966216Y-72886550D01*
X186895232Y-72779663D01*
X186861273Y-72722784D01*
X186831384Y-72670670D01*
X186806552Y-72618535D01*
X186787763Y-72561597D01*
X186776006Y-72495071D01*
X186772269Y-72414175D01*
X186777539Y-72314123D01*
X186792803Y-72190134D01*
X186819050Y-72037421D01*
X186857266Y-71851203D01*
X186908440Y-71626695D01*
X186973559Y-71359113D01*
X187053610Y-71043675D01*
X187149582Y-70675595D01*
X187262462Y-70250090D01*
X187393237Y-69762377D01*
X187542895Y-69207671D01*
X187712423Y-68581190D01*
X187902810Y-67878149D01*
X187921081Y-67810666D01*
X188108530Y-67117985D01*
X188274979Y-66502032D01*
X188421671Y-65957843D01*
X188549845Y-65480452D01*
X188660745Y-65064895D01*
X188755610Y-64706208D01*
X188835682Y-64399424D01*
X188902204Y-64139580D01*
X188956415Y-63921710D01*
X188999557Y-63740850D01*
X189032872Y-63592035D01*
X189057601Y-63470300D01*
X189074985Y-63370679D01*
X189086266Y-63288209D01*
X189092684Y-63217924D01*
X189095483Y-63154860D01*
X189095952Y-63111666D01*
X189057900Y-62730103D01*
X188944241Y-62386147D01*
X188756177Y-62082059D01*
X188494909Y-61820101D01*
X188354706Y-61717188D01*
X188279690Y-61666437D01*
X188212388Y-61621772D01*
X188147172Y-61582804D01*
X188078415Y-61549145D01*
X188000489Y-61520408D01*
X187907766Y-61496206D01*
X187794620Y-61476149D01*
X187655421Y-61459851D01*
X187484542Y-61446923D01*
X187276357Y-61436978D01*
X187025236Y-61429628D01*
X186725553Y-61424486D01*
X186371680Y-61421164D01*
X185957989Y-61419273D01*
X185478852Y-61418426D01*
X184928643Y-61418235D01*
X184301732Y-61418313D01*
X184017432Y-61418333D01*
X180366566Y-61418333D01*
X180323373Y-61555916D01*
X180305033Y-61620113D01*
X180266737Y-61758767D01*
X180210470Y-61964560D01*
X180138214Y-62230173D01*
X180051953Y-62548290D01*
X179953671Y-62911592D01*
X179845352Y-63312762D01*
X179728979Y-63744480D01*
X179606536Y-64199430D01*
X179574611Y-64318166D01*
X179450201Y-64778773D01*
X179330272Y-65218579D01*
X179216919Y-65630178D01*
X179112232Y-66006168D01*
X179018304Y-66339145D01*
X178937227Y-66621704D01*
X178871094Y-66846443D01*
X178821997Y-67005957D01*
X178792028Y-67092843D01*
X178787871Y-67102150D01*
X178654746Y-67280216D01*
X178461059Y-67430173D01*
X178230122Y-67535482D01*
X178144241Y-67558858D01*
X178052581Y-67576549D01*
X177966529Y-67583277D01*
X177868936Y-67576782D01*
X177742654Y-67554807D01*
X177570535Y-67515091D01*
X177335432Y-67455375D01*
X177311284Y-67449121D01*
X177081868Y-67387242D01*
X176869988Y-67325699D01*
X176694872Y-67270390D01*
X176575744Y-67227210D01*
X176550000Y-67215636D01*
X176326208Y-67057194D01*
X176154805Y-66839224D01*
X176045350Y-66575234D01*
X176022820Y-66470740D01*
X176016076Y-66433261D01*
X176010640Y-66399803D01*
X176008002Y-66364171D01*
X176009652Y-66320173D01*
X176017080Y-66261614D01*
X176031775Y-66182300D01*
X176055227Y-66076038D01*
X176088925Y-65936634D01*
X176134360Y-65757893D01*
X176193022Y-65533623D01*
X176266399Y-65257628D01*
X176355983Y-64923716D01*
X176463262Y-64525693D01*
X176589726Y-64057364D01*
X176713655Y-63598500D01*
X177296611Y-61439500D01*
X174753722Y-61418333D01*
X174225700Y-61413853D01*
X173775604Y-61409712D01*
X173396696Y-61405640D01*
X173082237Y-61401369D01*
X172825490Y-61396628D01*
X172619716Y-61391150D01*
X172458176Y-61384665D01*
X172334133Y-61376904D01*
X172240849Y-61367598D01*
X172171584Y-61356478D01*
X172119600Y-61343275D01*
X172078160Y-61327720D01*
X172041500Y-61310047D01*
X171885574Y-61187404D01*
X171763590Y-61010916D01*
X171692742Y-60809733D01*
X171681801Y-60700280D01*
X171693641Y-60595951D01*
X171725704Y-60430168D01*
X171772981Y-60222294D01*
X171830464Y-59991695D01*
X171893146Y-59757734D01*
X171956017Y-59539778D01*
X172014071Y-59357190D01*
X172062071Y-59229854D01*
X172180928Y-59035454D01*
X172356059Y-58841704D01*
X172562540Y-58673235D01*
X172719937Y-58579781D01*
X172930500Y-58476166D01*
X175512833Y-58464636D01*
X178095166Y-58453105D01*
X178810689Y-55755302D01*
X178935432Y-55286695D01*
X179055813Y-54837777D01*
X179169779Y-54415996D01*
X179275278Y-54028798D01*
X179370255Y-53683631D01*
X179452659Y-53387942D01*
X179520434Y-53149177D01*
X179571530Y-52974784D01*
X179603891Y-52872210D01*
X179610445Y-52854575D01*
X179748782Y-52626594D01*
X179946393Y-52446525D01*
X180186230Y-52325622D01*
X180451247Y-52275140D01*
X180489308Y-52274333D01*
X180595724Y-52286497D01*
G37*
X180595724Y-52286497D02*
X180762879Y-52319466D01*
X180970966Y-52367957D01*
X181200176Y-52426686D01*
X181430701Y-52490369D01*
X181642735Y-52553721D01*
X181816468Y-52611460D01*
X181932093Y-52658300D01*
X181935937Y-52660233D01*
X182124178Y-52800108D01*
X182276433Y-52997780D01*
X182380769Y-53229866D01*
X182425255Y-53472986D01*
X182419278Y-53607395D01*
X182404040Y-53679897D01*
X182368969Y-53825974D01*
X182316176Y-54037426D01*
X182247768Y-54306053D01*
X182165856Y-54623655D01*
X182072547Y-54982033D01*
X181969951Y-55372987D01*
X181860176Y-55788317D01*
X181804026Y-55999666D01*
X181691687Y-56421943D01*
X181585298Y-56822146D01*
X181486968Y-57192325D01*
X181398805Y-57524530D01*
X181322917Y-57810813D01*
X181261411Y-58043225D01*
X181216395Y-58213814D01*
X181189978Y-58314633D01*
X181184318Y-58336738D01*
X181156080Y-58451310D01*
X188128166Y-58478176D01*
X188542074Y-58591443D01*
X189149179Y-58799348D01*
X189711612Y-59078976D01*
X190231260Y-59431459D01*
X190710010Y-59857928D01*
X190786688Y-59937048D01*
X191194660Y-60422622D01*
X191523035Y-60936729D01*
X191772480Y-61481029D01*
X191943657Y-62057183D01*
X192037231Y-62666850D01*
X192056909Y-63111666D01*
X192056206Y-63316802D01*
X192051429Y-63495392D01*
X192040238Y-63660849D01*
X192020297Y-63826589D01*
X191989268Y-64006025D01*
X191944812Y-64212572D01*
X191884594Y-64459645D01*
X191806274Y-64760658D01*
X191707515Y-65129026D01*
X191701422Y-65151585D01*
X191618780Y-65457311D01*
X191516973Y-65833568D01*
X191399033Y-66269181D01*
X191267989Y-66752975D01*
X191126871Y-67273776D01*
X190978710Y-67820409D01*
X190826535Y-68381698D01*
X190673377Y-68946470D01*
X190522266Y-69503548D01*
X190376231Y-70041759D01*
X190238304Y-70549926D01*
X190111513Y-71016877D01*
X189998890Y-71431435D01*
X189903463Y-71782426D01*
X189901403Y-71790000D01*
X189792645Y-72181224D01*
X189695768Y-72512188D01*
X189612426Y-72777694D01*
X189544270Y-72972541D01*
X189492953Y-73091529D01*
X189481806Y-73110576D01*
X189314495Y-73291904D01*
X189091646Y-73425206D01*
X188834016Y-73499166D01*
X188752599Y-73508122D01*
X188625852Y-73509656D01*
X188483881Y-73494848D01*
X188308536Y-73460443D01*
X188081662Y-73403185D01*
X187924053Y-73359563D01*
X187618797Y-73267721D01*
X187383740Y-73182027D01*
X187205528Y-73094952D01*
X187070805Y-72998969D01*
X186966216Y-72886550D01*
X186895232Y-72779663D01*
X186861273Y-72722784D01*
X186831384Y-72670670D01*
X186806552Y-72618535D01*
X186787763Y-72561597D01*
X186776006Y-72495071D01*
X186772269Y-72414175D01*
X186777539Y-72314123D01*
X186792803Y-72190134D01*
X186819050Y-72037421D01*
X186857266Y-71851203D01*
X186908440Y-71626695D01*
X186973559Y-71359113D01*
X187053610Y-71043675D01*
X187149582Y-70675595D01*
X187262462Y-70250090D01*
X187393237Y-69762377D01*
X187542895Y-69207671D01*
X187712423Y-68581190D01*
X187902810Y-67878149D01*
X187921081Y-67810666D01*
X188108530Y-67117985D01*
X188274979Y-66502032D01*
X188421671Y-65957843D01*
X188549845Y-65480452D01*
X188660745Y-65064895D01*
X188755610Y-64706208D01*
X188835682Y-64399424D01*
X188902204Y-64139580D01*
X188956415Y-63921710D01*
X188999557Y-63740850D01*
X189032872Y-63592035D01*
X189057601Y-63470300D01*
X189074985Y-63370679D01*
X189086266Y-63288209D01*
X189092684Y-63217924D01*
X189095483Y-63154860D01*
X189095952Y-63111666D01*
X189057900Y-62730103D01*
X188944241Y-62386147D01*
X188756177Y-62082059D01*
X188494909Y-61820101D01*
X188354706Y-61717188D01*
X188279690Y-61666437D01*
X188212388Y-61621772D01*
X188147172Y-61582804D01*
X188078415Y-61549145D01*
X188000489Y-61520408D01*
X187907766Y-61496206D01*
X187794620Y-61476149D01*
X187655421Y-61459851D01*
X187484542Y-61446923D01*
X187276357Y-61436978D01*
X187025236Y-61429628D01*
X186725553Y-61424486D01*
X186371680Y-61421164D01*
X185957989Y-61419273D01*
X185478852Y-61418426D01*
X184928643Y-61418235D01*
X184301732Y-61418313D01*
X184017432Y-61418333D01*
X180366566Y-61418333D01*
X180323373Y-61555916D01*
X180305033Y-61620113D01*
X180266737Y-61758767D01*
X180210470Y-61964560D01*
X180138214Y-62230173D01*
X180051953Y-62548290D01*
X179953671Y-62911592D01*
X179845352Y-63312762D01*
X179728979Y-63744480D01*
X179606536Y-64199430D01*
X179574611Y-64318166D01*
X179450201Y-64778773D01*
X179330272Y-65218579D01*
X179216919Y-65630178D01*
X179112232Y-66006168D01*
X179018304Y-66339145D01*
X178937227Y-66621704D01*
X178871094Y-66846443D01*
X178821997Y-67005957D01*
X178792028Y-67092843D01*
X178787871Y-67102150D01*
X178654746Y-67280216D01*
X178461059Y-67430173D01*
X178230122Y-67535482D01*
X178144241Y-67558858D01*
X178052581Y-67576549D01*
X177966529Y-67583277D01*
X177868936Y-67576782D01*
X177742654Y-67554807D01*
X177570535Y-67515091D01*
X177335432Y-67455375D01*
X177311284Y-67449121D01*
X177081868Y-67387242D01*
X176869988Y-67325699D01*
X176694872Y-67270390D01*
X176575744Y-67227210D01*
X176550000Y-67215636D01*
X176326208Y-67057194D01*
X176154805Y-66839224D01*
X176045350Y-66575234D01*
X176022820Y-66470740D01*
X176016076Y-66433261D01*
X176010640Y-66399803D01*
X176008002Y-66364171D01*
X176009652Y-66320173D01*
X176017080Y-66261614D01*
X176031775Y-66182300D01*
X176055227Y-66076038D01*
X176088925Y-65936634D01*
X176134360Y-65757893D01*
X176193022Y-65533623D01*
X176266399Y-65257628D01*
X176355983Y-64923716D01*
X176463262Y-64525693D01*
X176589726Y-64057364D01*
X176713655Y-63598500D01*
X177296611Y-61439500D01*
X174753722Y-61418333D01*
X174225700Y-61413853D01*
X173775604Y-61409712D01*
X173396696Y-61405640D01*
X173082237Y-61401369D01*
X172825490Y-61396628D01*
X172619716Y-61391150D01*
X172458176Y-61384665D01*
X172334133Y-61376904D01*
X172240849Y-61367598D01*
X172171584Y-61356478D01*
X172119600Y-61343275D01*
X172078160Y-61327720D01*
X172041500Y-61310047D01*
X171885574Y-61187404D01*
X171763590Y-61010916D01*
X171692742Y-60809733D01*
X171681801Y-60700280D01*
X171693641Y-60595951D01*
X171725704Y-60430168D01*
X171772981Y-60222294D01*
X171830464Y-59991695D01*
X171893146Y-59757734D01*
X171956017Y-59539778D01*
X172014071Y-59357190D01*
X172062071Y-59229854D01*
X172180928Y-59035454D01*
X172356059Y-58841704D01*
X172562540Y-58673235D01*
X172719937Y-58579781D01*
X172930500Y-58476166D01*
X175512833Y-58464636D01*
X178095166Y-58453105D01*
X178810689Y-55755302D01*
X178935432Y-55286695D01*
X179055813Y-54837777D01*
X179169779Y-54415996D01*
X179275278Y-54028798D01*
X179370255Y-53683631D01*
X179452659Y-53387942D01*
X179520434Y-53149177D01*
X179571530Y-52974784D01*
X179603891Y-52872210D01*
X179610445Y-52854575D01*
X179748782Y-52626594D01*
X179946393Y-52446525D01*
X180186230Y-52325622D01*
X180451247Y-52275140D01*
X180489308Y-52274333D01*
X180595724Y-52286497D01*
D14*
X147860436Y-78265000D02*
X148314564Y-78265000D01*
X147860436Y-79735000D02*
X148314564Y-79735000D01*
X126990000Y-117255000D02*
X120530000Y-117255000D01*
X126990000Y-117225000D02*
X126990000Y-117255000D01*
X126990000Y-115325000D02*
X126990000Y-112725000D01*
X126990000Y-110795000D02*
X126990000Y-110825000D01*
X126990000Y-110795000D02*
X120530000Y-110795000D01*
X120530000Y-117255000D02*
X120530000Y-117225000D01*
X120530000Y-115325000D02*
X120530000Y-112725000D01*
X120530000Y-110795000D02*
X120530000Y-110825000D01*
X147872936Y-83365000D02*
X148327064Y-83365000D01*
X147872936Y-84835000D02*
X148327064Y-84835000D01*
X197410000Y-93120000D02*
X189790000Y-93120000D01*
X189790000Y-93120000D02*
X189790000Y-103280000D01*
X197410000Y-103280000D02*
X197410000Y-93120000D01*
X191060000Y-103280000D02*
X191060000Y-93120000D01*
X189790000Y-103280000D02*
X197410000Y-103280000D01*
X119927064Y-63635000D02*
X119472936Y-63635000D01*
X119927064Y-62165000D02*
X119472936Y-62165000D01*
D13*
X177700000Y-126700000D02*
G75*
G03*
X177700000Y-126700000I-3500000J0D01*
G01*
D14*
X147860436Y-85865000D02*
X148314564Y-85865000D01*
X147860436Y-87335000D02*
X148314564Y-87335000D01*
X149065000Y-101127064D02*
X149065000Y-100672936D01*
X150535000Y-101127064D02*
X150535000Y-100672936D01*
X121235000Y-47572936D02*
X121235000Y-48027064D01*
X119765000Y-47572936D02*
X119765000Y-48027064D01*
D13*
X109700000Y-131700000D02*
G75*
G03*
X109700000Y-131700000I-3500000J0D01*
G01*
D14*
X119472936Y-64065000D02*
X119927064Y-64065000D01*
X119472936Y-65535000D02*
X119927064Y-65535000D01*
X120327064Y-42335000D02*
X119872936Y-42335000D01*
X120327064Y-40865000D02*
X119872936Y-40865000D01*
X133827064Y-68335000D02*
X133372936Y-68335000D01*
X133827064Y-66865000D02*
X133372936Y-66865000D01*
D13*
X165700000Y-75000000D02*
G75*
G03*
X165700000Y-75000000I-3500000J0D01*
G01*
D14*
X121235000Y-58072936D02*
X121235000Y-58527064D01*
X119765000Y-58072936D02*
X119765000Y-58527064D01*
X110650000Y-53100000D02*
X107850000Y-53100000D01*
X110650000Y-51100000D02*
X110650000Y-53100000D01*
X107850000Y-53100000D02*
X107850000Y-51100000D01*
X107850000Y-51100000D02*
X110650000Y-51100000D01*
X156940000Y-121000000D02*
X156940000Y-122675000D01*
X156940000Y-121000000D02*
X156940000Y-120350000D01*
X160060000Y-121000000D02*
X160060000Y-121650000D01*
X160060000Y-121000000D02*
X160060000Y-120350000D01*
X161410000Y-96797936D02*
X161410000Y-98002064D01*
X159590000Y-96797936D02*
X159590000Y-98002064D01*
X111040000Y-90020000D02*
X112040000Y-90020000D01*
X112040000Y-90020000D02*
X111540000Y-89020000D01*
X111540000Y-89020000D02*
X111040000Y-90020000D01*
X106330000Y-88630000D02*
X106330000Y-79510000D01*
X120920000Y-88630000D02*
X120920000Y-87320000D01*
X139610000Y-88630000D02*
X106330000Y-88630000D01*
X107630000Y-87320000D02*
X107630000Y-80820000D01*
X120920000Y-87320000D02*
X107630000Y-87320000D01*
X125020000Y-87320000D02*
X125020000Y-88630000D01*
X125020000Y-87320000D02*
X125020000Y-87320000D01*
X138310000Y-87320000D02*
X125020000Y-87320000D01*
X107630000Y-80820000D02*
X138310000Y-80820000D01*
X138310000Y-80820000D02*
X138310000Y-87320000D01*
X106330000Y-79510000D02*
X139610000Y-79510000D01*
X139610000Y-79510000D02*
X139610000Y-88630000D01*
X195500000Y-126000000D02*
G75*
G03*
X195500000Y-126000000I-5500000J0D01*
G01*
X124160000Y-40270000D02*
X124160000Y-50550000D01*
X124160000Y-50550000D02*
X129460000Y-50550000D01*
X125810000Y-40270000D02*
X124160000Y-40270000D01*
X129460000Y-40270000D02*
X127810000Y-40270000D01*
X129460000Y-50550000D02*
X129460000Y-40270000D01*
X125810000Y-40270000D02*
G75*
G03*
X127810000Y-40270000I1000000J0D01*
G01*
X124060000Y-56470000D02*
X124060000Y-66750000D01*
X124060000Y-66750000D02*
X129360000Y-66750000D01*
X125710000Y-56470000D02*
X124060000Y-56470000D01*
X129360000Y-56470000D02*
X127710000Y-56470000D01*
X129360000Y-66750000D02*
X129360000Y-56470000D01*
X125710000Y-56470000D02*
G75*
G03*
X127710000Y-56470000I1000000J0D01*
G01*
X127127064Y-52635000D02*
X126672936Y-52635000D01*
X127127064Y-51165000D02*
X126672936Y-51165000D01*
X119472936Y-60265000D02*
X119927064Y-60265000D01*
X119472936Y-61735000D02*
X119927064Y-61735000D01*
X150535000Y-104138748D02*
X150535000Y-104661252D01*
X149065000Y-104138748D02*
X149065000Y-104661252D01*
X147860436Y-80765000D02*
X148314564Y-80765000D01*
X147860436Y-82235000D02*
X148314564Y-82235000D01*
X177140000Y-77680000D02*
X192440000Y-77680000D01*
X177140000Y-77680000D02*
X177140000Y-75020000D01*
X192440000Y-77680000D02*
X192440000Y-75020000D01*
X174540000Y-76350000D02*
X174540000Y-75020000D01*
X174540000Y-75020000D02*
X175870000Y-75020000D01*
X177140000Y-75020000D02*
X192440000Y-75020000D01*
D16*
X169150000Y-78750000D02*
X198050000Y-78750000D01*
X198050000Y-78750000D02*
X198050000Y-36650000D01*
X198050000Y-36650000D02*
X169150000Y-36650000D01*
X169150000Y-36650000D02*
X169150000Y-78750000D01*
D14*
X175810000Y-86760000D02*
X166990000Y-86760000D01*
X175810000Y-86450000D02*
X175810000Y-86760000D01*
X175810000Y-82240000D02*
X175810000Y-82550000D01*
X173900000Y-87460000D02*
X173400000Y-86960000D01*
X173400000Y-86960000D02*
X172900000Y-87460000D01*
X172900000Y-87460000D02*
X173900000Y-87460000D01*
X166990000Y-86760000D02*
X166990000Y-86450000D01*
X166990000Y-82240000D02*
X175810000Y-82240000D01*
X166990000Y-82240000D02*
X166990000Y-82550000D01*
X133727064Y-49935000D02*
X133272936Y-49935000D01*
X133727064Y-48465000D02*
X133272936Y-48465000D01*
X117865000Y-48027064D02*
X117865000Y-47572936D01*
X119335000Y-48027064D02*
X119335000Y-47572936D01*
D10*
X154770000Y-28170000D02*
X154770000Y-127230000D01*
X101430000Y-28170000D02*
X154770000Y-28170000D01*
X101430000Y-28170000D02*
X101430000Y-125706000D01*
X101430000Y-125706000D02*
X102954000Y-127230000D01*
X154770000Y-127230000D02*
X153500000Y-127230000D01*
X153500000Y-127230000D02*
X150960000Y-129770000D01*
X114130000Y-127230000D02*
X102954000Y-127230000D01*
X150960000Y-129770000D02*
X116670000Y-129770000D01*
X116670000Y-129770000D02*
X114130000Y-127230000D01*
%LPC*%
D17*
X132587500Y-44200000D03*
X134412500Y-44200000D03*
D18*
X134412500Y-46700000D03*
X132587500Y-46700000D03*
D19*
X190000000Y-111000000D03*
D17*
X132687500Y-65700000D03*
X134512500Y-65700000D03*
D20*
X148474999Y-116249999D03*
X140524999Y-116249999D03*
X148474999Y-111749999D03*
X140524999Y-111749999D03*
X117244999Y-116299999D03*
X109294999Y-116299999D03*
X117244999Y-111799999D03*
X109294999Y-111799999D03*
D21*
X162100000Y-43700000D03*
D18*
X134512500Y-63800000D03*
X132687500Y-63800000D03*
D22*
X193599999Y-84659999D03*
D23*
X193600000Y-89740000D03*
D17*
X119187500Y-44100000D03*
X121012500Y-44100000D03*
D20*
X138144999Y-116274999D03*
X130194999Y-116274999D03*
X138144999Y-111774999D03*
X130194999Y-111774999D03*
D24*
X137199999Y-91999999D03*
D25*
X160550000Y-132050000D03*
X178050000Y-132050000D03*
X160550000Y-92050000D03*
X178050000Y-92050000D03*
D18*
X134512500Y-61900000D03*
X132687500Y-61900000D03*
D17*
X147175000Y-79000000D03*
X149000000Y-79000000D03*
D20*
X127734999Y-116274999D03*
X119784999Y-116274999D03*
X127734999Y-111774999D03*
X119784999Y-111774999D03*
D17*
X147187500Y-84100000D03*
X149012500Y-84100000D03*
D22*
X193599999Y-95659999D03*
D23*
X193600000Y-100740000D03*
D18*
X120612500Y-62900000D03*
X118787500Y-62900000D03*
D21*
X174200000Y-126700000D03*
D17*
X147175000Y-86600000D03*
X149000000Y-86600000D03*
D26*
X149800000Y-101812500D03*
X149800000Y-99987500D03*
D27*
X120500000Y-46887500D03*
X120500000Y-48712500D03*
D21*
X106200000Y-131700000D03*
D17*
X118787500Y-64800000D03*
X120612500Y-64800000D03*
D18*
X121012500Y-41600000D03*
X119187500Y-41600000D03*
X134512500Y-67600000D03*
X132687500Y-67600000D03*
D21*
X162200000Y-75000000D03*
D27*
X120500000Y-57387500D03*
X120500000Y-59212500D03*
D28*
X109899999Y-52099999D03*
X108599999Y-52099999D03*
D24*
X133399999Y-91999999D03*
D29*
X157550000Y-121937500D03*
X159450000Y-121937500D03*
X158500000Y-120062500D03*
D30*
X160500000Y-96000000D03*
X160500000Y-98800000D03*
D31*
X111540000Y-85340000D03*
D32*
X111540000Y-82800000D03*
X114080000Y-85340000D03*
X114080000Y-82800000D03*
X116620000Y-85340000D03*
X116620000Y-82800000D03*
X119160000Y-85340000D03*
X119160000Y-82800000D03*
X121700000Y-85340000D03*
X121700000Y-82800000D03*
X124240000Y-85340000D03*
X124240000Y-82800000D03*
X126780000Y-85340000D03*
X126780000Y-82800000D03*
X129320000Y-85340000D03*
X129320000Y-82800000D03*
X131860000Y-85340000D03*
X131860000Y-82800000D03*
X134400000Y-85340000D03*
X134400000Y-82800000D03*
D19*
X190000000Y-126000000D03*
D33*
X122999999Y-41599999D03*
D34*
X122999999Y-44139999D03*
X122999999Y-46679999D03*
X122999999Y-49219999D03*
X130619999Y-49219999D03*
X130619999Y-46679999D03*
X130619999Y-44139999D03*
X130619999Y-41599999D03*
D33*
X122899999Y-57799999D03*
D34*
X122899999Y-60339999D03*
X122899999Y-62879999D03*
X122899999Y-65419999D03*
X130519999Y-65419999D03*
X130519999Y-62879999D03*
X130519999Y-60339999D03*
X130519999Y-57799999D03*
D18*
X127812500Y-51900000D03*
X125987500Y-51900000D03*
D17*
X118787500Y-61000000D03*
X120612500Y-61000000D03*
D35*
X149800000Y-103450000D03*
X149800000Y-105350000D03*
D17*
X147175000Y-81500000D03*
X149000000Y-81500000D03*
D36*
X171950000Y-75850000D03*
X195200000Y-75850000D03*
X171950000Y-40500000D03*
X195200000Y-40500000D03*
D37*
X175869999Y-76349999D03*
D38*
X178409999Y-76349999D03*
X180949999Y-76349999D03*
X183489999Y-76349999D03*
X186029999Y-76349999D03*
X188569999Y-76349999D03*
X191109999Y-76349999D03*
D39*
X175499999Y-84499999D03*
X167299999Y-84499999D03*
D40*
X173399999Y-84499999D03*
D41*
X171399999Y-84499999D03*
X169399999Y-84499999D03*
D18*
X134412500Y-49200000D03*
X132587500Y-49200000D03*
D26*
X118600000Y-48712500D03*
X118600000Y-46887500D03*
D42*
X152230000Y-42140000D03*
X103970000Y-43410000D03*
D43*
X152229999Y-56109999D03*
D42*
X147150000Y-94210000D03*
X119210000Y-94210000D03*
X103970000Y-118340000D03*
X152230000Y-124690000D03*
D43*
X152229999Y-63729999D03*
X152229999Y-66269999D03*
X124289999Y-94336999D03*
X103969999Y-122149999D03*
X103969999Y-124689999D03*
X152229999Y-78969999D03*
X152229999Y-81509999D03*
X152229999Y-84049999D03*
X152229999Y-86589999D03*
X152229999Y-89129999D03*
X152229999Y-91669999D03*
X152229999Y-94209999D03*
X152229999Y-96749999D03*
X152229999Y-101829999D03*
X152229999Y-104369999D03*
X152229999Y-106909999D03*
X152229999Y-109449999D03*
X152229999Y-111989999D03*
X152229999Y-114529999D03*
X152229999Y-117069999D03*
X152229999Y-119609999D03*
X103969999Y-52045999D03*
X103969999Y-91669999D03*
X103969999Y-89129999D03*
X103969999Y-86589999D03*
X103969999Y-84049999D03*
X103969999Y-81509999D03*
X103969999Y-78969999D03*
X103969999Y-76429999D03*
X103969999Y-73889999D03*
X103969999Y-69825999D03*
X103969999Y-67285999D03*
X103969999Y-64745999D03*
X103969999Y-62205999D03*
X103969999Y-59665999D03*
X103969999Y-57125999D03*
X103969999Y-96749999D03*
X103969999Y-99289999D03*
X103969999Y-101829999D03*
X103969999Y-104369999D03*
X103969999Y-106909999D03*
X103969999Y-109449999D03*
X103969999Y-111989999D03*
X103969999Y-114529999D03*
X106509999Y-122149999D03*
X106509999Y-124689999D03*
X109049999Y-122149999D03*
X109049999Y-124689999D03*
X111589999Y-122149999D03*
X111589999Y-124689999D03*
X114129999Y-122149999D03*
X114129999Y-124689999D03*
X116669999Y-122149999D03*
X116669999Y-124689999D03*
X119209999Y-122149999D03*
X119209999Y-124689999D03*
X121749999Y-122149999D03*
X121749999Y-124689999D03*
X124289999Y-122149999D03*
X124289999Y-124689999D03*
X126829999Y-122149999D03*
X126829999Y-124689999D03*
X129369999Y-122149999D03*
X129369999Y-124689999D03*
X131909999Y-122149999D03*
X131909999Y-124689999D03*
X134449999Y-122149999D03*
X134449999Y-124689999D03*
X136989999Y-122149999D03*
X136989999Y-124689999D03*
X139529999Y-122149999D03*
X139529999Y-124689999D03*
X142069999Y-122149999D03*
X142069999Y-124689999D03*
X144609999Y-122149999D03*
X144609999Y-124689999D03*
D44*
X103969999Y-54585999D03*
X152229999Y-68809999D03*
X152229999Y-71349999D03*
X129369999Y-94336999D03*
X147149999Y-122149999D03*
X147149999Y-124689999D03*
D43*
X152229999Y-58649999D03*
X124289999Y-91796999D03*
X126829999Y-94336999D03*
X152229999Y-61189999D03*
X129369999Y-91796999D03*
X126829999Y-91796999D03*
X103969999Y-46965999D03*
X103969999Y-49505999D03*
X152229999Y-73889999D03*
M02*
