G04 #@! TF.GenerationSoftware,KiCad,Pcbnew,(7.0.0)*
G04 #@! TF.CreationDate,2023-05-12T10:49:53+02:00*
G04 #@! TF.ProjectId,BMS_Project,424d535f-5072-46f6-9a65-63742e6b6963,rev?*
G04 #@! TF.SameCoordinates,Original*
G04 #@! TF.FileFunction,Legend,Bot*
G04 #@! TF.FilePolarity,Positive*
%FSLAX46Y46*%
G04 Gerber Fmt 4.6, Leading zero omitted, Abs format (unit mm)*
G04 Created by KiCad (PCBNEW (7.0.0)) date 2023-05-12 10:49:53*
%MOMM*%
%LPD*%
G01*
G04 APERTURE LIST*
G04 Aperture macros list*
%AMRoundRect*
0 Rectangle with rounded corners*
0 $1 Rounding radius*
0 $2 $3 $4 $5 $6 $7 $8 $9 X,Y pos of 4 corners*
0 Add a 4 corners polygon primitive as box body*
4,1,4,$2,$3,$4,$5,$6,$7,$8,$9,$2,$3,0*
0 Add four circle primitives for the rounded corners*
1,1,$1+$1,$2,$3*
1,1,$1+$1,$4,$5*
1,1,$1+$1,$6,$7*
1,1,$1+$1,$8,$9*
0 Add four rect primitives between the rounded corners*
20,1,$1+$1,$2,$3,$4,$5,0*
20,1,$1+$1,$4,$5,$6,$7,0*
20,1,$1+$1,$6,$7,$8,$9,0*
20,1,$1+$1,$8,$9,$2,$3,0*%
G04 Aperture macros list end*
%ADD10C,0.150000*%
%ADD11C,0.100000*%
%ADD12C,0.500000*%
%ADD13C,0.010000*%
%ADD14C,10.160000*%
%ADD15C,7.000000*%
%ADD16R,3.000000X3.000000*%
%ADD17C,3.000000*%
%ADD18RoundRect,0.500000X0.500000X-0.500000X0.500000X0.500000X-0.500000X0.500000X-0.500000X-0.500000X0*%
%ADD19RoundRect,0.250000X0.600000X-0.600000X0.600000X0.600000X-0.600000X0.600000X-0.600000X-0.600000X0*%
%ADD20C,1.700000*%
%ADD21R,1.600000X1.600000*%
%ADD22O,1.600000X1.600000*%
%ADD23C,3.500000*%
%ADD24R,1.700000X1.700000*%
%ADD25O,1.700000X1.700000*%
%ADD26O,2.200000X3.500000*%
%ADD27R,1.500000X2.500000*%
%ADD28O,1.500000X2.500000*%
%ADD29C,3.200000*%
%ADD30O,1.727200X1.727200*%
%ADD31R,1.727200X1.727200*%
G04 APERTURE END LIST*
D10*
X145604761Y-103922380D02*
X145033333Y-103922380D01*
X145319047Y-104922380D02*
X145319047Y-103922380D01*
X144699999Y-104255714D02*
X144699999Y-105112857D01*
X144699999Y-105112857D02*
X144747618Y-105208095D01*
X144747618Y-105208095D02*
X144842856Y-105255714D01*
X144842856Y-105255714D02*
X144890475Y-105255714D01*
X144699999Y-103922380D02*
X144747618Y-103970000D01*
X144747618Y-103970000D02*
X144699999Y-104017619D01*
X144699999Y-104017619D02*
X144652380Y-103970000D01*
X144652380Y-103970000D02*
X144699999Y-103922380D01*
X144699999Y-103922380D02*
X144699999Y-104017619D01*
X144080952Y-104922380D02*
X144176190Y-104874761D01*
X144176190Y-104874761D02*
X144223809Y-104827142D01*
X144223809Y-104827142D02*
X144271428Y-104731904D01*
X144271428Y-104731904D02*
X144271428Y-104446190D01*
X144271428Y-104446190D02*
X144223809Y-104350952D01*
X144223809Y-104350952D02*
X144176190Y-104303333D01*
X144176190Y-104303333D02*
X144080952Y-104255714D01*
X144080952Y-104255714D02*
X143938095Y-104255714D01*
X143938095Y-104255714D02*
X143842857Y-104303333D01*
X143842857Y-104303333D02*
X143795238Y-104350952D01*
X143795238Y-104350952D02*
X143747619Y-104446190D01*
X143747619Y-104446190D02*
X143747619Y-104731904D01*
X143747619Y-104731904D02*
X143795238Y-104827142D01*
X143795238Y-104827142D02*
X143842857Y-104874761D01*
X143842857Y-104874761D02*
X143938095Y-104922380D01*
X143938095Y-104922380D02*
X144080952Y-104922380D01*
X143319047Y-104922380D02*
X143319047Y-104255714D01*
X143319047Y-104446190D02*
X143271428Y-104350952D01*
X143271428Y-104350952D02*
X143223809Y-104303333D01*
X143223809Y-104303333D02*
X143128571Y-104255714D01*
X143128571Y-104255714D02*
X143033333Y-104255714D01*
X142795237Y-104255714D02*
X142557142Y-104922380D01*
X142557142Y-104922380D02*
X142319047Y-104255714D01*
X141557142Y-104874761D02*
X141652380Y-104922380D01*
X141652380Y-104922380D02*
X141842856Y-104922380D01*
X141842856Y-104922380D02*
X141938094Y-104874761D01*
X141938094Y-104874761D02*
X141985713Y-104779523D01*
X141985713Y-104779523D02*
X141985713Y-104398571D01*
X141985713Y-104398571D02*
X141938094Y-104303333D01*
X141938094Y-104303333D02*
X141842856Y-104255714D01*
X141842856Y-104255714D02*
X141652380Y-104255714D01*
X141652380Y-104255714D02*
X141557142Y-104303333D01*
X141557142Y-104303333D02*
X141509523Y-104398571D01*
X141509523Y-104398571D02*
X141509523Y-104493809D01*
X141509523Y-104493809D02*
X141985713Y-104589047D01*
X141080951Y-104255714D02*
X141080951Y-104922380D01*
X141080951Y-104350952D02*
X141033332Y-104303333D01*
X141033332Y-104303333D02*
X140938094Y-104255714D01*
X140938094Y-104255714D02*
X140795237Y-104255714D01*
X140795237Y-104255714D02*
X140699999Y-104303333D01*
X140699999Y-104303333D02*
X140652380Y-104398571D01*
X140652380Y-104398571D02*
X140652380Y-104922380D01*
X139576189Y-104922380D02*
X139576189Y-103922380D01*
X139576189Y-104398571D02*
X139004761Y-104398571D01*
X139004761Y-104922380D02*
X139004761Y-103922380D01*
X138528570Y-104922380D02*
X138528570Y-104255714D01*
X138528570Y-103922380D02*
X138576189Y-103970000D01*
X138576189Y-103970000D02*
X138528570Y-104017619D01*
X138528570Y-104017619D02*
X138480951Y-103970000D01*
X138480951Y-103970000D02*
X138528570Y-103922380D01*
X138528570Y-103922380D02*
X138528570Y-104017619D01*
X137909523Y-104922380D02*
X138004761Y-104874761D01*
X138004761Y-104874761D02*
X138052380Y-104779523D01*
X138052380Y-104779523D02*
X138052380Y-103922380D01*
X137385713Y-104922380D02*
X137480951Y-104874761D01*
X137480951Y-104874761D02*
X137528570Y-104779523D01*
X137528570Y-104779523D02*
X137528570Y-103922380D01*
X137004760Y-104922380D02*
X137004760Y-104255714D01*
X137004760Y-104350952D02*
X136957141Y-104303333D01*
X136957141Y-104303333D02*
X136861903Y-104255714D01*
X136861903Y-104255714D02*
X136719046Y-104255714D01*
X136719046Y-104255714D02*
X136623808Y-104303333D01*
X136623808Y-104303333D02*
X136576189Y-104398571D01*
X136576189Y-104398571D02*
X136576189Y-104922380D01*
X136576189Y-104398571D02*
X136528570Y-104303333D01*
X136528570Y-104303333D02*
X136433332Y-104255714D01*
X136433332Y-104255714D02*
X136290475Y-104255714D01*
X136290475Y-104255714D02*
X136195236Y-104303333D01*
X136195236Y-104303333D02*
X136147617Y-104398571D01*
X136147617Y-104398571D02*
X136147617Y-104922380D01*
X135242856Y-104922380D02*
X135242856Y-104398571D01*
X135242856Y-104398571D02*
X135290475Y-104303333D01*
X135290475Y-104303333D02*
X135385713Y-104255714D01*
X135385713Y-104255714D02*
X135576189Y-104255714D01*
X135576189Y-104255714D02*
X135671427Y-104303333D01*
X135242856Y-104874761D02*
X135338094Y-104922380D01*
X135338094Y-104922380D02*
X135576189Y-104922380D01*
X135576189Y-104922380D02*
X135671427Y-104874761D01*
X135671427Y-104874761D02*
X135719046Y-104779523D01*
X135719046Y-104779523D02*
X135719046Y-104684285D01*
X135719046Y-104684285D02*
X135671427Y-104589047D01*
X135671427Y-104589047D02*
X135576189Y-104541428D01*
X135576189Y-104541428D02*
X135338094Y-104541428D01*
X135338094Y-104541428D02*
X135242856Y-104493809D01*
X134766665Y-104255714D02*
X134766665Y-104922380D01*
X134766665Y-104350952D02*
X134719046Y-104303333D01*
X134719046Y-104303333D02*
X134623808Y-104255714D01*
X134623808Y-104255714D02*
X134480951Y-104255714D01*
X134480951Y-104255714D02*
X134385713Y-104303333D01*
X134385713Y-104303333D02*
X134338094Y-104398571D01*
X134338094Y-104398571D02*
X134338094Y-104922380D01*
X133861903Y-104255714D02*
X133861903Y-104922380D01*
X133861903Y-104350952D02*
X133814284Y-104303333D01*
X133814284Y-104303333D02*
X133719046Y-104255714D01*
X133719046Y-104255714D02*
X133576189Y-104255714D01*
X133576189Y-104255714D02*
X133480951Y-104303333D01*
X133480951Y-104303333D02*
X133433332Y-104398571D01*
X133433332Y-104398571D02*
X133433332Y-104922380D01*
X145557142Y-105542380D02*
X145319047Y-106542380D01*
X145319047Y-106542380D02*
X145128571Y-105828095D01*
X145128571Y-105828095D02*
X144938095Y-106542380D01*
X144938095Y-106542380D02*
X144700000Y-105542380D01*
X144319047Y-106542380D02*
X144319047Y-105875714D01*
X144319047Y-105542380D02*
X144366666Y-105590000D01*
X144366666Y-105590000D02*
X144319047Y-105637619D01*
X144319047Y-105637619D02*
X144271428Y-105590000D01*
X144271428Y-105590000D02*
X144319047Y-105542380D01*
X144319047Y-105542380D02*
X144319047Y-105637619D01*
X143700000Y-106542380D02*
X143795238Y-106494761D01*
X143795238Y-106494761D02*
X143842857Y-106399523D01*
X143842857Y-106399523D02*
X143842857Y-105542380D01*
X143319047Y-106542380D02*
X143319047Y-105542380D01*
X143223809Y-106161428D02*
X142938095Y-106542380D01*
X142938095Y-105875714D02*
X143319047Y-106256666D01*
X142128571Y-106494761D02*
X142223809Y-106542380D01*
X142223809Y-106542380D02*
X142414285Y-106542380D01*
X142414285Y-106542380D02*
X142509523Y-106494761D01*
X142509523Y-106494761D02*
X142557142Y-106399523D01*
X142557142Y-106399523D02*
X142557142Y-106018571D01*
X142557142Y-106018571D02*
X142509523Y-105923333D01*
X142509523Y-105923333D02*
X142414285Y-105875714D01*
X142414285Y-105875714D02*
X142223809Y-105875714D01*
X142223809Y-105875714D02*
X142128571Y-105923333D01*
X142128571Y-105923333D02*
X142080952Y-106018571D01*
X142080952Y-106018571D02*
X142080952Y-106113809D01*
X142080952Y-106113809D02*
X142557142Y-106209047D01*
X141652380Y-105875714D02*
X141652380Y-106542380D01*
X141652380Y-105970952D02*
X141604761Y-105923333D01*
X141604761Y-105923333D02*
X141509523Y-105875714D01*
X141509523Y-105875714D02*
X141366666Y-105875714D01*
X141366666Y-105875714D02*
X141271428Y-105923333D01*
X141271428Y-105923333D02*
X141223809Y-106018571D01*
X141223809Y-106018571D02*
X141223809Y-106542380D01*
X140147618Y-106542380D02*
X140147618Y-105542380D01*
X140147618Y-106018571D02*
X139576190Y-106018571D01*
X139576190Y-106542380D02*
X139576190Y-105542380D01*
X138719047Y-106494761D02*
X138814285Y-106542380D01*
X138814285Y-106542380D02*
X139004761Y-106542380D01*
X139004761Y-106542380D02*
X139099999Y-106494761D01*
X139099999Y-106494761D02*
X139147618Y-106399523D01*
X139147618Y-106399523D02*
X139147618Y-106018571D01*
X139147618Y-106018571D02*
X139099999Y-105923333D01*
X139099999Y-105923333D02*
X139004761Y-105875714D01*
X139004761Y-105875714D02*
X138814285Y-105875714D01*
X138814285Y-105875714D02*
X138719047Y-105923333D01*
X138719047Y-105923333D02*
X138671428Y-106018571D01*
X138671428Y-106018571D02*
X138671428Y-106113809D01*
X138671428Y-106113809D02*
X139147618Y-106209047D01*
X138242856Y-106542380D02*
X138242856Y-105875714D01*
X138242856Y-105970952D02*
X138195237Y-105923333D01*
X138195237Y-105923333D02*
X138099999Y-105875714D01*
X138099999Y-105875714D02*
X137957142Y-105875714D01*
X137957142Y-105875714D02*
X137861904Y-105923333D01*
X137861904Y-105923333D02*
X137814285Y-106018571D01*
X137814285Y-106018571D02*
X137814285Y-106542380D01*
X137814285Y-106018571D02*
X137766666Y-105923333D01*
X137766666Y-105923333D02*
X137671428Y-105875714D01*
X137671428Y-105875714D02*
X137528571Y-105875714D01*
X137528571Y-105875714D02*
X137433332Y-105923333D01*
X137433332Y-105923333D02*
X137385713Y-106018571D01*
X137385713Y-106018571D02*
X137385713Y-106542380D01*
X136909523Y-106542380D02*
X136909523Y-105875714D01*
X136909523Y-105970952D02*
X136861904Y-105923333D01*
X136861904Y-105923333D02*
X136766666Y-105875714D01*
X136766666Y-105875714D02*
X136623809Y-105875714D01*
X136623809Y-105875714D02*
X136528571Y-105923333D01*
X136528571Y-105923333D02*
X136480952Y-106018571D01*
X136480952Y-106018571D02*
X136480952Y-106542380D01*
X136480952Y-106018571D02*
X136433333Y-105923333D01*
X136433333Y-105923333D02*
X136338095Y-105875714D01*
X136338095Y-105875714D02*
X136195238Y-105875714D01*
X136195238Y-105875714D02*
X136099999Y-105923333D01*
X136099999Y-105923333D02*
X136052380Y-106018571D01*
X136052380Y-106018571D02*
X136052380Y-106542380D01*
X135195238Y-106494761D02*
X135290476Y-106542380D01*
X135290476Y-106542380D02*
X135480952Y-106542380D01*
X135480952Y-106542380D02*
X135576190Y-106494761D01*
X135576190Y-106494761D02*
X135623809Y-106399523D01*
X135623809Y-106399523D02*
X135623809Y-106018571D01*
X135623809Y-106018571D02*
X135576190Y-105923333D01*
X135576190Y-105923333D02*
X135480952Y-105875714D01*
X135480952Y-105875714D02*
X135290476Y-105875714D01*
X135290476Y-105875714D02*
X135195238Y-105923333D01*
X135195238Y-105923333D02*
X135147619Y-106018571D01*
X135147619Y-106018571D02*
X135147619Y-106113809D01*
X135147619Y-106113809D02*
X135623809Y-106209047D01*
X145461904Y-108162380D02*
X145461904Y-107162380D01*
X145461904Y-107638571D02*
X144890476Y-107638571D01*
X144890476Y-108162380D02*
X144890476Y-107162380D01*
X144033333Y-108114761D02*
X144128571Y-108162380D01*
X144128571Y-108162380D02*
X144319047Y-108162380D01*
X144319047Y-108162380D02*
X144414285Y-108114761D01*
X144414285Y-108114761D02*
X144461904Y-108019523D01*
X144461904Y-108019523D02*
X144461904Y-107638571D01*
X144461904Y-107638571D02*
X144414285Y-107543333D01*
X144414285Y-107543333D02*
X144319047Y-107495714D01*
X144319047Y-107495714D02*
X144128571Y-107495714D01*
X144128571Y-107495714D02*
X144033333Y-107543333D01*
X144033333Y-107543333D02*
X143985714Y-107638571D01*
X143985714Y-107638571D02*
X143985714Y-107733809D01*
X143985714Y-107733809D02*
X144461904Y-107829047D01*
X143557142Y-107495714D02*
X143557142Y-108162380D01*
X143557142Y-107590952D02*
X143509523Y-107543333D01*
X143509523Y-107543333D02*
X143414285Y-107495714D01*
X143414285Y-107495714D02*
X143271428Y-107495714D01*
X143271428Y-107495714D02*
X143176190Y-107543333D01*
X143176190Y-107543333D02*
X143128571Y-107638571D01*
X143128571Y-107638571D02*
X143128571Y-108162380D01*
X142652380Y-108162380D02*
X142652380Y-107495714D01*
X142652380Y-107686190D02*
X142604761Y-107590952D01*
X142604761Y-107590952D02*
X142557142Y-107543333D01*
X142557142Y-107543333D02*
X142461904Y-107495714D01*
X142461904Y-107495714D02*
X142366666Y-107495714D01*
X142128570Y-107495714D02*
X141890475Y-108162380D01*
X141652380Y-107495714D02*
X141890475Y-108162380D01*
X141890475Y-108162380D02*
X141985713Y-108400476D01*
X141985713Y-108400476D02*
X142033332Y-108448095D01*
X142033332Y-108448095D02*
X142128570Y-108495714D01*
X140671427Y-108162380D02*
X140671427Y-107162380D01*
X140671427Y-107162380D02*
X140290475Y-107162380D01*
X140290475Y-107162380D02*
X140195237Y-107210000D01*
X140195237Y-107210000D02*
X140147618Y-107257619D01*
X140147618Y-107257619D02*
X140099999Y-107352857D01*
X140099999Y-107352857D02*
X140099999Y-107495714D01*
X140099999Y-107495714D02*
X140147618Y-107590952D01*
X140147618Y-107590952D02*
X140195237Y-107638571D01*
X140195237Y-107638571D02*
X140290475Y-107686190D01*
X140290475Y-107686190D02*
X140671427Y-107686190D01*
X139242856Y-108162380D02*
X139242856Y-107638571D01*
X139242856Y-107638571D02*
X139290475Y-107543333D01*
X139290475Y-107543333D02*
X139385713Y-107495714D01*
X139385713Y-107495714D02*
X139576189Y-107495714D01*
X139576189Y-107495714D02*
X139671427Y-107543333D01*
X139242856Y-108114761D02*
X139338094Y-108162380D01*
X139338094Y-108162380D02*
X139576189Y-108162380D01*
X139576189Y-108162380D02*
X139671427Y-108114761D01*
X139671427Y-108114761D02*
X139719046Y-108019523D01*
X139719046Y-108019523D02*
X139719046Y-107924285D01*
X139719046Y-107924285D02*
X139671427Y-107829047D01*
X139671427Y-107829047D02*
X139576189Y-107781428D01*
X139576189Y-107781428D02*
X139338094Y-107781428D01*
X139338094Y-107781428D02*
X139242856Y-107733809D01*
X138814284Y-108114761D02*
X138719046Y-108162380D01*
X138719046Y-108162380D02*
X138528570Y-108162380D01*
X138528570Y-108162380D02*
X138433332Y-108114761D01*
X138433332Y-108114761D02*
X138385713Y-108019523D01*
X138385713Y-108019523D02*
X138385713Y-107971904D01*
X138385713Y-107971904D02*
X138433332Y-107876666D01*
X138433332Y-107876666D02*
X138528570Y-107829047D01*
X138528570Y-107829047D02*
X138671427Y-107829047D01*
X138671427Y-107829047D02*
X138766665Y-107781428D01*
X138766665Y-107781428D02*
X138814284Y-107686190D01*
X138814284Y-107686190D02*
X138814284Y-107638571D01*
X138814284Y-107638571D02*
X138766665Y-107543333D01*
X138766665Y-107543333D02*
X138671427Y-107495714D01*
X138671427Y-107495714D02*
X138528570Y-107495714D01*
X138528570Y-107495714D02*
X138433332Y-107543333D01*
X137528570Y-108114761D02*
X137623808Y-108162380D01*
X137623808Y-108162380D02*
X137814284Y-108162380D01*
X137814284Y-108162380D02*
X137909522Y-108114761D01*
X137909522Y-108114761D02*
X137957141Y-108067142D01*
X137957141Y-108067142D02*
X138004760Y-107971904D01*
X138004760Y-107971904D02*
X138004760Y-107686190D01*
X138004760Y-107686190D02*
X137957141Y-107590952D01*
X137957141Y-107590952D02*
X137909522Y-107543333D01*
X137909522Y-107543333D02*
X137814284Y-107495714D01*
X137814284Y-107495714D02*
X137623808Y-107495714D01*
X137623808Y-107495714D02*
X137528570Y-107543333D01*
X137099998Y-108162380D02*
X137099998Y-107162380D01*
X136671427Y-108162380D02*
X136671427Y-107638571D01*
X136671427Y-107638571D02*
X136719046Y-107543333D01*
X136719046Y-107543333D02*
X136814284Y-107495714D01*
X136814284Y-107495714D02*
X136957141Y-107495714D01*
X136957141Y-107495714D02*
X137052379Y-107543333D01*
X137052379Y-107543333D02*
X137099998Y-107590952D01*
X145461904Y-109782380D02*
X145461904Y-108782380D01*
X145461904Y-108782380D02*
X145128571Y-109496666D01*
X145128571Y-109496666D02*
X144795238Y-108782380D01*
X144795238Y-108782380D02*
X144795238Y-109782380D01*
X144319047Y-109782380D02*
X144319047Y-109115714D01*
X144319047Y-108782380D02*
X144366666Y-108830000D01*
X144366666Y-108830000D02*
X144319047Y-108877619D01*
X144319047Y-108877619D02*
X144271428Y-108830000D01*
X144271428Y-108830000D02*
X144319047Y-108782380D01*
X144319047Y-108782380D02*
X144319047Y-108877619D01*
X143414286Y-109734761D02*
X143509524Y-109782380D01*
X143509524Y-109782380D02*
X143700000Y-109782380D01*
X143700000Y-109782380D02*
X143795238Y-109734761D01*
X143795238Y-109734761D02*
X143842857Y-109687142D01*
X143842857Y-109687142D02*
X143890476Y-109591904D01*
X143890476Y-109591904D02*
X143890476Y-109306190D01*
X143890476Y-109306190D02*
X143842857Y-109210952D01*
X143842857Y-109210952D02*
X143795238Y-109163333D01*
X143795238Y-109163333D02*
X143700000Y-109115714D01*
X143700000Y-109115714D02*
X143509524Y-109115714D01*
X143509524Y-109115714D02*
X143414286Y-109163333D01*
X142985714Y-109782380D02*
X142985714Y-108782380D01*
X142557143Y-109782380D02*
X142557143Y-109258571D01*
X142557143Y-109258571D02*
X142604762Y-109163333D01*
X142604762Y-109163333D02*
X142700000Y-109115714D01*
X142700000Y-109115714D02*
X142842857Y-109115714D01*
X142842857Y-109115714D02*
X142938095Y-109163333D01*
X142938095Y-109163333D02*
X142985714Y-109210952D01*
X141652381Y-109782380D02*
X141652381Y-109258571D01*
X141652381Y-109258571D02*
X141700000Y-109163333D01*
X141700000Y-109163333D02*
X141795238Y-109115714D01*
X141795238Y-109115714D02*
X141985714Y-109115714D01*
X141985714Y-109115714D02*
X142080952Y-109163333D01*
X141652381Y-109734761D02*
X141747619Y-109782380D01*
X141747619Y-109782380D02*
X141985714Y-109782380D01*
X141985714Y-109782380D02*
X142080952Y-109734761D01*
X142080952Y-109734761D02*
X142128571Y-109639523D01*
X142128571Y-109639523D02*
X142128571Y-109544285D01*
X142128571Y-109544285D02*
X142080952Y-109449047D01*
X142080952Y-109449047D02*
X141985714Y-109401428D01*
X141985714Y-109401428D02*
X141747619Y-109401428D01*
X141747619Y-109401428D02*
X141652381Y-109353809D01*
X140795238Y-109734761D02*
X140890476Y-109782380D01*
X140890476Y-109782380D02*
X141080952Y-109782380D01*
X141080952Y-109782380D02*
X141176190Y-109734761D01*
X141176190Y-109734761D02*
X141223809Y-109639523D01*
X141223809Y-109639523D02*
X141223809Y-109258571D01*
X141223809Y-109258571D02*
X141176190Y-109163333D01*
X141176190Y-109163333D02*
X141080952Y-109115714D01*
X141080952Y-109115714D02*
X140890476Y-109115714D01*
X140890476Y-109115714D02*
X140795238Y-109163333D01*
X140795238Y-109163333D02*
X140747619Y-109258571D01*
X140747619Y-109258571D02*
X140747619Y-109353809D01*
X140747619Y-109353809D02*
X141223809Y-109449047D01*
X140176190Y-109782380D02*
X140271428Y-109734761D01*
X140271428Y-109734761D02*
X140319047Y-109639523D01*
X140319047Y-109639523D02*
X140319047Y-108782380D01*
X139290475Y-108782380D02*
X139052380Y-109782380D01*
X139052380Y-109782380D02*
X138861904Y-109068095D01*
X138861904Y-109068095D02*
X138671428Y-109782380D01*
X138671428Y-109782380D02*
X138433333Y-108782380D01*
X138052380Y-109782380D02*
X138052380Y-109115714D01*
X138052380Y-108782380D02*
X138099999Y-108830000D01*
X138099999Y-108830000D02*
X138052380Y-108877619D01*
X138052380Y-108877619D02*
X138004761Y-108830000D01*
X138004761Y-108830000D02*
X138052380Y-108782380D01*
X138052380Y-108782380D02*
X138052380Y-108877619D01*
X137719047Y-109115714D02*
X137338095Y-109115714D01*
X137576190Y-108782380D02*
X137576190Y-109639523D01*
X137576190Y-109639523D02*
X137528571Y-109734761D01*
X137528571Y-109734761D02*
X137433333Y-109782380D01*
X137433333Y-109782380D02*
X137338095Y-109782380D01*
X137147618Y-109115714D02*
X136766666Y-109115714D01*
X137004761Y-108782380D02*
X137004761Y-109639523D01*
X137004761Y-109639523D02*
X136957142Y-109734761D01*
X136957142Y-109734761D02*
X136861904Y-109782380D01*
X136861904Y-109782380D02*
X136766666Y-109782380D01*
X136433332Y-109782380D02*
X136433332Y-109115714D01*
X136433332Y-108782380D02*
X136480951Y-108830000D01*
X136480951Y-108830000D02*
X136433332Y-108877619D01*
X136433332Y-108877619D02*
X136385713Y-108830000D01*
X136385713Y-108830000D02*
X136433332Y-108782380D01*
X136433332Y-108782380D02*
X136433332Y-108877619D01*
X145176190Y-110402380D02*
X145176190Y-111116666D01*
X145176190Y-111116666D02*
X145223809Y-111259523D01*
X145223809Y-111259523D02*
X145319047Y-111354761D01*
X145319047Y-111354761D02*
X145461904Y-111402380D01*
X145461904Y-111402380D02*
X145557142Y-111402380D01*
X144557142Y-111402380D02*
X144652380Y-111354761D01*
X144652380Y-111354761D02*
X144699999Y-111307142D01*
X144699999Y-111307142D02*
X144747618Y-111211904D01*
X144747618Y-111211904D02*
X144747618Y-110926190D01*
X144747618Y-110926190D02*
X144699999Y-110830952D01*
X144699999Y-110830952D02*
X144652380Y-110783333D01*
X144652380Y-110783333D02*
X144557142Y-110735714D01*
X144557142Y-110735714D02*
X144414285Y-110735714D01*
X144414285Y-110735714D02*
X144319047Y-110783333D01*
X144319047Y-110783333D02*
X144271428Y-110830952D01*
X144271428Y-110830952D02*
X144223809Y-110926190D01*
X144223809Y-110926190D02*
X144223809Y-111211904D01*
X144223809Y-111211904D02*
X144271428Y-111307142D01*
X144271428Y-111307142D02*
X144319047Y-111354761D01*
X144319047Y-111354761D02*
X144414285Y-111402380D01*
X144414285Y-111402380D02*
X144557142Y-111402380D01*
X143795237Y-110735714D02*
X143795237Y-111402380D01*
X143795237Y-110830952D02*
X143747618Y-110783333D01*
X143747618Y-110783333D02*
X143652380Y-110735714D01*
X143652380Y-110735714D02*
X143509523Y-110735714D01*
X143509523Y-110735714D02*
X143414285Y-110783333D01*
X143414285Y-110783333D02*
X143366666Y-110878571D01*
X143366666Y-110878571D02*
X143366666Y-111402380D01*
X142461904Y-111402380D02*
X142461904Y-110878571D01*
X142461904Y-110878571D02*
X142509523Y-110783333D01*
X142509523Y-110783333D02*
X142604761Y-110735714D01*
X142604761Y-110735714D02*
X142795237Y-110735714D01*
X142795237Y-110735714D02*
X142890475Y-110783333D01*
X142461904Y-111354761D02*
X142557142Y-111402380D01*
X142557142Y-111402380D02*
X142795237Y-111402380D01*
X142795237Y-111402380D02*
X142890475Y-111354761D01*
X142890475Y-111354761D02*
X142938094Y-111259523D01*
X142938094Y-111259523D02*
X142938094Y-111164285D01*
X142938094Y-111164285D02*
X142890475Y-111069047D01*
X142890475Y-111069047D02*
X142795237Y-111021428D01*
X142795237Y-111021428D02*
X142557142Y-111021428D01*
X142557142Y-111021428D02*
X142461904Y-110973809D01*
X142128570Y-110735714D02*
X141747618Y-110735714D01*
X141985713Y-110402380D02*
X141985713Y-111259523D01*
X141985713Y-111259523D02*
X141938094Y-111354761D01*
X141938094Y-111354761D02*
X141842856Y-111402380D01*
X141842856Y-111402380D02*
X141747618Y-111402380D01*
X141414284Y-111402380D02*
X141414284Y-110402380D01*
X140985713Y-111402380D02*
X140985713Y-110878571D01*
X140985713Y-110878571D02*
X141033332Y-110783333D01*
X141033332Y-110783333D02*
X141128570Y-110735714D01*
X141128570Y-110735714D02*
X141271427Y-110735714D01*
X141271427Y-110735714D02*
X141366665Y-110783333D01*
X141366665Y-110783333D02*
X141414284Y-110830952D01*
X140080951Y-111402380D02*
X140080951Y-110878571D01*
X140080951Y-110878571D02*
X140128570Y-110783333D01*
X140128570Y-110783333D02*
X140223808Y-110735714D01*
X140223808Y-110735714D02*
X140414284Y-110735714D01*
X140414284Y-110735714D02*
X140509522Y-110783333D01*
X140080951Y-111354761D02*
X140176189Y-111402380D01*
X140176189Y-111402380D02*
X140414284Y-111402380D01*
X140414284Y-111402380D02*
X140509522Y-111354761D01*
X140509522Y-111354761D02*
X140557141Y-111259523D01*
X140557141Y-111259523D02*
X140557141Y-111164285D01*
X140557141Y-111164285D02*
X140509522Y-111069047D01*
X140509522Y-111069047D02*
X140414284Y-111021428D01*
X140414284Y-111021428D02*
X140176189Y-111021428D01*
X140176189Y-111021428D02*
X140080951Y-110973809D01*
X139604760Y-110735714D02*
X139604760Y-111402380D01*
X139604760Y-110830952D02*
X139557141Y-110783333D01*
X139557141Y-110783333D02*
X139461903Y-110735714D01*
X139461903Y-110735714D02*
X139319046Y-110735714D01*
X139319046Y-110735714D02*
X139223808Y-110783333D01*
X139223808Y-110783333D02*
X139176189Y-110878571D01*
X139176189Y-110878571D02*
X139176189Y-111402380D01*
X137766665Y-110878571D02*
X137623808Y-110926190D01*
X137623808Y-110926190D02*
X137576189Y-110973809D01*
X137576189Y-110973809D02*
X137528570Y-111069047D01*
X137528570Y-111069047D02*
X137528570Y-111211904D01*
X137528570Y-111211904D02*
X137576189Y-111307142D01*
X137576189Y-111307142D02*
X137623808Y-111354761D01*
X137623808Y-111354761D02*
X137719046Y-111402380D01*
X137719046Y-111402380D02*
X138099998Y-111402380D01*
X138099998Y-111402380D02*
X138099998Y-110402380D01*
X138099998Y-110402380D02*
X137766665Y-110402380D01*
X137766665Y-110402380D02*
X137671427Y-110450000D01*
X137671427Y-110450000D02*
X137623808Y-110497619D01*
X137623808Y-110497619D02*
X137576189Y-110592857D01*
X137576189Y-110592857D02*
X137576189Y-110688095D01*
X137576189Y-110688095D02*
X137623808Y-110783333D01*
X137623808Y-110783333D02*
X137671427Y-110830952D01*
X137671427Y-110830952D02*
X137766665Y-110878571D01*
X137766665Y-110878571D02*
X138099998Y-110878571D01*
X136957141Y-111402380D02*
X137052379Y-111354761D01*
X137052379Y-111354761D02*
X137099998Y-111307142D01*
X137099998Y-111307142D02*
X137147617Y-111211904D01*
X137147617Y-111211904D02*
X137147617Y-110926190D01*
X137147617Y-110926190D02*
X137099998Y-110830952D01*
X137099998Y-110830952D02*
X137052379Y-110783333D01*
X137052379Y-110783333D02*
X136957141Y-110735714D01*
X136957141Y-110735714D02*
X136814284Y-110735714D01*
X136814284Y-110735714D02*
X136719046Y-110783333D01*
X136719046Y-110783333D02*
X136671427Y-110830952D01*
X136671427Y-110830952D02*
X136623808Y-110926190D01*
X136623808Y-110926190D02*
X136623808Y-111211904D01*
X136623808Y-111211904D02*
X136671427Y-111307142D01*
X136671427Y-111307142D02*
X136719046Y-111354761D01*
X136719046Y-111354761D02*
X136814284Y-111402380D01*
X136814284Y-111402380D02*
X136957141Y-111402380D01*
X137052379Y-110402380D02*
X137004760Y-110450000D01*
X137004760Y-110450000D02*
X137052379Y-110497619D01*
X137052379Y-110497619D02*
X137099998Y-110450000D01*
X137099998Y-110450000D02*
X137052379Y-110402380D01*
X137052379Y-110402380D02*
X137052379Y-110497619D01*
X136671427Y-110402380D02*
X136623808Y-110450000D01*
X136623808Y-110450000D02*
X136671427Y-110497619D01*
X136671427Y-110497619D02*
X136719046Y-110450000D01*
X136719046Y-110450000D02*
X136671427Y-110402380D01*
X136671427Y-110402380D02*
X136671427Y-110497619D01*
X136195236Y-111402380D02*
X136195236Y-110402380D01*
X136099998Y-111021428D02*
X135814284Y-111402380D01*
X135814284Y-110735714D02*
X136195236Y-111116666D01*
X135004760Y-111354761D02*
X135099998Y-111402380D01*
X135099998Y-111402380D02*
X135290474Y-111402380D01*
X135290474Y-111402380D02*
X135385712Y-111354761D01*
X135385712Y-111354761D02*
X135433331Y-111259523D01*
X135433331Y-111259523D02*
X135433331Y-110878571D01*
X135433331Y-110878571D02*
X135385712Y-110783333D01*
X135385712Y-110783333D02*
X135290474Y-110735714D01*
X135290474Y-110735714D02*
X135099998Y-110735714D01*
X135099998Y-110735714D02*
X135004760Y-110783333D01*
X135004760Y-110783333D02*
X134957141Y-110878571D01*
X134957141Y-110878571D02*
X134957141Y-110973809D01*
X134957141Y-110973809D02*
X135433331Y-111069047D01*
X145128571Y-112498571D02*
X145461904Y-112498571D01*
X145461904Y-113022380D02*
X145461904Y-112022380D01*
X145461904Y-112022380D02*
X144985714Y-112022380D01*
X144176190Y-113022380D02*
X144176190Y-112498571D01*
X144176190Y-112498571D02*
X144223809Y-112403333D01*
X144223809Y-112403333D02*
X144319047Y-112355714D01*
X144319047Y-112355714D02*
X144509523Y-112355714D01*
X144509523Y-112355714D02*
X144604761Y-112403333D01*
X144176190Y-112974761D02*
X144271428Y-113022380D01*
X144271428Y-113022380D02*
X144509523Y-113022380D01*
X144509523Y-113022380D02*
X144604761Y-112974761D01*
X144604761Y-112974761D02*
X144652380Y-112879523D01*
X144652380Y-112879523D02*
X144652380Y-112784285D01*
X144652380Y-112784285D02*
X144604761Y-112689047D01*
X144604761Y-112689047D02*
X144509523Y-112641428D01*
X144509523Y-112641428D02*
X144271428Y-112641428D01*
X144271428Y-112641428D02*
X144176190Y-112593809D01*
X143699999Y-113022380D02*
X143699999Y-112022380D01*
X143699999Y-112403333D02*
X143604761Y-112355714D01*
X143604761Y-112355714D02*
X143414285Y-112355714D01*
X143414285Y-112355714D02*
X143319047Y-112403333D01*
X143319047Y-112403333D02*
X143271428Y-112450952D01*
X143271428Y-112450952D02*
X143223809Y-112546190D01*
X143223809Y-112546190D02*
X143223809Y-112831904D01*
X143223809Y-112831904D02*
X143271428Y-112927142D01*
X143271428Y-112927142D02*
X143319047Y-112974761D01*
X143319047Y-112974761D02*
X143414285Y-113022380D01*
X143414285Y-113022380D02*
X143604761Y-113022380D01*
X143604761Y-113022380D02*
X143699999Y-112974761D01*
X142795237Y-113022380D02*
X142795237Y-112355714D01*
X142795237Y-112022380D02*
X142842856Y-112070000D01*
X142842856Y-112070000D02*
X142795237Y-112117619D01*
X142795237Y-112117619D02*
X142747618Y-112070000D01*
X142747618Y-112070000D02*
X142795237Y-112022380D01*
X142795237Y-112022380D02*
X142795237Y-112117619D01*
X141890476Y-113022380D02*
X141890476Y-112498571D01*
X141890476Y-112498571D02*
X141938095Y-112403333D01*
X141938095Y-112403333D02*
X142033333Y-112355714D01*
X142033333Y-112355714D02*
X142223809Y-112355714D01*
X142223809Y-112355714D02*
X142319047Y-112403333D01*
X141890476Y-112974761D02*
X141985714Y-113022380D01*
X141985714Y-113022380D02*
X142223809Y-113022380D01*
X142223809Y-113022380D02*
X142319047Y-112974761D01*
X142319047Y-112974761D02*
X142366666Y-112879523D01*
X142366666Y-112879523D02*
X142366666Y-112784285D01*
X142366666Y-112784285D02*
X142319047Y-112689047D01*
X142319047Y-112689047D02*
X142223809Y-112641428D01*
X142223809Y-112641428D02*
X141985714Y-112641428D01*
X141985714Y-112641428D02*
X141890476Y-112593809D01*
X141414285Y-112355714D02*
X141414285Y-113022380D01*
X141414285Y-112450952D02*
X141366666Y-112403333D01*
X141366666Y-112403333D02*
X141271428Y-112355714D01*
X141271428Y-112355714D02*
X141128571Y-112355714D01*
X141128571Y-112355714D02*
X141033333Y-112403333D01*
X141033333Y-112403333D02*
X140985714Y-112498571D01*
X140985714Y-112498571D02*
X140985714Y-113022380D01*
X139909523Y-113022380D02*
X139909523Y-112022380D01*
X139909523Y-112022380D02*
X139576190Y-112736666D01*
X139576190Y-112736666D02*
X139242857Y-112022380D01*
X139242857Y-112022380D02*
X139242857Y-113022380D01*
X138338095Y-113022380D02*
X138338095Y-112498571D01*
X138338095Y-112498571D02*
X138385714Y-112403333D01*
X138385714Y-112403333D02*
X138480952Y-112355714D01*
X138480952Y-112355714D02*
X138671428Y-112355714D01*
X138671428Y-112355714D02*
X138766666Y-112403333D01*
X138338095Y-112974761D02*
X138433333Y-113022380D01*
X138433333Y-113022380D02*
X138671428Y-113022380D01*
X138671428Y-113022380D02*
X138766666Y-112974761D01*
X138766666Y-112974761D02*
X138814285Y-112879523D01*
X138814285Y-112879523D02*
X138814285Y-112784285D01*
X138814285Y-112784285D02*
X138766666Y-112689047D01*
X138766666Y-112689047D02*
X138671428Y-112641428D01*
X138671428Y-112641428D02*
X138433333Y-112641428D01*
X138433333Y-112641428D02*
X138338095Y-112593809D01*
X137909523Y-112974761D02*
X137814285Y-113022380D01*
X137814285Y-113022380D02*
X137623809Y-113022380D01*
X137623809Y-113022380D02*
X137528571Y-112974761D01*
X137528571Y-112974761D02*
X137480952Y-112879523D01*
X137480952Y-112879523D02*
X137480952Y-112831904D01*
X137480952Y-112831904D02*
X137528571Y-112736666D01*
X137528571Y-112736666D02*
X137623809Y-112689047D01*
X137623809Y-112689047D02*
X137766666Y-112689047D01*
X137766666Y-112689047D02*
X137861904Y-112641428D01*
X137861904Y-112641428D02*
X137909523Y-112546190D01*
X137909523Y-112546190D02*
X137909523Y-112498571D01*
X137909523Y-112498571D02*
X137861904Y-112403333D01*
X137861904Y-112403333D02*
X137766666Y-112355714D01*
X137766666Y-112355714D02*
X137623809Y-112355714D01*
X137623809Y-112355714D02*
X137528571Y-112403333D01*
X137195237Y-112355714D02*
X136814285Y-112355714D01*
X137052380Y-112022380D02*
X137052380Y-112879523D01*
X137052380Y-112879523D02*
X137004761Y-112974761D01*
X137004761Y-112974761D02*
X136909523Y-113022380D01*
X136909523Y-113022380D02*
X136814285Y-113022380D01*
X144938095Y-113690000D02*
X145033333Y-113642380D01*
X145033333Y-113642380D02*
X145176190Y-113642380D01*
X145176190Y-113642380D02*
X145319047Y-113690000D01*
X145319047Y-113690000D02*
X145414285Y-113785238D01*
X145414285Y-113785238D02*
X145461904Y-113880476D01*
X145461904Y-113880476D02*
X145509523Y-114070952D01*
X145509523Y-114070952D02*
X145509523Y-114213809D01*
X145509523Y-114213809D02*
X145461904Y-114404285D01*
X145461904Y-114404285D02*
X145414285Y-114499523D01*
X145414285Y-114499523D02*
X145319047Y-114594761D01*
X145319047Y-114594761D02*
X145176190Y-114642380D01*
X145176190Y-114642380D02*
X145080952Y-114642380D01*
X145080952Y-114642380D02*
X144938095Y-114594761D01*
X144938095Y-114594761D02*
X144890476Y-114547142D01*
X144890476Y-114547142D02*
X144890476Y-114213809D01*
X144890476Y-114213809D02*
X145080952Y-114213809D01*
X144461904Y-114642380D02*
X144461904Y-113975714D01*
X144461904Y-113642380D02*
X144509523Y-113690000D01*
X144509523Y-113690000D02*
X144461904Y-113737619D01*
X144461904Y-113737619D02*
X144414285Y-113690000D01*
X144414285Y-113690000D02*
X144461904Y-113642380D01*
X144461904Y-113642380D02*
X144461904Y-113737619D01*
X143985714Y-113975714D02*
X143985714Y-114642380D01*
X143985714Y-114070952D02*
X143938095Y-114023333D01*
X143938095Y-114023333D02*
X143842857Y-113975714D01*
X143842857Y-113975714D02*
X143700000Y-113975714D01*
X143700000Y-113975714D02*
X143604762Y-114023333D01*
X143604762Y-114023333D02*
X143557143Y-114118571D01*
X143557143Y-114118571D02*
X143557143Y-114642380D01*
X142652381Y-114642380D02*
X142652381Y-114118571D01*
X142652381Y-114118571D02*
X142700000Y-114023333D01*
X142700000Y-114023333D02*
X142795238Y-113975714D01*
X142795238Y-113975714D02*
X142985714Y-113975714D01*
X142985714Y-113975714D02*
X143080952Y-114023333D01*
X142652381Y-114594761D02*
X142747619Y-114642380D01*
X142747619Y-114642380D02*
X142985714Y-114642380D01*
X142985714Y-114642380D02*
X143080952Y-114594761D01*
X143080952Y-114594761D02*
X143128571Y-114499523D01*
X143128571Y-114499523D02*
X143128571Y-114404285D01*
X143128571Y-114404285D02*
X143080952Y-114309047D01*
X143080952Y-114309047D02*
X142985714Y-114261428D01*
X142985714Y-114261428D02*
X142747619Y-114261428D01*
X142747619Y-114261428D02*
X142652381Y-114213809D01*
X142176190Y-114261428D02*
X141414286Y-114261428D01*
X140938095Y-114642380D02*
X140938095Y-113642380D01*
X140938095Y-113642380D02*
X140604762Y-114356666D01*
X140604762Y-114356666D02*
X140271429Y-113642380D01*
X140271429Y-113642380D02*
X140271429Y-114642380D01*
X139366667Y-114642380D02*
X139366667Y-114118571D01*
X139366667Y-114118571D02*
X139414286Y-114023333D01*
X139414286Y-114023333D02*
X139509524Y-113975714D01*
X139509524Y-113975714D02*
X139700000Y-113975714D01*
X139700000Y-113975714D02*
X139795238Y-114023333D01*
X139366667Y-114594761D02*
X139461905Y-114642380D01*
X139461905Y-114642380D02*
X139700000Y-114642380D01*
X139700000Y-114642380D02*
X139795238Y-114594761D01*
X139795238Y-114594761D02*
X139842857Y-114499523D01*
X139842857Y-114499523D02*
X139842857Y-114404285D01*
X139842857Y-114404285D02*
X139795238Y-114309047D01*
X139795238Y-114309047D02*
X139700000Y-114261428D01*
X139700000Y-114261428D02*
X139461905Y-114261428D01*
X139461905Y-114261428D02*
X139366667Y-114213809D01*
X138461905Y-114642380D02*
X138461905Y-113642380D01*
X138461905Y-114594761D02*
X138557143Y-114642380D01*
X138557143Y-114642380D02*
X138747619Y-114642380D01*
X138747619Y-114642380D02*
X138842857Y-114594761D01*
X138842857Y-114594761D02*
X138890476Y-114547142D01*
X138890476Y-114547142D02*
X138938095Y-114451904D01*
X138938095Y-114451904D02*
X138938095Y-114166190D01*
X138938095Y-114166190D02*
X138890476Y-114070952D01*
X138890476Y-114070952D02*
X138842857Y-114023333D01*
X138842857Y-114023333D02*
X138747619Y-113975714D01*
X138747619Y-113975714D02*
X138557143Y-113975714D01*
X138557143Y-113975714D02*
X138461905Y-114023333D01*
X137604762Y-114594761D02*
X137700000Y-114642380D01*
X137700000Y-114642380D02*
X137890476Y-114642380D01*
X137890476Y-114642380D02*
X137985714Y-114594761D01*
X137985714Y-114594761D02*
X138033333Y-114499523D01*
X138033333Y-114499523D02*
X138033333Y-114118571D01*
X138033333Y-114118571D02*
X137985714Y-114023333D01*
X137985714Y-114023333D02*
X137890476Y-113975714D01*
X137890476Y-113975714D02*
X137700000Y-113975714D01*
X137700000Y-113975714D02*
X137604762Y-114023333D01*
X137604762Y-114023333D02*
X137557143Y-114118571D01*
X137557143Y-114118571D02*
X137557143Y-114213809D01*
X137557143Y-114213809D02*
X138033333Y-114309047D01*
X136985714Y-114642380D02*
X137080952Y-114594761D01*
X137080952Y-114594761D02*
X137128571Y-114499523D01*
X137128571Y-114499523D02*
X137128571Y-113642380D01*
X136223809Y-114594761D02*
X136319047Y-114642380D01*
X136319047Y-114642380D02*
X136509523Y-114642380D01*
X136509523Y-114642380D02*
X136604761Y-114594761D01*
X136604761Y-114594761D02*
X136652380Y-114499523D01*
X136652380Y-114499523D02*
X136652380Y-114118571D01*
X136652380Y-114118571D02*
X136604761Y-114023333D01*
X136604761Y-114023333D02*
X136509523Y-113975714D01*
X136509523Y-113975714D02*
X136319047Y-113975714D01*
X136319047Y-113975714D02*
X136223809Y-114023333D01*
X136223809Y-114023333D02*
X136176190Y-114118571D01*
X136176190Y-114118571D02*
X136176190Y-114213809D01*
X136176190Y-114213809D02*
X136652380Y-114309047D01*
X135747618Y-114642380D02*
X135747618Y-113975714D01*
X135747618Y-113642380D02*
X135795237Y-113690000D01*
X135795237Y-113690000D02*
X135747618Y-113737619D01*
X135747618Y-113737619D02*
X135699999Y-113690000D01*
X135699999Y-113690000D02*
X135747618Y-113642380D01*
X135747618Y-113642380D02*
X135747618Y-113737619D01*
X135271428Y-113975714D02*
X135271428Y-114642380D01*
X135271428Y-114070952D02*
X135223809Y-114023333D01*
X135223809Y-114023333D02*
X135128571Y-113975714D01*
X135128571Y-113975714D02*
X134985714Y-113975714D01*
X134985714Y-113975714D02*
X134890476Y-114023333D01*
X134890476Y-114023333D02*
X134842857Y-114118571D01*
X134842857Y-114118571D02*
X134842857Y-114642380D01*
X133985714Y-114594761D02*
X134080952Y-114642380D01*
X134080952Y-114642380D02*
X134271428Y-114642380D01*
X134271428Y-114642380D02*
X134366666Y-114594761D01*
X134366666Y-114594761D02*
X134414285Y-114499523D01*
X134414285Y-114499523D02*
X134414285Y-114118571D01*
X134414285Y-114118571D02*
X134366666Y-114023333D01*
X134366666Y-114023333D02*
X134271428Y-113975714D01*
X134271428Y-113975714D02*
X134080952Y-113975714D01*
X134080952Y-113975714D02*
X133985714Y-114023333D01*
X133985714Y-114023333D02*
X133938095Y-114118571D01*
X133938095Y-114118571D02*
X133938095Y-114213809D01*
X133938095Y-114213809D02*
X134414285Y-114309047D01*
X132909523Y-114642380D02*
X132909523Y-113642380D01*
X132909523Y-114118571D02*
X132338095Y-114118571D01*
X132338095Y-114642380D02*
X132338095Y-113642380D01*
X131433333Y-114642380D02*
X131433333Y-114118571D01*
X131433333Y-114118571D02*
X131480952Y-114023333D01*
X131480952Y-114023333D02*
X131576190Y-113975714D01*
X131576190Y-113975714D02*
X131766666Y-113975714D01*
X131766666Y-113975714D02*
X131861904Y-114023333D01*
X131433333Y-114594761D02*
X131528571Y-114642380D01*
X131528571Y-114642380D02*
X131766666Y-114642380D01*
X131766666Y-114642380D02*
X131861904Y-114594761D01*
X131861904Y-114594761D02*
X131909523Y-114499523D01*
X131909523Y-114499523D02*
X131909523Y-114404285D01*
X131909523Y-114404285D02*
X131861904Y-114309047D01*
X131861904Y-114309047D02*
X131766666Y-114261428D01*
X131766666Y-114261428D02*
X131528571Y-114261428D01*
X131528571Y-114261428D02*
X131433333Y-114213809D01*
X130528571Y-114642380D02*
X130528571Y-114118571D01*
X130528571Y-114118571D02*
X130576190Y-114023333D01*
X130576190Y-114023333D02*
X130671428Y-113975714D01*
X130671428Y-113975714D02*
X130861904Y-113975714D01*
X130861904Y-113975714D02*
X130957142Y-114023333D01*
X130528571Y-114594761D02*
X130623809Y-114642380D01*
X130623809Y-114642380D02*
X130861904Y-114642380D01*
X130861904Y-114642380D02*
X130957142Y-114594761D01*
X130957142Y-114594761D02*
X131004761Y-114499523D01*
X131004761Y-114499523D02*
X131004761Y-114404285D01*
X131004761Y-114404285D02*
X130957142Y-114309047D01*
X130957142Y-114309047D02*
X130861904Y-114261428D01*
X130861904Y-114261428D02*
X130623809Y-114261428D01*
X130623809Y-114261428D02*
X130528571Y-114213809D01*
X130099999Y-114594761D02*
X130004761Y-114642380D01*
X130004761Y-114642380D02*
X129814285Y-114642380D01*
X129814285Y-114642380D02*
X129719047Y-114594761D01*
X129719047Y-114594761D02*
X129671428Y-114499523D01*
X129671428Y-114499523D02*
X129671428Y-114451904D01*
X129671428Y-114451904D02*
X129719047Y-114356666D01*
X129719047Y-114356666D02*
X129814285Y-114309047D01*
X129814285Y-114309047D02*
X129957142Y-114309047D01*
X129957142Y-114309047D02*
X130052380Y-114261428D01*
X130052380Y-114261428D02*
X130099999Y-114166190D01*
X130099999Y-114166190D02*
X130099999Y-114118571D01*
X130099999Y-114118571D02*
X130052380Y-114023333D01*
X130052380Y-114023333D02*
X129957142Y-113975714D01*
X129957142Y-113975714D02*
X129814285Y-113975714D01*
X129814285Y-113975714D02*
X129719047Y-114023333D01*
X128861904Y-114594761D02*
X128957142Y-114642380D01*
X128957142Y-114642380D02*
X129147618Y-114642380D01*
X129147618Y-114642380D02*
X129242856Y-114594761D01*
X129242856Y-114594761D02*
X129290475Y-114499523D01*
X129290475Y-114499523D02*
X129290475Y-114118571D01*
X129290475Y-114118571D02*
X129242856Y-114023333D01*
X129242856Y-114023333D02*
X129147618Y-113975714D01*
X129147618Y-113975714D02*
X128957142Y-113975714D01*
X128957142Y-113975714D02*
X128861904Y-114023333D01*
X128861904Y-114023333D02*
X128814285Y-114118571D01*
X128814285Y-114118571D02*
X128814285Y-114213809D01*
X128814285Y-114213809D02*
X129290475Y-114309047D01*
X145509523Y-115976666D02*
X145033333Y-115976666D01*
X145604761Y-116262380D02*
X145271428Y-115262380D01*
X145271428Y-115262380D02*
X144938095Y-116262380D01*
X144604761Y-116167142D02*
X144557142Y-116214761D01*
X144557142Y-116214761D02*
X144604761Y-116262380D01*
X144604761Y-116262380D02*
X144652380Y-116214761D01*
X144652380Y-116214761D02*
X144604761Y-116167142D01*
X144604761Y-116167142D02*
X144604761Y-116262380D01*
X143195238Y-115738571D02*
X143528571Y-115738571D01*
X143528571Y-116262380D02*
X143528571Y-115262380D01*
X143528571Y-115262380D02*
X143052381Y-115262380D01*
X142242857Y-115595714D02*
X142242857Y-116262380D01*
X142671428Y-115595714D02*
X142671428Y-116119523D01*
X142671428Y-116119523D02*
X142623809Y-116214761D01*
X142623809Y-116214761D02*
X142528571Y-116262380D01*
X142528571Y-116262380D02*
X142385714Y-116262380D01*
X142385714Y-116262380D02*
X142290476Y-116214761D01*
X142290476Y-116214761D02*
X142242857Y-116167142D01*
X141766666Y-116262380D02*
X141766666Y-115595714D01*
X141766666Y-115786190D02*
X141719047Y-115690952D01*
X141719047Y-115690952D02*
X141671428Y-115643333D01*
X141671428Y-115643333D02*
X141576190Y-115595714D01*
X141576190Y-115595714D02*
X141480952Y-115595714D01*
X141147618Y-116262380D02*
X141147618Y-115262380D01*
X141052380Y-115881428D02*
X140766666Y-116262380D01*
X140766666Y-115595714D02*
X141147618Y-115976666D01*
X139909523Y-116262380D02*
X139909523Y-115738571D01*
X139909523Y-115738571D02*
X139957142Y-115643333D01*
X139957142Y-115643333D02*
X140052380Y-115595714D01*
X140052380Y-115595714D02*
X140242856Y-115595714D01*
X140242856Y-115595714D02*
X140338094Y-115643333D01*
X139909523Y-116214761D02*
X140004761Y-116262380D01*
X140004761Y-116262380D02*
X140242856Y-116262380D01*
X140242856Y-116262380D02*
X140338094Y-116214761D01*
X140338094Y-116214761D02*
X140385713Y-116119523D01*
X140385713Y-116119523D02*
X140385713Y-116024285D01*
X140385713Y-116024285D02*
X140338094Y-115929047D01*
X140338094Y-115929047D02*
X140242856Y-115881428D01*
X140242856Y-115881428D02*
X140004761Y-115881428D01*
X140004761Y-115881428D02*
X139909523Y-115833809D01*
X139433332Y-115595714D02*
X139433332Y-116262380D01*
X139433332Y-115690952D02*
X139385713Y-115643333D01*
X139385713Y-115643333D02*
X139290475Y-115595714D01*
X139290475Y-115595714D02*
X139147618Y-115595714D01*
X139147618Y-115595714D02*
X139052380Y-115643333D01*
X139052380Y-115643333D02*
X139004761Y-115738571D01*
X139004761Y-115738571D02*
X139004761Y-116262380D01*
X137357142Y-116167142D02*
X137404761Y-116214761D01*
X137404761Y-116214761D02*
X137547618Y-116262380D01*
X137547618Y-116262380D02*
X137642856Y-116262380D01*
X137642856Y-116262380D02*
X137785713Y-116214761D01*
X137785713Y-116214761D02*
X137880951Y-116119523D01*
X137880951Y-116119523D02*
X137928570Y-116024285D01*
X137928570Y-116024285D02*
X137976189Y-115833809D01*
X137976189Y-115833809D02*
X137976189Y-115690952D01*
X137976189Y-115690952D02*
X137928570Y-115500476D01*
X137928570Y-115500476D02*
X137880951Y-115405238D01*
X137880951Y-115405238D02*
X137785713Y-115310000D01*
X137785713Y-115310000D02*
X137642856Y-115262380D01*
X137642856Y-115262380D02*
X137547618Y-115262380D01*
X137547618Y-115262380D02*
X137404761Y-115310000D01*
X137404761Y-115310000D02*
X137357142Y-115357619D01*
X136499999Y-116262380D02*
X136499999Y-115738571D01*
X136499999Y-115738571D02*
X136547618Y-115643333D01*
X136547618Y-115643333D02*
X136642856Y-115595714D01*
X136642856Y-115595714D02*
X136833332Y-115595714D01*
X136833332Y-115595714D02*
X136928570Y-115643333D01*
X136499999Y-116214761D02*
X136595237Y-116262380D01*
X136595237Y-116262380D02*
X136833332Y-116262380D01*
X136833332Y-116262380D02*
X136928570Y-116214761D01*
X136928570Y-116214761D02*
X136976189Y-116119523D01*
X136976189Y-116119523D02*
X136976189Y-116024285D01*
X136976189Y-116024285D02*
X136928570Y-115929047D01*
X136928570Y-115929047D02*
X136833332Y-115881428D01*
X136833332Y-115881428D02*
X136595237Y-115881428D01*
X136595237Y-115881428D02*
X136499999Y-115833809D01*
X136023808Y-115595714D02*
X136023808Y-116262380D01*
X136023808Y-115690952D02*
X135976189Y-115643333D01*
X135976189Y-115643333D02*
X135880951Y-115595714D01*
X135880951Y-115595714D02*
X135738094Y-115595714D01*
X135738094Y-115595714D02*
X135642856Y-115643333D01*
X135642856Y-115643333D02*
X135595237Y-115738571D01*
X135595237Y-115738571D02*
X135595237Y-116262380D01*
X144890476Y-117882380D02*
X145223809Y-117406190D01*
X145461904Y-117882380D02*
X145461904Y-116882380D01*
X145461904Y-116882380D02*
X145080952Y-116882380D01*
X145080952Y-116882380D02*
X144985714Y-116930000D01*
X144985714Y-116930000D02*
X144938095Y-116977619D01*
X144938095Y-116977619D02*
X144890476Y-117072857D01*
X144890476Y-117072857D02*
X144890476Y-117215714D01*
X144890476Y-117215714D02*
X144938095Y-117310952D01*
X144938095Y-117310952D02*
X144985714Y-117358571D01*
X144985714Y-117358571D02*
X145080952Y-117406190D01*
X145080952Y-117406190D02*
X145461904Y-117406190D01*
X144033333Y-117882380D02*
X144033333Y-117358571D01*
X144033333Y-117358571D02*
X144080952Y-117263333D01*
X144080952Y-117263333D02*
X144176190Y-117215714D01*
X144176190Y-117215714D02*
X144366666Y-117215714D01*
X144366666Y-117215714D02*
X144461904Y-117263333D01*
X144033333Y-117834761D02*
X144128571Y-117882380D01*
X144128571Y-117882380D02*
X144366666Y-117882380D01*
X144366666Y-117882380D02*
X144461904Y-117834761D01*
X144461904Y-117834761D02*
X144509523Y-117739523D01*
X144509523Y-117739523D02*
X144509523Y-117644285D01*
X144509523Y-117644285D02*
X144461904Y-117549047D01*
X144461904Y-117549047D02*
X144366666Y-117501428D01*
X144366666Y-117501428D02*
X144128571Y-117501428D01*
X144128571Y-117501428D02*
X144033333Y-117453809D01*
X143557142Y-117882380D02*
X143557142Y-117215714D01*
X143557142Y-117310952D02*
X143509523Y-117263333D01*
X143509523Y-117263333D02*
X143414285Y-117215714D01*
X143414285Y-117215714D02*
X143271428Y-117215714D01*
X143271428Y-117215714D02*
X143176190Y-117263333D01*
X143176190Y-117263333D02*
X143128571Y-117358571D01*
X143128571Y-117358571D02*
X143128571Y-117882380D01*
X143128571Y-117358571D02*
X143080952Y-117263333D01*
X143080952Y-117263333D02*
X142985714Y-117215714D01*
X142985714Y-117215714D02*
X142842857Y-117215714D01*
X142842857Y-117215714D02*
X142747618Y-117263333D01*
X142747618Y-117263333D02*
X142699999Y-117358571D01*
X142699999Y-117358571D02*
X142699999Y-117882380D01*
X142080952Y-117882380D02*
X142176190Y-117834761D01*
X142176190Y-117834761D02*
X142223809Y-117787142D01*
X142223809Y-117787142D02*
X142271428Y-117691904D01*
X142271428Y-117691904D02*
X142271428Y-117406190D01*
X142271428Y-117406190D02*
X142223809Y-117310952D01*
X142223809Y-117310952D02*
X142176190Y-117263333D01*
X142176190Y-117263333D02*
X142080952Y-117215714D01*
X142080952Y-117215714D02*
X141938095Y-117215714D01*
X141938095Y-117215714D02*
X141842857Y-117263333D01*
X141842857Y-117263333D02*
X141795238Y-117310952D01*
X141795238Y-117310952D02*
X141747619Y-117406190D01*
X141747619Y-117406190D02*
X141747619Y-117691904D01*
X141747619Y-117691904D02*
X141795238Y-117787142D01*
X141795238Y-117787142D02*
X141842857Y-117834761D01*
X141842857Y-117834761D02*
X141938095Y-117882380D01*
X141938095Y-117882380D02*
X142080952Y-117882380D01*
X141890476Y-116834761D02*
X142033333Y-116977619D01*
X141319047Y-117215714D02*
X141319047Y-117882380D01*
X141319047Y-117310952D02*
X141271428Y-117263333D01*
X141271428Y-117263333D02*
X141176190Y-117215714D01*
X141176190Y-117215714D02*
X141033333Y-117215714D01*
X141033333Y-117215714D02*
X140938095Y-117263333D01*
X140938095Y-117263333D02*
X140890476Y-117358571D01*
X140890476Y-117358571D02*
X140890476Y-117882380D01*
X139480952Y-117358571D02*
X139814285Y-117358571D01*
X139814285Y-117882380D02*
X139814285Y-116882380D01*
X139814285Y-116882380D02*
X139338095Y-116882380D01*
X138528571Y-117215714D02*
X138528571Y-117882380D01*
X138957142Y-117215714D02*
X138957142Y-117739523D01*
X138957142Y-117739523D02*
X138909523Y-117834761D01*
X138909523Y-117834761D02*
X138814285Y-117882380D01*
X138814285Y-117882380D02*
X138671428Y-117882380D01*
X138671428Y-117882380D02*
X138576190Y-117834761D01*
X138576190Y-117834761D02*
X138528571Y-117787142D01*
X138909523Y-116882380D02*
X138861904Y-116930000D01*
X138861904Y-116930000D02*
X138909523Y-116977619D01*
X138909523Y-116977619D02*
X138957142Y-116930000D01*
X138957142Y-116930000D02*
X138909523Y-116882380D01*
X138909523Y-116882380D02*
X138909523Y-116977619D01*
X138528571Y-116882380D02*
X138480952Y-116930000D01*
X138480952Y-116930000D02*
X138528571Y-116977619D01*
X138528571Y-116977619D02*
X138576190Y-116930000D01*
X138576190Y-116930000D02*
X138528571Y-116882380D01*
X138528571Y-116882380D02*
X138528571Y-116977619D01*
X138052380Y-117882380D02*
X138052380Y-117215714D01*
X138052380Y-117406190D02*
X138004761Y-117310952D01*
X138004761Y-117310952D02*
X137957142Y-117263333D01*
X137957142Y-117263333D02*
X137861904Y-117215714D01*
X137861904Y-117215714D02*
X137766666Y-117215714D01*
X137480951Y-117834761D02*
X137385713Y-117882380D01*
X137385713Y-117882380D02*
X137195237Y-117882380D01*
X137195237Y-117882380D02*
X137099999Y-117834761D01*
X137099999Y-117834761D02*
X137052380Y-117739523D01*
X137052380Y-117739523D02*
X137052380Y-117691904D01*
X137052380Y-117691904D02*
X137099999Y-117596666D01*
X137099999Y-117596666D02*
X137195237Y-117549047D01*
X137195237Y-117549047D02*
X137338094Y-117549047D01*
X137338094Y-117549047D02*
X137433332Y-117501428D01*
X137433332Y-117501428D02*
X137480951Y-117406190D01*
X137480951Y-117406190D02*
X137480951Y-117358571D01*
X137480951Y-117358571D02*
X137433332Y-117263333D01*
X137433332Y-117263333D02*
X137338094Y-117215714D01*
X137338094Y-117215714D02*
X137195237Y-117215714D01*
X137195237Y-117215714D02*
X137099999Y-117263333D01*
X136766665Y-117215714D02*
X136385713Y-117215714D01*
X136623808Y-116882380D02*
X136623808Y-117739523D01*
X136623808Y-117739523D02*
X136576189Y-117834761D01*
X136576189Y-117834761D02*
X136480951Y-117882380D01*
X136480951Y-117882380D02*
X136385713Y-117882380D01*
X123038142Y-90654000D02*
X123085761Y-90701619D01*
X123085761Y-90701619D02*
X123133380Y-90654000D01*
X123133380Y-90654000D02*
X123085761Y-90606381D01*
X123085761Y-90606381D02*
X123038142Y-90654000D01*
X123038142Y-90654000D02*
X123133380Y-90654000D01*
D11*
X165600000Y-43700000D02*
G75*
G03*
X165600000Y-43700000I-3500000J0D01*
G01*
X177700000Y-126700000D02*
G75*
G03*
X177700000Y-126700000I-3500000J0D01*
G01*
X109700000Y-131700000D02*
G75*
G03*
X109700000Y-131700000I-3500000J0D01*
G01*
X165700000Y-75000000D02*
G75*
G03*
X165700000Y-75000000I-3500000J0D01*
G01*
D12*
X169150000Y-78750000D02*
X198050000Y-78750000D01*
X198050000Y-78750000D02*
X198050000Y-36650000D01*
X198050000Y-36650000D02*
X169150000Y-36650000D01*
X169150000Y-36650000D02*
X169150000Y-78750000D01*
G36*
X159766214Y-102264137D02*
G01*
X160113482Y-102345128D01*
X160444720Y-102501221D01*
X160749233Y-102732555D01*
X160953343Y-102959984D01*
X161138875Y-103272394D01*
X161251880Y-103610895D01*
X161291316Y-103964138D01*
X161256137Y-104320773D01*
X161145300Y-104669453D01*
X160957761Y-104998827D01*
X160955377Y-105002131D01*
X160859979Y-105113740D01*
X160730595Y-105239647D01*
X160585703Y-105364733D01*
X160443782Y-105473877D01*
X160323308Y-105551962D01*
X160242760Y-105583868D01*
X160218002Y-105588875D01*
X160129049Y-105612013D01*
X160004167Y-105647242D01*
X159765096Y-105694716D01*
X159422827Y-105695129D01*
X159083237Y-105624626D01*
X158760486Y-105489583D01*
X158468737Y-105296373D01*
X158222150Y-105051369D01*
X158034888Y-104760945D01*
X157919953Y-104471123D01*
X157848619Y-104103123D01*
X157857421Y-103739403D01*
X157944936Y-103388978D01*
X158109739Y-103060863D01*
X158350406Y-102764072D01*
X158430721Y-102688373D01*
X158735167Y-102470365D01*
X159066362Y-102326896D01*
X159413608Y-102258106D01*
X159766214Y-102264137D01*
G37*
D13*
X159766214Y-102264137D02*
X160113482Y-102345128D01*
X160444720Y-102501221D01*
X160749233Y-102732555D01*
X160953343Y-102959984D01*
X161138875Y-103272394D01*
X161251880Y-103610895D01*
X161291316Y-103964138D01*
X161256137Y-104320773D01*
X161145300Y-104669453D01*
X160957761Y-104998827D01*
X160955377Y-105002131D01*
X160859979Y-105113740D01*
X160730595Y-105239647D01*
X160585703Y-105364733D01*
X160443782Y-105473877D01*
X160323308Y-105551962D01*
X160242760Y-105583868D01*
X160218002Y-105588875D01*
X160129049Y-105612013D01*
X160004167Y-105647242D01*
X159765096Y-105694716D01*
X159422827Y-105695129D01*
X159083237Y-105624626D01*
X158760486Y-105489583D01*
X158468737Y-105296373D01*
X158222150Y-105051369D01*
X158034888Y-104760945D01*
X157919953Y-104471123D01*
X157848619Y-104103123D01*
X157857421Y-103739403D01*
X157944936Y-103388978D01*
X158109739Y-103060863D01*
X158350406Y-102764072D01*
X158430721Y-102688373D01*
X158735167Y-102470365D01*
X159066362Y-102326896D01*
X159413608Y-102258106D01*
X159766214Y-102264137D01*
G36*
X171448753Y-99275140D02*
G01*
X171713770Y-99325622D01*
X171953607Y-99446525D01*
X172151218Y-99626594D01*
X172289555Y-99854575D01*
X172296109Y-99872210D01*
X172328470Y-99974784D01*
X172379566Y-100149177D01*
X172447341Y-100387942D01*
X172529745Y-100683631D01*
X172624722Y-101028798D01*
X172730221Y-101415996D01*
X172844187Y-101837777D01*
X172964568Y-102286695D01*
X173089311Y-102755302D01*
X173804834Y-105453105D01*
X176387167Y-105464636D01*
X178969500Y-105476166D01*
X179180063Y-105579781D01*
X179337460Y-105673235D01*
X179543941Y-105841704D01*
X179719072Y-106035454D01*
X179837929Y-106229854D01*
X179885929Y-106357190D01*
X179943983Y-106539778D01*
X180006854Y-106757734D01*
X180069536Y-106991695D01*
X180127019Y-107222294D01*
X180174296Y-107430168D01*
X180206359Y-107595951D01*
X180218199Y-107700280D01*
X180207258Y-107809733D01*
X180136410Y-108010916D01*
X180014426Y-108187404D01*
X179858500Y-108310047D01*
X179821840Y-108327720D01*
X179780400Y-108343275D01*
X179728416Y-108356478D01*
X179659151Y-108367598D01*
X179565867Y-108376904D01*
X179441824Y-108384665D01*
X179280284Y-108391150D01*
X179074510Y-108396628D01*
X178817763Y-108401369D01*
X178503304Y-108405640D01*
X178124396Y-108409712D01*
X177674300Y-108413853D01*
X177146278Y-108418333D01*
X174603389Y-108439500D01*
X175186345Y-110598500D01*
X175310274Y-111057364D01*
X175436738Y-111525693D01*
X175544017Y-111923716D01*
X175633601Y-112257628D01*
X175706978Y-112533623D01*
X175765640Y-112757893D01*
X175811075Y-112936634D01*
X175844773Y-113076038D01*
X175868225Y-113182300D01*
X175882920Y-113261614D01*
X175890348Y-113320173D01*
X175891998Y-113364171D01*
X175889360Y-113399803D01*
X175883924Y-113433261D01*
X175877180Y-113470740D01*
X175854650Y-113575234D01*
X175745195Y-113839224D01*
X175573792Y-114057194D01*
X175350000Y-114215636D01*
X175324256Y-114227210D01*
X175205128Y-114270390D01*
X175030012Y-114325699D01*
X174818132Y-114387242D01*
X174588716Y-114449121D01*
X174564568Y-114455375D01*
X174329465Y-114515091D01*
X174157346Y-114554807D01*
X174031064Y-114576782D01*
X173933471Y-114583277D01*
X173847419Y-114576549D01*
X173755759Y-114558858D01*
X173669878Y-114535482D01*
X173438941Y-114430173D01*
X173245254Y-114280216D01*
X173112129Y-114102150D01*
X173107972Y-114092843D01*
X173078003Y-114005957D01*
X173028906Y-113846443D01*
X172962773Y-113621704D01*
X172881696Y-113339145D01*
X172787768Y-113006168D01*
X172683081Y-112630178D01*
X172569728Y-112218579D01*
X172449799Y-111778773D01*
X172325389Y-111318166D01*
X172293464Y-111199430D01*
X172171021Y-110744480D01*
X172054648Y-110312762D01*
X171946329Y-109911592D01*
X171848047Y-109548290D01*
X171761786Y-109230173D01*
X171689530Y-108964560D01*
X171633263Y-108758767D01*
X171594967Y-108620113D01*
X171576627Y-108555916D01*
X171533434Y-108418333D01*
X167882568Y-108418333D01*
X167598268Y-108418313D01*
X166971357Y-108418235D01*
X166421148Y-108418426D01*
X165942011Y-108419273D01*
X165528320Y-108421164D01*
X165174447Y-108424486D01*
X164874764Y-108429628D01*
X164623643Y-108436978D01*
X164415458Y-108446923D01*
X164244579Y-108459851D01*
X164105380Y-108476149D01*
X163992234Y-108496206D01*
X163899511Y-108520408D01*
X163821585Y-108549145D01*
X163752828Y-108582804D01*
X163687612Y-108621772D01*
X163620310Y-108666437D01*
X163545294Y-108717188D01*
X163405091Y-108820101D01*
X163143823Y-109082059D01*
X162955759Y-109386147D01*
X162842100Y-109730103D01*
X162804048Y-110111666D01*
X162804517Y-110154860D01*
X162807316Y-110217924D01*
X162813734Y-110288209D01*
X162825015Y-110370679D01*
X162842399Y-110470300D01*
X162867128Y-110592035D01*
X162900443Y-110740850D01*
X162943585Y-110921710D01*
X162997796Y-111139580D01*
X163064318Y-111399424D01*
X163144390Y-111706208D01*
X163239255Y-112064895D01*
X163350155Y-112480452D01*
X163478329Y-112957843D01*
X163625021Y-113502032D01*
X163791470Y-114117985D01*
X163978919Y-114810666D01*
X163997190Y-114878149D01*
X164187577Y-115581190D01*
X164357105Y-116207671D01*
X164506763Y-116762377D01*
X164637538Y-117250090D01*
X164750418Y-117675595D01*
X164846390Y-118043675D01*
X164926441Y-118359113D01*
X164991560Y-118626695D01*
X165042734Y-118851203D01*
X165080950Y-119037421D01*
X165107197Y-119190134D01*
X165122461Y-119314123D01*
X165127731Y-119414175D01*
X165123994Y-119495071D01*
X165112237Y-119561597D01*
X165093448Y-119618535D01*
X165068616Y-119670670D01*
X165038727Y-119722784D01*
X165004768Y-119779663D01*
X164933784Y-119886550D01*
X164829195Y-119998969D01*
X164694472Y-120094952D01*
X164516260Y-120182027D01*
X164281203Y-120267721D01*
X163975947Y-120359563D01*
X163818338Y-120403185D01*
X163591464Y-120460443D01*
X163416119Y-120494848D01*
X163274148Y-120509656D01*
X163147401Y-120508122D01*
X163065984Y-120499166D01*
X162808354Y-120425206D01*
X162585505Y-120291904D01*
X162418194Y-120110576D01*
X162407047Y-120091529D01*
X162355730Y-119972541D01*
X162287574Y-119777694D01*
X162204232Y-119512188D01*
X162107355Y-119181224D01*
X161998597Y-118790000D01*
X161996537Y-118782426D01*
X161901110Y-118431435D01*
X161788487Y-118016877D01*
X161661696Y-117549926D01*
X161523769Y-117041759D01*
X161377734Y-116503548D01*
X161226623Y-115946470D01*
X161073465Y-115381698D01*
X160921290Y-114820409D01*
X160773129Y-114273776D01*
X160632011Y-113752975D01*
X160500967Y-113269181D01*
X160383027Y-112833568D01*
X160281220Y-112457311D01*
X160198578Y-112151585D01*
X160192485Y-112129026D01*
X160093726Y-111760658D01*
X160015406Y-111459645D01*
X159955188Y-111212572D01*
X159910732Y-111006025D01*
X159879703Y-110826589D01*
X159859762Y-110660849D01*
X159848571Y-110495392D01*
X159843794Y-110316802D01*
X159843091Y-110111666D01*
X159862769Y-109666850D01*
X159956343Y-109057183D01*
X160127520Y-108481029D01*
X160376965Y-107936729D01*
X160705340Y-107422622D01*
X161113312Y-106937048D01*
X161189990Y-106857928D01*
X161668740Y-106431459D01*
X162188388Y-106078976D01*
X162750821Y-105799348D01*
X163357926Y-105591443D01*
X163771834Y-105478176D01*
X170743920Y-105451310D01*
X170715682Y-105336738D01*
X170710022Y-105314633D01*
X170683605Y-105213814D01*
X170638589Y-105043225D01*
X170577083Y-104810813D01*
X170501195Y-104524530D01*
X170413032Y-104192325D01*
X170314702Y-103822146D01*
X170208313Y-103421943D01*
X170095974Y-102999666D01*
X170039824Y-102788317D01*
X169930049Y-102372987D01*
X169827453Y-101982033D01*
X169734144Y-101623655D01*
X169652232Y-101306053D01*
X169583824Y-101037426D01*
X169531031Y-100825974D01*
X169495960Y-100679897D01*
X169480722Y-100607395D01*
X169474745Y-100472986D01*
X169519231Y-100229866D01*
X169623567Y-99997780D01*
X169775822Y-99800108D01*
X169964063Y-99660233D01*
X169967907Y-99658300D01*
X170083532Y-99611460D01*
X170257265Y-99553721D01*
X170469299Y-99490369D01*
X170699824Y-99426686D01*
X170929034Y-99367957D01*
X171137121Y-99319466D01*
X171304276Y-99286497D01*
X171410692Y-99274333D01*
X171448753Y-99275140D01*
G37*
X171448753Y-99275140D02*
X171713770Y-99325622D01*
X171953607Y-99446525D01*
X172151218Y-99626594D01*
X172289555Y-99854575D01*
X172296109Y-99872210D01*
X172328470Y-99974784D01*
X172379566Y-100149177D01*
X172447341Y-100387942D01*
X172529745Y-100683631D01*
X172624722Y-101028798D01*
X172730221Y-101415996D01*
X172844187Y-101837777D01*
X172964568Y-102286695D01*
X173089311Y-102755302D01*
X173804834Y-105453105D01*
X176387167Y-105464636D01*
X178969500Y-105476166D01*
X179180063Y-105579781D01*
X179337460Y-105673235D01*
X179543941Y-105841704D01*
X179719072Y-106035454D01*
X179837929Y-106229854D01*
X179885929Y-106357190D01*
X179943983Y-106539778D01*
X180006854Y-106757734D01*
X180069536Y-106991695D01*
X180127019Y-107222294D01*
X180174296Y-107430168D01*
X180206359Y-107595951D01*
X180218199Y-107700280D01*
X180207258Y-107809733D01*
X180136410Y-108010916D01*
X180014426Y-108187404D01*
X179858500Y-108310047D01*
X179821840Y-108327720D01*
X179780400Y-108343275D01*
X179728416Y-108356478D01*
X179659151Y-108367598D01*
X179565867Y-108376904D01*
X179441824Y-108384665D01*
X179280284Y-108391150D01*
X179074510Y-108396628D01*
X178817763Y-108401369D01*
X178503304Y-108405640D01*
X178124396Y-108409712D01*
X177674300Y-108413853D01*
X177146278Y-108418333D01*
X174603389Y-108439500D01*
X175186345Y-110598500D01*
X175310274Y-111057364D01*
X175436738Y-111525693D01*
X175544017Y-111923716D01*
X175633601Y-112257628D01*
X175706978Y-112533623D01*
X175765640Y-112757893D01*
X175811075Y-112936634D01*
X175844773Y-113076038D01*
X175868225Y-113182300D01*
X175882920Y-113261614D01*
X175890348Y-113320173D01*
X175891998Y-113364171D01*
X175889360Y-113399803D01*
X175883924Y-113433261D01*
X175877180Y-113470740D01*
X175854650Y-113575234D01*
X175745195Y-113839224D01*
X175573792Y-114057194D01*
X175350000Y-114215636D01*
X175324256Y-114227210D01*
X175205128Y-114270390D01*
X175030012Y-114325699D01*
X174818132Y-114387242D01*
X174588716Y-114449121D01*
X174564568Y-114455375D01*
X174329465Y-114515091D01*
X174157346Y-114554807D01*
X174031064Y-114576782D01*
X173933471Y-114583277D01*
X173847419Y-114576549D01*
X173755759Y-114558858D01*
X173669878Y-114535482D01*
X173438941Y-114430173D01*
X173245254Y-114280216D01*
X173112129Y-114102150D01*
X173107972Y-114092843D01*
X173078003Y-114005957D01*
X173028906Y-113846443D01*
X172962773Y-113621704D01*
X172881696Y-113339145D01*
X172787768Y-113006168D01*
X172683081Y-112630178D01*
X172569728Y-112218579D01*
X172449799Y-111778773D01*
X172325389Y-111318166D01*
X172293464Y-111199430D01*
X172171021Y-110744480D01*
X172054648Y-110312762D01*
X171946329Y-109911592D01*
X171848047Y-109548290D01*
X171761786Y-109230173D01*
X171689530Y-108964560D01*
X171633263Y-108758767D01*
X171594967Y-108620113D01*
X171576627Y-108555916D01*
X171533434Y-108418333D01*
X167882568Y-108418333D01*
X167598268Y-108418313D01*
X166971357Y-108418235D01*
X166421148Y-108418426D01*
X165942011Y-108419273D01*
X165528320Y-108421164D01*
X165174447Y-108424486D01*
X164874764Y-108429628D01*
X164623643Y-108436978D01*
X164415458Y-108446923D01*
X164244579Y-108459851D01*
X164105380Y-108476149D01*
X163992234Y-108496206D01*
X163899511Y-108520408D01*
X163821585Y-108549145D01*
X163752828Y-108582804D01*
X163687612Y-108621772D01*
X163620310Y-108666437D01*
X163545294Y-108717188D01*
X163405091Y-108820101D01*
X163143823Y-109082059D01*
X162955759Y-109386147D01*
X162842100Y-109730103D01*
X162804048Y-110111666D01*
X162804517Y-110154860D01*
X162807316Y-110217924D01*
X162813734Y-110288209D01*
X162825015Y-110370679D01*
X162842399Y-110470300D01*
X162867128Y-110592035D01*
X162900443Y-110740850D01*
X162943585Y-110921710D01*
X162997796Y-111139580D01*
X163064318Y-111399424D01*
X163144390Y-111706208D01*
X163239255Y-112064895D01*
X163350155Y-112480452D01*
X163478329Y-112957843D01*
X163625021Y-113502032D01*
X163791470Y-114117985D01*
X163978919Y-114810666D01*
X163997190Y-114878149D01*
X164187577Y-115581190D01*
X164357105Y-116207671D01*
X164506763Y-116762377D01*
X164637538Y-117250090D01*
X164750418Y-117675595D01*
X164846390Y-118043675D01*
X164926441Y-118359113D01*
X164991560Y-118626695D01*
X165042734Y-118851203D01*
X165080950Y-119037421D01*
X165107197Y-119190134D01*
X165122461Y-119314123D01*
X165127731Y-119414175D01*
X165123994Y-119495071D01*
X165112237Y-119561597D01*
X165093448Y-119618535D01*
X165068616Y-119670670D01*
X165038727Y-119722784D01*
X165004768Y-119779663D01*
X164933784Y-119886550D01*
X164829195Y-119998969D01*
X164694472Y-120094952D01*
X164516260Y-120182027D01*
X164281203Y-120267721D01*
X163975947Y-120359563D01*
X163818338Y-120403185D01*
X163591464Y-120460443D01*
X163416119Y-120494848D01*
X163274148Y-120509656D01*
X163147401Y-120508122D01*
X163065984Y-120499166D01*
X162808354Y-120425206D01*
X162585505Y-120291904D01*
X162418194Y-120110576D01*
X162407047Y-120091529D01*
X162355730Y-119972541D01*
X162287574Y-119777694D01*
X162204232Y-119512188D01*
X162107355Y-119181224D01*
X161998597Y-118790000D01*
X161996537Y-118782426D01*
X161901110Y-118431435D01*
X161788487Y-118016877D01*
X161661696Y-117549926D01*
X161523769Y-117041759D01*
X161377734Y-116503548D01*
X161226623Y-115946470D01*
X161073465Y-115381698D01*
X160921290Y-114820409D01*
X160773129Y-114273776D01*
X160632011Y-113752975D01*
X160500967Y-113269181D01*
X160383027Y-112833568D01*
X160281220Y-112457311D01*
X160198578Y-112151585D01*
X160192485Y-112129026D01*
X160093726Y-111760658D01*
X160015406Y-111459645D01*
X159955188Y-111212572D01*
X159910732Y-111006025D01*
X159879703Y-110826589D01*
X159859762Y-110660849D01*
X159848571Y-110495392D01*
X159843794Y-110316802D01*
X159843091Y-110111666D01*
X159862769Y-109666850D01*
X159956343Y-109057183D01*
X160127520Y-108481029D01*
X160376965Y-107936729D01*
X160705340Y-107422622D01*
X161113312Y-106937048D01*
X161189990Y-106857928D01*
X161668740Y-106431459D01*
X162188388Y-106078976D01*
X162750821Y-105799348D01*
X163357926Y-105591443D01*
X163771834Y-105478176D01*
X170743920Y-105451310D01*
X170715682Y-105336738D01*
X170710022Y-105314633D01*
X170683605Y-105213814D01*
X170638589Y-105043225D01*
X170577083Y-104810813D01*
X170501195Y-104524530D01*
X170413032Y-104192325D01*
X170314702Y-103822146D01*
X170208313Y-103421943D01*
X170095974Y-102999666D01*
X170039824Y-102788317D01*
X169930049Y-102372987D01*
X169827453Y-101982033D01*
X169734144Y-101623655D01*
X169652232Y-101306053D01*
X169583824Y-101037426D01*
X169531031Y-100825974D01*
X169495960Y-100679897D01*
X169480722Y-100607395D01*
X169474745Y-100472986D01*
X169519231Y-100229866D01*
X169623567Y-99997780D01*
X169775822Y-99800108D01*
X169964063Y-99660233D01*
X169967907Y-99658300D01*
X170083532Y-99611460D01*
X170257265Y-99553721D01*
X170469299Y-99490369D01*
X170699824Y-99426686D01*
X170929034Y-99367957D01*
X171137121Y-99319466D01*
X171304276Y-99286497D01*
X171410692Y-99274333D01*
X171448753Y-99275140D01*
%LPC*%
D14*
X190000000Y-111000000D03*
D15*
X162100000Y-43700000D03*
D16*
X193599999Y-84659999D03*
D17*
X193600000Y-89740000D03*
D18*
X160550000Y-132050000D03*
X178050000Y-132050000D03*
X160550000Y-92050000D03*
X178050000Y-92050000D03*
D16*
X193599999Y-95659999D03*
D17*
X193600000Y-100740000D03*
D15*
X174200000Y-126700000D03*
X106200000Y-131700000D03*
X162200000Y-75000000D03*
D19*
X111540000Y-85340000D03*
D20*
X111540000Y-82800000D03*
X114080000Y-85340000D03*
X114080000Y-82800000D03*
X116620000Y-85340000D03*
X116620000Y-82800000D03*
X119160000Y-85340000D03*
X119160000Y-82800000D03*
X121700000Y-85340000D03*
X121700000Y-82800000D03*
X124240000Y-85340000D03*
X124240000Y-82800000D03*
X126780000Y-85340000D03*
X126780000Y-82800000D03*
X129320000Y-85340000D03*
X129320000Y-82800000D03*
X131860000Y-85340000D03*
X131860000Y-82800000D03*
X134400000Y-85340000D03*
X134400000Y-82800000D03*
D14*
X190000000Y-126000000D03*
D21*
X122999999Y-41599999D03*
D22*
X122999999Y-44139999D03*
X122999999Y-46679999D03*
X122999999Y-49219999D03*
X130619999Y-49219999D03*
X130619999Y-46679999D03*
X130619999Y-44139999D03*
X130619999Y-41599999D03*
D21*
X122899999Y-57799999D03*
D22*
X122899999Y-60339999D03*
X122899999Y-62879999D03*
X122899999Y-65419999D03*
X130519999Y-65419999D03*
X130519999Y-62879999D03*
X130519999Y-60339999D03*
X130519999Y-57799999D03*
D23*
X171950000Y-75850000D03*
X195200000Y-75850000D03*
X171950000Y-40500000D03*
X195200000Y-40500000D03*
D24*
X175869999Y-76349999D03*
D25*
X178409999Y-76349999D03*
X180949999Y-76349999D03*
X183489999Y-76349999D03*
X186029999Y-76349999D03*
X188569999Y-76349999D03*
X191109999Y-76349999D03*
D26*
X175499999Y-84499999D03*
X167299999Y-84499999D03*
D27*
X173399999Y-84499999D03*
D28*
X171399999Y-84499999D03*
X169399999Y-84499999D03*
D29*
X152230000Y-42140000D03*
X103970000Y-43410000D03*
D30*
X152229999Y-56109999D03*
D29*
X147150000Y-94210000D03*
X119210000Y-94210000D03*
X103970000Y-118340000D03*
X152230000Y-124690000D03*
D30*
X152229999Y-63729999D03*
X152229999Y-66269999D03*
X124289999Y-94336999D03*
X103969999Y-122149999D03*
X103969999Y-124689999D03*
X152229999Y-78969999D03*
X152229999Y-81509999D03*
X152229999Y-84049999D03*
X152229999Y-86589999D03*
X152229999Y-89129999D03*
X152229999Y-91669999D03*
X152229999Y-94209999D03*
X152229999Y-96749999D03*
X152229999Y-101829999D03*
X152229999Y-104369999D03*
X152229999Y-106909999D03*
X152229999Y-109449999D03*
X152229999Y-111989999D03*
X152229999Y-114529999D03*
X152229999Y-117069999D03*
X152229999Y-119609999D03*
X103969999Y-52045999D03*
X103969999Y-91669999D03*
X103969999Y-89129999D03*
X103969999Y-86589999D03*
X103969999Y-84049999D03*
X103969999Y-81509999D03*
X103969999Y-78969999D03*
X103969999Y-76429999D03*
X103969999Y-73889999D03*
X103969999Y-69825999D03*
X103969999Y-67285999D03*
X103969999Y-64745999D03*
X103969999Y-62205999D03*
X103969999Y-59665999D03*
X103969999Y-57125999D03*
X103969999Y-96749999D03*
X103969999Y-99289999D03*
X103969999Y-101829999D03*
X103969999Y-104369999D03*
X103969999Y-106909999D03*
X103969999Y-109449999D03*
X103969999Y-111989999D03*
X103969999Y-114529999D03*
X106509999Y-122149999D03*
X106509999Y-124689999D03*
X109049999Y-122149999D03*
X109049999Y-124689999D03*
X111589999Y-122149999D03*
X111589999Y-124689999D03*
X114129999Y-122149999D03*
X114129999Y-124689999D03*
X116669999Y-122149999D03*
X116669999Y-124689999D03*
X119209999Y-122149999D03*
X119209999Y-124689999D03*
X121749999Y-122149999D03*
X121749999Y-124689999D03*
X124289999Y-122149999D03*
X124289999Y-124689999D03*
X126829999Y-122149999D03*
X126829999Y-124689999D03*
X129369999Y-122149999D03*
X129369999Y-124689999D03*
X131909999Y-122149999D03*
X131909999Y-124689999D03*
X134449999Y-122149999D03*
X134449999Y-124689999D03*
X136989999Y-122149999D03*
X136989999Y-124689999D03*
X139529999Y-122149999D03*
X139529999Y-124689999D03*
X142069999Y-122149999D03*
X142069999Y-124689999D03*
X144609999Y-122149999D03*
X144609999Y-124689999D03*
D31*
X103969999Y-54585999D03*
X152229999Y-68809999D03*
X152229999Y-71349999D03*
X129369999Y-94336999D03*
X147149999Y-122149999D03*
X147149999Y-124689999D03*
D30*
X152229999Y-58649999D03*
X124289999Y-91796999D03*
X126829999Y-94336999D03*
X152229999Y-61189999D03*
X129369999Y-91796999D03*
X126829999Y-91796999D03*
X103969999Y-46965999D03*
X103969999Y-49505999D03*
X152229999Y-73889999D03*
M02*
