G04 #@! TF.GenerationSoftware,KiCad,Pcbnew,(7.0.0)*
G04 #@! TF.CreationDate,2023-05-12T10:49:53+02:00*
G04 #@! TF.ProjectId,BMS_Project,424d535f-5072-46f6-9a65-63742e6b6963,rev?*
G04 #@! TF.SameCoordinates,Original*
G04 #@! TF.FileFunction,Copper,L2,Bot*
G04 #@! TF.FilePolarity,Positive*
%FSLAX46Y46*%
G04 Gerber Fmt 4.6, Leading zero omitted, Abs format (unit mm)*
G04 Created by KiCad (PCBNEW (7.0.0)) date 2023-05-12 10:49:53*
%MOMM*%
%LPD*%
G01*
G04 APERTURE LIST*
G04 Aperture macros list*
%AMRoundRect*
0 Rectangle with rounded corners*
0 $1 Rounding radius*
0 $2 $3 $4 $5 $6 $7 $8 $9 X,Y pos of 4 corners*
0 Add a 4 corners polygon primitive as box body*
4,1,4,$2,$3,$4,$5,$6,$7,$8,$9,$2,$3,0*
0 Add four circle primitives for the rounded corners*
1,1,$1+$1,$2,$3*
1,1,$1+$1,$4,$5*
1,1,$1+$1,$6,$7*
1,1,$1+$1,$8,$9*
0 Add four rect primitives between the rounded corners*
20,1,$1+$1,$2,$3,$4,$5,0*
20,1,$1+$1,$4,$5,$6,$7,0*
20,1,$1+$1,$6,$7,$8,$9,0*
20,1,$1+$1,$8,$9,$2,$3,0*%
G04 Aperture macros list end*
G04 #@! TA.AperFunction,ComponentPad*
%ADD10C,10.160000*%
G04 #@! TD*
G04 #@! TA.AperFunction,ComponentPad*
%ADD11R,3.000000X3.000000*%
G04 #@! TD*
G04 #@! TA.AperFunction,ComponentPad*
%ADD12C,3.000000*%
G04 #@! TD*
G04 #@! TA.AperFunction,ComponentPad*
%ADD13RoundRect,0.500000X0.500000X-0.500000X0.500000X0.500000X-0.500000X0.500000X-0.500000X-0.500000X0*%
G04 #@! TD*
G04 #@! TA.AperFunction,ComponentPad*
%ADD14RoundRect,0.250000X0.600000X-0.600000X0.600000X0.600000X-0.600000X0.600000X-0.600000X-0.600000X0*%
G04 #@! TD*
G04 #@! TA.AperFunction,ComponentPad*
%ADD15C,1.700000*%
G04 #@! TD*
G04 #@! TA.AperFunction,ComponentPad*
%ADD16R,1.600000X1.600000*%
G04 #@! TD*
G04 #@! TA.AperFunction,ComponentPad*
%ADD17O,1.600000X1.600000*%
G04 #@! TD*
G04 #@! TA.AperFunction,ComponentPad*
%ADD18R,1.700000X1.700000*%
G04 #@! TD*
G04 #@! TA.AperFunction,ComponentPad*
%ADD19O,1.700000X1.700000*%
G04 #@! TD*
G04 #@! TA.AperFunction,ComponentPad*
%ADD20O,2.200000X3.500000*%
G04 #@! TD*
G04 #@! TA.AperFunction,ComponentPad*
%ADD21R,1.500000X2.500000*%
G04 #@! TD*
G04 #@! TA.AperFunction,ComponentPad*
%ADD22O,1.500000X2.500000*%
G04 #@! TD*
G04 #@! TA.AperFunction,ComponentPad*
%ADD23O,1.727200X1.727200*%
G04 #@! TD*
G04 #@! TA.AperFunction,ComponentPad*
%ADD24R,1.727200X1.727200*%
G04 #@! TD*
G04 #@! TA.AperFunction,ViaPad*
%ADD25C,0.800000*%
G04 #@! TD*
G04 #@! TA.AperFunction,Conductor*
%ADD26C,1.000000*%
G04 #@! TD*
G04 #@! TA.AperFunction,Conductor*
%ADD27C,0.300000*%
G04 #@! TD*
G04 #@! TA.AperFunction,Conductor*
%ADD28C,0.500000*%
G04 #@! TD*
G04 APERTURE END LIST*
D10*
X190000000Y-111000000D03*
D11*
X193599999Y-84659999D03*
D12*
X193600000Y-89740000D03*
D13*
X160550000Y-132050000D03*
X178050000Y-132050000D03*
X160550000Y-92050000D03*
X178050000Y-92050000D03*
D11*
X193599999Y-95659999D03*
D12*
X193600000Y-100740000D03*
D14*
X111540000Y-85340000D03*
D15*
X111540000Y-82800000D03*
X114080000Y-85340000D03*
X114080000Y-82800000D03*
X116620000Y-85340000D03*
X116620000Y-82800000D03*
X119160000Y-85340000D03*
X119160000Y-82800000D03*
X121700000Y-85340000D03*
X121700000Y-82800000D03*
X124240000Y-85340000D03*
X124240000Y-82800000D03*
X126780000Y-85340000D03*
X126780000Y-82800000D03*
X129320000Y-85340000D03*
X129320000Y-82800000D03*
X131860000Y-85340000D03*
X131860000Y-82800000D03*
X134400000Y-85340000D03*
X134400000Y-82800000D03*
D10*
X190000000Y-126000000D03*
D16*
X122999999Y-41599999D03*
D17*
X122999999Y-44139999D03*
X122999999Y-46679999D03*
X122999999Y-49219999D03*
X130619999Y-49219999D03*
X130619999Y-46679999D03*
X130619999Y-44139999D03*
X130619999Y-41599999D03*
D16*
X122899999Y-57799999D03*
D17*
X122899999Y-60339999D03*
X122899999Y-62879999D03*
X122899999Y-65419999D03*
X130519999Y-65419999D03*
X130519999Y-62879999D03*
X130519999Y-60339999D03*
X130519999Y-57799999D03*
D18*
X175869999Y-76349999D03*
D19*
X178409999Y-76349999D03*
X180949999Y-76349999D03*
X183489999Y-76349999D03*
X186029999Y-76349999D03*
X188569999Y-76349999D03*
X191109999Y-76349999D03*
D20*
X175499999Y-84499999D03*
X167299999Y-84499999D03*
D21*
X173399999Y-84499999D03*
D22*
X171399999Y-84499999D03*
X169399999Y-84499999D03*
D23*
X152229999Y-56109999D03*
X152229999Y-63729999D03*
X152229999Y-66269999D03*
X124289999Y-94336999D03*
X103969999Y-122149999D03*
X103969999Y-124689999D03*
X152229999Y-78969999D03*
X152229999Y-81509999D03*
X152229999Y-84049999D03*
X152229999Y-86589999D03*
X152229999Y-89129999D03*
X152229999Y-91669999D03*
X152229999Y-94209999D03*
X152229999Y-96749999D03*
X152229999Y-101829999D03*
X152229999Y-104369999D03*
X152229999Y-106909999D03*
X152229999Y-109449999D03*
X152229999Y-111989999D03*
X152229999Y-114529999D03*
X152229999Y-117069999D03*
X152229999Y-119609999D03*
X103969999Y-52045999D03*
X103969999Y-91669999D03*
X103969999Y-89129999D03*
X103969999Y-86589999D03*
X103969999Y-84049999D03*
X103969999Y-81509999D03*
X103969999Y-78969999D03*
X103969999Y-76429999D03*
X103969999Y-73889999D03*
X103969999Y-69825999D03*
X103969999Y-67285999D03*
X103969999Y-64745999D03*
X103969999Y-62205999D03*
X103969999Y-59665999D03*
X103969999Y-57125999D03*
X103969999Y-96749999D03*
X103969999Y-99289999D03*
X103969999Y-101829999D03*
X103969999Y-104369999D03*
X103969999Y-106909999D03*
X103969999Y-109449999D03*
X103969999Y-111989999D03*
X103969999Y-114529999D03*
X106509999Y-122149999D03*
X106509999Y-124689999D03*
X109049999Y-122149999D03*
X109049999Y-124689999D03*
X111589999Y-122149999D03*
X111589999Y-124689999D03*
X114129999Y-122149999D03*
X114129999Y-124689999D03*
X116669999Y-122149999D03*
X116669999Y-124689999D03*
X119209999Y-122149999D03*
X119209999Y-124689999D03*
X121749999Y-122149999D03*
X121749999Y-124689999D03*
X124289999Y-122149999D03*
X124289999Y-124689999D03*
X126829999Y-122149999D03*
X126829999Y-124689999D03*
X129369999Y-122149999D03*
X129369999Y-124689999D03*
X131909999Y-122149999D03*
X131909999Y-124689999D03*
X134449999Y-122149999D03*
X134449999Y-124689999D03*
X136989999Y-122149999D03*
X136989999Y-124689999D03*
X139529999Y-122149999D03*
X139529999Y-124689999D03*
X142069999Y-122149999D03*
X142069999Y-124689999D03*
X144609999Y-122149999D03*
X144609999Y-124689999D03*
D24*
X103969999Y-54585999D03*
X152229999Y-68809999D03*
X152229999Y-71349999D03*
X129369999Y-94336999D03*
X147149999Y-122149999D03*
X147149999Y-124689999D03*
D23*
X152229999Y-58649999D03*
X124289999Y-91796999D03*
X126829999Y-94336999D03*
X152229999Y-61189999D03*
X129369999Y-91796999D03*
X126829999Y-91796999D03*
X103969999Y-46965999D03*
X103969999Y-49505999D03*
X152229999Y-73889999D03*
D25*
X138410000Y-68810000D03*
X157000000Y-98800000D03*
X147200000Y-88600000D03*
X115500000Y-100800000D03*
X137300000Y-51000000D03*
X116900000Y-64200000D03*
X135600000Y-63800000D03*
X137000000Y-67600000D03*
X117100000Y-57100000D03*
X167260000Y-122000000D03*
X140900000Y-80000000D03*
X145100000Y-98600000D03*
X141000000Y-98600000D03*
D26*
X138400000Y-68800000D02*
X126280000Y-68800000D01*
X194000000Y-80000000D02*
X192200000Y-80000000D01*
X117634000Y-54586000D02*
X123000000Y-49220000D01*
X138410000Y-68810000D02*
X138400000Y-68800000D01*
X122900000Y-65420000D02*
X116564365Y-65420000D01*
X196400000Y-82400000D02*
X196400000Y-86940000D01*
X147150000Y-122150000D02*
X147150000Y-124690000D01*
X196400000Y-82400000D02*
X194000000Y-80000000D01*
X138400000Y-68820000D02*
X138400000Y-78800000D01*
X138400000Y-78800000D02*
X134400000Y-82800000D01*
X192200000Y-79980000D02*
X188570000Y-76350000D01*
X103970000Y-54586000D02*
X117634000Y-54586000D01*
X138410000Y-68810000D02*
X138400000Y-68820000D01*
X126280000Y-68800000D02*
X122900000Y-65420000D01*
X196400000Y-86940000D02*
X193600000Y-89740000D01*
X134400000Y-82800000D02*
X131860000Y-82800000D01*
X192200000Y-80000000D02*
X192200000Y-79980000D01*
X114300000Y-63155635D02*
X114300000Y-54586000D01*
X116564365Y-65420000D02*
X114300000Y-63155635D01*
X145600000Y-100800000D02*
X147600000Y-98800000D01*
D27*
X150300000Y-91700000D02*
X147200000Y-88600000D01*
X150300000Y-98800000D02*
X150300000Y-91700000D01*
D26*
X115500000Y-100800000D02*
X145600000Y-100800000D01*
X147600000Y-98800000D02*
X157000000Y-98800000D01*
X137300000Y-51000000D02*
X149800000Y-51000000D01*
X169400000Y-70600000D02*
X169400000Y-84500000D01*
X149800000Y-51000000D02*
X169400000Y-70600000D01*
D27*
X106510000Y-122150000D02*
X106510000Y-92910000D01*
X106510000Y-92910000D02*
X114080000Y-85340000D01*
X107723600Y-94236400D02*
X116620000Y-85340000D01*
X107723600Y-123476400D02*
X107723600Y-94236400D01*
X106510000Y-124690000D02*
X107723600Y-123476400D01*
X109050000Y-122150000D02*
X109050000Y-95450000D01*
X109050000Y-95450000D02*
X119160000Y-85340000D01*
X110263600Y-96776400D02*
X121700000Y-85340000D01*
X109050000Y-124690000D02*
X110263600Y-123476400D01*
X110263600Y-123476400D02*
X110263600Y-96776400D01*
X116900000Y-64200000D02*
X131500000Y-64200000D01*
X131900000Y-63800000D02*
X135600000Y-63800000D01*
X131500000Y-64200000D02*
X131900000Y-63800000D01*
X134500000Y-61600000D02*
X137000000Y-64100000D01*
X117100000Y-57100000D02*
X121600000Y-61600000D01*
X137000000Y-64100000D02*
X137000000Y-67600000D01*
X121600000Y-61600000D02*
X134500000Y-61600000D01*
X152230000Y-84050000D02*
X144550000Y-84050000D01*
X141600000Y-87000000D02*
X128440000Y-87000000D01*
X144550000Y-84050000D02*
X141600000Y-87000000D01*
X128440000Y-87000000D02*
X126780000Y-85340000D01*
X126900000Y-88000000D02*
X124240000Y-85340000D01*
X142500000Y-88000000D02*
X126900000Y-88000000D01*
X152230000Y-86590000D02*
X143910000Y-86590000D01*
X143910000Y-86590000D02*
X142500000Y-88000000D01*
X123000000Y-86600000D02*
X123000000Y-84600000D01*
X123000000Y-84600000D02*
X123500000Y-84100000D01*
X111590000Y-98010000D02*
X123000000Y-86600000D01*
X111590000Y-122150000D02*
X111590000Y-98010000D01*
X123500000Y-84100000D02*
X128080000Y-84100000D01*
X128080000Y-84100000D02*
X129320000Y-85340000D01*
D28*
X167260000Y-122000000D02*
X193600000Y-95660000D01*
D27*
X155600000Y-75300000D02*
X155600000Y-93380000D01*
X129100000Y-50700000D02*
X151076400Y-72676400D01*
X151076400Y-72676400D02*
X152976400Y-72676400D01*
X130620000Y-44140000D02*
X129100000Y-45660000D01*
X129100000Y-45660000D02*
X129100000Y-50700000D01*
X155600000Y-93380000D02*
X152230000Y-96750000D01*
X152976400Y-72676400D02*
X155600000Y-75300000D01*
X154900000Y-78500000D02*
X154900000Y-91540000D01*
X123000000Y-41600000D02*
X126930000Y-45530000D01*
X126930000Y-45530000D02*
X126930000Y-50530000D01*
X154900000Y-91540000D02*
X152230000Y-94210000D01*
X126930000Y-50530000D02*
X154900000Y-78500000D01*
X134340000Y-60340000D02*
X130520000Y-60340000D01*
X140900000Y-80000000D02*
X140900000Y-66900000D01*
X140900000Y-66900000D02*
X134340000Y-60340000D01*
X153900000Y-78800000D02*
X153900000Y-87460000D01*
X122900000Y-57800000D02*
X124200000Y-59100000D01*
X124200000Y-59100000D02*
X134200000Y-59100000D01*
X153900000Y-87460000D02*
X152230000Y-89130000D01*
X134200000Y-59100000D02*
X153900000Y-78800000D01*
X141000000Y-98600000D02*
X145100000Y-98600000D01*
X149300000Y-121500000D02*
X154200000Y-121500000D01*
X157300000Y-118400000D02*
X157300000Y-108000000D01*
X157300000Y-108000000D02*
X178410000Y-86890000D01*
X154200000Y-121500000D02*
X157300000Y-118400000D01*
X148600000Y-120800000D02*
X149300000Y-121500000D01*
X178410000Y-86890000D02*
X178410000Y-76350000D01*
X144610000Y-122150000D02*
X145960000Y-120800000D01*
X145960000Y-120800000D02*
X148600000Y-120800000D01*
X144380000Y-127000000D02*
X142070000Y-124690000D01*
X153700000Y-127000000D02*
X144380000Y-127000000D01*
X180950000Y-99750000D02*
X153700000Y-127000000D01*
X180950000Y-76350000D02*
X180950000Y-99750000D01*
X144100000Y-128800000D02*
X140800000Y-125500000D01*
X183500000Y-95800000D02*
X183500000Y-98800000D01*
X153500000Y-128800000D02*
X144100000Y-128800000D01*
X140800000Y-125500000D02*
X140800000Y-123420000D01*
X183490000Y-76350000D02*
X183490000Y-95790000D01*
X183500000Y-98800000D02*
X153500000Y-128800000D01*
X183490000Y-95790000D02*
X183500000Y-95800000D01*
X140800000Y-123420000D02*
X142070000Y-122150000D01*
X139530000Y-126330000D02*
X139530000Y-124690000D01*
X143500000Y-130300000D02*
X139530000Y-126330000D01*
X186030000Y-97870000D02*
X153600000Y-130300000D01*
X153600000Y-130300000D02*
X143500000Y-130300000D01*
X186030000Y-76350000D02*
X186030000Y-97870000D01*
M02*
