%TF.GenerationSoftware,KiCad,Pcbnew,(7.0.0)*%
%TF.CreationDate,2023-05-12T10:49:56+02:00*%
%TF.ProjectId,BMS_Project,424d535f-5072-46f6-9a65-63742e6b6963,rev?*%
%TF.SameCoordinates,Original*%
%TF.FileFunction,Drillmap*%
%TF.FilePolarity,Positive*%
%FSLAX45Y45*%
G04 Gerber Fmt 4.5, Leading zero omitted, Abs format (unit mm)*
G04 Created by KiCad (PCBNEW (7.0.0)) date 2023-05-12 10:49:56*
%MOMM*%
%LPD*%
G01*
G04 APERTURE LIST*
%ADD10C,0.100000*%
%ADD11C,0.200000*%
%ADD12C,0.040000*%
%ADD13C,0.080000*%
%ADD14C,0.101600*%
%ADD15C,0.150000*%
%ADD16C,0.152000*%
%ADD17C,0.610000*%
G04 APERTURE END LIST*
D10*
X9870000Y-3610000D02*
X19870000Y-3610000D01*
X19870000Y-3610000D02*
X19870000Y-13610000D01*
X19870000Y-13610000D02*
X9870000Y-13610000D01*
X9870000Y-13610000D02*
X9870000Y-3610000D01*
D11*
D12*
X11530000Y-10060000D02*
X11570000Y-10100000D01*
X11570000Y-10060000D02*
X11530000Y-10100000D01*
X11670000Y-6400000D02*
X11710000Y-6440000D01*
X11710000Y-6400000D02*
X11670000Y-6440000D01*
X11690000Y-5690000D02*
X11730000Y-5730000D01*
X11730000Y-5690000D02*
X11690000Y-5730000D01*
X13540000Y-6360000D02*
X13580000Y-6400000D01*
X13580000Y-6360000D02*
X13540000Y-6400000D01*
X13680000Y-6740000D02*
X13720000Y-6780000D01*
X13720000Y-6740000D02*
X13680000Y-6780000D01*
X13710000Y-5080000D02*
X13750000Y-5120000D01*
X13750000Y-5080000D02*
X13710000Y-5120000D01*
X13821000Y-6861000D02*
X13861000Y-6901000D01*
X13861000Y-6861000D02*
X13821000Y-6901000D01*
X14070000Y-7980000D02*
X14110000Y-8020000D01*
X14110000Y-7980000D02*
X14070000Y-8020000D01*
X14080000Y-9840000D02*
X14120000Y-9880000D01*
X14120000Y-9840000D02*
X14080000Y-9880000D01*
X14490000Y-9840000D02*
X14530000Y-9880000D01*
X14530000Y-9840000D02*
X14490000Y-9880000D01*
X14700000Y-8840000D02*
X14740000Y-8880000D01*
X14740000Y-8840000D02*
X14700000Y-8880000D01*
X15680000Y-9860000D02*
X15720000Y-9900000D01*
X15720000Y-9860000D02*
X15680000Y-9900000D01*
X16706000Y-12180000D02*
X16746000Y-12220000D01*
X16746000Y-12180000D02*
X16706000Y-12220000D01*
D13*
X12330000Y-5780000D02*
G75*
G03*
X12330000Y-5780000I-40000J0D01*
G01*
X12330000Y-6034000D02*
G75*
G03*
X12330000Y-6034000I-40000J0D01*
G01*
X12330000Y-6288000D02*
G75*
G03*
X12330000Y-6288000I-40000J0D01*
G01*
X12330000Y-6542000D02*
G75*
G03*
X12330000Y-6542000I-40000J0D01*
G01*
X12340000Y-4160000D02*
G75*
G03*
X12340000Y-4160000I-40000J0D01*
G01*
X12340000Y-4414000D02*
G75*
G03*
X12340000Y-4414000I-40000J0D01*
G01*
X12340000Y-4668000D02*
G75*
G03*
X12340000Y-4668000I-40000J0D01*
G01*
X12340000Y-4922000D02*
G75*
G03*
X12340000Y-4922000I-40000J0D01*
G01*
X13092000Y-5780000D02*
G75*
G03*
X13092000Y-5780000I-40000J0D01*
G01*
X13092000Y-6034000D02*
G75*
G03*
X13092000Y-6034000I-40000J0D01*
G01*
X13092000Y-6288000D02*
G75*
G03*
X13092000Y-6288000I-40000J0D01*
G01*
X13092000Y-6542000D02*
G75*
G03*
X13092000Y-6542000I-40000J0D01*
G01*
X13102000Y-4160000D02*
G75*
G03*
X13102000Y-4160000I-40000J0D01*
G01*
X13102000Y-4414000D02*
G75*
G03*
X13102000Y-4414000I-40000J0D01*
G01*
X13102000Y-4668000D02*
G75*
G03*
X13102000Y-4668000I-40000J0D01*
G01*
X13102000Y-4922000D02*
G75*
G03*
X13102000Y-4922000I-40000J0D01*
G01*
X16095000Y-9205000D02*
G75*
G03*
X16095000Y-9205000I-40000J0D01*
G01*
X16095000Y-13205000D02*
G75*
G03*
X16095000Y-13205000I-40000J0D01*
G01*
X16980000Y-8450000D02*
G75*
G03*
X16980000Y-8450000I-40000J0D01*
G01*
X17180000Y-8450000D02*
G75*
G03*
X17180000Y-8450000I-40000J0D01*
G01*
X17380000Y-8450000D02*
G75*
G03*
X17380000Y-8450000I-40000J0D01*
G01*
X17845000Y-9205000D02*
G75*
G03*
X17845000Y-9205000I-40000J0D01*
G01*
X17845000Y-13205000D02*
G75*
G03*
X17845000Y-13205000I-40000J0D01*
G01*
D10*
X11154000Y-8230000D02*
X11154000Y-8330000D01*
X11104000Y-8280000D02*
X11204000Y-8280000D01*
X11154000Y-8484000D02*
X11154000Y-8584000D01*
X11104000Y-8534000D02*
X11204000Y-8534000D01*
X11408000Y-8230000D02*
X11408000Y-8330000D01*
X11358000Y-8280000D02*
X11458000Y-8280000D01*
X11408000Y-8484000D02*
X11408000Y-8584000D01*
X11358000Y-8534000D02*
X11458000Y-8534000D01*
X11662000Y-8230000D02*
X11662000Y-8330000D01*
X11612000Y-8280000D02*
X11712000Y-8280000D01*
X11662000Y-8484000D02*
X11662000Y-8584000D01*
X11612000Y-8534000D02*
X11712000Y-8534000D01*
X11916000Y-8230000D02*
X11916000Y-8330000D01*
X11866000Y-8280000D02*
X11966000Y-8280000D01*
X11916000Y-8484000D02*
X11916000Y-8584000D01*
X11866000Y-8534000D02*
X11966000Y-8534000D01*
X12170000Y-8230000D02*
X12170000Y-8330000D01*
X12120000Y-8280000D02*
X12220000Y-8280000D01*
X12170000Y-8484000D02*
X12170000Y-8584000D01*
X12120000Y-8534000D02*
X12220000Y-8534000D01*
X12424000Y-8230000D02*
X12424000Y-8330000D01*
X12374000Y-8280000D02*
X12474000Y-8280000D01*
X12424000Y-8484000D02*
X12424000Y-8584000D01*
X12374000Y-8534000D02*
X12474000Y-8534000D01*
X12678000Y-8230000D02*
X12678000Y-8330000D01*
X12628000Y-8280000D02*
X12728000Y-8280000D01*
X12678000Y-8484000D02*
X12678000Y-8584000D01*
X12628000Y-8534000D02*
X12728000Y-8534000D01*
X12932000Y-8230000D02*
X12932000Y-8330000D01*
X12882000Y-8280000D02*
X12982000Y-8280000D01*
X12932000Y-8484000D02*
X12932000Y-8584000D01*
X12882000Y-8534000D02*
X12982000Y-8534000D01*
X13186000Y-8230000D02*
X13186000Y-8330000D01*
X13136000Y-8280000D02*
X13236000Y-8280000D01*
X13186000Y-8484000D02*
X13186000Y-8584000D01*
X13136000Y-8534000D02*
X13236000Y-8534000D01*
X13440000Y-8230000D02*
X13440000Y-8330000D01*
X13390000Y-8280000D02*
X13490000Y-8280000D01*
X13440000Y-8484000D02*
X13440000Y-8584000D01*
X13390000Y-8534000D02*
X13490000Y-8534000D01*
X17587000Y-7585000D02*
X17587000Y-7685000D01*
X17537000Y-7635000D02*
X17637000Y-7635000D01*
X17841000Y-7585000D02*
X17841000Y-7685000D01*
X17791000Y-7635000D02*
X17891000Y-7635000D01*
X18095000Y-7585000D02*
X18095000Y-7685000D01*
X18045000Y-7635000D02*
X18145000Y-7635000D01*
X18349000Y-7585000D02*
X18349000Y-7685000D01*
X18299000Y-7635000D02*
X18399000Y-7635000D01*
X18603000Y-7585000D02*
X18603000Y-7685000D01*
X18553000Y-7635000D02*
X18653000Y-7635000D01*
X18857000Y-7585000D02*
X18857000Y-7685000D01*
X18807000Y-7635000D02*
X18907000Y-7635000D01*
X19111000Y-7585000D02*
X19111000Y-7685000D01*
X19061000Y-7635000D02*
X19161000Y-7635000D01*
D14*
X10432921Y-4732521D02*
X10432921Y-4660679D01*
X10361079Y-4660679D01*
X10361079Y-4732521D01*
X10432921Y-4732521D01*
X10432921Y-4986521D02*
X10432921Y-4914679D01*
X10361079Y-4914679D01*
X10361079Y-4986521D01*
X10432921Y-4986521D01*
X10432921Y-5240521D02*
X10432921Y-5168679D01*
X10361079Y-5168679D01*
X10361079Y-5240521D01*
X10432921Y-5240521D01*
X10432921Y-5494521D02*
X10432921Y-5422679D01*
X10361079Y-5422679D01*
X10361079Y-5494521D01*
X10432921Y-5494521D01*
X10432921Y-5748521D02*
X10432921Y-5676679D01*
X10361079Y-5676679D01*
X10361079Y-5748521D01*
X10432921Y-5748521D01*
X10432921Y-6002521D02*
X10432921Y-5930679D01*
X10361079Y-5930679D01*
X10361079Y-6002521D01*
X10432921Y-6002521D01*
X10432921Y-6256521D02*
X10432921Y-6184679D01*
X10361079Y-6184679D01*
X10361079Y-6256521D01*
X10432921Y-6256521D01*
X10432921Y-6510521D02*
X10432921Y-6438679D01*
X10361079Y-6438679D01*
X10361079Y-6510521D01*
X10432921Y-6510521D01*
X10432921Y-6764521D02*
X10432921Y-6692679D01*
X10361079Y-6692679D01*
X10361079Y-6764521D01*
X10432921Y-6764521D01*
X10432921Y-7018521D02*
X10432921Y-6946679D01*
X10361079Y-6946679D01*
X10361079Y-7018521D01*
X10432921Y-7018521D01*
X10432921Y-7424921D02*
X10432921Y-7353079D01*
X10361079Y-7353079D01*
X10361079Y-7424921D01*
X10432921Y-7424921D01*
X10432921Y-7678921D02*
X10432921Y-7607079D01*
X10361079Y-7607079D01*
X10361079Y-7678921D01*
X10432921Y-7678921D01*
X10432921Y-7932921D02*
X10432921Y-7861079D01*
X10361079Y-7861079D01*
X10361079Y-7932921D01*
X10432921Y-7932921D01*
X10432921Y-8186921D02*
X10432921Y-8115079D01*
X10361079Y-8115079D01*
X10361079Y-8186921D01*
X10432921Y-8186921D01*
X10432921Y-8440921D02*
X10432921Y-8369079D01*
X10361079Y-8369079D01*
X10361079Y-8440921D01*
X10432921Y-8440921D01*
X10432921Y-8694921D02*
X10432921Y-8623079D01*
X10361079Y-8623079D01*
X10361079Y-8694921D01*
X10432921Y-8694921D01*
X10432921Y-8948921D02*
X10432921Y-8877079D01*
X10361079Y-8877079D01*
X10361079Y-8948921D01*
X10432921Y-8948921D01*
X10432921Y-9202921D02*
X10432921Y-9131079D01*
X10361079Y-9131079D01*
X10361079Y-9202921D01*
X10432921Y-9202921D01*
X10432921Y-9710921D02*
X10432921Y-9639079D01*
X10361079Y-9639079D01*
X10361079Y-9710921D01*
X10432921Y-9710921D01*
X10432921Y-9964921D02*
X10432921Y-9893079D01*
X10361079Y-9893079D01*
X10361079Y-9964921D01*
X10432921Y-9964921D01*
X10432921Y-10218921D02*
X10432921Y-10147079D01*
X10361079Y-10147079D01*
X10361079Y-10218921D01*
X10432921Y-10218921D01*
X10432921Y-10472921D02*
X10432921Y-10401079D01*
X10361079Y-10401079D01*
X10361079Y-10472921D01*
X10432921Y-10472921D01*
X10432921Y-10726921D02*
X10432921Y-10655079D01*
X10361079Y-10655079D01*
X10361079Y-10726921D01*
X10432921Y-10726921D01*
X10432921Y-10980921D02*
X10432921Y-10909079D01*
X10361079Y-10909079D01*
X10361079Y-10980921D01*
X10432921Y-10980921D01*
X10432921Y-11234921D02*
X10432921Y-11163079D01*
X10361079Y-11163079D01*
X10361079Y-11234921D01*
X10432921Y-11234921D01*
X10432921Y-11488921D02*
X10432921Y-11417079D01*
X10361079Y-11417079D01*
X10361079Y-11488921D01*
X10432921Y-11488921D01*
X10432921Y-12250921D02*
X10432921Y-12179079D01*
X10361079Y-12179079D01*
X10361079Y-12250921D01*
X10432921Y-12250921D01*
X10432921Y-12504921D02*
X10432921Y-12433079D01*
X10361079Y-12433079D01*
X10361079Y-12504921D01*
X10432921Y-12504921D01*
X10686921Y-12250921D02*
X10686921Y-12179079D01*
X10615079Y-12179079D01*
X10615079Y-12250921D01*
X10686921Y-12250921D01*
X10686921Y-12504921D02*
X10686921Y-12433079D01*
X10615079Y-12433079D01*
X10615079Y-12504921D01*
X10686921Y-12504921D01*
X10940921Y-12250921D02*
X10940921Y-12179079D01*
X10869079Y-12179079D01*
X10869079Y-12250921D01*
X10940921Y-12250921D01*
X10940921Y-12504921D02*
X10940921Y-12433079D01*
X10869079Y-12433079D01*
X10869079Y-12504921D01*
X10940921Y-12504921D01*
X11194921Y-12250921D02*
X11194921Y-12179079D01*
X11123079Y-12179079D01*
X11123079Y-12250921D01*
X11194921Y-12250921D01*
X11194921Y-12504921D02*
X11194921Y-12433079D01*
X11123079Y-12433079D01*
X11123079Y-12504921D01*
X11194921Y-12504921D01*
X11448921Y-12250921D02*
X11448921Y-12179079D01*
X11377079Y-12179079D01*
X11377079Y-12250921D01*
X11448921Y-12250921D01*
X11448921Y-12504921D02*
X11448921Y-12433079D01*
X11377079Y-12433079D01*
X11377079Y-12504921D01*
X11448921Y-12504921D01*
X11702921Y-12250921D02*
X11702921Y-12179079D01*
X11631079Y-12179079D01*
X11631079Y-12250921D01*
X11702921Y-12250921D01*
X11702921Y-12504921D02*
X11702921Y-12433079D01*
X11631079Y-12433079D01*
X11631079Y-12504921D01*
X11702921Y-12504921D01*
X11956921Y-12250921D02*
X11956921Y-12179079D01*
X11885079Y-12179079D01*
X11885079Y-12250921D01*
X11956921Y-12250921D01*
X11956921Y-12504921D02*
X11956921Y-12433079D01*
X11885079Y-12433079D01*
X11885079Y-12504921D01*
X11956921Y-12504921D01*
X12210921Y-12250921D02*
X12210921Y-12179079D01*
X12139079Y-12179079D01*
X12139079Y-12250921D01*
X12210921Y-12250921D01*
X12210921Y-12504921D02*
X12210921Y-12433079D01*
X12139079Y-12433079D01*
X12139079Y-12504921D01*
X12210921Y-12504921D01*
X12464921Y-9215621D02*
X12464921Y-9143779D01*
X12393079Y-9143779D01*
X12393079Y-9215621D01*
X12464921Y-9215621D01*
X12464921Y-9469621D02*
X12464921Y-9397779D01*
X12393079Y-9397779D01*
X12393079Y-9469621D01*
X12464921Y-9469621D01*
X12464921Y-12250921D02*
X12464921Y-12179079D01*
X12393079Y-12179079D01*
X12393079Y-12250921D01*
X12464921Y-12250921D01*
X12464921Y-12504921D02*
X12464921Y-12433079D01*
X12393079Y-12433079D01*
X12393079Y-12504921D01*
X12464921Y-12504921D01*
X12718921Y-9215621D02*
X12718921Y-9143779D01*
X12647079Y-9143779D01*
X12647079Y-9215621D01*
X12718921Y-9215621D01*
X12718921Y-9469621D02*
X12718921Y-9397779D01*
X12647079Y-9397779D01*
X12647079Y-9469621D01*
X12718921Y-9469621D01*
X12718921Y-12250921D02*
X12718921Y-12179079D01*
X12647079Y-12179079D01*
X12647079Y-12250921D01*
X12718921Y-12250921D01*
X12718921Y-12504921D02*
X12718921Y-12433079D01*
X12647079Y-12433079D01*
X12647079Y-12504921D01*
X12718921Y-12504921D01*
X12972921Y-9215621D02*
X12972921Y-9143779D01*
X12901079Y-9143779D01*
X12901079Y-9215621D01*
X12972921Y-9215621D01*
X12972921Y-9469621D02*
X12972921Y-9397779D01*
X12901079Y-9397779D01*
X12901079Y-9469621D01*
X12972921Y-9469621D01*
X12972921Y-12250921D02*
X12972921Y-12179079D01*
X12901079Y-12179079D01*
X12901079Y-12250921D01*
X12972921Y-12250921D01*
X12972921Y-12504921D02*
X12972921Y-12433079D01*
X12901079Y-12433079D01*
X12901079Y-12504921D01*
X12972921Y-12504921D01*
X13226921Y-12250921D02*
X13226921Y-12179079D01*
X13155079Y-12179079D01*
X13155079Y-12250921D01*
X13226921Y-12250921D01*
X13226921Y-12504921D02*
X13226921Y-12433079D01*
X13155079Y-12433079D01*
X13155079Y-12504921D01*
X13226921Y-12504921D01*
X13480921Y-12250921D02*
X13480921Y-12179079D01*
X13409079Y-12179079D01*
X13409079Y-12250921D01*
X13480921Y-12250921D01*
X13480921Y-12504921D02*
X13480921Y-12433079D01*
X13409079Y-12433079D01*
X13409079Y-12504921D01*
X13480921Y-12504921D01*
X13734921Y-12250921D02*
X13734921Y-12179079D01*
X13663079Y-12179079D01*
X13663079Y-12250921D01*
X13734921Y-12250921D01*
X13734921Y-12504921D02*
X13734921Y-12433079D01*
X13663079Y-12433079D01*
X13663079Y-12504921D01*
X13734921Y-12504921D01*
X13988921Y-12250921D02*
X13988921Y-12179079D01*
X13917079Y-12179079D01*
X13917079Y-12250921D01*
X13988921Y-12250921D01*
X13988921Y-12504921D02*
X13988921Y-12433079D01*
X13917079Y-12433079D01*
X13917079Y-12504921D01*
X13988921Y-12504921D01*
X14242921Y-12250921D02*
X14242921Y-12179079D01*
X14171079Y-12179079D01*
X14171079Y-12250921D01*
X14242921Y-12250921D01*
X14242921Y-12504921D02*
X14242921Y-12433079D01*
X14171079Y-12433079D01*
X14171079Y-12504921D01*
X14242921Y-12504921D01*
X14496921Y-12250921D02*
X14496921Y-12179079D01*
X14425079Y-12179079D01*
X14425079Y-12250921D01*
X14496921Y-12250921D01*
X14496921Y-12504921D02*
X14496921Y-12433079D01*
X14425079Y-12433079D01*
X14425079Y-12504921D01*
X14496921Y-12504921D01*
X14750921Y-12250921D02*
X14750921Y-12179079D01*
X14679079Y-12179079D01*
X14679079Y-12250921D01*
X14750921Y-12250921D01*
X14750921Y-12504921D02*
X14750921Y-12433079D01*
X14679079Y-12433079D01*
X14679079Y-12504921D01*
X14750921Y-12504921D01*
X15258921Y-5646921D02*
X15258921Y-5575079D01*
X15187079Y-5575079D01*
X15187079Y-5646921D01*
X15258921Y-5646921D01*
X15258921Y-5900921D02*
X15258921Y-5829079D01*
X15187079Y-5829079D01*
X15187079Y-5900921D01*
X15258921Y-5900921D01*
X15258921Y-6154921D02*
X15258921Y-6083079D01*
X15187079Y-6083079D01*
X15187079Y-6154921D01*
X15258921Y-6154921D01*
X15258921Y-6408921D02*
X15258921Y-6337079D01*
X15187079Y-6337079D01*
X15187079Y-6408921D01*
X15258921Y-6408921D01*
X15258921Y-6662921D02*
X15258921Y-6591079D01*
X15187079Y-6591079D01*
X15187079Y-6662921D01*
X15258921Y-6662921D01*
X15258921Y-6916921D02*
X15258921Y-6845079D01*
X15187079Y-6845079D01*
X15187079Y-6916921D01*
X15258921Y-6916921D01*
X15258921Y-7170921D02*
X15258921Y-7099079D01*
X15187079Y-7099079D01*
X15187079Y-7170921D01*
X15258921Y-7170921D01*
X15258921Y-7424921D02*
X15258921Y-7353079D01*
X15187079Y-7353079D01*
X15187079Y-7424921D01*
X15258921Y-7424921D01*
X15258921Y-7932921D02*
X15258921Y-7861079D01*
X15187079Y-7861079D01*
X15187079Y-7932921D01*
X15258921Y-7932921D01*
X15258921Y-8186921D02*
X15258921Y-8115079D01*
X15187079Y-8115079D01*
X15187079Y-8186921D01*
X15258921Y-8186921D01*
X15258921Y-8440921D02*
X15258921Y-8369079D01*
X15187079Y-8369079D01*
X15187079Y-8440921D01*
X15258921Y-8440921D01*
X15258921Y-8694921D02*
X15258921Y-8623079D01*
X15187079Y-8623079D01*
X15187079Y-8694921D01*
X15258921Y-8694921D01*
X15258921Y-8948921D02*
X15258921Y-8877079D01*
X15187079Y-8877079D01*
X15187079Y-8948921D01*
X15258921Y-8948921D01*
X15258921Y-9202921D02*
X15258921Y-9131079D01*
X15187079Y-9131079D01*
X15187079Y-9202921D01*
X15258921Y-9202921D01*
X15258921Y-9456921D02*
X15258921Y-9385079D01*
X15187079Y-9385079D01*
X15187079Y-9456921D01*
X15258921Y-9456921D01*
X15258921Y-9710921D02*
X15258921Y-9639079D01*
X15187079Y-9639079D01*
X15187079Y-9710921D01*
X15258921Y-9710921D01*
X15258921Y-10218921D02*
X15258921Y-10147079D01*
X15187079Y-10147079D01*
X15187079Y-10218921D01*
X15258921Y-10218921D01*
X15258921Y-10472921D02*
X15258921Y-10401079D01*
X15187079Y-10401079D01*
X15187079Y-10472921D01*
X15258921Y-10472921D01*
X15258921Y-10726921D02*
X15258921Y-10655079D01*
X15187079Y-10655079D01*
X15187079Y-10726921D01*
X15258921Y-10726921D01*
X15258921Y-10980921D02*
X15258921Y-10909079D01*
X15187079Y-10909079D01*
X15187079Y-10980921D01*
X15258921Y-10980921D01*
X15258921Y-11234921D02*
X15258921Y-11163079D01*
X15187079Y-11163079D01*
X15187079Y-11234921D01*
X15258921Y-11234921D01*
X15258921Y-11488921D02*
X15258921Y-11417079D01*
X15187079Y-11417079D01*
X15187079Y-11488921D01*
X15258921Y-11488921D01*
X15258921Y-11742921D02*
X15258921Y-11671079D01*
X15187079Y-11671079D01*
X15187079Y-11742921D01*
X15258921Y-11742921D01*
X15258921Y-11996921D02*
X15258921Y-11925079D01*
X15187079Y-11925079D01*
X15187079Y-11996921D01*
X15258921Y-11996921D01*
D15*
X16730000Y-8525000D02*
X16805000Y-8450000D01*
X16730000Y-8375000D01*
X16655000Y-8450000D01*
X16730000Y-8525000D01*
X17550000Y-8525000D02*
X17625000Y-8450000D01*
X17550000Y-8375000D01*
X17475000Y-8450000D01*
X17550000Y-8525000D01*
D16*
X19284000Y-8390000D02*
X19436000Y-8542000D01*
X19436000Y-8390000D02*
X19284000Y-8542000D01*
X19436000Y-8466000D02*
G75*
G03*
X19436000Y-8466000I-76000J0D01*
G01*
X19284000Y-8898000D02*
X19436000Y-9050000D01*
X19436000Y-8898000D02*
X19284000Y-9050000D01*
X19436000Y-8974000D02*
G75*
G03*
X19436000Y-8974000I-76000J0D01*
G01*
X19284000Y-9490000D02*
X19436000Y-9642000D01*
X19436000Y-9490000D02*
X19284000Y-9642000D01*
X19436000Y-9566000D02*
G75*
G03*
X19436000Y-9566000I-76000J0D01*
G01*
X19284000Y-9998000D02*
X19436000Y-10150000D01*
X19436000Y-9998000D02*
X19284000Y-10150000D01*
X19436000Y-10074000D02*
G75*
G03*
X19436000Y-10074000I-76000J0D01*
G01*
D17*
X18695000Y-10795000D02*
X19305000Y-11405000D01*
X19305000Y-10795000D02*
X18695000Y-11405000D01*
X19000000Y-10795000D02*
X19000000Y-11405000D01*
X18695000Y-11100000D02*
X19305000Y-11100000D01*
X18695000Y-12295000D02*
X19305000Y-12905000D01*
X19305000Y-12295000D02*
X18695000Y-12905000D01*
X19000000Y-12295000D02*
X19000000Y-12905000D01*
X18695000Y-12600000D02*
X19305000Y-12600000D01*
D11*
X10112619Y-13908476D02*
X10112619Y-13708476D01*
X10112619Y-13708476D02*
X10160238Y-13708476D01*
X10160238Y-13708476D02*
X10188810Y-13718000D01*
X10188810Y-13718000D02*
X10207857Y-13737048D01*
X10207857Y-13737048D02*
X10217381Y-13756095D01*
X10217381Y-13756095D02*
X10226905Y-13794190D01*
X10226905Y-13794190D02*
X10226905Y-13822762D01*
X10226905Y-13822762D02*
X10217381Y-13860857D01*
X10217381Y-13860857D02*
X10207857Y-13879905D01*
X10207857Y-13879905D02*
X10188810Y-13898952D01*
X10188810Y-13898952D02*
X10160238Y-13908476D01*
X10160238Y-13908476D02*
X10112619Y-13908476D01*
X10312619Y-13908476D02*
X10312619Y-13775143D01*
X10312619Y-13813238D02*
X10322143Y-13794190D01*
X10322143Y-13794190D02*
X10331667Y-13784667D01*
X10331667Y-13784667D02*
X10350714Y-13775143D01*
X10350714Y-13775143D02*
X10369762Y-13775143D01*
X10436429Y-13908476D02*
X10436429Y-13775143D01*
X10436429Y-13708476D02*
X10426905Y-13718000D01*
X10426905Y-13718000D02*
X10436429Y-13727524D01*
X10436429Y-13727524D02*
X10445952Y-13718000D01*
X10445952Y-13718000D02*
X10436429Y-13708476D01*
X10436429Y-13708476D02*
X10436429Y-13727524D01*
X10560238Y-13908476D02*
X10541190Y-13898952D01*
X10541190Y-13898952D02*
X10531667Y-13879905D01*
X10531667Y-13879905D02*
X10531667Y-13708476D01*
X10665000Y-13908476D02*
X10645952Y-13898952D01*
X10645952Y-13898952D02*
X10636429Y-13879905D01*
X10636429Y-13879905D02*
X10636429Y-13708476D01*
X10861190Y-13908476D02*
X10861190Y-13708476D01*
X10861190Y-13708476D02*
X10927857Y-13851333D01*
X10927857Y-13851333D02*
X10994524Y-13708476D01*
X10994524Y-13708476D02*
X10994524Y-13908476D01*
X11175476Y-13908476D02*
X11175476Y-13803714D01*
X11175476Y-13803714D02*
X11165952Y-13784667D01*
X11165952Y-13784667D02*
X11146905Y-13775143D01*
X11146905Y-13775143D02*
X11108809Y-13775143D01*
X11108809Y-13775143D02*
X11089762Y-13784667D01*
X11175476Y-13898952D02*
X11156429Y-13908476D01*
X11156429Y-13908476D02*
X11108809Y-13908476D01*
X11108809Y-13908476D02*
X11089762Y-13898952D01*
X11089762Y-13898952D02*
X11080238Y-13879905D01*
X11080238Y-13879905D02*
X11080238Y-13860857D01*
X11080238Y-13860857D02*
X11089762Y-13841809D01*
X11089762Y-13841809D02*
X11108809Y-13832286D01*
X11108809Y-13832286D02*
X11156429Y-13832286D01*
X11156429Y-13832286D02*
X11175476Y-13822762D01*
X11270714Y-13775143D02*
X11270714Y-13975143D01*
X11270714Y-13784667D02*
X11289762Y-13775143D01*
X11289762Y-13775143D02*
X11327857Y-13775143D01*
X11327857Y-13775143D02*
X11346905Y-13784667D01*
X11346905Y-13784667D02*
X11356428Y-13794190D01*
X11356428Y-13794190D02*
X11365952Y-13813238D01*
X11365952Y-13813238D02*
X11365952Y-13870381D01*
X11365952Y-13870381D02*
X11356428Y-13889428D01*
X11356428Y-13889428D02*
X11346905Y-13898952D01*
X11346905Y-13898952D02*
X11327857Y-13908476D01*
X11327857Y-13908476D02*
X11289762Y-13908476D01*
X11289762Y-13908476D02*
X11270714Y-13898952D01*
X11451667Y-13889428D02*
X11461190Y-13898952D01*
X11461190Y-13898952D02*
X11451667Y-13908476D01*
X11451667Y-13908476D02*
X11442143Y-13898952D01*
X11442143Y-13898952D02*
X11451667Y-13889428D01*
X11451667Y-13889428D02*
X11451667Y-13908476D01*
X11451667Y-13784667D02*
X11461190Y-13794190D01*
X11461190Y-13794190D02*
X11451667Y-13803714D01*
X11451667Y-13803714D02*
X11442143Y-13794190D01*
X11442143Y-13794190D02*
X11451667Y-13784667D01*
X11451667Y-13784667D02*
X11451667Y-13803714D01*
D12*
X9825000Y-14235000D02*
X9865000Y-14275000D01*
X9865000Y-14235000D02*
X9825000Y-14275000D01*
D11*
X10150714Y-14128476D02*
X10169762Y-14128476D01*
X10169762Y-14128476D02*
X10188810Y-14138000D01*
X10188810Y-14138000D02*
X10198333Y-14147524D01*
X10198333Y-14147524D02*
X10207857Y-14166571D01*
X10207857Y-14166571D02*
X10217381Y-14204667D01*
X10217381Y-14204667D02*
X10217381Y-14252286D01*
X10217381Y-14252286D02*
X10207857Y-14290381D01*
X10207857Y-14290381D02*
X10198333Y-14309428D01*
X10198333Y-14309428D02*
X10188810Y-14318952D01*
X10188810Y-14318952D02*
X10169762Y-14328476D01*
X10169762Y-14328476D02*
X10150714Y-14328476D01*
X10150714Y-14328476D02*
X10131667Y-14318952D01*
X10131667Y-14318952D02*
X10122143Y-14309428D01*
X10122143Y-14309428D02*
X10112619Y-14290381D01*
X10112619Y-14290381D02*
X10103095Y-14252286D01*
X10103095Y-14252286D02*
X10103095Y-14204667D01*
X10103095Y-14204667D02*
X10112619Y-14166571D01*
X10112619Y-14166571D02*
X10122143Y-14147524D01*
X10122143Y-14147524D02*
X10131667Y-14138000D01*
X10131667Y-14138000D02*
X10150714Y-14128476D01*
X10303095Y-14309428D02*
X10312619Y-14318952D01*
X10312619Y-14318952D02*
X10303095Y-14328476D01*
X10303095Y-14328476D02*
X10293571Y-14318952D01*
X10293571Y-14318952D02*
X10303095Y-14309428D01*
X10303095Y-14309428D02*
X10303095Y-14328476D01*
X10484048Y-14195143D02*
X10484048Y-14328476D01*
X10436429Y-14118952D02*
X10388810Y-14261809D01*
X10388810Y-14261809D02*
X10512619Y-14261809D01*
X10626905Y-14128476D02*
X10645952Y-14128476D01*
X10645952Y-14128476D02*
X10665000Y-14138000D01*
X10665000Y-14138000D02*
X10674524Y-14147524D01*
X10674524Y-14147524D02*
X10684048Y-14166571D01*
X10684048Y-14166571D02*
X10693571Y-14204667D01*
X10693571Y-14204667D02*
X10693571Y-14252286D01*
X10693571Y-14252286D02*
X10684048Y-14290381D01*
X10684048Y-14290381D02*
X10674524Y-14309428D01*
X10674524Y-14309428D02*
X10665000Y-14318952D01*
X10665000Y-14318952D02*
X10645952Y-14328476D01*
X10645952Y-14328476D02*
X10626905Y-14328476D01*
X10626905Y-14328476D02*
X10607857Y-14318952D01*
X10607857Y-14318952D02*
X10598333Y-14309428D01*
X10598333Y-14309428D02*
X10588810Y-14290381D01*
X10588810Y-14290381D02*
X10579286Y-14252286D01*
X10579286Y-14252286D02*
X10579286Y-14204667D01*
X10579286Y-14204667D02*
X10588810Y-14166571D01*
X10588810Y-14166571D02*
X10598333Y-14147524D01*
X10598333Y-14147524D02*
X10607857Y-14138000D01*
X10607857Y-14138000D02*
X10626905Y-14128476D01*
X10817381Y-14128476D02*
X10836429Y-14128476D01*
X10836429Y-14128476D02*
X10855476Y-14138000D01*
X10855476Y-14138000D02*
X10865000Y-14147524D01*
X10865000Y-14147524D02*
X10874524Y-14166571D01*
X10874524Y-14166571D02*
X10884048Y-14204667D01*
X10884048Y-14204667D02*
X10884048Y-14252286D01*
X10884048Y-14252286D02*
X10874524Y-14290381D01*
X10874524Y-14290381D02*
X10865000Y-14309428D01*
X10865000Y-14309428D02*
X10855476Y-14318952D01*
X10855476Y-14318952D02*
X10836429Y-14328476D01*
X10836429Y-14328476D02*
X10817381Y-14328476D01*
X10817381Y-14328476D02*
X10798333Y-14318952D01*
X10798333Y-14318952D02*
X10788810Y-14309428D01*
X10788810Y-14309428D02*
X10779286Y-14290381D01*
X10779286Y-14290381D02*
X10769762Y-14252286D01*
X10769762Y-14252286D02*
X10769762Y-14204667D01*
X10769762Y-14204667D02*
X10779286Y-14166571D01*
X10779286Y-14166571D02*
X10788810Y-14147524D01*
X10788810Y-14147524D02*
X10798333Y-14138000D01*
X10798333Y-14138000D02*
X10817381Y-14128476D01*
X10969762Y-14328476D02*
X10969762Y-14195143D01*
X10969762Y-14214190D02*
X10979286Y-14204667D01*
X10979286Y-14204667D02*
X10998333Y-14195143D01*
X10998333Y-14195143D02*
X11026905Y-14195143D01*
X11026905Y-14195143D02*
X11045952Y-14204667D01*
X11045952Y-14204667D02*
X11055476Y-14223714D01*
X11055476Y-14223714D02*
X11055476Y-14328476D01*
X11055476Y-14223714D02*
X11065000Y-14204667D01*
X11065000Y-14204667D02*
X11084048Y-14195143D01*
X11084048Y-14195143D02*
X11112619Y-14195143D01*
X11112619Y-14195143D02*
X11131667Y-14204667D01*
X11131667Y-14204667D02*
X11141191Y-14223714D01*
X11141191Y-14223714D02*
X11141191Y-14328476D01*
X11236429Y-14328476D02*
X11236429Y-14195143D01*
X11236429Y-14214190D02*
X11245952Y-14204667D01*
X11245952Y-14204667D02*
X11265000Y-14195143D01*
X11265000Y-14195143D02*
X11293571Y-14195143D01*
X11293571Y-14195143D02*
X11312619Y-14204667D01*
X11312619Y-14204667D02*
X11322143Y-14223714D01*
X11322143Y-14223714D02*
X11322143Y-14328476D01*
X11322143Y-14223714D02*
X11331667Y-14204667D01*
X11331667Y-14204667D02*
X11350714Y-14195143D01*
X11350714Y-14195143D02*
X11379286Y-14195143D01*
X11379286Y-14195143D02*
X11398333Y-14204667D01*
X11398333Y-14204667D02*
X11407857Y-14223714D01*
X11407857Y-14223714D02*
X11407857Y-14328476D01*
X11765952Y-14118952D02*
X11594524Y-14376095D01*
X11990714Y-14128476D02*
X12009762Y-14128476D01*
X12009762Y-14128476D02*
X12028810Y-14138000D01*
X12028810Y-14138000D02*
X12038333Y-14147524D01*
X12038333Y-14147524D02*
X12047857Y-14166571D01*
X12047857Y-14166571D02*
X12057381Y-14204667D01*
X12057381Y-14204667D02*
X12057381Y-14252286D01*
X12057381Y-14252286D02*
X12047857Y-14290381D01*
X12047857Y-14290381D02*
X12038333Y-14309428D01*
X12038333Y-14309428D02*
X12028810Y-14318952D01*
X12028810Y-14318952D02*
X12009762Y-14328476D01*
X12009762Y-14328476D02*
X11990714Y-14328476D01*
X11990714Y-14328476D02*
X11971667Y-14318952D01*
X11971667Y-14318952D02*
X11962143Y-14309428D01*
X11962143Y-14309428D02*
X11952619Y-14290381D01*
X11952619Y-14290381D02*
X11943095Y-14252286D01*
X11943095Y-14252286D02*
X11943095Y-14204667D01*
X11943095Y-14204667D02*
X11952619Y-14166571D01*
X11952619Y-14166571D02*
X11962143Y-14147524D01*
X11962143Y-14147524D02*
X11971667Y-14138000D01*
X11971667Y-14138000D02*
X11990714Y-14128476D01*
X12143095Y-14309428D02*
X12152619Y-14318952D01*
X12152619Y-14318952D02*
X12143095Y-14328476D01*
X12143095Y-14328476D02*
X12133571Y-14318952D01*
X12133571Y-14318952D02*
X12143095Y-14309428D01*
X12143095Y-14309428D02*
X12143095Y-14328476D01*
X12276429Y-14128476D02*
X12295476Y-14128476D01*
X12295476Y-14128476D02*
X12314524Y-14138000D01*
X12314524Y-14138000D02*
X12324048Y-14147524D01*
X12324048Y-14147524D02*
X12333571Y-14166571D01*
X12333571Y-14166571D02*
X12343095Y-14204667D01*
X12343095Y-14204667D02*
X12343095Y-14252286D01*
X12343095Y-14252286D02*
X12333571Y-14290381D01*
X12333571Y-14290381D02*
X12324048Y-14309428D01*
X12324048Y-14309428D02*
X12314524Y-14318952D01*
X12314524Y-14318952D02*
X12295476Y-14328476D01*
X12295476Y-14328476D02*
X12276429Y-14328476D01*
X12276429Y-14328476D02*
X12257381Y-14318952D01*
X12257381Y-14318952D02*
X12247857Y-14309428D01*
X12247857Y-14309428D02*
X12238333Y-14290381D01*
X12238333Y-14290381D02*
X12228810Y-14252286D01*
X12228810Y-14252286D02*
X12228810Y-14204667D01*
X12228810Y-14204667D02*
X12238333Y-14166571D01*
X12238333Y-14166571D02*
X12247857Y-14147524D01*
X12247857Y-14147524D02*
X12257381Y-14138000D01*
X12257381Y-14138000D02*
X12276429Y-14128476D01*
X12533571Y-14328476D02*
X12419286Y-14328476D01*
X12476429Y-14328476D02*
X12476429Y-14128476D01*
X12476429Y-14128476D02*
X12457381Y-14157048D01*
X12457381Y-14157048D02*
X12438333Y-14176095D01*
X12438333Y-14176095D02*
X12419286Y-14185619D01*
X12714524Y-14128476D02*
X12619286Y-14128476D01*
X12619286Y-14128476D02*
X12609762Y-14223714D01*
X12609762Y-14223714D02*
X12619286Y-14214190D01*
X12619286Y-14214190D02*
X12638333Y-14204667D01*
X12638333Y-14204667D02*
X12685952Y-14204667D01*
X12685952Y-14204667D02*
X12705000Y-14214190D01*
X12705000Y-14214190D02*
X12714524Y-14223714D01*
X12714524Y-14223714D02*
X12724048Y-14242762D01*
X12724048Y-14242762D02*
X12724048Y-14290381D01*
X12724048Y-14290381D02*
X12714524Y-14309428D01*
X12714524Y-14309428D02*
X12705000Y-14318952D01*
X12705000Y-14318952D02*
X12685952Y-14328476D01*
X12685952Y-14328476D02*
X12638333Y-14328476D01*
X12638333Y-14328476D02*
X12619286Y-14318952D01*
X12619286Y-14318952D02*
X12609762Y-14309428D01*
X12790714Y-14128476D02*
X12924048Y-14128476D01*
X12924048Y-14128476D02*
X12838333Y-14328476D01*
X12990714Y-14128476D02*
X12990714Y-14166571D01*
X13066905Y-14128476D02*
X13066905Y-14166571D01*
X13329762Y-14404667D02*
X13320238Y-14395143D01*
X13320238Y-14395143D02*
X13301191Y-14366571D01*
X13301191Y-14366571D02*
X13291667Y-14347524D01*
X13291667Y-14347524D02*
X13282143Y-14318952D01*
X13282143Y-14318952D02*
X13272619Y-14271333D01*
X13272619Y-14271333D02*
X13272619Y-14233238D01*
X13272619Y-14233238D02*
X13282143Y-14185619D01*
X13282143Y-14185619D02*
X13291667Y-14157048D01*
X13291667Y-14157048D02*
X13301191Y-14138000D01*
X13301191Y-14138000D02*
X13320238Y-14109428D01*
X13320238Y-14109428D02*
X13329762Y-14099905D01*
X13510714Y-14328476D02*
X13396429Y-14328476D01*
X13453571Y-14328476D02*
X13453571Y-14128476D01*
X13453571Y-14128476D02*
X13434524Y-14157048D01*
X13434524Y-14157048D02*
X13415476Y-14176095D01*
X13415476Y-14176095D02*
X13396429Y-14185619D01*
X13577381Y-14128476D02*
X13701191Y-14128476D01*
X13701191Y-14128476D02*
X13634524Y-14204667D01*
X13634524Y-14204667D02*
X13663095Y-14204667D01*
X13663095Y-14204667D02*
X13682143Y-14214190D01*
X13682143Y-14214190D02*
X13691667Y-14223714D01*
X13691667Y-14223714D02*
X13701191Y-14242762D01*
X13701191Y-14242762D02*
X13701191Y-14290381D01*
X13701191Y-14290381D02*
X13691667Y-14309428D01*
X13691667Y-14309428D02*
X13682143Y-14318952D01*
X13682143Y-14318952D02*
X13663095Y-14328476D01*
X13663095Y-14328476D02*
X13605952Y-14328476D01*
X13605952Y-14328476D02*
X13586905Y-14318952D01*
X13586905Y-14318952D02*
X13577381Y-14309428D01*
X13906905Y-14328476D02*
X13906905Y-14128476D01*
X13992619Y-14328476D02*
X13992619Y-14223714D01*
X13992619Y-14223714D02*
X13983095Y-14204667D01*
X13983095Y-14204667D02*
X13964048Y-14195143D01*
X13964048Y-14195143D02*
X13935476Y-14195143D01*
X13935476Y-14195143D02*
X13916429Y-14204667D01*
X13916429Y-14204667D02*
X13906905Y-14214190D01*
X14116429Y-14328476D02*
X14097381Y-14318952D01*
X14097381Y-14318952D02*
X14087857Y-14309428D01*
X14087857Y-14309428D02*
X14078333Y-14290381D01*
X14078333Y-14290381D02*
X14078333Y-14233238D01*
X14078333Y-14233238D02*
X14087857Y-14214190D01*
X14087857Y-14214190D02*
X14097381Y-14204667D01*
X14097381Y-14204667D02*
X14116429Y-14195143D01*
X14116429Y-14195143D02*
X14145000Y-14195143D01*
X14145000Y-14195143D02*
X14164048Y-14204667D01*
X14164048Y-14204667D02*
X14173572Y-14214190D01*
X14173572Y-14214190D02*
X14183095Y-14233238D01*
X14183095Y-14233238D02*
X14183095Y-14290381D01*
X14183095Y-14290381D02*
X14173572Y-14309428D01*
X14173572Y-14309428D02*
X14164048Y-14318952D01*
X14164048Y-14318952D02*
X14145000Y-14328476D01*
X14145000Y-14328476D02*
X14116429Y-14328476D01*
X14297381Y-14328476D02*
X14278333Y-14318952D01*
X14278333Y-14318952D02*
X14268810Y-14299905D01*
X14268810Y-14299905D02*
X14268810Y-14128476D01*
X14449762Y-14318952D02*
X14430714Y-14328476D01*
X14430714Y-14328476D02*
X14392619Y-14328476D01*
X14392619Y-14328476D02*
X14373572Y-14318952D01*
X14373572Y-14318952D02*
X14364048Y-14299905D01*
X14364048Y-14299905D02*
X14364048Y-14223714D01*
X14364048Y-14223714D02*
X14373572Y-14204667D01*
X14373572Y-14204667D02*
X14392619Y-14195143D01*
X14392619Y-14195143D02*
X14430714Y-14195143D01*
X14430714Y-14195143D02*
X14449762Y-14204667D01*
X14449762Y-14204667D02*
X14459286Y-14223714D01*
X14459286Y-14223714D02*
X14459286Y-14242762D01*
X14459286Y-14242762D02*
X14364048Y-14261809D01*
X14535476Y-14318952D02*
X14554524Y-14328476D01*
X14554524Y-14328476D02*
X14592619Y-14328476D01*
X14592619Y-14328476D02*
X14611667Y-14318952D01*
X14611667Y-14318952D02*
X14621191Y-14299905D01*
X14621191Y-14299905D02*
X14621191Y-14290381D01*
X14621191Y-14290381D02*
X14611667Y-14271333D01*
X14611667Y-14271333D02*
X14592619Y-14261809D01*
X14592619Y-14261809D02*
X14564048Y-14261809D01*
X14564048Y-14261809D02*
X14545000Y-14252286D01*
X14545000Y-14252286D02*
X14535476Y-14233238D01*
X14535476Y-14233238D02*
X14535476Y-14223714D01*
X14535476Y-14223714D02*
X14545000Y-14204667D01*
X14545000Y-14204667D02*
X14564048Y-14195143D01*
X14564048Y-14195143D02*
X14592619Y-14195143D01*
X14592619Y-14195143D02*
X14611667Y-14204667D01*
X14687857Y-14404667D02*
X14697381Y-14395143D01*
X14697381Y-14395143D02*
X14716429Y-14366571D01*
X14716429Y-14366571D02*
X14725953Y-14347524D01*
X14725953Y-14347524D02*
X14735476Y-14318952D01*
X14735476Y-14318952D02*
X14745000Y-14271333D01*
X14745000Y-14271333D02*
X14745000Y-14233238D01*
X14745000Y-14233238D02*
X14735476Y-14185619D01*
X14735476Y-14185619D02*
X14725953Y-14157048D01*
X14725953Y-14157048D02*
X14716429Y-14138000D01*
X14716429Y-14138000D02*
X14697381Y-14109428D01*
X14697381Y-14109428D02*
X14687857Y-14099905D01*
D13*
X9865000Y-14519000D02*
G75*
G03*
X9865000Y-14519000I-40000J0D01*
G01*
D11*
X10150714Y-14392476D02*
X10169762Y-14392476D01*
X10169762Y-14392476D02*
X10188810Y-14402000D01*
X10188810Y-14402000D02*
X10198333Y-14411524D01*
X10198333Y-14411524D02*
X10207857Y-14430571D01*
X10207857Y-14430571D02*
X10217381Y-14468667D01*
X10217381Y-14468667D02*
X10217381Y-14516286D01*
X10217381Y-14516286D02*
X10207857Y-14554381D01*
X10207857Y-14554381D02*
X10198333Y-14573428D01*
X10198333Y-14573428D02*
X10188810Y-14582952D01*
X10188810Y-14582952D02*
X10169762Y-14592476D01*
X10169762Y-14592476D02*
X10150714Y-14592476D01*
X10150714Y-14592476D02*
X10131667Y-14582952D01*
X10131667Y-14582952D02*
X10122143Y-14573428D01*
X10122143Y-14573428D02*
X10112619Y-14554381D01*
X10112619Y-14554381D02*
X10103095Y-14516286D01*
X10103095Y-14516286D02*
X10103095Y-14468667D01*
X10103095Y-14468667D02*
X10112619Y-14430571D01*
X10112619Y-14430571D02*
X10122143Y-14411524D01*
X10122143Y-14411524D02*
X10131667Y-14402000D01*
X10131667Y-14402000D02*
X10150714Y-14392476D01*
X10303095Y-14573428D02*
X10312619Y-14582952D01*
X10312619Y-14582952D02*
X10303095Y-14592476D01*
X10303095Y-14592476D02*
X10293571Y-14582952D01*
X10293571Y-14582952D02*
X10303095Y-14573428D01*
X10303095Y-14573428D02*
X10303095Y-14592476D01*
X10426905Y-14478190D02*
X10407857Y-14468667D01*
X10407857Y-14468667D02*
X10398333Y-14459143D01*
X10398333Y-14459143D02*
X10388810Y-14440095D01*
X10388810Y-14440095D02*
X10388810Y-14430571D01*
X10388810Y-14430571D02*
X10398333Y-14411524D01*
X10398333Y-14411524D02*
X10407857Y-14402000D01*
X10407857Y-14402000D02*
X10426905Y-14392476D01*
X10426905Y-14392476D02*
X10465000Y-14392476D01*
X10465000Y-14392476D02*
X10484048Y-14402000D01*
X10484048Y-14402000D02*
X10493571Y-14411524D01*
X10493571Y-14411524D02*
X10503095Y-14430571D01*
X10503095Y-14430571D02*
X10503095Y-14440095D01*
X10503095Y-14440095D02*
X10493571Y-14459143D01*
X10493571Y-14459143D02*
X10484048Y-14468667D01*
X10484048Y-14468667D02*
X10465000Y-14478190D01*
X10465000Y-14478190D02*
X10426905Y-14478190D01*
X10426905Y-14478190D02*
X10407857Y-14487714D01*
X10407857Y-14487714D02*
X10398333Y-14497238D01*
X10398333Y-14497238D02*
X10388810Y-14516286D01*
X10388810Y-14516286D02*
X10388810Y-14554381D01*
X10388810Y-14554381D02*
X10398333Y-14573428D01*
X10398333Y-14573428D02*
X10407857Y-14582952D01*
X10407857Y-14582952D02*
X10426905Y-14592476D01*
X10426905Y-14592476D02*
X10465000Y-14592476D01*
X10465000Y-14592476D02*
X10484048Y-14582952D01*
X10484048Y-14582952D02*
X10493571Y-14573428D01*
X10493571Y-14573428D02*
X10503095Y-14554381D01*
X10503095Y-14554381D02*
X10503095Y-14516286D01*
X10503095Y-14516286D02*
X10493571Y-14497238D01*
X10493571Y-14497238D02*
X10484048Y-14487714D01*
X10484048Y-14487714D02*
X10465000Y-14478190D01*
X10626905Y-14392476D02*
X10645952Y-14392476D01*
X10645952Y-14392476D02*
X10665000Y-14402000D01*
X10665000Y-14402000D02*
X10674524Y-14411524D01*
X10674524Y-14411524D02*
X10684048Y-14430571D01*
X10684048Y-14430571D02*
X10693571Y-14468667D01*
X10693571Y-14468667D02*
X10693571Y-14516286D01*
X10693571Y-14516286D02*
X10684048Y-14554381D01*
X10684048Y-14554381D02*
X10674524Y-14573428D01*
X10674524Y-14573428D02*
X10665000Y-14582952D01*
X10665000Y-14582952D02*
X10645952Y-14592476D01*
X10645952Y-14592476D02*
X10626905Y-14592476D01*
X10626905Y-14592476D02*
X10607857Y-14582952D01*
X10607857Y-14582952D02*
X10598333Y-14573428D01*
X10598333Y-14573428D02*
X10588810Y-14554381D01*
X10588810Y-14554381D02*
X10579286Y-14516286D01*
X10579286Y-14516286D02*
X10579286Y-14468667D01*
X10579286Y-14468667D02*
X10588810Y-14430571D01*
X10588810Y-14430571D02*
X10598333Y-14411524D01*
X10598333Y-14411524D02*
X10607857Y-14402000D01*
X10607857Y-14402000D02*
X10626905Y-14392476D01*
X10817381Y-14392476D02*
X10836429Y-14392476D01*
X10836429Y-14392476D02*
X10855476Y-14402000D01*
X10855476Y-14402000D02*
X10865000Y-14411524D01*
X10865000Y-14411524D02*
X10874524Y-14430571D01*
X10874524Y-14430571D02*
X10884048Y-14468667D01*
X10884048Y-14468667D02*
X10884048Y-14516286D01*
X10884048Y-14516286D02*
X10874524Y-14554381D01*
X10874524Y-14554381D02*
X10865000Y-14573428D01*
X10865000Y-14573428D02*
X10855476Y-14582952D01*
X10855476Y-14582952D02*
X10836429Y-14592476D01*
X10836429Y-14592476D02*
X10817381Y-14592476D01*
X10817381Y-14592476D02*
X10798333Y-14582952D01*
X10798333Y-14582952D02*
X10788810Y-14573428D01*
X10788810Y-14573428D02*
X10779286Y-14554381D01*
X10779286Y-14554381D02*
X10769762Y-14516286D01*
X10769762Y-14516286D02*
X10769762Y-14468667D01*
X10769762Y-14468667D02*
X10779286Y-14430571D01*
X10779286Y-14430571D02*
X10788810Y-14411524D01*
X10788810Y-14411524D02*
X10798333Y-14402000D01*
X10798333Y-14402000D02*
X10817381Y-14392476D01*
X10969762Y-14592476D02*
X10969762Y-14459143D01*
X10969762Y-14478190D02*
X10979286Y-14468667D01*
X10979286Y-14468667D02*
X10998333Y-14459143D01*
X10998333Y-14459143D02*
X11026905Y-14459143D01*
X11026905Y-14459143D02*
X11045952Y-14468667D01*
X11045952Y-14468667D02*
X11055476Y-14487714D01*
X11055476Y-14487714D02*
X11055476Y-14592476D01*
X11055476Y-14487714D02*
X11065000Y-14468667D01*
X11065000Y-14468667D02*
X11084048Y-14459143D01*
X11084048Y-14459143D02*
X11112619Y-14459143D01*
X11112619Y-14459143D02*
X11131667Y-14468667D01*
X11131667Y-14468667D02*
X11141191Y-14487714D01*
X11141191Y-14487714D02*
X11141191Y-14592476D01*
X11236429Y-14592476D02*
X11236429Y-14459143D01*
X11236429Y-14478190D02*
X11245952Y-14468667D01*
X11245952Y-14468667D02*
X11265000Y-14459143D01*
X11265000Y-14459143D02*
X11293571Y-14459143D01*
X11293571Y-14459143D02*
X11312619Y-14468667D01*
X11312619Y-14468667D02*
X11322143Y-14487714D01*
X11322143Y-14487714D02*
X11322143Y-14592476D01*
X11322143Y-14487714D02*
X11331667Y-14468667D01*
X11331667Y-14468667D02*
X11350714Y-14459143D01*
X11350714Y-14459143D02*
X11379286Y-14459143D01*
X11379286Y-14459143D02*
X11398333Y-14468667D01*
X11398333Y-14468667D02*
X11407857Y-14487714D01*
X11407857Y-14487714D02*
X11407857Y-14592476D01*
X11765952Y-14382952D02*
X11594524Y-14640095D01*
X11990714Y-14392476D02*
X12009762Y-14392476D01*
X12009762Y-14392476D02*
X12028810Y-14402000D01*
X12028810Y-14402000D02*
X12038333Y-14411524D01*
X12038333Y-14411524D02*
X12047857Y-14430571D01*
X12047857Y-14430571D02*
X12057381Y-14468667D01*
X12057381Y-14468667D02*
X12057381Y-14516286D01*
X12057381Y-14516286D02*
X12047857Y-14554381D01*
X12047857Y-14554381D02*
X12038333Y-14573428D01*
X12038333Y-14573428D02*
X12028810Y-14582952D01*
X12028810Y-14582952D02*
X12009762Y-14592476D01*
X12009762Y-14592476D02*
X11990714Y-14592476D01*
X11990714Y-14592476D02*
X11971667Y-14582952D01*
X11971667Y-14582952D02*
X11962143Y-14573428D01*
X11962143Y-14573428D02*
X11952619Y-14554381D01*
X11952619Y-14554381D02*
X11943095Y-14516286D01*
X11943095Y-14516286D02*
X11943095Y-14468667D01*
X11943095Y-14468667D02*
X11952619Y-14430571D01*
X11952619Y-14430571D02*
X11962143Y-14411524D01*
X11962143Y-14411524D02*
X11971667Y-14402000D01*
X11971667Y-14402000D02*
X11990714Y-14392476D01*
X12143095Y-14573428D02*
X12152619Y-14582952D01*
X12152619Y-14582952D02*
X12143095Y-14592476D01*
X12143095Y-14592476D02*
X12133571Y-14582952D01*
X12133571Y-14582952D02*
X12143095Y-14573428D01*
X12143095Y-14573428D02*
X12143095Y-14592476D01*
X12276429Y-14392476D02*
X12295476Y-14392476D01*
X12295476Y-14392476D02*
X12314524Y-14402000D01*
X12314524Y-14402000D02*
X12324048Y-14411524D01*
X12324048Y-14411524D02*
X12333571Y-14430571D01*
X12333571Y-14430571D02*
X12343095Y-14468667D01*
X12343095Y-14468667D02*
X12343095Y-14516286D01*
X12343095Y-14516286D02*
X12333571Y-14554381D01*
X12333571Y-14554381D02*
X12324048Y-14573428D01*
X12324048Y-14573428D02*
X12314524Y-14582952D01*
X12314524Y-14582952D02*
X12295476Y-14592476D01*
X12295476Y-14592476D02*
X12276429Y-14592476D01*
X12276429Y-14592476D02*
X12257381Y-14582952D01*
X12257381Y-14582952D02*
X12247857Y-14573428D01*
X12247857Y-14573428D02*
X12238333Y-14554381D01*
X12238333Y-14554381D02*
X12228810Y-14516286D01*
X12228810Y-14516286D02*
X12228810Y-14468667D01*
X12228810Y-14468667D02*
X12238333Y-14430571D01*
X12238333Y-14430571D02*
X12247857Y-14411524D01*
X12247857Y-14411524D02*
X12257381Y-14402000D01*
X12257381Y-14402000D02*
X12276429Y-14392476D01*
X12409762Y-14392476D02*
X12533571Y-14392476D01*
X12533571Y-14392476D02*
X12466905Y-14468667D01*
X12466905Y-14468667D02*
X12495476Y-14468667D01*
X12495476Y-14468667D02*
X12514524Y-14478190D01*
X12514524Y-14478190D02*
X12524048Y-14487714D01*
X12524048Y-14487714D02*
X12533571Y-14506762D01*
X12533571Y-14506762D02*
X12533571Y-14554381D01*
X12533571Y-14554381D02*
X12524048Y-14573428D01*
X12524048Y-14573428D02*
X12514524Y-14582952D01*
X12514524Y-14582952D02*
X12495476Y-14592476D01*
X12495476Y-14592476D02*
X12438333Y-14592476D01*
X12438333Y-14592476D02*
X12419286Y-14582952D01*
X12419286Y-14582952D02*
X12409762Y-14573428D01*
X12724048Y-14592476D02*
X12609762Y-14592476D01*
X12666905Y-14592476D02*
X12666905Y-14392476D01*
X12666905Y-14392476D02*
X12647857Y-14421048D01*
X12647857Y-14421048D02*
X12628810Y-14440095D01*
X12628810Y-14440095D02*
X12609762Y-14449619D01*
X12905000Y-14392476D02*
X12809762Y-14392476D01*
X12809762Y-14392476D02*
X12800238Y-14487714D01*
X12800238Y-14487714D02*
X12809762Y-14478190D01*
X12809762Y-14478190D02*
X12828810Y-14468667D01*
X12828810Y-14468667D02*
X12876429Y-14468667D01*
X12876429Y-14468667D02*
X12895476Y-14478190D01*
X12895476Y-14478190D02*
X12905000Y-14487714D01*
X12905000Y-14487714D02*
X12914524Y-14506762D01*
X12914524Y-14506762D02*
X12914524Y-14554381D01*
X12914524Y-14554381D02*
X12905000Y-14573428D01*
X12905000Y-14573428D02*
X12895476Y-14582952D01*
X12895476Y-14582952D02*
X12876429Y-14592476D01*
X12876429Y-14592476D02*
X12828810Y-14592476D01*
X12828810Y-14592476D02*
X12809762Y-14582952D01*
X12809762Y-14582952D02*
X12800238Y-14573428D01*
X12990714Y-14392476D02*
X12990714Y-14430571D01*
X13066905Y-14392476D02*
X13066905Y-14430571D01*
X13329762Y-14668667D02*
X13320238Y-14659143D01*
X13320238Y-14659143D02*
X13301191Y-14630571D01*
X13301191Y-14630571D02*
X13291667Y-14611524D01*
X13291667Y-14611524D02*
X13282143Y-14582952D01*
X13282143Y-14582952D02*
X13272619Y-14535333D01*
X13272619Y-14535333D02*
X13272619Y-14497238D01*
X13272619Y-14497238D02*
X13282143Y-14449619D01*
X13282143Y-14449619D02*
X13291667Y-14421048D01*
X13291667Y-14421048D02*
X13301191Y-14402000D01*
X13301191Y-14402000D02*
X13320238Y-14373428D01*
X13320238Y-14373428D02*
X13329762Y-14363905D01*
X13396429Y-14411524D02*
X13405952Y-14402000D01*
X13405952Y-14402000D02*
X13425000Y-14392476D01*
X13425000Y-14392476D02*
X13472619Y-14392476D01*
X13472619Y-14392476D02*
X13491667Y-14402000D01*
X13491667Y-14402000D02*
X13501191Y-14411524D01*
X13501191Y-14411524D02*
X13510714Y-14430571D01*
X13510714Y-14430571D02*
X13510714Y-14449619D01*
X13510714Y-14449619D02*
X13501191Y-14478190D01*
X13501191Y-14478190D02*
X13386905Y-14592476D01*
X13386905Y-14592476D02*
X13510714Y-14592476D01*
X13577381Y-14392476D02*
X13701191Y-14392476D01*
X13701191Y-14392476D02*
X13634524Y-14468667D01*
X13634524Y-14468667D02*
X13663095Y-14468667D01*
X13663095Y-14468667D02*
X13682143Y-14478190D01*
X13682143Y-14478190D02*
X13691667Y-14487714D01*
X13691667Y-14487714D02*
X13701191Y-14506762D01*
X13701191Y-14506762D02*
X13701191Y-14554381D01*
X13701191Y-14554381D02*
X13691667Y-14573428D01*
X13691667Y-14573428D02*
X13682143Y-14582952D01*
X13682143Y-14582952D02*
X13663095Y-14592476D01*
X13663095Y-14592476D02*
X13605952Y-14592476D01*
X13605952Y-14592476D02*
X13586905Y-14582952D01*
X13586905Y-14582952D02*
X13577381Y-14573428D01*
X13906905Y-14592476D02*
X13906905Y-14392476D01*
X13992619Y-14592476D02*
X13992619Y-14487714D01*
X13992619Y-14487714D02*
X13983095Y-14468667D01*
X13983095Y-14468667D02*
X13964048Y-14459143D01*
X13964048Y-14459143D02*
X13935476Y-14459143D01*
X13935476Y-14459143D02*
X13916429Y-14468667D01*
X13916429Y-14468667D02*
X13906905Y-14478190D01*
X14116429Y-14592476D02*
X14097381Y-14582952D01*
X14097381Y-14582952D02*
X14087857Y-14573428D01*
X14087857Y-14573428D02*
X14078333Y-14554381D01*
X14078333Y-14554381D02*
X14078333Y-14497238D01*
X14078333Y-14497238D02*
X14087857Y-14478190D01*
X14087857Y-14478190D02*
X14097381Y-14468667D01*
X14097381Y-14468667D02*
X14116429Y-14459143D01*
X14116429Y-14459143D02*
X14145000Y-14459143D01*
X14145000Y-14459143D02*
X14164048Y-14468667D01*
X14164048Y-14468667D02*
X14173572Y-14478190D01*
X14173572Y-14478190D02*
X14183095Y-14497238D01*
X14183095Y-14497238D02*
X14183095Y-14554381D01*
X14183095Y-14554381D02*
X14173572Y-14573428D01*
X14173572Y-14573428D02*
X14164048Y-14582952D01*
X14164048Y-14582952D02*
X14145000Y-14592476D01*
X14145000Y-14592476D02*
X14116429Y-14592476D01*
X14297381Y-14592476D02*
X14278333Y-14582952D01*
X14278333Y-14582952D02*
X14268810Y-14563905D01*
X14268810Y-14563905D02*
X14268810Y-14392476D01*
X14449762Y-14582952D02*
X14430714Y-14592476D01*
X14430714Y-14592476D02*
X14392619Y-14592476D01*
X14392619Y-14592476D02*
X14373572Y-14582952D01*
X14373572Y-14582952D02*
X14364048Y-14563905D01*
X14364048Y-14563905D02*
X14364048Y-14487714D01*
X14364048Y-14487714D02*
X14373572Y-14468667D01*
X14373572Y-14468667D02*
X14392619Y-14459143D01*
X14392619Y-14459143D02*
X14430714Y-14459143D01*
X14430714Y-14459143D02*
X14449762Y-14468667D01*
X14449762Y-14468667D02*
X14459286Y-14487714D01*
X14459286Y-14487714D02*
X14459286Y-14506762D01*
X14459286Y-14506762D02*
X14364048Y-14525809D01*
X14535476Y-14582952D02*
X14554524Y-14592476D01*
X14554524Y-14592476D02*
X14592619Y-14592476D01*
X14592619Y-14592476D02*
X14611667Y-14582952D01*
X14611667Y-14582952D02*
X14621191Y-14563905D01*
X14621191Y-14563905D02*
X14621191Y-14554381D01*
X14621191Y-14554381D02*
X14611667Y-14535333D01*
X14611667Y-14535333D02*
X14592619Y-14525809D01*
X14592619Y-14525809D02*
X14564048Y-14525809D01*
X14564048Y-14525809D02*
X14545000Y-14516286D01*
X14545000Y-14516286D02*
X14535476Y-14497238D01*
X14535476Y-14497238D02*
X14535476Y-14487714D01*
X14535476Y-14487714D02*
X14545000Y-14468667D01*
X14545000Y-14468667D02*
X14564048Y-14459143D01*
X14564048Y-14459143D02*
X14592619Y-14459143D01*
X14592619Y-14459143D02*
X14611667Y-14468667D01*
X14687857Y-14668667D02*
X14697381Y-14659143D01*
X14697381Y-14659143D02*
X14716429Y-14630571D01*
X14716429Y-14630571D02*
X14725953Y-14611524D01*
X14725953Y-14611524D02*
X14735476Y-14582952D01*
X14735476Y-14582952D02*
X14745000Y-14535333D01*
X14745000Y-14535333D02*
X14745000Y-14497238D01*
X14745000Y-14497238D02*
X14735476Y-14449619D01*
X14735476Y-14449619D02*
X14725953Y-14421048D01*
X14725953Y-14421048D02*
X14716429Y-14402000D01*
X14716429Y-14402000D02*
X14697381Y-14373428D01*
X14697381Y-14373428D02*
X14687857Y-14363905D01*
D10*
X9815000Y-14733000D02*
X9815000Y-14833000D01*
X9765000Y-14783000D02*
X9865000Y-14783000D01*
D11*
X10217381Y-14856476D02*
X10103095Y-14856476D01*
X10160238Y-14856476D02*
X10160238Y-14656476D01*
X10160238Y-14656476D02*
X10141190Y-14685048D01*
X10141190Y-14685048D02*
X10122143Y-14704095D01*
X10122143Y-14704095D02*
X10103095Y-14713619D01*
X10303095Y-14837428D02*
X10312619Y-14846952D01*
X10312619Y-14846952D02*
X10303095Y-14856476D01*
X10303095Y-14856476D02*
X10293571Y-14846952D01*
X10293571Y-14846952D02*
X10303095Y-14837428D01*
X10303095Y-14837428D02*
X10303095Y-14856476D01*
X10436429Y-14656476D02*
X10455476Y-14656476D01*
X10455476Y-14656476D02*
X10474524Y-14666000D01*
X10474524Y-14666000D02*
X10484048Y-14675524D01*
X10484048Y-14675524D02*
X10493571Y-14694571D01*
X10493571Y-14694571D02*
X10503095Y-14732667D01*
X10503095Y-14732667D02*
X10503095Y-14780286D01*
X10503095Y-14780286D02*
X10493571Y-14818381D01*
X10493571Y-14818381D02*
X10484048Y-14837428D01*
X10484048Y-14837428D02*
X10474524Y-14846952D01*
X10474524Y-14846952D02*
X10455476Y-14856476D01*
X10455476Y-14856476D02*
X10436429Y-14856476D01*
X10436429Y-14856476D02*
X10417381Y-14846952D01*
X10417381Y-14846952D02*
X10407857Y-14837428D01*
X10407857Y-14837428D02*
X10398333Y-14818381D01*
X10398333Y-14818381D02*
X10388810Y-14780286D01*
X10388810Y-14780286D02*
X10388810Y-14732667D01*
X10388810Y-14732667D02*
X10398333Y-14694571D01*
X10398333Y-14694571D02*
X10407857Y-14675524D01*
X10407857Y-14675524D02*
X10417381Y-14666000D01*
X10417381Y-14666000D02*
X10436429Y-14656476D01*
X10626905Y-14656476D02*
X10645952Y-14656476D01*
X10645952Y-14656476D02*
X10665000Y-14666000D01*
X10665000Y-14666000D02*
X10674524Y-14675524D01*
X10674524Y-14675524D02*
X10684048Y-14694571D01*
X10684048Y-14694571D02*
X10693571Y-14732667D01*
X10693571Y-14732667D02*
X10693571Y-14780286D01*
X10693571Y-14780286D02*
X10684048Y-14818381D01*
X10684048Y-14818381D02*
X10674524Y-14837428D01*
X10674524Y-14837428D02*
X10665000Y-14846952D01*
X10665000Y-14846952D02*
X10645952Y-14856476D01*
X10645952Y-14856476D02*
X10626905Y-14856476D01*
X10626905Y-14856476D02*
X10607857Y-14846952D01*
X10607857Y-14846952D02*
X10598333Y-14837428D01*
X10598333Y-14837428D02*
X10588810Y-14818381D01*
X10588810Y-14818381D02*
X10579286Y-14780286D01*
X10579286Y-14780286D02*
X10579286Y-14732667D01*
X10579286Y-14732667D02*
X10588810Y-14694571D01*
X10588810Y-14694571D02*
X10598333Y-14675524D01*
X10598333Y-14675524D02*
X10607857Y-14666000D01*
X10607857Y-14666000D02*
X10626905Y-14656476D01*
X10817381Y-14656476D02*
X10836429Y-14656476D01*
X10836429Y-14656476D02*
X10855476Y-14666000D01*
X10855476Y-14666000D02*
X10865000Y-14675524D01*
X10865000Y-14675524D02*
X10874524Y-14694571D01*
X10874524Y-14694571D02*
X10884048Y-14732667D01*
X10884048Y-14732667D02*
X10884048Y-14780286D01*
X10884048Y-14780286D02*
X10874524Y-14818381D01*
X10874524Y-14818381D02*
X10865000Y-14837428D01*
X10865000Y-14837428D02*
X10855476Y-14846952D01*
X10855476Y-14846952D02*
X10836429Y-14856476D01*
X10836429Y-14856476D02*
X10817381Y-14856476D01*
X10817381Y-14856476D02*
X10798333Y-14846952D01*
X10798333Y-14846952D02*
X10788810Y-14837428D01*
X10788810Y-14837428D02*
X10779286Y-14818381D01*
X10779286Y-14818381D02*
X10769762Y-14780286D01*
X10769762Y-14780286D02*
X10769762Y-14732667D01*
X10769762Y-14732667D02*
X10779286Y-14694571D01*
X10779286Y-14694571D02*
X10788810Y-14675524D01*
X10788810Y-14675524D02*
X10798333Y-14666000D01*
X10798333Y-14666000D02*
X10817381Y-14656476D01*
X10969762Y-14856476D02*
X10969762Y-14723143D01*
X10969762Y-14742190D02*
X10979286Y-14732667D01*
X10979286Y-14732667D02*
X10998333Y-14723143D01*
X10998333Y-14723143D02*
X11026905Y-14723143D01*
X11026905Y-14723143D02*
X11045952Y-14732667D01*
X11045952Y-14732667D02*
X11055476Y-14751714D01*
X11055476Y-14751714D02*
X11055476Y-14856476D01*
X11055476Y-14751714D02*
X11065000Y-14732667D01*
X11065000Y-14732667D02*
X11084048Y-14723143D01*
X11084048Y-14723143D02*
X11112619Y-14723143D01*
X11112619Y-14723143D02*
X11131667Y-14732667D01*
X11131667Y-14732667D02*
X11141191Y-14751714D01*
X11141191Y-14751714D02*
X11141191Y-14856476D01*
X11236429Y-14856476D02*
X11236429Y-14723143D01*
X11236429Y-14742190D02*
X11245952Y-14732667D01*
X11245952Y-14732667D02*
X11265000Y-14723143D01*
X11265000Y-14723143D02*
X11293571Y-14723143D01*
X11293571Y-14723143D02*
X11312619Y-14732667D01*
X11312619Y-14732667D02*
X11322143Y-14751714D01*
X11322143Y-14751714D02*
X11322143Y-14856476D01*
X11322143Y-14751714D02*
X11331667Y-14732667D01*
X11331667Y-14732667D02*
X11350714Y-14723143D01*
X11350714Y-14723143D02*
X11379286Y-14723143D01*
X11379286Y-14723143D02*
X11398333Y-14732667D01*
X11398333Y-14732667D02*
X11407857Y-14751714D01*
X11407857Y-14751714D02*
X11407857Y-14856476D01*
X11765952Y-14646952D02*
X11594524Y-14904095D01*
X11990714Y-14656476D02*
X12009762Y-14656476D01*
X12009762Y-14656476D02*
X12028810Y-14666000D01*
X12028810Y-14666000D02*
X12038333Y-14675524D01*
X12038333Y-14675524D02*
X12047857Y-14694571D01*
X12047857Y-14694571D02*
X12057381Y-14732667D01*
X12057381Y-14732667D02*
X12057381Y-14780286D01*
X12057381Y-14780286D02*
X12047857Y-14818381D01*
X12047857Y-14818381D02*
X12038333Y-14837428D01*
X12038333Y-14837428D02*
X12028810Y-14846952D01*
X12028810Y-14846952D02*
X12009762Y-14856476D01*
X12009762Y-14856476D02*
X11990714Y-14856476D01*
X11990714Y-14856476D02*
X11971667Y-14846952D01*
X11971667Y-14846952D02*
X11962143Y-14837428D01*
X11962143Y-14837428D02*
X11952619Y-14818381D01*
X11952619Y-14818381D02*
X11943095Y-14780286D01*
X11943095Y-14780286D02*
X11943095Y-14732667D01*
X11943095Y-14732667D02*
X11952619Y-14694571D01*
X11952619Y-14694571D02*
X11962143Y-14675524D01*
X11962143Y-14675524D02*
X11971667Y-14666000D01*
X11971667Y-14666000D02*
X11990714Y-14656476D01*
X12143095Y-14837428D02*
X12152619Y-14846952D01*
X12152619Y-14846952D02*
X12143095Y-14856476D01*
X12143095Y-14856476D02*
X12133571Y-14846952D01*
X12133571Y-14846952D02*
X12143095Y-14837428D01*
X12143095Y-14837428D02*
X12143095Y-14856476D01*
X12276429Y-14656476D02*
X12295476Y-14656476D01*
X12295476Y-14656476D02*
X12314524Y-14666000D01*
X12314524Y-14666000D02*
X12324048Y-14675524D01*
X12324048Y-14675524D02*
X12333571Y-14694571D01*
X12333571Y-14694571D02*
X12343095Y-14732667D01*
X12343095Y-14732667D02*
X12343095Y-14780286D01*
X12343095Y-14780286D02*
X12333571Y-14818381D01*
X12333571Y-14818381D02*
X12324048Y-14837428D01*
X12324048Y-14837428D02*
X12314524Y-14846952D01*
X12314524Y-14846952D02*
X12295476Y-14856476D01*
X12295476Y-14856476D02*
X12276429Y-14856476D01*
X12276429Y-14856476D02*
X12257381Y-14846952D01*
X12257381Y-14846952D02*
X12247857Y-14837428D01*
X12247857Y-14837428D02*
X12238333Y-14818381D01*
X12238333Y-14818381D02*
X12228810Y-14780286D01*
X12228810Y-14780286D02*
X12228810Y-14732667D01*
X12228810Y-14732667D02*
X12238333Y-14694571D01*
X12238333Y-14694571D02*
X12247857Y-14675524D01*
X12247857Y-14675524D02*
X12257381Y-14666000D01*
X12257381Y-14666000D02*
X12276429Y-14656476D01*
X12409762Y-14656476D02*
X12533571Y-14656476D01*
X12533571Y-14656476D02*
X12466905Y-14732667D01*
X12466905Y-14732667D02*
X12495476Y-14732667D01*
X12495476Y-14732667D02*
X12514524Y-14742190D01*
X12514524Y-14742190D02*
X12524048Y-14751714D01*
X12524048Y-14751714D02*
X12533571Y-14770762D01*
X12533571Y-14770762D02*
X12533571Y-14818381D01*
X12533571Y-14818381D02*
X12524048Y-14837428D01*
X12524048Y-14837428D02*
X12514524Y-14846952D01*
X12514524Y-14846952D02*
X12495476Y-14856476D01*
X12495476Y-14856476D02*
X12438333Y-14856476D01*
X12438333Y-14856476D02*
X12419286Y-14846952D01*
X12419286Y-14846952D02*
X12409762Y-14837428D01*
X12628810Y-14856476D02*
X12666905Y-14856476D01*
X12666905Y-14856476D02*
X12685952Y-14846952D01*
X12685952Y-14846952D02*
X12695476Y-14837428D01*
X12695476Y-14837428D02*
X12714524Y-14808857D01*
X12714524Y-14808857D02*
X12724048Y-14770762D01*
X12724048Y-14770762D02*
X12724048Y-14694571D01*
X12724048Y-14694571D02*
X12714524Y-14675524D01*
X12714524Y-14675524D02*
X12705000Y-14666000D01*
X12705000Y-14666000D02*
X12685952Y-14656476D01*
X12685952Y-14656476D02*
X12647857Y-14656476D01*
X12647857Y-14656476D02*
X12628810Y-14666000D01*
X12628810Y-14666000D02*
X12619286Y-14675524D01*
X12619286Y-14675524D02*
X12609762Y-14694571D01*
X12609762Y-14694571D02*
X12609762Y-14742190D01*
X12609762Y-14742190D02*
X12619286Y-14761238D01*
X12619286Y-14761238D02*
X12628810Y-14770762D01*
X12628810Y-14770762D02*
X12647857Y-14780286D01*
X12647857Y-14780286D02*
X12685952Y-14780286D01*
X12685952Y-14780286D02*
X12705000Y-14770762D01*
X12705000Y-14770762D02*
X12714524Y-14761238D01*
X12714524Y-14761238D02*
X12724048Y-14742190D01*
X12895476Y-14723143D02*
X12895476Y-14856476D01*
X12847857Y-14646952D02*
X12800238Y-14789809D01*
X12800238Y-14789809D02*
X12924048Y-14789809D01*
X12990714Y-14656476D02*
X12990714Y-14694571D01*
X13066905Y-14656476D02*
X13066905Y-14694571D01*
X13329762Y-14932667D02*
X13320238Y-14923143D01*
X13320238Y-14923143D02*
X13301191Y-14894571D01*
X13301191Y-14894571D02*
X13291667Y-14875524D01*
X13291667Y-14875524D02*
X13282143Y-14846952D01*
X13282143Y-14846952D02*
X13272619Y-14799333D01*
X13272619Y-14799333D02*
X13272619Y-14761238D01*
X13272619Y-14761238D02*
X13282143Y-14713619D01*
X13282143Y-14713619D02*
X13291667Y-14685048D01*
X13291667Y-14685048D02*
X13301191Y-14666000D01*
X13301191Y-14666000D02*
X13320238Y-14637428D01*
X13320238Y-14637428D02*
X13329762Y-14627905D01*
X13396429Y-14675524D02*
X13405952Y-14666000D01*
X13405952Y-14666000D02*
X13425000Y-14656476D01*
X13425000Y-14656476D02*
X13472619Y-14656476D01*
X13472619Y-14656476D02*
X13491667Y-14666000D01*
X13491667Y-14666000D02*
X13501191Y-14675524D01*
X13501191Y-14675524D02*
X13510714Y-14694571D01*
X13510714Y-14694571D02*
X13510714Y-14713619D01*
X13510714Y-14713619D02*
X13501191Y-14742190D01*
X13501191Y-14742190D02*
X13386905Y-14856476D01*
X13386905Y-14856476D02*
X13510714Y-14856476D01*
X13577381Y-14656476D02*
X13710714Y-14656476D01*
X13710714Y-14656476D02*
X13625000Y-14856476D01*
X13906905Y-14856476D02*
X13906905Y-14656476D01*
X13992619Y-14856476D02*
X13992619Y-14751714D01*
X13992619Y-14751714D02*
X13983095Y-14732667D01*
X13983095Y-14732667D02*
X13964048Y-14723143D01*
X13964048Y-14723143D02*
X13935476Y-14723143D01*
X13935476Y-14723143D02*
X13916429Y-14732667D01*
X13916429Y-14732667D02*
X13906905Y-14742190D01*
X14116429Y-14856476D02*
X14097381Y-14846952D01*
X14097381Y-14846952D02*
X14087857Y-14837428D01*
X14087857Y-14837428D02*
X14078333Y-14818381D01*
X14078333Y-14818381D02*
X14078333Y-14761238D01*
X14078333Y-14761238D02*
X14087857Y-14742190D01*
X14087857Y-14742190D02*
X14097381Y-14732667D01*
X14097381Y-14732667D02*
X14116429Y-14723143D01*
X14116429Y-14723143D02*
X14145000Y-14723143D01*
X14145000Y-14723143D02*
X14164048Y-14732667D01*
X14164048Y-14732667D02*
X14173572Y-14742190D01*
X14173572Y-14742190D02*
X14183095Y-14761238D01*
X14183095Y-14761238D02*
X14183095Y-14818381D01*
X14183095Y-14818381D02*
X14173572Y-14837428D01*
X14173572Y-14837428D02*
X14164048Y-14846952D01*
X14164048Y-14846952D02*
X14145000Y-14856476D01*
X14145000Y-14856476D02*
X14116429Y-14856476D01*
X14297381Y-14856476D02*
X14278333Y-14846952D01*
X14278333Y-14846952D02*
X14268810Y-14827905D01*
X14268810Y-14827905D02*
X14268810Y-14656476D01*
X14449762Y-14846952D02*
X14430714Y-14856476D01*
X14430714Y-14856476D02*
X14392619Y-14856476D01*
X14392619Y-14856476D02*
X14373572Y-14846952D01*
X14373572Y-14846952D02*
X14364048Y-14827905D01*
X14364048Y-14827905D02*
X14364048Y-14751714D01*
X14364048Y-14751714D02*
X14373572Y-14732667D01*
X14373572Y-14732667D02*
X14392619Y-14723143D01*
X14392619Y-14723143D02*
X14430714Y-14723143D01*
X14430714Y-14723143D02*
X14449762Y-14732667D01*
X14449762Y-14732667D02*
X14459286Y-14751714D01*
X14459286Y-14751714D02*
X14459286Y-14770762D01*
X14459286Y-14770762D02*
X14364048Y-14789809D01*
X14535476Y-14846952D02*
X14554524Y-14856476D01*
X14554524Y-14856476D02*
X14592619Y-14856476D01*
X14592619Y-14856476D02*
X14611667Y-14846952D01*
X14611667Y-14846952D02*
X14621191Y-14827905D01*
X14621191Y-14827905D02*
X14621191Y-14818381D01*
X14621191Y-14818381D02*
X14611667Y-14799333D01*
X14611667Y-14799333D02*
X14592619Y-14789809D01*
X14592619Y-14789809D02*
X14564048Y-14789809D01*
X14564048Y-14789809D02*
X14545000Y-14780286D01*
X14545000Y-14780286D02*
X14535476Y-14761238D01*
X14535476Y-14761238D02*
X14535476Y-14751714D01*
X14535476Y-14751714D02*
X14545000Y-14732667D01*
X14545000Y-14732667D02*
X14564048Y-14723143D01*
X14564048Y-14723143D02*
X14592619Y-14723143D01*
X14592619Y-14723143D02*
X14611667Y-14732667D01*
X14687857Y-14932667D02*
X14697381Y-14923143D01*
X14697381Y-14923143D02*
X14716429Y-14894571D01*
X14716429Y-14894571D02*
X14725953Y-14875524D01*
X14725953Y-14875524D02*
X14735476Y-14846952D01*
X14735476Y-14846952D02*
X14745000Y-14799333D01*
X14745000Y-14799333D02*
X14745000Y-14761238D01*
X14745000Y-14761238D02*
X14735476Y-14713619D01*
X14735476Y-14713619D02*
X14725953Y-14685048D01*
X14725953Y-14685048D02*
X14716429Y-14666000D01*
X14716429Y-14666000D02*
X14697381Y-14637428D01*
X14697381Y-14637428D02*
X14687857Y-14627905D01*
D14*
X9850121Y-15082921D02*
X9850121Y-15011079D01*
X9778279Y-15011079D01*
X9778279Y-15082921D01*
X9850121Y-15082921D01*
D11*
X10217381Y-15120476D02*
X10103095Y-15120476D01*
X10160238Y-15120476D02*
X10160238Y-14920476D01*
X10160238Y-14920476D02*
X10141190Y-14949048D01*
X10141190Y-14949048D02*
X10122143Y-14968095D01*
X10122143Y-14968095D02*
X10103095Y-14977619D01*
X10303095Y-15101428D02*
X10312619Y-15110952D01*
X10312619Y-15110952D02*
X10303095Y-15120476D01*
X10303095Y-15120476D02*
X10293571Y-15110952D01*
X10293571Y-15110952D02*
X10303095Y-15101428D01*
X10303095Y-15101428D02*
X10303095Y-15120476D01*
X10436429Y-14920476D02*
X10455476Y-14920476D01*
X10455476Y-14920476D02*
X10474524Y-14930000D01*
X10474524Y-14930000D02*
X10484048Y-14939524D01*
X10484048Y-14939524D02*
X10493571Y-14958571D01*
X10493571Y-14958571D02*
X10503095Y-14996667D01*
X10503095Y-14996667D02*
X10503095Y-15044286D01*
X10503095Y-15044286D02*
X10493571Y-15082381D01*
X10493571Y-15082381D02*
X10484048Y-15101428D01*
X10484048Y-15101428D02*
X10474524Y-15110952D01*
X10474524Y-15110952D02*
X10455476Y-15120476D01*
X10455476Y-15120476D02*
X10436429Y-15120476D01*
X10436429Y-15120476D02*
X10417381Y-15110952D01*
X10417381Y-15110952D02*
X10407857Y-15101428D01*
X10407857Y-15101428D02*
X10398333Y-15082381D01*
X10398333Y-15082381D02*
X10388810Y-15044286D01*
X10388810Y-15044286D02*
X10388810Y-14996667D01*
X10388810Y-14996667D02*
X10398333Y-14958571D01*
X10398333Y-14958571D02*
X10407857Y-14939524D01*
X10407857Y-14939524D02*
X10417381Y-14930000D01*
X10417381Y-14930000D02*
X10436429Y-14920476D01*
X10693571Y-15120476D02*
X10579286Y-15120476D01*
X10636429Y-15120476D02*
X10636429Y-14920476D01*
X10636429Y-14920476D02*
X10617381Y-14949048D01*
X10617381Y-14949048D02*
X10598333Y-14968095D01*
X10598333Y-14968095D02*
X10579286Y-14977619D01*
X10865000Y-14920476D02*
X10826905Y-14920476D01*
X10826905Y-14920476D02*
X10807857Y-14930000D01*
X10807857Y-14930000D02*
X10798333Y-14939524D01*
X10798333Y-14939524D02*
X10779286Y-14968095D01*
X10779286Y-14968095D02*
X10769762Y-15006190D01*
X10769762Y-15006190D02*
X10769762Y-15082381D01*
X10769762Y-15082381D02*
X10779286Y-15101428D01*
X10779286Y-15101428D02*
X10788810Y-15110952D01*
X10788810Y-15110952D02*
X10807857Y-15120476D01*
X10807857Y-15120476D02*
X10845952Y-15120476D01*
X10845952Y-15120476D02*
X10865000Y-15110952D01*
X10865000Y-15110952D02*
X10874524Y-15101428D01*
X10874524Y-15101428D02*
X10884048Y-15082381D01*
X10884048Y-15082381D02*
X10884048Y-15034762D01*
X10884048Y-15034762D02*
X10874524Y-15015714D01*
X10874524Y-15015714D02*
X10865000Y-15006190D01*
X10865000Y-15006190D02*
X10845952Y-14996667D01*
X10845952Y-14996667D02*
X10807857Y-14996667D01*
X10807857Y-14996667D02*
X10788810Y-15006190D01*
X10788810Y-15006190D02*
X10779286Y-15015714D01*
X10779286Y-15015714D02*
X10769762Y-15034762D01*
X10969762Y-15120476D02*
X10969762Y-14987143D01*
X10969762Y-15006190D02*
X10979286Y-14996667D01*
X10979286Y-14996667D02*
X10998333Y-14987143D01*
X10998333Y-14987143D02*
X11026905Y-14987143D01*
X11026905Y-14987143D02*
X11045952Y-14996667D01*
X11045952Y-14996667D02*
X11055476Y-15015714D01*
X11055476Y-15015714D02*
X11055476Y-15120476D01*
X11055476Y-15015714D02*
X11065000Y-14996667D01*
X11065000Y-14996667D02*
X11084048Y-14987143D01*
X11084048Y-14987143D02*
X11112619Y-14987143D01*
X11112619Y-14987143D02*
X11131667Y-14996667D01*
X11131667Y-14996667D02*
X11141191Y-15015714D01*
X11141191Y-15015714D02*
X11141191Y-15120476D01*
X11236429Y-15120476D02*
X11236429Y-14987143D01*
X11236429Y-15006190D02*
X11245952Y-14996667D01*
X11245952Y-14996667D02*
X11265000Y-14987143D01*
X11265000Y-14987143D02*
X11293571Y-14987143D01*
X11293571Y-14987143D02*
X11312619Y-14996667D01*
X11312619Y-14996667D02*
X11322143Y-15015714D01*
X11322143Y-15015714D02*
X11322143Y-15120476D01*
X11322143Y-15015714D02*
X11331667Y-14996667D01*
X11331667Y-14996667D02*
X11350714Y-14987143D01*
X11350714Y-14987143D02*
X11379286Y-14987143D01*
X11379286Y-14987143D02*
X11398333Y-14996667D01*
X11398333Y-14996667D02*
X11407857Y-15015714D01*
X11407857Y-15015714D02*
X11407857Y-15120476D01*
X11765952Y-14910952D02*
X11594524Y-15168095D01*
X11990714Y-14920476D02*
X12009762Y-14920476D01*
X12009762Y-14920476D02*
X12028810Y-14930000D01*
X12028810Y-14930000D02*
X12038333Y-14939524D01*
X12038333Y-14939524D02*
X12047857Y-14958571D01*
X12047857Y-14958571D02*
X12057381Y-14996667D01*
X12057381Y-14996667D02*
X12057381Y-15044286D01*
X12057381Y-15044286D02*
X12047857Y-15082381D01*
X12047857Y-15082381D02*
X12038333Y-15101428D01*
X12038333Y-15101428D02*
X12028810Y-15110952D01*
X12028810Y-15110952D02*
X12009762Y-15120476D01*
X12009762Y-15120476D02*
X11990714Y-15120476D01*
X11990714Y-15120476D02*
X11971667Y-15110952D01*
X11971667Y-15110952D02*
X11962143Y-15101428D01*
X11962143Y-15101428D02*
X11952619Y-15082381D01*
X11952619Y-15082381D02*
X11943095Y-15044286D01*
X11943095Y-15044286D02*
X11943095Y-14996667D01*
X11943095Y-14996667D02*
X11952619Y-14958571D01*
X11952619Y-14958571D02*
X11962143Y-14939524D01*
X11962143Y-14939524D02*
X11971667Y-14930000D01*
X11971667Y-14930000D02*
X11990714Y-14920476D01*
X12143095Y-15101428D02*
X12152619Y-15110952D01*
X12152619Y-15110952D02*
X12143095Y-15120476D01*
X12143095Y-15120476D02*
X12133571Y-15110952D01*
X12133571Y-15110952D02*
X12143095Y-15101428D01*
X12143095Y-15101428D02*
X12143095Y-15120476D01*
X12276429Y-14920476D02*
X12295476Y-14920476D01*
X12295476Y-14920476D02*
X12314524Y-14930000D01*
X12314524Y-14930000D02*
X12324048Y-14939524D01*
X12324048Y-14939524D02*
X12333571Y-14958571D01*
X12333571Y-14958571D02*
X12343095Y-14996667D01*
X12343095Y-14996667D02*
X12343095Y-15044286D01*
X12343095Y-15044286D02*
X12333571Y-15082381D01*
X12333571Y-15082381D02*
X12324048Y-15101428D01*
X12324048Y-15101428D02*
X12314524Y-15110952D01*
X12314524Y-15110952D02*
X12295476Y-15120476D01*
X12295476Y-15120476D02*
X12276429Y-15120476D01*
X12276429Y-15120476D02*
X12257381Y-15110952D01*
X12257381Y-15110952D02*
X12247857Y-15101428D01*
X12247857Y-15101428D02*
X12238333Y-15082381D01*
X12238333Y-15082381D02*
X12228810Y-15044286D01*
X12228810Y-15044286D02*
X12228810Y-14996667D01*
X12228810Y-14996667D02*
X12238333Y-14958571D01*
X12238333Y-14958571D02*
X12247857Y-14939524D01*
X12247857Y-14939524D02*
X12257381Y-14930000D01*
X12257381Y-14930000D02*
X12276429Y-14920476D01*
X12514524Y-14987143D02*
X12514524Y-15120476D01*
X12466905Y-14910952D02*
X12419286Y-15053809D01*
X12419286Y-15053809D02*
X12543095Y-15053809D01*
X12657381Y-14920476D02*
X12676429Y-14920476D01*
X12676429Y-14920476D02*
X12695476Y-14930000D01*
X12695476Y-14930000D02*
X12705000Y-14939524D01*
X12705000Y-14939524D02*
X12714524Y-14958571D01*
X12714524Y-14958571D02*
X12724048Y-14996667D01*
X12724048Y-14996667D02*
X12724048Y-15044286D01*
X12724048Y-15044286D02*
X12714524Y-15082381D01*
X12714524Y-15082381D02*
X12705000Y-15101428D01*
X12705000Y-15101428D02*
X12695476Y-15110952D01*
X12695476Y-15110952D02*
X12676429Y-15120476D01*
X12676429Y-15120476D02*
X12657381Y-15120476D01*
X12657381Y-15120476D02*
X12638333Y-15110952D01*
X12638333Y-15110952D02*
X12628810Y-15101428D01*
X12628810Y-15101428D02*
X12619286Y-15082381D01*
X12619286Y-15082381D02*
X12609762Y-15044286D01*
X12609762Y-15044286D02*
X12609762Y-14996667D01*
X12609762Y-14996667D02*
X12619286Y-14958571D01*
X12619286Y-14958571D02*
X12628810Y-14939524D01*
X12628810Y-14939524D02*
X12638333Y-14930000D01*
X12638333Y-14930000D02*
X12657381Y-14920476D01*
X12847857Y-14920476D02*
X12866905Y-14920476D01*
X12866905Y-14920476D02*
X12885952Y-14930000D01*
X12885952Y-14930000D02*
X12895476Y-14939524D01*
X12895476Y-14939524D02*
X12905000Y-14958571D01*
X12905000Y-14958571D02*
X12914524Y-14996667D01*
X12914524Y-14996667D02*
X12914524Y-15044286D01*
X12914524Y-15044286D02*
X12905000Y-15082381D01*
X12905000Y-15082381D02*
X12895476Y-15101428D01*
X12895476Y-15101428D02*
X12885952Y-15110952D01*
X12885952Y-15110952D02*
X12866905Y-15120476D01*
X12866905Y-15120476D02*
X12847857Y-15120476D01*
X12847857Y-15120476D02*
X12828810Y-15110952D01*
X12828810Y-15110952D02*
X12819286Y-15101428D01*
X12819286Y-15101428D02*
X12809762Y-15082381D01*
X12809762Y-15082381D02*
X12800238Y-15044286D01*
X12800238Y-15044286D02*
X12800238Y-14996667D01*
X12800238Y-14996667D02*
X12809762Y-14958571D01*
X12809762Y-14958571D02*
X12819286Y-14939524D01*
X12819286Y-14939524D02*
X12828810Y-14930000D01*
X12828810Y-14930000D02*
X12847857Y-14920476D01*
X12990714Y-14920476D02*
X12990714Y-14958571D01*
X13066905Y-14920476D02*
X13066905Y-14958571D01*
X13329762Y-15196667D02*
X13320238Y-15187143D01*
X13320238Y-15187143D02*
X13301191Y-15158571D01*
X13301191Y-15158571D02*
X13291667Y-15139524D01*
X13291667Y-15139524D02*
X13282143Y-15110952D01*
X13282143Y-15110952D02*
X13272619Y-15063333D01*
X13272619Y-15063333D02*
X13272619Y-15025238D01*
X13272619Y-15025238D02*
X13282143Y-14977619D01*
X13282143Y-14977619D02*
X13291667Y-14949048D01*
X13291667Y-14949048D02*
X13301191Y-14930000D01*
X13301191Y-14930000D02*
X13320238Y-14901428D01*
X13320238Y-14901428D02*
X13329762Y-14891905D01*
X13415476Y-15120476D02*
X13453571Y-15120476D01*
X13453571Y-15120476D02*
X13472619Y-15110952D01*
X13472619Y-15110952D02*
X13482143Y-15101428D01*
X13482143Y-15101428D02*
X13501191Y-15072857D01*
X13501191Y-15072857D02*
X13510714Y-15034762D01*
X13510714Y-15034762D02*
X13510714Y-14958571D01*
X13510714Y-14958571D02*
X13501191Y-14939524D01*
X13501191Y-14939524D02*
X13491667Y-14930000D01*
X13491667Y-14930000D02*
X13472619Y-14920476D01*
X13472619Y-14920476D02*
X13434524Y-14920476D01*
X13434524Y-14920476D02*
X13415476Y-14930000D01*
X13415476Y-14930000D02*
X13405952Y-14939524D01*
X13405952Y-14939524D02*
X13396429Y-14958571D01*
X13396429Y-14958571D02*
X13396429Y-15006190D01*
X13396429Y-15006190D02*
X13405952Y-15025238D01*
X13405952Y-15025238D02*
X13415476Y-15034762D01*
X13415476Y-15034762D02*
X13434524Y-15044286D01*
X13434524Y-15044286D02*
X13472619Y-15044286D01*
X13472619Y-15044286D02*
X13491667Y-15034762D01*
X13491667Y-15034762D02*
X13501191Y-15025238D01*
X13501191Y-15025238D02*
X13510714Y-15006190D01*
X13586905Y-14939524D02*
X13596429Y-14930000D01*
X13596429Y-14930000D02*
X13615476Y-14920476D01*
X13615476Y-14920476D02*
X13663095Y-14920476D01*
X13663095Y-14920476D02*
X13682143Y-14930000D01*
X13682143Y-14930000D02*
X13691667Y-14939524D01*
X13691667Y-14939524D02*
X13701191Y-14958571D01*
X13701191Y-14958571D02*
X13701191Y-14977619D01*
X13701191Y-14977619D02*
X13691667Y-15006190D01*
X13691667Y-15006190D02*
X13577381Y-15120476D01*
X13577381Y-15120476D02*
X13701191Y-15120476D01*
X13906905Y-15120476D02*
X13906905Y-14920476D01*
X13992619Y-15120476D02*
X13992619Y-15015714D01*
X13992619Y-15015714D02*
X13983095Y-14996667D01*
X13983095Y-14996667D02*
X13964048Y-14987143D01*
X13964048Y-14987143D02*
X13935476Y-14987143D01*
X13935476Y-14987143D02*
X13916429Y-14996667D01*
X13916429Y-14996667D02*
X13906905Y-15006190D01*
X14116429Y-15120476D02*
X14097381Y-15110952D01*
X14097381Y-15110952D02*
X14087857Y-15101428D01*
X14087857Y-15101428D02*
X14078333Y-15082381D01*
X14078333Y-15082381D02*
X14078333Y-15025238D01*
X14078333Y-15025238D02*
X14087857Y-15006190D01*
X14087857Y-15006190D02*
X14097381Y-14996667D01*
X14097381Y-14996667D02*
X14116429Y-14987143D01*
X14116429Y-14987143D02*
X14145000Y-14987143D01*
X14145000Y-14987143D02*
X14164048Y-14996667D01*
X14164048Y-14996667D02*
X14173572Y-15006190D01*
X14173572Y-15006190D02*
X14183095Y-15025238D01*
X14183095Y-15025238D02*
X14183095Y-15082381D01*
X14183095Y-15082381D02*
X14173572Y-15101428D01*
X14173572Y-15101428D02*
X14164048Y-15110952D01*
X14164048Y-15110952D02*
X14145000Y-15120476D01*
X14145000Y-15120476D02*
X14116429Y-15120476D01*
X14297381Y-15120476D02*
X14278333Y-15110952D01*
X14278333Y-15110952D02*
X14268810Y-15091905D01*
X14268810Y-15091905D02*
X14268810Y-14920476D01*
X14449762Y-15110952D02*
X14430714Y-15120476D01*
X14430714Y-15120476D02*
X14392619Y-15120476D01*
X14392619Y-15120476D02*
X14373572Y-15110952D01*
X14373572Y-15110952D02*
X14364048Y-15091905D01*
X14364048Y-15091905D02*
X14364048Y-15015714D01*
X14364048Y-15015714D02*
X14373572Y-14996667D01*
X14373572Y-14996667D02*
X14392619Y-14987143D01*
X14392619Y-14987143D02*
X14430714Y-14987143D01*
X14430714Y-14987143D02*
X14449762Y-14996667D01*
X14449762Y-14996667D02*
X14459286Y-15015714D01*
X14459286Y-15015714D02*
X14459286Y-15034762D01*
X14459286Y-15034762D02*
X14364048Y-15053809D01*
X14535476Y-15110952D02*
X14554524Y-15120476D01*
X14554524Y-15120476D02*
X14592619Y-15120476D01*
X14592619Y-15120476D02*
X14611667Y-15110952D01*
X14611667Y-15110952D02*
X14621191Y-15091905D01*
X14621191Y-15091905D02*
X14621191Y-15082381D01*
X14621191Y-15082381D02*
X14611667Y-15063333D01*
X14611667Y-15063333D02*
X14592619Y-15053809D01*
X14592619Y-15053809D02*
X14564048Y-15053809D01*
X14564048Y-15053809D02*
X14545000Y-15044286D01*
X14545000Y-15044286D02*
X14535476Y-15025238D01*
X14535476Y-15025238D02*
X14535476Y-15015714D01*
X14535476Y-15015714D02*
X14545000Y-14996667D01*
X14545000Y-14996667D02*
X14564048Y-14987143D01*
X14564048Y-14987143D02*
X14592619Y-14987143D01*
X14592619Y-14987143D02*
X14611667Y-14996667D01*
X14687857Y-15196667D02*
X14697381Y-15187143D01*
X14697381Y-15187143D02*
X14716429Y-15158571D01*
X14716429Y-15158571D02*
X14725953Y-15139524D01*
X14725953Y-15139524D02*
X14735476Y-15110952D01*
X14735476Y-15110952D02*
X14745000Y-15063333D01*
X14745000Y-15063333D02*
X14745000Y-15025238D01*
X14745000Y-15025238D02*
X14735476Y-14977619D01*
X14735476Y-14977619D02*
X14725953Y-14949048D01*
X14725953Y-14949048D02*
X14716429Y-14930000D01*
X14716429Y-14930000D02*
X14697381Y-14901428D01*
X14697381Y-14901428D02*
X14687857Y-14891905D01*
D15*
X9790000Y-15386000D02*
X9865000Y-15311000D01*
X9790000Y-15236000D01*
X9715000Y-15311000D01*
X9790000Y-15386000D01*
D11*
X10217381Y-15384476D02*
X10103095Y-15384476D01*
X10160238Y-15384476D02*
X10160238Y-15184476D01*
X10160238Y-15184476D02*
X10141190Y-15213048D01*
X10141190Y-15213048D02*
X10122143Y-15232095D01*
X10122143Y-15232095D02*
X10103095Y-15241619D01*
X10303095Y-15365428D02*
X10312619Y-15374952D01*
X10312619Y-15374952D02*
X10303095Y-15384476D01*
X10303095Y-15384476D02*
X10293571Y-15374952D01*
X10293571Y-15374952D02*
X10303095Y-15365428D01*
X10303095Y-15365428D02*
X10303095Y-15384476D01*
X10493571Y-15184476D02*
X10398333Y-15184476D01*
X10398333Y-15184476D02*
X10388810Y-15279714D01*
X10388810Y-15279714D02*
X10398333Y-15270190D01*
X10398333Y-15270190D02*
X10417381Y-15260667D01*
X10417381Y-15260667D02*
X10465000Y-15260667D01*
X10465000Y-15260667D02*
X10484048Y-15270190D01*
X10484048Y-15270190D02*
X10493571Y-15279714D01*
X10493571Y-15279714D02*
X10503095Y-15298762D01*
X10503095Y-15298762D02*
X10503095Y-15346381D01*
X10503095Y-15346381D02*
X10493571Y-15365428D01*
X10493571Y-15365428D02*
X10484048Y-15374952D01*
X10484048Y-15374952D02*
X10465000Y-15384476D01*
X10465000Y-15384476D02*
X10417381Y-15384476D01*
X10417381Y-15384476D02*
X10398333Y-15374952D01*
X10398333Y-15374952D02*
X10388810Y-15365428D01*
X10626905Y-15184476D02*
X10645952Y-15184476D01*
X10645952Y-15184476D02*
X10665000Y-15194000D01*
X10665000Y-15194000D02*
X10674524Y-15203524D01*
X10674524Y-15203524D02*
X10684048Y-15222571D01*
X10684048Y-15222571D02*
X10693571Y-15260667D01*
X10693571Y-15260667D02*
X10693571Y-15308286D01*
X10693571Y-15308286D02*
X10684048Y-15346381D01*
X10684048Y-15346381D02*
X10674524Y-15365428D01*
X10674524Y-15365428D02*
X10665000Y-15374952D01*
X10665000Y-15374952D02*
X10645952Y-15384476D01*
X10645952Y-15384476D02*
X10626905Y-15384476D01*
X10626905Y-15384476D02*
X10607857Y-15374952D01*
X10607857Y-15374952D02*
X10598333Y-15365428D01*
X10598333Y-15365428D02*
X10588810Y-15346381D01*
X10588810Y-15346381D02*
X10579286Y-15308286D01*
X10579286Y-15308286D02*
X10579286Y-15260667D01*
X10579286Y-15260667D02*
X10588810Y-15222571D01*
X10588810Y-15222571D02*
X10598333Y-15203524D01*
X10598333Y-15203524D02*
X10607857Y-15194000D01*
X10607857Y-15194000D02*
X10626905Y-15184476D01*
X10817381Y-15184476D02*
X10836429Y-15184476D01*
X10836429Y-15184476D02*
X10855476Y-15194000D01*
X10855476Y-15194000D02*
X10865000Y-15203524D01*
X10865000Y-15203524D02*
X10874524Y-15222571D01*
X10874524Y-15222571D02*
X10884048Y-15260667D01*
X10884048Y-15260667D02*
X10884048Y-15308286D01*
X10884048Y-15308286D02*
X10874524Y-15346381D01*
X10874524Y-15346381D02*
X10865000Y-15365428D01*
X10865000Y-15365428D02*
X10855476Y-15374952D01*
X10855476Y-15374952D02*
X10836429Y-15384476D01*
X10836429Y-15384476D02*
X10817381Y-15384476D01*
X10817381Y-15384476D02*
X10798333Y-15374952D01*
X10798333Y-15374952D02*
X10788810Y-15365428D01*
X10788810Y-15365428D02*
X10779286Y-15346381D01*
X10779286Y-15346381D02*
X10769762Y-15308286D01*
X10769762Y-15308286D02*
X10769762Y-15260667D01*
X10769762Y-15260667D02*
X10779286Y-15222571D01*
X10779286Y-15222571D02*
X10788810Y-15203524D01*
X10788810Y-15203524D02*
X10798333Y-15194000D01*
X10798333Y-15194000D02*
X10817381Y-15184476D01*
X10969762Y-15384476D02*
X10969762Y-15251143D01*
X10969762Y-15270190D02*
X10979286Y-15260667D01*
X10979286Y-15260667D02*
X10998333Y-15251143D01*
X10998333Y-15251143D02*
X11026905Y-15251143D01*
X11026905Y-15251143D02*
X11045952Y-15260667D01*
X11045952Y-15260667D02*
X11055476Y-15279714D01*
X11055476Y-15279714D02*
X11055476Y-15384476D01*
X11055476Y-15279714D02*
X11065000Y-15260667D01*
X11065000Y-15260667D02*
X11084048Y-15251143D01*
X11084048Y-15251143D02*
X11112619Y-15251143D01*
X11112619Y-15251143D02*
X11131667Y-15260667D01*
X11131667Y-15260667D02*
X11141191Y-15279714D01*
X11141191Y-15279714D02*
X11141191Y-15384476D01*
X11236429Y-15384476D02*
X11236429Y-15251143D01*
X11236429Y-15270190D02*
X11245952Y-15260667D01*
X11245952Y-15260667D02*
X11265000Y-15251143D01*
X11265000Y-15251143D02*
X11293571Y-15251143D01*
X11293571Y-15251143D02*
X11312619Y-15260667D01*
X11312619Y-15260667D02*
X11322143Y-15279714D01*
X11322143Y-15279714D02*
X11322143Y-15384476D01*
X11322143Y-15279714D02*
X11331667Y-15260667D01*
X11331667Y-15260667D02*
X11350714Y-15251143D01*
X11350714Y-15251143D02*
X11379286Y-15251143D01*
X11379286Y-15251143D02*
X11398333Y-15260667D01*
X11398333Y-15260667D02*
X11407857Y-15279714D01*
X11407857Y-15279714D02*
X11407857Y-15384476D01*
X11765952Y-15174952D02*
X11594524Y-15432095D01*
X11990714Y-15184476D02*
X12009762Y-15184476D01*
X12009762Y-15184476D02*
X12028810Y-15194000D01*
X12028810Y-15194000D02*
X12038333Y-15203524D01*
X12038333Y-15203524D02*
X12047857Y-15222571D01*
X12047857Y-15222571D02*
X12057381Y-15260667D01*
X12057381Y-15260667D02*
X12057381Y-15308286D01*
X12057381Y-15308286D02*
X12047857Y-15346381D01*
X12047857Y-15346381D02*
X12038333Y-15365428D01*
X12038333Y-15365428D02*
X12028810Y-15374952D01*
X12028810Y-15374952D02*
X12009762Y-15384476D01*
X12009762Y-15384476D02*
X11990714Y-15384476D01*
X11990714Y-15384476D02*
X11971667Y-15374952D01*
X11971667Y-15374952D02*
X11962143Y-15365428D01*
X11962143Y-15365428D02*
X11952619Y-15346381D01*
X11952619Y-15346381D02*
X11943095Y-15308286D01*
X11943095Y-15308286D02*
X11943095Y-15260667D01*
X11943095Y-15260667D02*
X11952619Y-15222571D01*
X11952619Y-15222571D02*
X11962143Y-15203524D01*
X11962143Y-15203524D02*
X11971667Y-15194000D01*
X11971667Y-15194000D02*
X11990714Y-15184476D01*
X12143095Y-15365428D02*
X12152619Y-15374952D01*
X12152619Y-15374952D02*
X12143095Y-15384476D01*
X12143095Y-15384476D02*
X12133571Y-15374952D01*
X12133571Y-15374952D02*
X12143095Y-15365428D01*
X12143095Y-15365428D02*
X12143095Y-15384476D01*
X12276429Y-15184476D02*
X12295476Y-15184476D01*
X12295476Y-15184476D02*
X12314524Y-15194000D01*
X12314524Y-15194000D02*
X12324048Y-15203524D01*
X12324048Y-15203524D02*
X12333571Y-15222571D01*
X12333571Y-15222571D02*
X12343095Y-15260667D01*
X12343095Y-15260667D02*
X12343095Y-15308286D01*
X12343095Y-15308286D02*
X12333571Y-15346381D01*
X12333571Y-15346381D02*
X12324048Y-15365428D01*
X12324048Y-15365428D02*
X12314524Y-15374952D01*
X12314524Y-15374952D02*
X12295476Y-15384476D01*
X12295476Y-15384476D02*
X12276429Y-15384476D01*
X12276429Y-15384476D02*
X12257381Y-15374952D01*
X12257381Y-15374952D02*
X12247857Y-15365428D01*
X12247857Y-15365428D02*
X12238333Y-15346381D01*
X12238333Y-15346381D02*
X12228810Y-15308286D01*
X12228810Y-15308286D02*
X12228810Y-15260667D01*
X12228810Y-15260667D02*
X12238333Y-15222571D01*
X12238333Y-15222571D02*
X12247857Y-15203524D01*
X12247857Y-15203524D02*
X12257381Y-15194000D01*
X12257381Y-15194000D02*
X12276429Y-15184476D01*
X12524048Y-15184476D02*
X12428810Y-15184476D01*
X12428810Y-15184476D02*
X12419286Y-15279714D01*
X12419286Y-15279714D02*
X12428810Y-15270190D01*
X12428810Y-15270190D02*
X12447857Y-15260667D01*
X12447857Y-15260667D02*
X12495476Y-15260667D01*
X12495476Y-15260667D02*
X12514524Y-15270190D01*
X12514524Y-15270190D02*
X12524048Y-15279714D01*
X12524048Y-15279714D02*
X12533571Y-15298762D01*
X12533571Y-15298762D02*
X12533571Y-15346381D01*
X12533571Y-15346381D02*
X12524048Y-15365428D01*
X12524048Y-15365428D02*
X12514524Y-15374952D01*
X12514524Y-15374952D02*
X12495476Y-15384476D01*
X12495476Y-15384476D02*
X12447857Y-15384476D01*
X12447857Y-15384476D02*
X12428810Y-15374952D01*
X12428810Y-15374952D02*
X12419286Y-15365428D01*
X12628810Y-15384476D02*
X12666905Y-15384476D01*
X12666905Y-15384476D02*
X12685952Y-15374952D01*
X12685952Y-15374952D02*
X12695476Y-15365428D01*
X12695476Y-15365428D02*
X12714524Y-15336857D01*
X12714524Y-15336857D02*
X12724048Y-15298762D01*
X12724048Y-15298762D02*
X12724048Y-15222571D01*
X12724048Y-15222571D02*
X12714524Y-15203524D01*
X12714524Y-15203524D02*
X12705000Y-15194000D01*
X12705000Y-15194000D02*
X12685952Y-15184476D01*
X12685952Y-15184476D02*
X12647857Y-15184476D01*
X12647857Y-15184476D02*
X12628810Y-15194000D01*
X12628810Y-15194000D02*
X12619286Y-15203524D01*
X12619286Y-15203524D02*
X12609762Y-15222571D01*
X12609762Y-15222571D02*
X12609762Y-15270190D01*
X12609762Y-15270190D02*
X12619286Y-15289238D01*
X12619286Y-15289238D02*
X12628810Y-15298762D01*
X12628810Y-15298762D02*
X12647857Y-15308286D01*
X12647857Y-15308286D02*
X12685952Y-15308286D01*
X12685952Y-15308286D02*
X12705000Y-15298762D01*
X12705000Y-15298762D02*
X12714524Y-15289238D01*
X12714524Y-15289238D02*
X12724048Y-15270190D01*
X12914524Y-15384476D02*
X12800238Y-15384476D01*
X12857381Y-15384476D02*
X12857381Y-15184476D01*
X12857381Y-15184476D02*
X12838333Y-15213048D01*
X12838333Y-15213048D02*
X12819286Y-15232095D01*
X12819286Y-15232095D02*
X12800238Y-15241619D01*
X12990714Y-15184476D02*
X12990714Y-15222571D01*
X13066905Y-15184476D02*
X13066905Y-15222571D01*
X13329762Y-15460667D02*
X13320238Y-15451143D01*
X13320238Y-15451143D02*
X13301191Y-15422571D01*
X13301191Y-15422571D02*
X13291667Y-15403524D01*
X13291667Y-15403524D02*
X13282143Y-15374952D01*
X13282143Y-15374952D02*
X13272619Y-15327333D01*
X13272619Y-15327333D02*
X13272619Y-15289238D01*
X13272619Y-15289238D02*
X13282143Y-15241619D01*
X13282143Y-15241619D02*
X13291667Y-15213048D01*
X13291667Y-15213048D02*
X13301191Y-15194000D01*
X13301191Y-15194000D02*
X13320238Y-15165428D01*
X13320238Y-15165428D02*
X13329762Y-15155905D01*
X13396429Y-15203524D02*
X13405952Y-15194000D01*
X13405952Y-15194000D02*
X13425000Y-15184476D01*
X13425000Y-15184476D02*
X13472619Y-15184476D01*
X13472619Y-15184476D02*
X13491667Y-15194000D01*
X13491667Y-15194000D02*
X13501191Y-15203524D01*
X13501191Y-15203524D02*
X13510714Y-15222571D01*
X13510714Y-15222571D02*
X13510714Y-15241619D01*
X13510714Y-15241619D02*
X13501191Y-15270190D01*
X13501191Y-15270190D02*
X13386905Y-15384476D01*
X13386905Y-15384476D02*
X13510714Y-15384476D01*
X13716429Y-15384476D02*
X13716429Y-15184476D01*
X13802143Y-15384476D02*
X13802143Y-15279714D01*
X13802143Y-15279714D02*
X13792619Y-15260667D01*
X13792619Y-15260667D02*
X13773572Y-15251143D01*
X13773572Y-15251143D02*
X13745000Y-15251143D01*
X13745000Y-15251143D02*
X13725952Y-15260667D01*
X13725952Y-15260667D02*
X13716429Y-15270190D01*
X13925952Y-15384476D02*
X13906905Y-15374952D01*
X13906905Y-15374952D02*
X13897381Y-15365428D01*
X13897381Y-15365428D02*
X13887857Y-15346381D01*
X13887857Y-15346381D02*
X13887857Y-15289238D01*
X13887857Y-15289238D02*
X13897381Y-15270190D01*
X13897381Y-15270190D02*
X13906905Y-15260667D01*
X13906905Y-15260667D02*
X13925952Y-15251143D01*
X13925952Y-15251143D02*
X13954524Y-15251143D01*
X13954524Y-15251143D02*
X13973572Y-15260667D01*
X13973572Y-15260667D02*
X13983095Y-15270190D01*
X13983095Y-15270190D02*
X13992619Y-15289238D01*
X13992619Y-15289238D02*
X13992619Y-15346381D01*
X13992619Y-15346381D02*
X13983095Y-15365428D01*
X13983095Y-15365428D02*
X13973572Y-15374952D01*
X13973572Y-15374952D02*
X13954524Y-15384476D01*
X13954524Y-15384476D02*
X13925952Y-15384476D01*
X14106905Y-15384476D02*
X14087857Y-15374952D01*
X14087857Y-15374952D02*
X14078333Y-15355905D01*
X14078333Y-15355905D02*
X14078333Y-15184476D01*
X14259286Y-15374952D02*
X14240238Y-15384476D01*
X14240238Y-15384476D02*
X14202143Y-15384476D01*
X14202143Y-15384476D02*
X14183095Y-15374952D01*
X14183095Y-15374952D02*
X14173572Y-15355905D01*
X14173572Y-15355905D02*
X14173572Y-15279714D01*
X14173572Y-15279714D02*
X14183095Y-15260667D01*
X14183095Y-15260667D02*
X14202143Y-15251143D01*
X14202143Y-15251143D02*
X14240238Y-15251143D01*
X14240238Y-15251143D02*
X14259286Y-15260667D01*
X14259286Y-15260667D02*
X14268810Y-15279714D01*
X14268810Y-15279714D02*
X14268810Y-15298762D01*
X14268810Y-15298762D02*
X14173572Y-15317809D01*
X14345000Y-15374952D02*
X14364048Y-15384476D01*
X14364048Y-15384476D02*
X14402143Y-15384476D01*
X14402143Y-15384476D02*
X14421191Y-15374952D01*
X14421191Y-15374952D02*
X14430714Y-15355905D01*
X14430714Y-15355905D02*
X14430714Y-15346381D01*
X14430714Y-15346381D02*
X14421191Y-15327333D01*
X14421191Y-15327333D02*
X14402143Y-15317809D01*
X14402143Y-15317809D02*
X14373572Y-15317809D01*
X14373572Y-15317809D02*
X14354524Y-15308286D01*
X14354524Y-15308286D02*
X14345000Y-15289238D01*
X14345000Y-15289238D02*
X14345000Y-15279714D01*
X14345000Y-15279714D02*
X14354524Y-15260667D01*
X14354524Y-15260667D02*
X14373572Y-15251143D01*
X14373572Y-15251143D02*
X14402143Y-15251143D01*
X14402143Y-15251143D02*
X14421191Y-15260667D01*
X14497381Y-15460667D02*
X14506905Y-15451143D01*
X14506905Y-15451143D02*
X14525953Y-15422571D01*
X14525953Y-15422571D02*
X14535476Y-15403524D01*
X14535476Y-15403524D02*
X14545000Y-15374952D01*
X14545000Y-15374952D02*
X14554524Y-15327333D01*
X14554524Y-15327333D02*
X14554524Y-15289238D01*
X14554524Y-15289238D02*
X14545000Y-15241619D01*
X14545000Y-15241619D02*
X14535476Y-15213048D01*
X14535476Y-15213048D02*
X14525953Y-15194000D01*
X14525953Y-15194000D02*
X14506905Y-15165428D01*
X14506905Y-15165428D02*
X14497381Y-15155905D01*
D16*
X9713000Y-15505000D02*
X9865000Y-15657000D01*
X9865000Y-15505000D02*
X9713000Y-15657000D01*
X9865000Y-15581000D02*
G75*
G03*
X9865000Y-15581000I-76000J0D01*
G01*
D11*
X10217381Y-15654476D02*
X10103095Y-15654476D01*
X10160238Y-15654476D02*
X10160238Y-15454476D01*
X10160238Y-15454476D02*
X10141190Y-15483048D01*
X10141190Y-15483048D02*
X10122143Y-15502095D01*
X10122143Y-15502095D02*
X10103095Y-15511619D01*
X10303095Y-15635428D02*
X10312619Y-15644952D01*
X10312619Y-15644952D02*
X10303095Y-15654476D01*
X10303095Y-15654476D02*
X10293571Y-15644952D01*
X10293571Y-15644952D02*
X10303095Y-15635428D01*
X10303095Y-15635428D02*
X10303095Y-15654476D01*
X10493571Y-15454476D02*
X10398333Y-15454476D01*
X10398333Y-15454476D02*
X10388810Y-15549714D01*
X10388810Y-15549714D02*
X10398333Y-15540190D01*
X10398333Y-15540190D02*
X10417381Y-15530667D01*
X10417381Y-15530667D02*
X10465000Y-15530667D01*
X10465000Y-15530667D02*
X10484048Y-15540190D01*
X10484048Y-15540190D02*
X10493571Y-15549714D01*
X10493571Y-15549714D02*
X10503095Y-15568762D01*
X10503095Y-15568762D02*
X10503095Y-15616381D01*
X10503095Y-15616381D02*
X10493571Y-15635428D01*
X10493571Y-15635428D02*
X10484048Y-15644952D01*
X10484048Y-15644952D02*
X10465000Y-15654476D01*
X10465000Y-15654476D02*
X10417381Y-15654476D01*
X10417381Y-15654476D02*
X10398333Y-15644952D01*
X10398333Y-15644952D02*
X10388810Y-15635428D01*
X10579286Y-15473524D02*
X10588810Y-15464000D01*
X10588810Y-15464000D02*
X10607857Y-15454476D01*
X10607857Y-15454476D02*
X10655476Y-15454476D01*
X10655476Y-15454476D02*
X10674524Y-15464000D01*
X10674524Y-15464000D02*
X10684048Y-15473524D01*
X10684048Y-15473524D02*
X10693571Y-15492571D01*
X10693571Y-15492571D02*
X10693571Y-15511619D01*
X10693571Y-15511619D02*
X10684048Y-15540190D01*
X10684048Y-15540190D02*
X10569762Y-15654476D01*
X10569762Y-15654476D02*
X10693571Y-15654476D01*
X10817381Y-15454476D02*
X10836429Y-15454476D01*
X10836429Y-15454476D02*
X10855476Y-15464000D01*
X10855476Y-15464000D02*
X10865000Y-15473524D01*
X10865000Y-15473524D02*
X10874524Y-15492571D01*
X10874524Y-15492571D02*
X10884048Y-15530667D01*
X10884048Y-15530667D02*
X10884048Y-15578286D01*
X10884048Y-15578286D02*
X10874524Y-15616381D01*
X10874524Y-15616381D02*
X10865000Y-15635428D01*
X10865000Y-15635428D02*
X10855476Y-15644952D01*
X10855476Y-15644952D02*
X10836429Y-15654476D01*
X10836429Y-15654476D02*
X10817381Y-15654476D01*
X10817381Y-15654476D02*
X10798333Y-15644952D01*
X10798333Y-15644952D02*
X10788810Y-15635428D01*
X10788810Y-15635428D02*
X10779286Y-15616381D01*
X10779286Y-15616381D02*
X10769762Y-15578286D01*
X10769762Y-15578286D02*
X10769762Y-15530667D01*
X10769762Y-15530667D02*
X10779286Y-15492571D01*
X10779286Y-15492571D02*
X10788810Y-15473524D01*
X10788810Y-15473524D02*
X10798333Y-15464000D01*
X10798333Y-15464000D02*
X10817381Y-15454476D01*
X10969762Y-15654476D02*
X10969762Y-15521143D01*
X10969762Y-15540190D02*
X10979286Y-15530667D01*
X10979286Y-15530667D02*
X10998333Y-15521143D01*
X10998333Y-15521143D02*
X11026905Y-15521143D01*
X11026905Y-15521143D02*
X11045952Y-15530667D01*
X11045952Y-15530667D02*
X11055476Y-15549714D01*
X11055476Y-15549714D02*
X11055476Y-15654476D01*
X11055476Y-15549714D02*
X11065000Y-15530667D01*
X11065000Y-15530667D02*
X11084048Y-15521143D01*
X11084048Y-15521143D02*
X11112619Y-15521143D01*
X11112619Y-15521143D02*
X11131667Y-15530667D01*
X11131667Y-15530667D02*
X11141191Y-15549714D01*
X11141191Y-15549714D02*
X11141191Y-15654476D01*
X11236429Y-15654476D02*
X11236429Y-15521143D01*
X11236429Y-15540190D02*
X11245952Y-15530667D01*
X11245952Y-15530667D02*
X11265000Y-15521143D01*
X11265000Y-15521143D02*
X11293571Y-15521143D01*
X11293571Y-15521143D02*
X11312619Y-15530667D01*
X11312619Y-15530667D02*
X11322143Y-15549714D01*
X11322143Y-15549714D02*
X11322143Y-15654476D01*
X11322143Y-15549714D02*
X11331667Y-15530667D01*
X11331667Y-15530667D02*
X11350714Y-15521143D01*
X11350714Y-15521143D02*
X11379286Y-15521143D01*
X11379286Y-15521143D02*
X11398333Y-15530667D01*
X11398333Y-15530667D02*
X11407857Y-15549714D01*
X11407857Y-15549714D02*
X11407857Y-15654476D01*
X11765952Y-15444952D02*
X11594524Y-15702095D01*
X11990714Y-15454476D02*
X12009762Y-15454476D01*
X12009762Y-15454476D02*
X12028810Y-15464000D01*
X12028810Y-15464000D02*
X12038333Y-15473524D01*
X12038333Y-15473524D02*
X12047857Y-15492571D01*
X12047857Y-15492571D02*
X12057381Y-15530667D01*
X12057381Y-15530667D02*
X12057381Y-15578286D01*
X12057381Y-15578286D02*
X12047857Y-15616381D01*
X12047857Y-15616381D02*
X12038333Y-15635428D01*
X12038333Y-15635428D02*
X12028810Y-15644952D01*
X12028810Y-15644952D02*
X12009762Y-15654476D01*
X12009762Y-15654476D02*
X11990714Y-15654476D01*
X11990714Y-15654476D02*
X11971667Y-15644952D01*
X11971667Y-15644952D02*
X11962143Y-15635428D01*
X11962143Y-15635428D02*
X11952619Y-15616381D01*
X11952619Y-15616381D02*
X11943095Y-15578286D01*
X11943095Y-15578286D02*
X11943095Y-15530667D01*
X11943095Y-15530667D02*
X11952619Y-15492571D01*
X11952619Y-15492571D02*
X11962143Y-15473524D01*
X11962143Y-15473524D02*
X11971667Y-15464000D01*
X11971667Y-15464000D02*
X11990714Y-15454476D01*
X12143095Y-15635428D02*
X12152619Y-15644952D01*
X12152619Y-15644952D02*
X12143095Y-15654476D01*
X12143095Y-15654476D02*
X12133571Y-15644952D01*
X12133571Y-15644952D02*
X12143095Y-15635428D01*
X12143095Y-15635428D02*
X12143095Y-15654476D01*
X12276429Y-15454476D02*
X12295476Y-15454476D01*
X12295476Y-15454476D02*
X12314524Y-15464000D01*
X12314524Y-15464000D02*
X12324048Y-15473524D01*
X12324048Y-15473524D02*
X12333571Y-15492571D01*
X12333571Y-15492571D02*
X12343095Y-15530667D01*
X12343095Y-15530667D02*
X12343095Y-15578286D01*
X12343095Y-15578286D02*
X12333571Y-15616381D01*
X12333571Y-15616381D02*
X12324048Y-15635428D01*
X12324048Y-15635428D02*
X12314524Y-15644952D01*
X12314524Y-15644952D02*
X12295476Y-15654476D01*
X12295476Y-15654476D02*
X12276429Y-15654476D01*
X12276429Y-15654476D02*
X12257381Y-15644952D01*
X12257381Y-15644952D02*
X12247857Y-15635428D01*
X12247857Y-15635428D02*
X12238333Y-15616381D01*
X12238333Y-15616381D02*
X12228810Y-15578286D01*
X12228810Y-15578286D02*
X12228810Y-15530667D01*
X12228810Y-15530667D02*
X12238333Y-15492571D01*
X12238333Y-15492571D02*
X12247857Y-15473524D01*
X12247857Y-15473524D02*
X12257381Y-15464000D01*
X12257381Y-15464000D02*
X12276429Y-15454476D01*
X12524048Y-15454476D02*
X12428810Y-15454476D01*
X12428810Y-15454476D02*
X12419286Y-15549714D01*
X12419286Y-15549714D02*
X12428810Y-15540190D01*
X12428810Y-15540190D02*
X12447857Y-15530667D01*
X12447857Y-15530667D02*
X12495476Y-15530667D01*
X12495476Y-15530667D02*
X12514524Y-15540190D01*
X12514524Y-15540190D02*
X12524048Y-15549714D01*
X12524048Y-15549714D02*
X12533571Y-15568762D01*
X12533571Y-15568762D02*
X12533571Y-15616381D01*
X12533571Y-15616381D02*
X12524048Y-15635428D01*
X12524048Y-15635428D02*
X12514524Y-15644952D01*
X12514524Y-15644952D02*
X12495476Y-15654476D01*
X12495476Y-15654476D02*
X12447857Y-15654476D01*
X12447857Y-15654476D02*
X12428810Y-15644952D01*
X12428810Y-15644952D02*
X12419286Y-15635428D01*
X12628810Y-15654476D02*
X12666905Y-15654476D01*
X12666905Y-15654476D02*
X12685952Y-15644952D01*
X12685952Y-15644952D02*
X12695476Y-15635428D01*
X12695476Y-15635428D02*
X12714524Y-15606857D01*
X12714524Y-15606857D02*
X12724048Y-15568762D01*
X12724048Y-15568762D02*
X12724048Y-15492571D01*
X12724048Y-15492571D02*
X12714524Y-15473524D01*
X12714524Y-15473524D02*
X12705000Y-15464000D01*
X12705000Y-15464000D02*
X12685952Y-15454476D01*
X12685952Y-15454476D02*
X12647857Y-15454476D01*
X12647857Y-15454476D02*
X12628810Y-15464000D01*
X12628810Y-15464000D02*
X12619286Y-15473524D01*
X12619286Y-15473524D02*
X12609762Y-15492571D01*
X12609762Y-15492571D02*
X12609762Y-15540190D01*
X12609762Y-15540190D02*
X12619286Y-15559238D01*
X12619286Y-15559238D02*
X12628810Y-15568762D01*
X12628810Y-15568762D02*
X12647857Y-15578286D01*
X12647857Y-15578286D02*
X12685952Y-15578286D01*
X12685952Y-15578286D02*
X12705000Y-15568762D01*
X12705000Y-15568762D02*
X12714524Y-15559238D01*
X12714524Y-15559238D02*
X12724048Y-15540190D01*
X12838333Y-15540190D02*
X12819286Y-15530667D01*
X12819286Y-15530667D02*
X12809762Y-15521143D01*
X12809762Y-15521143D02*
X12800238Y-15502095D01*
X12800238Y-15502095D02*
X12800238Y-15492571D01*
X12800238Y-15492571D02*
X12809762Y-15473524D01*
X12809762Y-15473524D02*
X12819286Y-15464000D01*
X12819286Y-15464000D02*
X12838333Y-15454476D01*
X12838333Y-15454476D02*
X12876429Y-15454476D01*
X12876429Y-15454476D02*
X12895476Y-15464000D01*
X12895476Y-15464000D02*
X12905000Y-15473524D01*
X12905000Y-15473524D02*
X12914524Y-15492571D01*
X12914524Y-15492571D02*
X12914524Y-15502095D01*
X12914524Y-15502095D02*
X12905000Y-15521143D01*
X12905000Y-15521143D02*
X12895476Y-15530667D01*
X12895476Y-15530667D02*
X12876429Y-15540190D01*
X12876429Y-15540190D02*
X12838333Y-15540190D01*
X12838333Y-15540190D02*
X12819286Y-15549714D01*
X12819286Y-15549714D02*
X12809762Y-15559238D01*
X12809762Y-15559238D02*
X12800238Y-15578286D01*
X12800238Y-15578286D02*
X12800238Y-15616381D01*
X12800238Y-15616381D02*
X12809762Y-15635428D01*
X12809762Y-15635428D02*
X12819286Y-15644952D01*
X12819286Y-15644952D02*
X12838333Y-15654476D01*
X12838333Y-15654476D02*
X12876429Y-15654476D01*
X12876429Y-15654476D02*
X12895476Y-15644952D01*
X12895476Y-15644952D02*
X12905000Y-15635428D01*
X12905000Y-15635428D02*
X12914524Y-15616381D01*
X12914524Y-15616381D02*
X12914524Y-15578286D01*
X12914524Y-15578286D02*
X12905000Y-15559238D01*
X12905000Y-15559238D02*
X12895476Y-15549714D01*
X12895476Y-15549714D02*
X12876429Y-15540190D01*
X12990714Y-15454476D02*
X12990714Y-15492571D01*
X13066905Y-15454476D02*
X13066905Y-15492571D01*
X13329762Y-15730667D02*
X13320238Y-15721143D01*
X13320238Y-15721143D02*
X13301191Y-15692571D01*
X13301191Y-15692571D02*
X13291667Y-15673524D01*
X13291667Y-15673524D02*
X13282143Y-15644952D01*
X13282143Y-15644952D02*
X13272619Y-15597333D01*
X13272619Y-15597333D02*
X13272619Y-15559238D01*
X13272619Y-15559238D02*
X13282143Y-15511619D01*
X13282143Y-15511619D02*
X13291667Y-15483048D01*
X13291667Y-15483048D02*
X13301191Y-15464000D01*
X13301191Y-15464000D02*
X13320238Y-15435428D01*
X13320238Y-15435428D02*
X13329762Y-15425905D01*
X13491667Y-15521143D02*
X13491667Y-15654476D01*
X13444048Y-15444952D02*
X13396429Y-15587809D01*
X13396429Y-15587809D02*
X13520238Y-15587809D01*
X13716429Y-15654476D02*
X13716429Y-15454476D01*
X13802143Y-15654476D02*
X13802143Y-15549714D01*
X13802143Y-15549714D02*
X13792619Y-15530667D01*
X13792619Y-15530667D02*
X13773572Y-15521143D01*
X13773572Y-15521143D02*
X13745000Y-15521143D01*
X13745000Y-15521143D02*
X13725952Y-15530667D01*
X13725952Y-15530667D02*
X13716429Y-15540190D01*
X13925952Y-15654476D02*
X13906905Y-15644952D01*
X13906905Y-15644952D02*
X13897381Y-15635428D01*
X13897381Y-15635428D02*
X13887857Y-15616381D01*
X13887857Y-15616381D02*
X13887857Y-15559238D01*
X13887857Y-15559238D02*
X13897381Y-15540190D01*
X13897381Y-15540190D02*
X13906905Y-15530667D01*
X13906905Y-15530667D02*
X13925952Y-15521143D01*
X13925952Y-15521143D02*
X13954524Y-15521143D01*
X13954524Y-15521143D02*
X13973572Y-15530667D01*
X13973572Y-15530667D02*
X13983095Y-15540190D01*
X13983095Y-15540190D02*
X13992619Y-15559238D01*
X13992619Y-15559238D02*
X13992619Y-15616381D01*
X13992619Y-15616381D02*
X13983095Y-15635428D01*
X13983095Y-15635428D02*
X13973572Y-15644952D01*
X13973572Y-15644952D02*
X13954524Y-15654476D01*
X13954524Y-15654476D02*
X13925952Y-15654476D01*
X14106905Y-15654476D02*
X14087857Y-15644952D01*
X14087857Y-15644952D02*
X14078333Y-15625905D01*
X14078333Y-15625905D02*
X14078333Y-15454476D01*
X14259286Y-15644952D02*
X14240238Y-15654476D01*
X14240238Y-15654476D02*
X14202143Y-15654476D01*
X14202143Y-15654476D02*
X14183095Y-15644952D01*
X14183095Y-15644952D02*
X14173572Y-15625905D01*
X14173572Y-15625905D02*
X14173572Y-15549714D01*
X14173572Y-15549714D02*
X14183095Y-15530667D01*
X14183095Y-15530667D02*
X14202143Y-15521143D01*
X14202143Y-15521143D02*
X14240238Y-15521143D01*
X14240238Y-15521143D02*
X14259286Y-15530667D01*
X14259286Y-15530667D02*
X14268810Y-15549714D01*
X14268810Y-15549714D02*
X14268810Y-15568762D01*
X14268810Y-15568762D02*
X14173572Y-15587809D01*
X14345000Y-15644952D02*
X14364048Y-15654476D01*
X14364048Y-15654476D02*
X14402143Y-15654476D01*
X14402143Y-15654476D02*
X14421191Y-15644952D01*
X14421191Y-15644952D02*
X14430714Y-15625905D01*
X14430714Y-15625905D02*
X14430714Y-15616381D01*
X14430714Y-15616381D02*
X14421191Y-15597333D01*
X14421191Y-15597333D02*
X14402143Y-15587809D01*
X14402143Y-15587809D02*
X14373572Y-15587809D01*
X14373572Y-15587809D02*
X14354524Y-15578286D01*
X14354524Y-15578286D02*
X14345000Y-15559238D01*
X14345000Y-15559238D02*
X14345000Y-15549714D01*
X14345000Y-15549714D02*
X14354524Y-15530667D01*
X14354524Y-15530667D02*
X14373572Y-15521143D01*
X14373572Y-15521143D02*
X14402143Y-15521143D01*
X14402143Y-15521143D02*
X14421191Y-15530667D01*
X14497381Y-15730667D02*
X14506905Y-15721143D01*
X14506905Y-15721143D02*
X14525953Y-15692571D01*
X14525953Y-15692571D02*
X14535476Y-15673524D01*
X14535476Y-15673524D02*
X14545000Y-15644952D01*
X14545000Y-15644952D02*
X14554524Y-15597333D01*
X14554524Y-15597333D02*
X14554524Y-15559238D01*
X14554524Y-15559238D02*
X14545000Y-15511619D01*
X14545000Y-15511619D02*
X14535476Y-15483048D01*
X14535476Y-15483048D02*
X14525953Y-15464000D01*
X14525953Y-15464000D02*
X14506905Y-15435428D01*
X14506905Y-15435428D02*
X14497381Y-15425905D01*
X9665000Y-15753000D02*
X9865000Y-15953000D01*
X9865000Y-15753000D02*
X9665000Y-15953000D01*
X9765000Y-15753000D02*
X9765000Y-15953000D01*
X9665000Y-15853000D02*
X9865000Y-15853000D01*
X10198333Y-15726476D02*
X10160238Y-15726476D01*
X10160238Y-15726476D02*
X10141190Y-15736000D01*
X10141190Y-15736000D02*
X10131667Y-15745524D01*
X10131667Y-15745524D02*
X10112619Y-15774095D01*
X10112619Y-15774095D02*
X10103095Y-15812190D01*
X10103095Y-15812190D02*
X10103095Y-15888381D01*
X10103095Y-15888381D02*
X10112619Y-15907428D01*
X10112619Y-15907428D02*
X10122143Y-15916952D01*
X10122143Y-15916952D02*
X10141190Y-15926476D01*
X10141190Y-15926476D02*
X10179286Y-15926476D01*
X10179286Y-15926476D02*
X10198333Y-15916952D01*
X10198333Y-15916952D02*
X10207857Y-15907428D01*
X10207857Y-15907428D02*
X10217381Y-15888381D01*
X10217381Y-15888381D02*
X10217381Y-15840762D01*
X10217381Y-15840762D02*
X10207857Y-15821714D01*
X10207857Y-15821714D02*
X10198333Y-15812190D01*
X10198333Y-15812190D02*
X10179286Y-15802667D01*
X10179286Y-15802667D02*
X10141190Y-15802667D01*
X10141190Y-15802667D02*
X10122143Y-15812190D01*
X10122143Y-15812190D02*
X10112619Y-15821714D01*
X10112619Y-15821714D02*
X10103095Y-15840762D01*
X10303095Y-15907428D02*
X10312619Y-15916952D01*
X10312619Y-15916952D02*
X10303095Y-15926476D01*
X10303095Y-15926476D02*
X10293571Y-15916952D01*
X10293571Y-15916952D02*
X10303095Y-15907428D01*
X10303095Y-15907428D02*
X10303095Y-15926476D01*
X10503095Y-15926476D02*
X10388810Y-15926476D01*
X10445952Y-15926476D02*
X10445952Y-15726476D01*
X10445952Y-15726476D02*
X10426905Y-15755048D01*
X10426905Y-15755048D02*
X10407857Y-15774095D01*
X10407857Y-15774095D02*
X10388810Y-15783619D01*
X10626905Y-15726476D02*
X10645952Y-15726476D01*
X10645952Y-15726476D02*
X10665000Y-15736000D01*
X10665000Y-15736000D02*
X10674524Y-15745524D01*
X10674524Y-15745524D02*
X10684048Y-15764571D01*
X10684048Y-15764571D02*
X10693571Y-15802667D01*
X10693571Y-15802667D02*
X10693571Y-15850286D01*
X10693571Y-15850286D02*
X10684048Y-15888381D01*
X10684048Y-15888381D02*
X10674524Y-15907428D01*
X10674524Y-15907428D02*
X10665000Y-15916952D01*
X10665000Y-15916952D02*
X10645952Y-15926476D01*
X10645952Y-15926476D02*
X10626905Y-15926476D01*
X10626905Y-15926476D02*
X10607857Y-15916952D01*
X10607857Y-15916952D02*
X10598333Y-15907428D01*
X10598333Y-15907428D02*
X10588810Y-15888381D01*
X10588810Y-15888381D02*
X10579286Y-15850286D01*
X10579286Y-15850286D02*
X10579286Y-15802667D01*
X10579286Y-15802667D02*
X10588810Y-15764571D01*
X10588810Y-15764571D02*
X10598333Y-15745524D01*
X10598333Y-15745524D02*
X10607857Y-15736000D01*
X10607857Y-15736000D02*
X10626905Y-15726476D01*
X10817381Y-15726476D02*
X10836429Y-15726476D01*
X10836429Y-15726476D02*
X10855476Y-15736000D01*
X10855476Y-15736000D02*
X10865000Y-15745524D01*
X10865000Y-15745524D02*
X10874524Y-15764571D01*
X10874524Y-15764571D02*
X10884048Y-15802667D01*
X10884048Y-15802667D02*
X10884048Y-15850286D01*
X10884048Y-15850286D02*
X10874524Y-15888381D01*
X10874524Y-15888381D02*
X10865000Y-15907428D01*
X10865000Y-15907428D02*
X10855476Y-15916952D01*
X10855476Y-15916952D02*
X10836429Y-15926476D01*
X10836429Y-15926476D02*
X10817381Y-15926476D01*
X10817381Y-15926476D02*
X10798333Y-15916952D01*
X10798333Y-15916952D02*
X10788810Y-15907428D01*
X10788810Y-15907428D02*
X10779286Y-15888381D01*
X10779286Y-15888381D02*
X10769762Y-15850286D01*
X10769762Y-15850286D02*
X10769762Y-15802667D01*
X10769762Y-15802667D02*
X10779286Y-15764571D01*
X10779286Y-15764571D02*
X10788810Y-15745524D01*
X10788810Y-15745524D02*
X10798333Y-15736000D01*
X10798333Y-15736000D02*
X10817381Y-15726476D01*
X10969762Y-15926476D02*
X10969762Y-15793143D01*
X10969762Y-15812190D02*
X10979286Y-15802667D01*
X10979286Y-15802667D02*
X10998333Y-15793143D01*
X10998333Y-15793143D02*
X11026905Y-15793143D01*
X11026905Y-15793143D02*
X11045952Y-15802667D01*
X11045952Y-15802667D02*
X11055476Y-15821714D01*
X11055476Y-15821714D02*
X11055476Y-15926476D01*
X11055476Y-15821714D02*
X11065000Y-15802667D01*
X11065000Y-15802667D02*
X11084048Y-15793143D01*
X11084048Y-15793143D02*
X11112619Y-15793143D01*
X11112619Y-15793143D02*
X11131667Y-15802667D01*
X11131667Y-15802667D02*
X11141191Y-15821714D01*
X11141191Y-15821714D02*
X11141191Y-15926476D01*
X11236429Y-15926476D02*
X11236429Y-15793143D01*
X11236429Y-15812190D02*
X11245952Y-15802667D01*
X11245952Y-15802667D02*
X11265000Y-15793143D01*
X11265000Y-15793143D02*
X11293571Y-15793143D01*
X11293571Y-15793143D02*
X11312619Y-15802667D01*
X11312619Y-15802667D02*
X11322143Y-15821714D01*
X11322143Y-15821714D02*
X11322143Y-15926476D01*
X11322143Y-15821714D02*
X11331667Y-15802667D01*
X11331667Y-15802667D02*
X11350714Y-15793143D01*
X11350714Y-15793143D02*
X11379286Y-15793143D01*
X11379286Y-15793143D02*
X11398333Y-15802667D01*
X11398333Y-15802667D02*
X11407857Y-15821714D01*
X11407857Y-15821714D02*
X11407857Y-15926476D01*
X11765952Y-15716952D02*
X11594524Y-15974095D01*
X11990714Y-15726476D02*
X12009762Y-15726476D01*
X12009762Y-15726476D02*
X12028810Y-15736000D01*
X12028810Y-15736000D02*
X12038333Y-15745524D01*
X12038333Y-15745524D02*
X12047857Y-15764571D01*
X12047857Y-15764571D02*
X12057381Y-15802667D01*
X12057381Y-15802667D02*
X12057381Y-15850286D01*
X12057381Y-15850286D02*
X12047857Y-15888381D01*
X12047857Y-15888381D02*
X12038333Y-15907428D01*
X12038333Y-15907428D02*
X12028810Y-15916952D01*
X12028810Y-15916952D02*
X12009762Y-15926476D01*
X12009762Y-15926476D02*
X11990714Y-15926476D01*
X11990714Y-15926476D02*
X11971667Y-15916952D01*
X11971667Y-15916952D02*
X11962143Y-15907428D01*
X11962143Y-15907428D02*
X11952619Y-15888381D01*
X11952619Y-15888381D02*
X11943095Y-15850286D01*
X11943095Y-15850286D02*
X11943095Y-15802667D01*
X11943095Y-15802667D02*
X11952619Y-15764571D01*
X11952619Y-15764571D02*
X11962143Y-15745524D01*
X11962143Y-15745524D02*
X11971667Y-15736000D01*
X11971667Y-15736000D02*
X11990714Y-15726476D01*
X12143095Y-15907428D02*
X12152619Y-15916952D01*
X12152619Y-15916952D02*
X12143095Y-15926476D01*
X12143095Y-15926476D02*
X12133571Y-15916952D01*
X12133571Y-15916952D02*
X12143095Y-15907428D01*
X12143095Y-15907428D02*
X12143095Y-15926476D01*
X12228810Y-15745524D02*
X12238333Y-15736000D01*
X12238333Y-15736000D02*
X12257381Y-15726476D01*
X12257381Y-15726476D02*
X12305000Y-15726476D01*
X12305000Y-15726476D02*
X12324048Y-15736000D01*
X12324048Y-15736000D02*
X12333571Y-15745524D01*
X12333571Y-15745524D02*
X12343095Y-15764571D01*
X12343095Y-15764571D02*
X12343095Y-15783619D01*
X12343095Y-15783619D02*
X12333571Y-15812190D01*
X12333571Y-15812190D02*
X12219286Y-15926476D01*
X12219286Y-15926476D02*
X12343095Y-15926476D01*
X12514524Y-15793143D02*
X12514524Y-15926476D01*
X12466905Y-15716952D02*
X12419286Y-15859809D01*
X12419286Y-15859809D02*
X12543095Y-15859809D01*
X12657381Y-15726476D02*
X12676429Y-15726476D01*
X12676429Y-15726476D02*
X12695476Y-15736000D01*
X12695476Y-15736000D02*
X12705000Y-15745524D01*
X12705000Y-15745524D02*
X12714524Y-15764571D01*
X12714524Y-15764571D02*
X12724048Y-15802667D01*
X12724048Y-15802667D02*
X12724048Y-15850286D01*
X12724048Y-15850286D02*
X12714524Y-15888381D01*
X12714524Y-15888381D02*
X12705000Y-15907428D01*
X12705000Y-15907428D02*
X12695476Y-15916952D01*
X12695476Y-15916952D02*
X12676429Y-15926476D01*
X12676429Y-15926476D02*
X12657381Y-15926476D01*
X12657381Y-15926476D02*
X12638333Y-15916952D01*
X12638333Y-15916952D02*
X12628810Y-15907428D01*
X12628810Y-15907428D02*
X12619286Y-15888381D01*
X12619286Y-15888381D02*
X12609762Y-15850286D01*
X12609762Y-15850286D02*
X12609762Y-15802667D01*
X12609762Y-15802667D02*
X12619286Y-15764571D01*
X12619286Y-15764571D02*
X12628810Y-15745524D01*
X12628810Y-15745524D02*
X12638333Y-15736000D01*
X12638333Y-15736000D02*
X12657381Y-15726476D01*
X12800238Y-15745524D02*
X12809762Y-15736000D01*
X12809762Y-15736000D02*
X12828810Y-15726476D01*
X12828810Y-15726476D02*
X12876429Y-15726476D01*
X12876429Y-15726476D02*
X12895476Y-15736000D01*
X12895476Y-15736000D02*
X12905000Y-15745524D01*
X12905000Y-15745524D02*
X12914524Y-15764571D01*
X12914524Y-15764571D02*
X12914524Y-15783619D01*
X12914524Y-15783619D02*
X12905000Y-15812190D01*
X12905000Y-15812190D02*
X12790714Y-15926476D01*
X12790714Y-15926476D02*
X12914524Y-15926476D01*
X12990714Y-15726476D02*
X12990714Y-15764571D01*
X13066905Y-15726476D02*
X13066905Y-15764571D01*
X13329762Y-16002667D02*
X13320238Y-15993143D01*
X13320238Y-15993143D02*
X13301191Y-15964571D01*
X13301191Y-15964571D02*
X13291667Y-15945524D01*
X13291667Y-15945524D02*
X13282143Y-15916952D01*
X13282143Y-15916952D02*
X13272619Y-15869333D01*
X13272619Y-15869333D02*
X13272619Y-15831238D01*
X13272619Y-15831238D02*
X13282143Y-15783619D01*
X13282143Y-15783619D02*
X13291667Y-15755048D01*
X13291667Y-15755048D02*
X13301191Y-15736000D01*
X13301191Y-15736000D02*
X13320238Y-15707428D01*
X13320238Y-15707428D02*
X13329762Y-15697905D01*
X13396429Y-15745524D02*
X13405952Y-15736000D01*
X13405952Y-15736000D02*
X13425000Y-15726476D01*
X13425000Y-15726476D02*
X13472619Y-15726476D01*
X13472619Y-15726476D02*
X13491667Y-15736000D01*
X13491667Y-15736000D02*
X13501191Y-15745524D01*
X13501191Y-15745524D02*
X13510714Y-15764571D01*
X13510714Y-15764571D02*
X13510714Y-15783619D01*
X13510714Y-15783619D02*
X13501191Y-15812190D01*
X13501191Y-15812190D02*
X13386905Y-15926476D01*
X13386905Y-15926476D02*
X13510714Y-15926476D01*
X13716429Y-15926476D02*
X13716429Y-15726476D01*
X13802143Y-15926476D02*
X13802143Y-15821714D01*
X13802143Y-15821714D02*
X13792619Y-15802667D01*
X13792619Y-15802667D02*
X13773572Y-15793143D01*
X13773572Y-15793143D02*
X13745000Y-15793143D01*
X13745000Y-15793143D02*
X13725952Y-15802667D01*
X13725952Y-15802667D02*
X13716429Y-15812190D01*
X13925952Y-15926476D02*
X13906905Y-15916952D01*
X13906905Y-15916952D02*
X13897381Y-15907428D01*
X13897381Y-15907428D02*
X13887857Y-15888381D01*
X13887857Y-15888381D02*
X13887857Y-15831238D01*
X13887857Y-15831238D02*
X13897381Y-15812190D01*
X13897381Y-15812190D02*
X13906905Y-15802667D01*
X13906905Y-15802667D02*
X13925952Y-15793143D01*
X13925952Y-15793143D02*
X13954524Y-15793143D01*
X13954524Y-15793143D02*
X13973572Y-15802667D01*
X13973572Y-15802667D02*
X13983095Y-15812190D01*
X13983095Y-15812190D02*
X13992619Y-15831238D01*
X13992619Y-15831238D02*
X13992619Y-15888381D01*
X13992619Y-15888381D02*
X13983095Y-15907428D01*
X13983095Y-15907428D02*
X13973572Y-15916952D01*
X13973572Y-15916952D02*
X13954524Y-15926476D01*
X13954524Y-15926476D02*
X13925952Y-15926476D01*
X14106905Y-15926476D02*
X14087857Y-15916952D01*
X14087857Y-15916952D02*
X14078333Y-15897905D01*
X14078333Y-15897905D02*
X14078333Y-15726476D01*
X14259286Y-15916952D02*
X14240238Y-15926476D01*
X14240238Y-15926476D02*
X14202143Y-15926476D01*
X14202143Y-15926476D02*
X14183095Y-15916952D01*
X14183095Y-15916952D02*
X14173572Y-15897905D01*
X14173572Y-15897905D02*
X14173572Y-15821714D01*
X14173572Y-15821714D02*
X14183095Y-15802667D01*
X14183095Y-15802667D02*
X14202143Y-15793143D01*
X14202143Y-15793143D02*
X14240238Y-15793143D01*
X14240238Y-15793143D02*
X14259286Y-15802667D01*
X14259286Y-15802667D02*
X14268810Y-15821714D01*
X14268810Y-15821714D02*
X14268810Y-15840762D01*
X14268810Y-15840762D02*
X14173572Y-15859809D01*
X14345000Y-15916952D02*
X14364048Y-15926476D01*
X14364048Y-15926476D02*
X14402143Y-15926476D01*
X14402143Y-15926476D02*
X14421191Y-15916952D01*
X14421191Y-15916952D02*
X14430714Y-15897905D01*
X14430714Y-15897905D02*
X14430714Y-15888381D01*
X14430714Y-15888381D02*
X14421191Y-15869333D01*
X14421191Y-15869333D02*
X14402143Y-15859809D01*
X14402143Y-15859809D02*
X14373572Y-15859809D01*
X14373572Y-15859809D02*
X14354524Y-15850286D01*
X14354524Y-15850286D02*
X14345000Y-15831238D01*
X14345000Y-15831238D02*
X14345000Y-15821714D01*
X14345000Y-15821714D02*
X14354524Y-15802667D01*
X14354524Y-15802667D02*
X14373572Y-15793143D01*
X14373572Y-15793143D02*
X14402143Y-15793143D01*
X14402143Y-15793143D02*
X14421191Y-15802667D01*
X14497381Y-16002667D02*
X14506905Y-15993143D01*
X14506905Y-15993143D02*
X14525953Y-15964571D01*
X14525953Y-15964571D02*
X14535476Y-15945524D01*
X14535476Y-15945524D02*
X14545000Y-15916952D01*
X14545000Y-15916952D02*
X14554524Y-15869333D01*
X14554524Y-15869333D02*
X14554524Y-15831238D01*
X14554524Y-15831238D02*
X14545000Y-15783619D01*
X14545000Y-15783619D02*
X14535476Y-15755048D01*
X14535476Y-15755048D02*
X14525953Y-15736000D01*
X14525953Y-15736000D02*
X14506905Y-15707428D01*
X14506905Y-15707428D02*
X14497381Y-15697905D01*
M02*
