M48
; DRILL file {KiCad (7.0.0)} date Fri May 12 10:49:56 2023
; FORMAT={-:-/ absolute / metric / decimal}
; #@! TF.CreationDate,2023-05-12T10:49:56+02:00
; #@! TF.GenerationSoftware,Kicad,Pcbnew,(7.0.0)
; #@! TF.FileFunction,Plated,1,2,PTH
FMAT,2
METRIC
; #@! TA.AperFunction,Plated,PTH,ViaDrill
T1C0.400
; #@! TA.AperFunction,Plated,PTH,ComponentDrill
T2C0.800
; #@! TA.AperFunction,Plated,PTH,ComponentDrill
T3C1.000
; #@! TA.AperFunction,Plated,PTH,ComponentDrill
T4C1.016
; #@! TA.AperFunction,Plated,PTH,ComponentDrill
T5C1.500
; #@! TA.AperFunction,Plated,PTH,ComponentDrill
T6C1.520
; #@! TA.AperFunction,Plated,PTH,ComponentDrill
T7C6.100
%
G90
G05
T1
X115.5Y-100.8
X116.9Y-64.2
X117.1Y-57.1
X135.6Y-63.8
X137.0Y-67.6
X137.3Y-51.0
X138.41Y-68.81
X140.9Y-80.0
X141.0Y-98.6
X145.1Y-98.6
X147.2Y-88.6
X157.0Y-98.8
X167.26Y-122.0
T2
X122.9Y-57.8
X122.9Y-60.34
X122.9Y-62.88
X122.9Y-65.42
X123.0Y-41.6
X123.0Y-44.14
X123.0Y-46.68
X123.0Y-49.22
X130.52Y-57.8
X130.52Y-60.34
X130.52Y-62.88
X130.52Y-65.42
X130.62Y-41.6
X130.62Y-44.14
X130.62Y-46.68
X130.62Y-49.22
X160.55Y-92.05
X160.55Y-132.05
X169.4Y-84.5
X171.4Y-84.5
X173.4Y-84.5
X178.05Y-92.05
X178.05Y-132.05
T3
X111.54Y-82.8
X111.54Y-85.34
X114.08Y-82.8
X114.08Y-85.34
X116.62Y-82.8
X116.62Y-85.34
X119.16Y-82.8
X119.16Y-85.34
X121.7Y-82.8
X121.7Y-85.34
X124.24Y-82.8
X124.24Y-85.34
X126.78Y-82.8
X126.78Y-85.34
X129.32Y-82.8
X129.32Y-85.34
X131.86Y-82.8
X131.86Y-85.34
X134.4Y-82.8
X134.4Y-85.34
X175.87Y-76.35
X178.41Y-76.35
X180.95Y-76.35
X183.49Y-76.35
X186.03Y-76.35
X188.57Y-76.35
X191.11Y-76.35
T4
X103.97Y-46.966
X103.97Y-49.506
X103.97Y-52.046
X103.97Y-54.586
X103.97Y-57.126
X103.97Y-59.666
X103.97Y-62.206
X103.97Y-64.746
X103.97Y-67.286
X103.97Y-69.826
X103.97Y-73.89
X103.97Y-76.43
X103.97Y-78.97
X103.97Y-81.51
X103.97Y-84.05
X103.97Y-86.59
X103.97Y-89.13
X103.97Y-91.67
X103.97Y-96.75
X103.97Y-99.29
X103.97Y-101.83
X103.97Y-104.37
X103.97Y-106.91
X103.97Y-109.45
X103.97Y-111.99
X103.97Y-114.53
X103.97Y-122.15
X103.97Y-124.69
X106.51Y-122.15
X106.51Y-124.69
X109.05Y-122.15
X109.05Y-124.69
X111.59Y-122.15
X111.59Y-124.69
X114.13Y-122.15
X114.13Y-124.69
X116.67Y-122.15
X116.67Y-124.69
X119.21Y-122.15
X119.21Y-124.69
X121.75Y-122.15
X121.75Y-124.69
X124.29Y-91.797
X124.29Y-94.337
X124.29Y-122.15
X124.29Y-124.69
X126.83Y-91.797
X126.83Y-94.337
X126.83Y-122.15
X126.83Y-124.69
X129.37Y-91.797
X129.37Y-94.337
X129.37Y-122.15
X129.37Y-124.69
X131.91Y-122.15
X131.91Y-124.69
X134.45Y-122.15
X134.45Y-124.69
X136.99Y-122.15
X136.99Y-124.69
X139.53Y-122.15
X139.53Y-124.69
X142.07Y-122.15
X142.07Y-124.69
X144.61Y-122.15
X144.61Y-124.69
X147.15Y-122.15
X147.15Y-124.69
X152.23Y-56.11
X152.23Y-58.65
X152.23Y-61.19
X152.23Y-63.73
X152.23Y-66.27
X152.23Y-68.81
X152.23Y-71.35
X152.23Y-73.89
X152.23Y-78.97
X152.23Y-81.51
X152.23Y-84.05
X152.23Y-86.59
X152.23Y-89.13
X152.23Y-91.67
X152.23Y-94.21
X152.23Y-96.75
X152.23Y-101.83
X152.23Y-104.37
X152.23Y-106.91
X152.23Y-109.45
X152.23Y-111.99
X152.23Y-114.53
X152.23Y-117.07
X152.23Y-119.61
T5
X167.3Y-84.5
X175.5Y-84.5
T6
X193.6Y-84.66
X193.6Y-89.74
X193.6Y-95.66
X193.6Y-100.74
T7
X190.0Y-111.0
X190.0Y-126.0
T0
M30
